<?xml version="1.0" standalone="no"?>
<!DOCTYPE svg PUBLIC "-//W3C//DTD SVG 1.1//EN" "http://www.w3.org/Graphics/SVG/1.1/DTD/svg11.dtd" >
<svg xmlns="http://www.w3.org/2000/svg">
<metadata></metadata>
<defs>
<font id="aeroportalmedium" horiz-adv-x="482" >
<font-face units-per-em="1000" ascent="800" descent="-200" />
<missing-glyph horiz-adv-x="231" />
<glyph unicode="&#xd;" horiz-adv-x="500" />
<glyph unicode=" "  horiz-adv-x="231" />
<glyph unicode="&#x09;" horiz-adv-x="231" />
<glyph unicode="&#xa0;" horiz-adv-x="231" />
<glyph unicode="!" horiz-adv-x="214" d="M71 596h79v-435h-79v435zM110 -5q-20 0 -35.5 14.5t-15.5 34.5q0 22 15 37t35 15q22 0 37 -15t15 -36t-15.5 -35.5t-35.5 -14.5z" />
<glyph unicode="&#x22;" horiz-adv-x="270" d="M72 675h64l-41 -123h-52zM167 675h64l-40 -123h-52z" />
<glyph unicode="#" horiz-adv-x="499" d="M449 344h-72l-22 -123h65v-54h-75l-29 -167h-60l30 167h-121l-29 -167h-60l29 167h-63v54h72l23 123h-65v53h74l29 162h60l-29 -162h121l29 162h60l-30 -162h63v-53zM175 221h120l22 123h-120z" />
<glyph unicode="$" horiz-adv-x="527" d="M292 628v-68q42 -4 77.5 -16t61.5 -28l-29 -65q-26 17 -53.5 28.5t-56.5 15.5v-187q40 -4 72.5 -11.5t56 -23.5t36.5 -43t13 -70q0 -73 -45 -114.5t-133 -49.5v-68h-72v68q-52 5 -92.5 21t-70.5 39l32 69q28 -25 60 -41t71 -20v182q-81 9 -119.5 42t-38.5 104 q0 68 40 113t118 55v68h72zM292 63q54 5 76.5 27t22.5 68q0 40 -22 57.5t-77 23.5v-176zM142 394q0 -38 19 -53.5t59 -25.5v177q-42 -8 -60 -33t-18 -65z" />
<glyph unicode="%" horiz-adv-x="727" d="M402 118q0 26 9.5 49t26.5 40t39.5 27t48.5 10q25 0 48 -10t40 -27t27 -40t10 -49t-10 -48.5t-27 -39t-40 -26.5t-48 -10q-26 0 -48.5 10t-39.5 26.5t-26.5 39t-9.5 48.5zM449 118q0 -31 22.5 -53.5t54.5 -22.5t54.5 22.5t22.5 53.5q0 16 -6 30.5t-16.5 25t-24.5 16.5 t-30 6q-32 0 -54.5 -23t-22.5 -55zM182 -44l-42 28l390 604l43 -27zM310 425q0 -26 -10 -48.5t-26.5 -39t-39.5 -26.5t-48 -10q-26 0 -48.5 10t-39 26.5t-26.5 39t-10 48.5t10 49t26.5 39.5t39 26t48.5 9.5q25 0 48 -9.5t39.5 -26t26.5 -39.5t10 -49zM263 425q0 16 -6 30.5 t-16.5 25t-24.5 16.5t-30 6q-32 0 -54 -23t-22 -55t22 -54.5t54 -22.5t54.5 22.5t22.5 54.5z" />
<glyph unicode="&#x26;" horiz-adv-x="653" d="M594 187q-16 -25 -35 -48.5t-44 -45.5q17 -11 34 -21l34 -20l-31 -64q-29 16 -53 30t-45 29q-37 -23 -80.5 -37.5t-94.5 -14.5q-109 0 -170.5 48t-61.5 145q0 58 30 99.5t73 73.5q-22 44 -32 84.5t-10 81.5q0 27 8 52.5t26 45.5t46 32.5t69 12.5q40 0 68 -12.5t46 -32.5 t26.5 -45.5t8.5 -52.5q0 -26 -10.5 -49t-28 -43t-40 -37.5t-46.5 -32.5l-31 -20q69 -111 203 -210q29 24 55.5 56t50.5 68zM187 527q0 -29 7 -59t21 -61q22 15 42.5 29t36 28t24.5 29.5t9 33.5q0 15 -3.5 29t-11.5 25t-21.5 17.5t-33.5 6.5q-21 0 -34.5 -6.5t-21.5 -17.5 t-11 -25t-3 -29zM279 61q30 0 57.5 8t54.5 22q-67 51 -118 102.5t-86 104.5q-26 -21 -43.5 -48t-17.5 -62q0 -60 40.5 -93.5t112.5 -33.5z" />
<glyph unicode="'" horiz-adv-x="194" d="M76 675h64l-41 -123h-52z" />
<glyph unicode="(" horiz-adv-x="242" d="M41 278q0 107 11.5 176t33 108.5t53 55t71.5 15.5v-66q-21 0 -38 -11.5t-28.5 -43.5t-17.5 -88t-6 -146t6 -146t17.5 -88t28.5 -43.5t38 -11.5v-66q-40 0 -71.5 15t-53 55t-33 109t-11.5 176z" />
<glyph unicode=")" horiz-adv-x="242" d="M201 278q0 -107 -11.5 -176t-33.5 -109t-53.5 -55t-71.5 -15v66q21 0 38 11.5t29 43.5t18 88t6 146t-6 146t-18 88t-29 43.5t-38 11.5v66q40 0 71.5 -15.5t53.5 -55t33.5 -108.5t11.5 -176z" />
<glyph unicode="*" horiz-adv-x="433" d="M263 370l97 -113l-67 -49l-77 128l-78 -128l-68 49l98 113l-146 34l26 80l139 -58l-13 148h83l-12 -148l138 58l25 -80z" />
<glyph unicode="+" horiz-adv-x="397" d="M338 206h-107v-104h-64v104h-108v65h108v103h64v-103h107v-65z" />
<glyph unicode="," horiz-adv-x="214" d="M72 -52q10 11 18 25t8 22q-17 5 -28 17.5t-11 31.5q0 22 14.5 37t35.5 15q23 0 37.5 -16t14.5 -44q0 -29 -19 -58.5t-48 -49.5z" />
<glyph unicode="-" horiz-adv-x="398" d="M59 206v65h280v-65h-280z" />
<glyph unicode="." horiz-adv-x="214" d="M110 -6q-20 0 -35.5 15.5t-15.5 35.5q0 22 15 36.5t35 14.5q22 0 37 -14.5t15 -35.5q0 -22 -15.5 -37t-35.5 -15z" />
<glyph unicode="/" horiz-adv-x="328" d="M86 -72h-75l241 700h73z" />
<glyph unicode="0" horiz-adv-x="538" d="M265 -6q-59 0 -100 21.5t-66.5 61.5t-36.5 97t-11 128t11 126.5t36.5 94t66.5 59t100 20.5t100 -20.5t66.5 -59t36.5 -94t11 -126.5t-11 -128t-36.5 -97t-66.5 -61.5t-100 -21.5zM265 535q-40 0 -66 -15.5t-41.5 -45.5t-21.5 -73.5t-6 -98.5q0 -56 6 -100.5t21.5 -76 t41.5 -48.5t66 -17t66 17t41.5 48.5t21.5 76t6 100.5q0 55 -6 98.5t-21.5 73.5t-41.5 45.5t-66 15.5z" />
<glyph unicode="1" horiz-adv-x="303" d="M41 574q4 3 13 7.5t22 9t28.5 8t32.5 3.5q40 0 61.5 -21.5t21.5 -55.5v-525h-79v517q0 16 -14 16q-8 0 -18 -3.5t-19 -7.5q-11 -5 -21 -11l-28 63v0z" />
<glyph unicode="2" horiz-adv-x="494" d="M431 66v-66h-319q-26 0 -44.5 17t-18.5 42q0 68 22.5 111.5t57 73t74 49t74 38t57 41.5t22.5 59q0 50 -33.5 76.5t-94.5 26.5q-35 0 -69 -9.5t-67 -34.5l-29 63q13 10 32.5 18.5t41 15.5t45 11t46.5 4q98 0 153 -44.5t55 -126.5q0 -52 -23 -84.5t-57 -54.5t-74 -39.5 t-74 -39.5t-57 -54t-23 -84q0 -9 8 -9h295z" />
<glyph unicode="3" horiz-adv-x="460" d="M397 436q0 -44 -21 -77.5t-60 -47.5q42 -16 65.5 -54t23.5 -84q0 -85 -54 -132t-153 -47q-21 0 -44 3.5t-45 10t-42 15.5t-34 19l29 66q12 -10 28.5 -18.5t35.5 -15t37.5 -10.5t34.5 -4q62 0 95 29.5t33 83.5q0 21 -6.5 40t-19 34t-30.5 23.5t-40 8.5h-55v67h55 q45 0 66.5 26t21.5 64q0 48 -29.5 73.5t-91.5 25.5q-32 0 -66.5 -13.5t-57.5 -32.5l-30 64q28 21 70 35t84 14q98 0 149 -44t51 -122z" />
<glyph unicode="4" horiz-adv-x="483" d="M432 127h-56v-130h-79v130h-219q-28 0 -44 16t-16 38q0 24 12 42l235 348q8 12 22.5 18t31.5 6q25 0 41 -15t16 -39v-347h56v-67zM297 194v298l-200 -298h200z" />
<glyph unicode="5" horiz-adv-x="500" d="M132 279q-28 0 -45.5 16t-17.5 44v198q0 28 17.5 43.5t45.5 15.5h295v-66h-269q-10 0 -10 -10v-164q0 -10 10 -10h85q94 0 147.5 -40t53.5 -127q0 -92 -55.5 -138t-159.5 -46q-23 0 -47 3.5t-47 10t-43 15.5t-33 19l29 63q33 -26 69.5 -36t71.5 -10q136 0 136 119 q0 48 -30.5 74t-90.5 26h-112v0z" />
<glyph unicode="6" horiz-adv-x="527" d="M264 359q54 0 92.5 -13.5t63 -37.5t36 -57.5t11.5 -73.5t-11.5 -73.5t-36 -57.5t-63 -37.5t-92.5 -13.5t-93 13.5t-64 37.5t-36.5 57.5t-11.5 73.5v206q0 60 14.5 102t41.5 68t66 37.5t88 11.5q22 0 46.5 -4t47.5 -11t42.5 -15.5t33.5 -18.5l-30 -63q-32 25 -68.5 34.5 t-71.5 9.5q-31 0 -55.5 -7t-41 -24t-25.5 -46t-9 -74v-61q46 37 126 37zM264 60q70 0 97.5 33.5t27.5 83.5q0 25 -6.5 46t-21 36.5t-38.5 24.5t-59 9q-36 0 -60 -9t-38.5 -24.5t-21 -36.5t-6.5 -46t6.5 -46.5t21 -37t38.5 -24.5t60 -9z" />
<glyph unicode="7" horiz-adv-x="449" d="M13 530v66h355q28 0 44 -14t16 -38q0 -11 -3 -20.5t-9 -20.5l-267 -503h-81l282 530h-337z" />
<glyph unicode="8" horiz-adv-x="513" d="M439 433q0 -38 -15.5 -69t-47.5 -47q42 -18 62 -55t20 -85q0 -40 -11.5 -73.5t-36 -58t-63.5 -38t-93 -13.5t-93 13.5t-64 38t-36.5 58t-11.5 73.5q0 48 20 85t62 55q-31 15 -47 46.5t-16 69.5q0 37 10.5 68.5t33 53.5t57.5 34.5t85 12.5t85 -12.5t57.5 -34.5t32.5 -53.5 t10 -68.5zM148 433q0 -42 23.5 -63.5t82.5 -21.5t82.5 21.5t23.5 63.5q0 45 -22.5 73.5t-83.5 28.5q-31 0 -51.5 -7.5t-32.5 -21t-17 -32.5t-5 -41zM254 60q35 0 59 9t38.5 24.5t20.5 37t6 46.5q0 49 -27 76.5t-97 27.5q-71 0 -98 -27.5t-27 -76.5q0 -25 6 -46.5t20.5 -37 t38.5 -24.5t60 -9z" />
<glyph unicode="9" horiz-adv-x="527" d="M257 602q55 0 93.5 -14t63.5 -40t36.5 -62.5t11.5 -81.5v-206q0 -61 -14.5 -100t-42 -62t-66.5 -32t-88 -9q-22 0 -46 3.5t-47 10t-43 15t-34 18.5l32 67q32 -26 67.5 -37.5t70.5 -11.5q31 0 55.5 5t41.5 20t25.5 42t8.5 71v44q-23 -17 -53 -25.5t-72 -8.5 q-54 0 -93 14.5t-63.5 40.5t-36 62t-11.5 79q0 45 11.5 81.5t36 62.5t63.5 40t93 14zM257 274q36 0 60 10t38.5 27t20.5 41t6 52q0 29 -6 53t-20.5 41.5t-38.5 27t-60 9.5q-35 0 -59 -9.5t-38.5 -27t-21 -41.5t-6.5 -53q0 -28 6.5 -52t21 -41t38.5 -27t59 -10z" />
<glyph unicode=":" horiz-adv-x="214" d="M110 -6q-20 0 -35.5 15.5t-15.5 35.5q0 22 15 36.5t35 14.5q22 0 37 -14.5t15 -35.5q0 -22 -15.5 -37t-35.5 -15zM110 269q-20 0 -35.5 15t-15.5 35q0 22 15 37t35 15q22 0 37 -15.5t15 -35.5t-15.5 -35.5t-35.5 -15.5z" />
<glyph unicode=";" horiz-adv-x="214" d="M111 269q-22 0 -37 15t-15 35q0 22 15 37t35 15q22 0 37 -15.5t15 -35.5t-15 -35.5t-35 -15.5zM72 -52q10 11 18 25t8 22q-17 5 -28 17.5t-11 31.5q0 22 14.5 37t35.5 15q23 0 37.5 -16t14.5 -44q0 -29 -19 -58.5t-48 -49.5z" />
<glyph unicode="&#x3c;" horiz-adv-x="321" d="M266 337l-158 -99l158 -99v-65l-219 136v56l219 136v-65z" />
<glyph unicode="=" horiz-adv-x="398" d="M59 267v64h280v-64h-280zM339 146h-280v64h280v-64z" />
<glyph unicode="&#x3e;" horiz-adv-x="321" d="M266 266v-56l-219 -136v65l158 99l-158 99v66z" />
<glyph unicode="?" horiz-adv-x="450" d="M202 -6q-20 0 -35.5 15t-15.5 35q0 22 15 36.5t35 14.5q22 0 37 -14.5t15 -35.5t-15.5 -36t-35.5 -15zM198 602q98 0 150.5 -45.5t52.5 -125.5q0 -38 -12 -64.5t-29.5 -46t-38 -33.5t-38 -26.5t-29.5 -25.5t-12 -30v-44h-80v39q0 31 12 52.5t29.5 37.5t38.5 28.5 t38.5 27.5t29.5 33.5t12 46.5q0 108 -124 108q-35 0 -62 -9t-60 -35l-29 63q27 20 66 34.5t85 14.5z" />
<glyph unicode="@" horiz-adv-x="697" d="M334 549q125 0 195 -73t70 -223q0 -92 -23.5 -131t-72.5 -39q-23 0 -40.5 9.5t-28.5 30.5q-33 -45 -100 -45q-66 0 -100 41t-34 129t34 129t100 41t100 -39.5t36 -126.5v-5q0 -64 8 -87.5t25 -23.5q20 0 27 25t7 92q0 125 -53 183.5t-150 58.5q-96 0 -148.5 -58.5 t-52.5 -183.5q0 -126 52.5 -188t148.5 -62q71 0 126 38l24 -51q-65 -39 -150 -39q-123 0 -193 76t-70 226q0 149 70 222.5t193 73.5zM334 131q39 0 56 27t18 89v5q-1 60 -18.5 86.5t-55.5 26.5t-55.5 -27t-17.5 -90t17.5 -90t55.5 -27z" />
<glyph unicode="A" horiz-adv-x="531" d="M386 173h-238l-34 -173h-79l101 503q10 50 43.5 78.5t88.5 28.5q53 0 86.5 -28.5t43.5 -78.5l101 -503h-78zM373 240l-48 243q-7 26 -20 42.5t-37 16.5q-26 0 -39.5 -16.5t-18.5 -42.5l-49 -243h212z" />
<glyph unicode="B" horiz-adv-x="529" d="M400 322q42 -19 62 -56.5t20 -85.5q0 -82 -48.5 -131t-158.5 -49h-138q-32 0 -51 19.5t-19 51.5v462q0 32 19 52t51 20h138q51 0 86.5 -11.5t58 -33t33 -52t10.5 -68.5q0 -39 -16 -70.5t-47 -47.5zM275 353q60 0 84 22t24 65q0 45 -23 71t-85 26h-117q-10 0 -10 -10v-174 h127zM275 67q36 0 60 8t38.5 23t21 36t6.5 46q0 49 -27.5 77.5t-98.5 28.5h-127v-209q0 -10 10 -10h117z" />
<glyph unicode="C" horiz-adv-x="526" d="M47 306q0 160 66 232t195 72q56 0 103.5 -20t76.5 -43l-30 -65q-12 12 -29 23t-36.5 19.5t-41.5 13.5t-43 5q-89 0 -134.5 -55t-45.5 -182q0 -129 45.5 -186.5t134.5 -57.5q44 0 85 18.5t65 40.5l30 -64q-29 -23 -76.5 -43t-103.5 -20q-129 0 -195 74t-66 238z" />
<glyph unicode="D" horiz-adv-x="563" d="M136 0q-32 0 -50.5 20t-18.5 52v460q0 32 18.5 52.5t50.5 20.5h118q128 0 194.5 -73t66.5 -226q0 -154 -66.5 -230t-194.5 -76h-118zM157 537q-10 0 -10 -10v-450q0 -10 10 -10h97q181 0 181 239q0 121 -45.5 176t-135.5 55h-97z" />
<glyph unicode="E" horiz-adv-x="493" d="M447 0h-311q-32 0 -50.5 20t-18.5 52v462q0 32 18.5 51.5t50.5 19.5h311v-68h-290q-10 0 -10 -10v-174h247v-67h-247v-209q0 -10 10 -10h290v-67z" />
<glyph unicode="F" horiz-adv-x="450" d="M67 0v534q0 32 18.5 51.5t50.5 19.5h310v-68h-289q-10 0 -10 -10v-174h247v-67h-247v-286h-80z" />
<glyph unicode="G" horiz-adv-x="540" d="M422 300q29 0 49.5 -18t20.5 -53v-123q0 -32 -12 -53.5t-42 -34.5q-26 -11 -60 -17.5t-70 -6.5q-129 0 -195 74t-66 238q0 160 66 232t195 72q56 0 103 -20t78 -43l-33 -64q-23 23 -64 41.5t-84 18.5q-89 0 -134.5 -55t-45.5 -182q0 -129 45.5 -186.5t134.5 -57.5 q26 0 54.5 4.5t48.5 12.5v143q0 10 -10 10h-126v68h147v0z" />
<glyph unicode="H" horiz-adv-x="559" d="M419 252h-271v-252h-81v605h81v-286h271v286h80v-605h-80v252z" />
<glyph unicode="I" horiz-adv-x="242" d="M167 0h-80v605h80v-605z" />
<glyph unicode="J" horiz-adv-x="255" d="M-8 -112q19 6 38 19.5t34.5 33.5t25 47t9.5 60v557h81v-547q0 -57 -16.5 -97.5t-40.5 -68.5t-51.5 -45t-49.5 -27z" />
<glyph unicode="K" horiz-adv-x="538" d="M329 286q79 -30 114.5 -102.5t35.5 -183.5h-81q0 129 -53.5 190.5t-169.5 61.5h-27v-252h-80v605h80v-286h27q118 0 170.5 70t52.5 216h81q0 -124 -35.5 -204.5t-114.5 -114.5z" />
<glyph unicode="L" horiz-adv-x="459" d="M447 0h-310q-32 0 -51 20t-19 52v533h81v-528q0 -10 10 -10h289v-67z" />
<glyph unicode="M" horiz-adv-x="721" d="M361 173q11 0 16 15l123 361q10 29 29.5 45.5t53.5 16.5q33 0 53 -20t20 -53v-538h-81v485q0 8 -7 8q-6 0 -8 -7l-112 -321q-11 -31 -30.5 -48.5t-56.5 -17.5q-36 0 -55.5 17.5t-30.5 48.5l-112 323q-3 6 -9 6q-7 0 -7 -7v-487h-80v538q0 33 19 53t54 20q33 0 53 -16.5 t30 -45.5l122 -361q5 -15 16 -15z" />
<glyph unicode="N" horiz-adv-x="593" d="M164 503q-3 6 -9 6q-8 0 -8 -7v-502h-80v538q0 33 20.5 53t54.5 20q35 0 53.5 -15.5t30.5 -41.5l209 -451q3 -7 9 -7q8 0 8 8v501h81v-538q0 -34 -20.5 -53.5t-55.5 -19.5t-53.5 15.5t-30.5 41.5z" />
<glyph unicode="O" horiz-adv-x="581" d="M290 -6q-125 0 -184 80.5t-59 231.5q0 149 59 226.5t184 77.5t183 -77.5t58 -226.5q0 -151 -58 -231.5t-183 -80.5zM290 543q-87 0 -124.5 -59.5t-37.5 -177.5t37.5 -181t124.5 -63t124.5 63t37.5 181t-37.5 177.5t-124.5 59.5z" />
<glyph unicode="P" horiz-adv-x="521" d="M482 425q0 -82 -48.5 -131t-158.5 -49h-127v-245h-81v532q0 32 19 52.5t51 20.5h138q110 0 158.5 -49t48.5 -131zM401 425q0 25 -6.5 45.5t-21 35.5t-38.5 23t-60 8h-117q-10 0 -10 -10v-214h127q36 0 60 8t38.5 23t21 35.5t6.5 45.5z" />
<glyph unicode="Q" horiz-adv-x="605" d="M429 27q29 -17 45 -38l-39 -68q-20 34 -55.5 53.5t-77.5 19.5q-125 0 -184 80.5t-59 231.5q0 149 58.5 226.5t183.5 77.5t184 -77.5t59 -226.5q0 -103 -28 -173.5t-87 -105.5zM139 306q0 -118 37.5 -181t124.5 -63t124.5 63t37.5 181t-37.5 177.5t-124.5 59.5 t-124.5 -59.5t-37.5 -177.5z" />
<glyph unicode="R" horiz-adv-x="541" d="M392 274q45 -23 67.5 -66.5t22.5 -100.5v-107h-81v101q0 73 -34.5 108.5t-97.5 35.5h-122v-245h-80v533q0 32 18.5 52t50.5 20h138q110 0 159 -49t49 -131q0 -51 -20.5 -91.5t-69.5 -59.5zM147 313h127q72 0 99.5 30.5t27.5 81.5t-27.5 81.5t-99.5 30.5h-117 q-10 0 -10 -10v-214z" />
<glyph unicode="S" horiz-adv-x="531" d="M312 337q39 -4 71 -14t55 -29.5t35.5 -49t12.5 -72.5q0 -82 -60.5 -130t-165.5 -48q-72 0 -123.5 16.5t-89.5 46.5l34 72q31 -30 76.5 -48t100.5 -18q147 0 147 109q0 43 -23 67t-75 28l-76 6q-88 7 -133.5 48t-45.5 116q0 38 14.5 69.5t41.5 54.5t65.5 36t85.5 13 q54 0 105 -14t83 -34l-31 -66q-32 23 -72 35t-85 12q-61 0 -93.5 -29t-32.5 -77q0 -44 27.5 -67t76.5 -27l75 -6v0z" />
<glyph unicode="T" horiz-adv-x="490" d="M470 537h-185v-537h-80v537h-186v68h451v-68z" />
<glyph unicode="U" horiz-adv-x="558" d="M282 -6q-99 0 -157 53.5t-58 151.5v406h81v-399q0 -75 35.5 -109.5t98.5 -34.5t100 34.5t37 109.5v399h80v-406q0 -98 -56 -151.5t-161 -53.5z" />
<glyph unicode="V" horiz-adv-x="538" d="M271 -6q-55 0 -88 28.5t-43 78.5l-101 504h79l96 -484q5 -26 18 -42t39 -16q24 0 38.5 16t19.5 42l95 484h79l-102 -504q-11 -50 -43.5 -78.5t-86.5 -28.5z" />
<glyph unicode="W" horiz-adv-x="922" d="M850 199q0 -97 -56 -151t-162 -54q-57 0 -103 21t-69 65q-23 -45 -69 -65.5t-109 -20.5q-49 0 -88.5 14t-67.5 40t-43.5 64.5t-15.5 86.5v406h81v-399q0 -74 35.5 -109t98.5 -35t100 35t37 109v399h81v-399q0 -74 35 -109t97 -35q63 0 100 35t37 109v399h81v-406z" />
<glyph unicode="X" horiz-adv-x="558" d="M499 0h-81v107q0 74 -36 109.5t-97 35.5q-63 0 -100 -35t-37 -110v-107h-81v114q0 60 23.5 105.5t73.5 66.5q-49 23 -73 67.5t-24 103.5v148h81v-123q0 -163 133 -163q137 0 137 163v123h81v-148q0 -60 -23.5 -105t-72.5 -67q48 -21 72 -66t24 -105v-114z" />
<glyph unicode="Y" horiz-adv-x="550" d="M491 159q0 -80 -54.5 -122.5t-164.5 -42.5q-44 0 -79 7.5t-61 16.5q-30 11 -54 24l29 65q23 -13 49 -23q23 -8 52.5 -15t63.5 -7q72 0 105 25.5t33 75.5v46q-26 -20 -60 -29t-82 -9q-96 0 -152.5 52.5t-56.5 152.5v229h80q0 -56 0.5 -111t0.5 -111q0 -75 35 -110t98 -35 q31 0 56 5t43 18t28 36t10 58v250h81v-446z" />
<glyph unicode="Z" horiz-adv-x="542" d="M124 67h356v-67h-377q-28 0 -44.5 16.5t-16.5 37.5q0 26 15 44l346 439h-351v68h371q28 0 45.5 -16t17.5 -38q0 -24 -15 -43z" />
<glyph unicode="[" horiz-adv-x="254" d="M138 67q0 -40 24 -59t67 -19v-66q-81 0 -125.5 36t-44.5 108v422q0 72 44.5 108t125.5 36v-66q-43 0 -67 -19t-24 -59v-422v0z" />
<glyph unicode="\" horiz-adv-x="328" d="M85 628l240 -700h-74l-240 700h74z" />
<glyph unicode="]" horiz-adv-x="254" d="M122 489q0 38 -23.5 58t-67.5 20v66q81 0 125.5 -36t44.5 -108v-422q0 -72 -44.5 -108t-125.5 -36v66q43 0 67 19t24 59v422z" />
<glyph unicode="^" horiz-adv-x="502" d="M339 340l-85 173l-86 -173h-67l125 245h57l123 -245h-67z" />
<glyph unicode="_" horiz-adv-x="250" d="M250 -97h-250v64h250v-64z" />
<glyph unicode="`" horiz-adv-x="502" d="M151 681h73l79 -123h-64z" />
<glyph unicode="a" d="M215 -5q-51 0 -86 10.5t-56.5 30t-31.5 46.5t-10 59t10 58.5t31.5 45.5t56.5 29.5t86 10.5q21 0 43 -2t40 -4q21 -3 41 -6v38q0 109 -125 109q-34 0 -61.5 -9t-60.5 -34l-28 62q27 20 66.5 34t84.5 14q99 0 151 -43.5t52 -126.5v-140q0 -55 -15.5 -90t-42.5 -55.5 t-64.5 -28.5t-80.5 -8zM339 213q-9 2 -42.5 5.5t-81.5 3.5q-57 0 -80.5 -20.5t-23.5 -59.5q0 -82 104 -82q66 0 95 27t29 84v42z" />
<glyph unicode="b" horiz-adv-x="501" d="M449 241q0 -119 -49.5 -183t-145.5 -64q-100 0 -145.5 64t-45.5 183v417h78v-224q24 32 54 42.5t67 10.5q90 0 138.5 -63.5t48.5 -182.5zM370 241q0 33 -4 65.5t-16.5 58t-35 41t-59.5 15.5t-59.5 -15.5t-34.5 -41t-16 -58t-4 -65.5q0 -34 3 -66.5t14 -58t34 -41 t62 -15.5q37 0 60 15.5t35.5 41t16.5 58t4 66.5z" />
<glyph unicode="c" horiz-adv-x="447" d="M47 241q0 119 53 182.5t163 63.5q44 0 77.5 -13.5t62.5 -34.5l-32 -64q-22 20 -49.5 33t-58.5 13q-72 0 -104.5 -46t-32.5 -134t32.5 -134.5t104.5 -46.5q31 0 58.5 13.5t49.5 33.5l32 -64q-28 -21 -62 -35t-78 -14q-110 0 -163 64t-53 183z" />
<glyph unicode="d" horiz-adv-x="498" d="M234 487q37 0 67 -11.5t53 -41.5v224h80v-417q0 -119 -46 -183t-146 -64q-97 0 -146 64t-49 183t48 182.5t139 63.5zM242 60q40 0 62.5 15.5t33.5 41t13.5 58t2.5 66.5q0 33 -4 65.5t-16 58t-34.5 41t-59.5 15.5t-59.5 -15.5t-34.5 -41t-16 -58t-4 -65.5q0 -34 4 -66.5 t16.5 -58t35.5 -41t60 -15.5z" />
<glyph unicode="e" horiz-adv-x="487" d="M420 56q-35 -31 -72.5 -46t-90.5 -15q-103 0 -156.5 62.5t-53.5 183.5q0 116 55 181t149 65q50 0 85 -13.5t57 -35t32 -47.5t10 -51q0 -28 -7 -53.5t-25.5 -44.5t-52.5 -30.5t-88 -11.5q-30 0 -55 2t-43 5q-21 4 -38 8q3 -75 37 -114.5t96 -39.5q36 0 66 12.5t64 44.5z M251 421q-31 0 -53.5 -11.5t-37.5 -31.5t-23 -46t-10 -54q19 -4 40 -7q18 -2 42 -4t51 -2q31 0 50 5.5t29.5 15t14 23.5t3.5 31q0 15 -5 29.5t-17 26t-32.5 18.5t-51.5 7z" />
<glyph unicode="f" horiz-adv-x="258" d="M243 598q-49 0 -68 -28t-20 -88h114v-66h-114v-416h-80v416h-42v66h42q2 91 42 136t126 45q20 0 45.5 -5t50.5 -16l-27 -62q-39 18 -69 18z" />
<glyph unicode="g" horiz-adv-x="497" d="M355 45q-29 -50 -121 -50q-91 0 -139 63.5t-48 182.5t49 182.5t146 63.5q100 0 145.5 -63.5t45.5 -182.5v-240q0 -78 -47 -120t-146 -42q-39 0 -69 7.5t-50 16.5q-24 11 -42 25l27 62q17 -12 38 -22q18 -8 42.5 -15t53.5 -7q61 0 87.5 26.5t27.5 76.5v36zM240 60 q37 0 59.5 15.5t34.5 41t16 58t4 66.5q0 33 -2.5 65.5t-14 58t-34 41t-61.5 15.5q-37 0 -60 -15.5t-35.5 -41t-16.5 -58t-4 -65.5q0 -34 4 -66.5t16 -58t34.5 -41t59.5 -15.5z" />
<glyph unicode="h" horiz-adv-x="505" d="M260 487q39 0 72.5 -13.5t57.5 -37.5t38 -58t14 -75v-303h-80v296q0 61 -29 93t-78 32q-50 0 -79 -32t-29 -93v-296h-80v658h80v-221q19 23 47.5 36.5t65.5 13.5z" />
<glyph unicode="i" horiz-adv-x="237" d="M161 -10q-45 13 -65 45.5t-20 83.5v363h79v-367q0 -23 7.5 -39t27.5 -25zM116 542q-20 0 -34.5 14.5t-14.5 33.5q0 20 14.5 34.5t33.5 14.5q20 0 34.5 -14t14.5 -34t-14 -34.5t-34 -14.5z" />
<glyph unicode="j" horiz-adv-x="219" d="M-25 -112q18 6 36.5 17t34 27.5t25 40t9.5 56.5v453h79v-444q0 -56 -16.5 -93t-40.5 -61t-50.5 -38t-47.5 -22zM119 542q-20 0 -34.5 14.5t-14.5 33.5q0 20 14.5 34.5t33.5 14.5q21 0 35 -14t14 -34t-14 -34.5t-34 -14.5z" />
<glyph unicode="k" horiz-adv-x="484" d="M421 441q0 -69 -25 -118.5t-76 -70.5q52 -23 76.5 -70t24.5 -117v-65h-79v58q0 46 -10.5 77t-30 50t-47 27t-62.5 8h-46v-220h-79v658h79v-371h46q40 0 68.5 8t46.5 27t26.5 50t8.5 76v34h79v-41v0z" />
<glyph unicode="l" horiz-adv-x="227" d="M153 -9q-45 12 -65.5 44.5t-20.5 83.5v539h79v-543q0 -23 7.5 -39t26.5 -25l-27 -60v0z" />
<glyph unicode="m" horiz-adv-x="807" d="M542 487q42 0 76 -13.5t58.5 -37.5t38 -58t13.5 -75v-303h-79v296q0 61 -29 93t-78 32q-50 0 -79 -32t-29 -93v-296h-80v296q0 61 -29 93t-79 32t-79 -32t-29 -93v-296h-79v303q0 83 48 133.5t139 50.5q48 0 87 -21.5t59 -63.5q20 42 59 63.5t91 21.5z" />
<glyph unicode="n" horiz-adv-x="498" d="M247 487q42 0 76 -13.5t59 -37.5t38.5 -58t13.5 -75v-303h-79v296q0 61 -29.5 93t-78.5 32q-50 0 -79.5 -32t-29.5 -93v-296h-79v303q0 83 48.5 133.5t139.5 50.5z" />
<glyph unicode="o" horiz-adv-x="499" d="M247 -6q-100 0 -150 64t-50 183t50 182.5t150 63.5t149.5 -63.5t49.5 -182.5t-49.5 -183t-149.5 -64zM247 421q-63 0 -92 -46t-29 -134t29 -134.5t92 -46.5t91.5 46.5t28.5 134.5t-28.5 134t-91.5 46z" />
<glyph unicode="p" horiz-adv-x="497" d="M258 -6q-37 0 -67 10.5t-53 42.5v-202h-79v396q0 119 45.5 182.5t145.5 63.5q97 0 146 -63.5t49 -182.5t-48 -183t-139 -64zM250 421q-39 0 -61.5 -15.5t-34 -41t-14 -58t-2.5 -65.5q0 -34 4 -66.5t16 -58t34.5 -41t59.5 -15.5t59.5 15.5t34.5 41t16 58t4 66.5 q0 33 -4 65.5t-16.5 58t-35.5 41t-60 15.5z" />
<glyph unicode="q" horiz-adv-x="497" d="M234 -6q-91 0 -139 64t-48 183t49 182.5t146 63.5q100 0 145.5 -63.5t45.5 -182.5v-396h-80v202q-23 -32 -52.5 -42.5t-66.5 -10.5zM242 421q-37 0 -60 -15.5t-35.5 -41t-16.5 -58t-4 -65.5q0 -34 4 -66.5t16 -58t34.5 -41t59.5 -15.5t59.5 15.5t34.5 41t15.5 58 t3.5 66.5q0 33 -2.5 65.5t-13.5 58t-33.5 41t-61.5 15.5z" />
<glyph unicode="r" horiz-adv-x="328" d="M310 402q-16 9 -32.5 14t-30.5 5q-49 0 -78.5 -32.5t-29.5 -92.5v-296h-80v303q0 83 48.5 133.5t139.5 50.5q21 0 46.5 -7.5t45.5 -18.5z" />
<glyph unicode="s" d="M284 273q31 -3 58.5 -10t47 -21.5t31 -38.5t11.5 -61q0 -69 -53.5 -108.5t-145.5 -39.5q-56 0 -101.5 15t-84.5 45l31 66q66 -60 153 -60q60 0 91.5 20.5t31.5 61.5q0 59 -74 65l-75 7q-152 13 -152 131q0 66 49 104t131 38q42 0 83.5 -12t76.5 -32l-27 -61 q-32 22 -65.5 31t-67.5 9q-49 0 -75 -20t-26 -57q0 -30 18.5 -45.5t60.5 -19.5l73 -7v0z" />
<glyph unicode="t" horiz-adv-x="334" d="M203 -5q-65 0 -102.5 37t-37.5 95v469h80v-114h140v-66h-140v-290q0 -31 17 -48t43 -17q17 0 32 3t27 8q14 5 26 12l24 -60q-14 -9 -31 -15q-14 -5 -34 -9.5t-44 -4.5z" />
<glyph unicode="u" horiz-adv-x="501" d="M251 -6q-88 0 -138 50.5t-50 134.5v303h79v-296q0 -61 29.5 -93.5t79.5 -32.5q48 0 77.5 32.5t29.5 93.5v296h79v-303q0 -84 -47.5 -134.5t-138.5 -50.5z" />
<glyph unicode="v" horiz-adv-x="469" d="M238 -5q-53 0 -85.5 28.5t-42.5 77.5l-77 381h77l72 -363q5 -26 18.5 -42t37.5 -16q26 0 39 16t18 42l72 363h72l-73 -381q-10 -49 -42 -77.5t-86 -28.5z" />
<glyph unicode="w" horiz-adv-x="816" d="M737 482v-303q0 -84 -47.5 -134t-138.5 -50q-48 0 -87.5 21t-59.5 64q-20 -43 -59 -64t-90 -21q-42 0 -76.5 13t-59 37t-38.5 58t-14 76v303h79v-296q0 -61 29.5 -93.5t79.5 -32.5q49 0 78.5 32.5t29.5 93.5v296h79v-296q0 -61 29.5 -93.5t79.5 -32.5q48 0 77.5 32.5 t29.5 93.5v296h79z" />
<glyph unicode="x" horiz-adv-x="506" d="M443 405q0 -52 -21.5 -93t-68.5 -61q48 -20 69 -61t21 -93v-97h-80v90q0 60 -29 92.5t-79 32.5t-79 -32.5t-29 -92.5v-90h-80v97q0 51 23 92.5t70 61.5q-48 20 -70.5 61t-22.5 93v77h80v-70q0 -61 29 -93t79 -32t79 32t29 93v70h80v-77v0z" />
<glyph unicode="y" horiz-adv-x="505" d="M442 482v-481q0 -78 -47 -120t-147 -42q-39 0 -69 7.5t-50 16.5q-24 11 -41 25l27 62q17 -12 38 -22q18 -8 42 -15t53 -7q60 0 87.5 27t27.5 82v19q-19 -17 -48 -28t-66 -11q-84 0 -133 50t-49 134v303h79v-296q0 -61 29 -93.5t79 -32.5q33 0 54 8.5t33 24.5t16.5 39.5 t4.5 54.5v295h80z" />
<glyph unicode="z" horiz-adv-x="431" d="M378 66v-66h-284q-28 0 -44 16t-16 37q0 11 3 22t11 21l252 319h-260v67h278q28 0 45.5 -16t17.5 -38q0 -12 -4.5 -23t-11.5 -19l-251 -320h264z" />
<glyph unicode="{" horiz-adv-x="242" d="M17 309q26 2 41.5 16t15.5 37v79q0 56 10 93t28.5 59t46 31t62.5 9v-66q-33 0 -50.5 -24.5t-17.5 -87.5v-76q0 -48 -16.5 -72t-45.5 -29q30 -5 46 -28.5t16 -72.5v-76q0 -63 17.5 -87.5t50.5 -24.5v-66q-35 0 -62.5 9t-46 30.5t-28.5 58.5t-10 93v80q0 23 -15.5 37 t-41.5 16v62z" />
<glyph unicode="|" horiz-adv-x="179" d="M125 -72h-71v700h71v-700z" />
<glyph unicode="}" horiz-adv-x="242" d="M225 247q-25 -2 -40.5 -16t-15.5 -37v-80q0 -56 -10 -93t-29 -58.5t-46.5 -30.5t-62.5 -9v66q34 0 51.5 24.5t17.5 87.5v76q0 49 18.5 72.5t47.5 28.5q-29 5 -47.5 29t-18.5 72v76q0 63 -17.5 87.5t-51.5 24.5v66q35 0 62.5 -9t46.5 -31t29 -59t10 -93v-79 q0 -23 15.5 -37t40.5 -16v-62z" />
<glyph unicode="~" horiz-adv-x="500" d="M67 308q15 11 33 21q16 8 37.5 14.5t47.5 6.5q24 0 40.5 -6.5t30 -15t27 -15t33.5 -6.5q17 0 33 5t28 11q14 7 27 16l29 -59q-16 -12 -34 -21q-16 -8 -37.5 -14t-47.5 -6q-24 0 -39.5 6.5t-29 14.5t-27 14.5t-34.5 6.5q-18 0 -34 -5t-28 -11q-14 -7 -27 -16z" />
<glyph unicode="&#xa1;" horiz-adv-x="214" d="M149 -114h-79v434h79v-434zM109 487q21 0 36.5 -15t15.5 -35q0 -22 -15.5 -37t-35.5 -15q-21 0 -36 15t-15 36t15 36t35 15z" />
<glyph unicode="&#xa2;" horiz-adv-x="430" d="M347 165q8 -17 16 -32.5t16 -32.5q-23 -18 -50.5 -31t-60.5 -17v-57h-72v60q-73 12 -113 63.5t-40 141.5q0 89 40 140.5t113 62.5v62h72v-59q34 -5 61 -17t50 -29q-8 -17 -15.5 -32t-15.5 -32q-37 36 -80 42v-275q23 5 43.5 16t35.5 26zM122 260q0 -113 74 -134v267 q-74 -21 -74 -133z" />
<glyph unicode="&#xa3;" horiz-adv-x="459" d="M305 251h-146v-88q0 -17 -5.5 -29t-11.5 -21.5t-11.5 -18t-5.5 -18.5t10 -10h281v-66h-305q-33 0 -51 19.5t-18 50.5q0 17 6 28.5t13 21.5t13 19.5t6 23.5v88h-38v64h38v25q0 54 9.5 95.5t31 70t57.5 43t90 14.5q55 0 92.5 -20.5t63.5 -42.5l-34 -59q-22 21 -53 38.5 t-69 17.5q-33 0 -54 -10.5t-33.5 -30.5t-17 -49.5t-4.5 -66.5v-25h146v-64z" />
<glyph unicode="&#xa4;" horiz-adv-x="693" d="M577 489l-57 -57q22 -28 34 -62t12 -72q0 -79 -46 -134l57 -57l-40 -40l-57 57q-29 -21 -62.5 -33t-71.5 -12t-72 12t-62 33l-57 -57l-41 39l59 59q-45 54 -45 133q0 76 45 133l-58 58l40 40l57 -58q28 23 62 35t72 12t71.5 -12t62.5 -35l56 57zM186 298q0 -33 13 -62 t34.5 -51t50.5 -34.5t62 -12.5t62 12.5t51 34.5t34.5 51t12.5 62t-12.5 62.5t-34.5 51t-51 34.5t-62 13t-62 -13t-50.5 -34.5t-34.5 -51t-13 -62.5z" />
<glyph unicode="&#xa5;" horiz-adv-x="553" d="M493 596l-81 -260q-6 -17 -12 -28q-4 -6 -7 -10h78v-65h-153v-52h153v-66h-153v-115h-80v115h-153v66h153v52h-153v65h75q-5 8 -8 14.5t-9 24.5l-82 259h79l73 -233q10 -31 26.5 -48t39.5 -17t37.5 17t24.5 48l72 233h80z" />
<glyph unicode="&#xa6;" horiz-adv-x="179" d="M125 242v-315h-71v315h71zM125 628v-315h-71v315h71z" />
<glyph unicode="&#xa7;" d="M272 414q31 -3 59 -8.5t49 -18t33 -35.5t12 -60q0 -35 -15 -63t-47 -45q23 -12 35.5 -36t12.5 -59q0 -60 -44.5 -98.5t-135.5 -38.5q-57 0 -97.5 15t-79.5 45l32 66q34 -32 67 -46t76 -14q58 0 80.5 18.5t22.5 52.5q0 23 -13.5 37.5t-50.5 18.5l-65 7q-75 8 -116 40 t-41 92q0 72 53 105q-39 28 -39 88q0 57 44 94t127 37q42 0 83.5 -11.5t76.5 -32.5q-8 -16 -14 -31.5t-14 -31.5q-32 22 -65.5 32.5t-66.5 10.5q-49 0 -70.5 -18.5t-21.5 -48.5q0 -29 15.5 -40.5t53.5 -15.5zM291 209q26 11 41 32t15 51q0 29 -20.5 40.5t-58.5 15.5l-65 6 q-12 1 -22 2t-19 3q-20 -10 -29 -29.5t-9 -45.5q0 -31 21 -46.5t63 -19.5l63 -6z" />
<glyph unicode="&#xa8;" horiz-adv-x="502" d="M321 559q-19 0 -33 13t-14 33q0 19 14 33t32 14q20 0 33.5 -14t13.5 -32q0 -20 -13.5 -33.5t-32.5 -13.5zM162 559q-19 0 -33 13t-14 33q0 19 14 33t33 14q20 0 33 -14t13 -32q0 -20 -13 -33.5t-33 -13.5z" />
<glyph unicode="&#xa9;" horiz-adv-x="693" d="M41 298q0 63 24 118.5t65 97t97 65.5t119 24t118.5 -24t97 -65.5t65.5 -97t24 -118.5t-24 -118.5t-65.5 -96.5t-97 -65t-118.5 -24t-119 24t-97 65t-65 96.5t-24 118.5zM87 298q0 -53 20.5 -100t55.5 -82t82 -55.5t101 -20.5q53 0 100 20.5t82 55.5t55.5 82t20.5 100 t-20.5 100t-55.5 82.5t-82 56t-100 20.5q-54 0 -101 -20.5t-82 -56t-55.5 -82.5t-20.5 -100zM161 296q0 97 51.5 149t139.5 52q34 0 60.5 -10t48.5 -27l-23 -46q-16 15 -37.5 23.5t-48.5 8.5q-64 0 -99.5 -38t-35.5 -112t35.5 -112t99.5 -38q27 0 48.5 9t37.5 24l23 -47 q-22 -17 -48.5 -27t-60.5 -10q-88 0 -139.5 52t-51.5 149z" />
<glyph unicode="&#xaa;" horiz-adv-x="332" d="M158 292q-51 0 -71 21.5t-20 55.5t20 54.5t71 20.5q8 0 18 -1t19 -2q11 -1 21 -2v13q0 48 -59 48q-17 0 -29.5 -5t-27.5 -16l-20 37q16 11 36 19t42 8q48 0 74 -22.5t26 -66.5v-68q0 -32 -9.5 -50.5t-24.5 -28.5t-32.5 -12.5t-33.5 -2.5zM158 335q58 0 58 48v16 q-8 1 -23.5 2.5t-34.5 1.5q-26 0 -37.5 -8t-11.5 -25q0 -35 49 -35z" />
<glyph unicode="&#xab;" horiz-adv-x="337" d="M180 329l-79 -91l79 -91l-22 -35l-90 89q-19 17 -19 37q0 17 19 36l90 90zM289 329l-79 -91l79 -91l-22 -35l-90 89q-19 17 -19 37q0 17 19 36l90 90z" />
<glyph unicode="&#xac;" horiz-adv-x="398" d="M339 271v-150h-66v85h-214v65h280z" />
<glyph unicode="&#xad;" horiz-adv-x="398" d="M59 206v65h280v-65h-280z" />
<glyph unicode="&#xae;" horiz-adv-x="325" d="M38 481q0 26 10 48.5t26.5 39.5t39 26.5t47.5 9.5q26 0 48.5 -9.5t39.5 -26.5t27 -39.5t10 -48.5t-10 -48t-27 -39t-39.5 -26.5t-48.5 -9.5q-25 0 -47.5 9.5t-39 26.5t-26.5 39t-10 48zM63 481q0 -20 8 -37.5t21.5 -31t31 -21.5t37.5 -8t38 8t31.5 21.5t21.5 31t8 37.5 t-8 38t-21.5 31.5t-31.5 21.5t-38 8t-37.5 -8t-31 -21.5t-21.5 -31.5t-8 -38zM213 508q0 -22 -16 -33q16 -11 16 -35v-26h-24v25q0 14 -7.5 20.5t-19.5 6.5h-22v-52h-25v117q0 20 18 20h30q27 0 38.5 -11.5t11.5 -31.5zM140 529v-41h23q26 0 26 20q0 21 -26 21h-23z" />
<glyph unicode="&#xaf;" horiz-adv-x="502" d="M381 569h-257v49h257v-49z" />
<glyph unicode="&#xb0;" horiz-adv-x="253" d="M21 573q0 22 8.5 41.5t22.5 33.5t33.5 22.5t40.5 8.5q22 0 41 -8.5t33 -22.5t22.5 -33.5t8.5 -41.5t-8.5 -41t-22.5 -33.5t-33 -22.5t-41 -8q-21 0 -40.5 8t-33.5 22.5t-22.5 33.5t-8.5 41zM69 573q0 -23 17 -40t40 -17t40 17t17 40q0 24 -17 41t-40 17t-40 -17t-17 -41z " />
<glyph unicode="&#xb1;" horiz-adv-x="397" d="M336 282h-106v-104h-64v104h-107v65h107v103h64v-103h106v-65zM336 77h-277v64h277v-64z" />
<glyph unicode="&#xb2;" horiz-adv-x="301" d="M234 369v-40h-144q-14 0 -23 9t-9 23q0 30 10 49.5t24.5 33t32 22t32 16.5t24.5 17.5t10 23.5q0 40 -51 40q-30 0 -60 -24l-18 38q14 11 36 18.5t42 7.5q45 0 70.5 -21t25.5 -59q0 -24 -9.5 -38.5t-24 -24.5t-32 -17.5t-32 -17t-25 -22.5t-11.5 -34h132z" />
<glyph unicode="&#xb3;" horiz-adv-x="292" d="M229 525q0 -36 -24 -54q13 -11 20.5 -26t7.5 -34q0 -40 -24.5 -62t-69.5 -22q-20 0 -42.5 7t-36.5 17l17 41q11 -10 29.5 -17.5t32.5 -7.5q50 0 50 44q0 17 -9.5 29t-28.5 12h-28v40h28q18 0 26.5 9.5t8.5 23.5q0 39 -48 39q-14 0 -29 -7.5t-26 -18.5l-19 41 q14 11 34 17.5t40 6.5q45 0 68 -20.5t23 -57.5z" />
<glyph unicode="&#xb4;" horiz-adv-x="502" d="M275 680h74l-90 -123h-64z" />
<glyph unicode="&#xb5;" horiz-adv-x="501" d="M251 -6q-32 0 -59.5 11.5t-49.5 31.5v-192h-79v637h79v-296q0 -61 29.5 -93.5t79.5 -32.5q48 0 77.5 32.5t29.5 93.5v296h79v-303q0 -84 -47.5 -134.5t-138.5 -50.5z" />
<glyph unicode="&#xb6;" horiz-adv-x="459" d="M240 261q-29 0 -61.5 5.5t-59.5 22.5t-45 48.5t-18 83.5q0 43 11.5 76.5t38.5 57t70.5 35.5t107.5 12h62q15 0 24 -9t9 -24v-569h-47v550h-45v-550h-47v261z" />
<glyph unicode="&#xb7;" horiz-adv-x="214" d="M107 129q-21 0 -36 15t-15 36t15 36t35 15q21 0 36 -15t15 -35q0 -22 -15 -37t-35 -15z" />
<glyph unicode="&#xb8;" horiz-adv-x="502" d="M214 0h38q-3 -7 -8 -16.5t-5 -17.5q0 -4 5 -4h9q35 0 55.5 -14.5t20.5 -49.5q0 -61 -85 -61q-22 0 -46 9t-41 20l17 38q20 -15 36 -21.5t34 -6.5q38 0 38 24t-29 24h-14q-18 0 -29 9t-11 23q0 5 1 12t5 12z" />
<glyph unicode="&#xb9;" horiz-adv-x="217" d="M48 586q8 4 17 8q8 3 16.5 6t16.5 3q20 0 31 -11.5t11 -31.5v-231h-42v226q0 5 -5 5q-4 0 -8 -2.5t-9 -4.5q-5 -3 -11 -6z" />
<glyph unicode="&#xba;" horiz-adv-x="326" d="M165 292q-49 0 -74 33t-25 93t25 92.5t74 32.5t73.5 -32.5t24.5 -92.5t-24.5 -93t-73.5 -33zM165 501q-29 0 -43 -21.5t-14 -61.5q0 -83 57 -83q56 0 56 83q0 40 -13.5 61.5t-42.5 21.5z" />
<glyph unicode="&#xbb;" horiz-adv-x="337" d="M179 364l90 -90q19 -19 19 -36q0 -20 -19 -37l-90 -89l-22 35l79 91l-79 91zM70 364l90 -90q19 -19 19 -36q0 -20 -19 -37l-90 -89l-22 35l79 91l-79 91z" />
<glyph unicode="&#xbc;" horiz-adv-x="718" d="M628 116q0 -12 0.5 -24.5t0.5 -24.5h-28v-67h-57v67h-100q-16 0 -28 9.5t-12 26.5q0 6 2.5 12.5t5.5 11.5l118 173q10 16 32 16q14 0 26.5 -9.5t12.5 -26.5v-164h27zM544 116v108q-19 -27 -37 -54l-36 -54h73zM528 589q22 -15 49 -31l-390 -603q-12 8 -24 15.5t-24 15.5 q97 152 194 301.5t195 301.5zM113 551q10 6 21 10q9 4 19.5 7.5t21.5 3.5q24 0 37.5 -14t13.5 -38v-263h-55v252q0 5 -8 5q-5 -1 -9 -3t-9 -4l-10 -6z" />
<glyph unicode="&#xbd;" horiz-adv-x="718" d="M528 589q12 -8 24.5 -15.5t24.5 -15.5l-390 -603q-12 8 -24 15.5t-24 15.5zM113 551q10 6 21 10q9 4 19.5 7.5t21.5 3.5q24 0 37.5 -14t13.5 -38v-263h-55v252q0 5 -8 5q-5 -1 -9 -3t-9 -4l-10 -6zM644 51v-51h-167q-17 0 -29 11t-12 27q0 34 11 56.5t28 38t36.5 25.5 t36.5 19t28 19t11 26q0 41 -53 41q-16 0 -33 -6.5t-38 -23.5l-22 52q17 13 43 21.5t50 8.5q53 0 82.5 -24t29.5 -69q0 -27 -10.5 -43.5t-26.5 -28t-34.5 -20t-35.5 -19t-29 -24.5t-14 -36h148z" />
<glyph unicode="&#xbe;" horiz-adv-x="718" d="M627 116q0 -12 0.5 -24.5t0.5 -24.5h-28v-67h-58v67h-100q-17 0 -28 10.5t-11 25.5q0 5 2.5 12t5.5 12l117 173q5 8 14 12t18 4q15 0 27.5 -9.5t12.5 -26.5v-164h27zM542 116v108l-36 -54t-37 -54h73zM527 589q22 -15 49 -31l-391 -603q-12 8 -24 15.5t-24 15.5zM282 481 q0 -20 -7.5 -35.5t-22.5 -25.5q35 -24 35 -68q0 -47 -29.5 -72t-81.5 -25q-23 0 -50.5 8.5t-44.5 20.5l23 51q14 -13 35.5 -22t36.5 -9q24 0 38 12.5t14 35.5q0 17 -9.5 30.5t-28.5 13.5h-36v50h36q19 0 27.5 10.5t8.5 24.5q0 22 -14.5 31t-43.5 9q-14 -2 -30.5 -10 t-28.5 -20l-23 51q18 14 42 22t47 8q52 0 79.5 -24t27.5 -67z" />
<glyph unicode="&#xbf;" horiz-adv-x="450" d="M246 487q21 0 36 -15t15 -35q0 -22 -15 -37t-35 -15q-22 0 -36.5 15t-14.5 36t15 36t35 15zM250 -120q-98 0 -150.5 45t-52.5 125q0 38 12 64.5t29.5 46t38.5 33.5t38.5 26.5t29.5 25t12 30.5v43h79v-38q0 -32 -12 -53t-29.5 -37t-38.5 -28.5t-38.5 -27t-29.5 -33.5 t-12 -47q0 -108 124 -108q35 0 62 11t59 37l30 -67q-27 -20 -66 -34t-85 -14z" />
<glyph unicode="&#xc0;" horiz-adv-x="531" d="M386 173h-238l-34 -173h-79l101 503q10 50 43.5 78.5t88.5 28.5q53 0 86.5 -28.5t43.5 -78.5l101 -503h-78zM373 240l-48 243q-7 26 -20 42.5t-37 16.5q-26 0 -39.5 -16.5t-18.5 -42.5l-49 -243h212zM155 771h73l79 -123h-64z" />
<glyph unicode="&#xc1;" horiz-adv-x="531" d="M386 173h-238l-34 -173h-79l101 503q10 50 43.5 78.5t88.5 28.5q53 0 86.5 -28.5t43.5 -78.5l101 -503h-78zM373 240l-48 243q-7 26 -20 42.5t-37 16.5q-26 0 -39.5 -16.5t-18.5 -42.5l-49 -243h212zM301 770h74l-90 -123h-64z" />
<glyph unicode="&#xc2;" horiz-adv-x="531" d="M386 173h-238l-34 -173h-79l101 503q10 50 43.5 78.5t88.5 28.5q53 0 86.5 -28.5t43.5 -78.5l101 -503h-78zM373 240l-48 243q-7 26 -20 42.5t-37 16.5q-26 0 -39.5 -16.5t-18.5 -42.5l-49 -243h212zM318 642l-51 75l-50 -75h-61l85 123h53l84 -123h-60z" />
<glyph unicode="&#xc3;" horiz-adv-x="531" d="M386 173h-238l-34 -173h-79l101 503q10 50 43.5 78.5t88.5 28.5q53 0 86.5 -28.5t43.5 -78.5l101 -503h-78zM373 240l-48 243q-7 26 -20 42.5t-37 16.5q-26 0 -39.5 -16.5t-18.5 -42.5l-49 -243h212zM126 702q12 9 27 17q12 7 28.5 12.5t35.5 5.5t32.5 -6t24.5 -12.5 t22 -12.5t26 -6q11 0 23 4.5t22.5 9.5t17 10l6.5 5l20 -45q-12 -10 -27 -17q-13 -7 -29.5 -12t-34.5 -5q-19 0 -31.5 5.5t-23.5 12.5t-22.5 12.5t-27.5 5.5q-11 0 -23 -4.5t-22 -9.5t-16.5 -10l-6.5 -5z" />
<glyph unicode="&#xc4;" horiz-adv-x="531" d="M386 173h-238l-34 -173h-79l101 503q10 50 43.5 78.5t88.5 28.5q53 0 86.5 -28.5t43.5 -78.5l101 -503h-78zM373 240l-48 243q-7 26 -20 42.5t-37 16.5q-26 0 -39.5 -16.5t-18.5 -42.5l-49 -243h212zM347 649q-19 0 -33 13t-14 33q0 19 14 33t32 14q20 0 33.5 -14 t13.5 -32q0 -20 -13.5 -33.5t-32.5 -13.5zM188 649q-19 0 -33 13t-14 33q0 19 14 33t33 14q20 0 33 -14t13 -32q0 -20 -13 -33.5t-33 -13.5z" />
<glyph unicode="&#xc5;" horiz-adv-x="531" d="M386 173h-238l-34 -173h-79l101 503q10 50 43.5 78.5t88.5 28.5q53 0 86.5 -28.5t43.5 -78.5l101 -503h-78zM373 240l-48 243q-7 26 -20 42.5t-37 16.5q-26 0 -39.5 -16.5t-18.5 -42.5l-49 -243h212zM180 729q0 19 7 35t19.5 28t28.5 19t34 7q37 0 62.5 -25.5t25.5 -63.5 q0 -36 -25.5 -62t-62.5 -26q-18 0 -34 7t-28.5 19t-19.5 28t-7 34zM225 729q0 -17 13 -30t31 -13t30.5 13t12.5 30q0 19 -12.5 31.5t-30.5 12.5t-31 -12.5t-13 -31.5z" />
<glyph unicode="&#xc6;" horiz-adv-x="739" d="M686 537h-266v-184h213v-67h-213v-209q0 -10 10 -10h256v-67h-277q-32 0 -51 20t-19 52v101h-187l-34 -173h-79l101 503q10 50 43.5 76t87.5 26h415v-68zM339 240v297h-68q-25 0 -39 -14t-19 -40l-48 -243h174z" />
<glyph unicode="&#xc7;" horiz-adv-x="526" d="M305 -6l-10 -24q-3 -8 5 -8h7q35 0 55.5 -14.5t20.5 -49.5q0 -61 -85 -61q-21 0 -45 9t-41 20l17 38q20 -15 35.5 -21.5t33.5 -6.5t28.5 6.5t10.5 17.5q0 24 -30 24h-14q-19 0 -30 9.5t-11 23.5q0 7 5 17l10 22q-110 11 -165 85t-55 225q0 160 66 232t195 72 q56 0 103.5 -20t76.5 -43l-30 -65q-12 12 -29 23t-36.5 19.5t-41.5 13.5t-43 5q-89 0 -134.5 -55t-45.5 -182q0 -129 45.5 -186.5t134.5 -57.5q44 0 85 18.5t65 40.5l30 -64q-29 -23 -76.5 -42.5t-102.5 -20.5h-4z" />
<glyph unicode="&#xc8;" horiz-adv-x="485" d="M440 0h-311q-32 0 -50.5 20t-18.5 52v462q0 32 18.5 51.5t50.5 19.5h311v-68h-290q-10 0 -10 -10v-174h247v-67h-247v-209q0 -10 10 -10h290v-67zM155 771h73l79 -123h-64z" />
<glyph unicode="&#xc9;" horiz-adv-x="485" d="M440 0h-311q-32 0 -50.5 20t-18.5 52v462q0 32 18.5 51.5t50.5 19.5h311v-68h-290q-10 0 -10 -10v-174h247v-67h-247v-209q0 -10 10 -10h290v-67zM286 770h74l-90 -123h-64z" />
<glyph unicode="&#xca;" horiz-adv-x="485" d="M440 0h-311q-32 0 -50.5 20t-18.5 52v462q0 32 18.5 51.5t50.5 19.5h311v-68h-290q-10 0 -10 -10v-174h247v-67h-247v-209q0 -10 10 -10h290v-67zM311 642l-51 75l-50 -75h-61l85 123h53l84 -123h-60z" />
<glyph unicode="&#xcb;" horiz-adv-x="485" d="M440 0h-311q-32 0 -50.5 20t-18.5 52v462q0 32 18.5 51.5t50.5 19.5h311v-68h-290q-10 0 -10 -10v-174h247v-67h-247v-209q0 -10 10 -10h290v-67zM337 649q-19 0 -33 13t-14 33q0 19 14 33t32 14q20 0 33.5 -14t13.5 -32q0 -20 -13.5 -33.5t-32.5 -13.5zM178 649 q-19 0 -33 13t-14 33q0 19 14 33t33 14q20 0 33 -14t13 -32q0 -20 -13 -33.5t-33 -13.5z" />
<glyph unicode="&#xcc;" horiz-adv-x="242" d="M167 0h-80v605h80v-605zM27 771h73l79 -123h-64z" />
<glyph unicode="&#xcd;" horiz-adv-x="242" d="M167 0h-80v605h80v-605zM155 770h74l-90 -123h-64z" />
<glyph unicode="&#xce;" horiz-adv-x="242" d="M167 0h-80v605h80v-605zM179 642l-51 75l-50 -75h-61l85 123h53l84 -123h-60z" />
<glyph unicode="&#xcf;" horiz-adv-x="242" d="M167 0h-80v605h80v-605zM209 649q-19 0 -33 13t-14 33q0 19 14 33t32 14q20 0 33.5 -14t13.5 -32q0 -20 -13.5 -33.5t-32.5 -13.5zM50 649q-19 0 -33 13t-14 33q0 19 14 33t33 14q20 0 33 -14t13 -32q0 -20 -13 -33.5t-33 -13.5z" />
<glyph unicode="&#xd0;" horiz-adv-x="583" d="M157 0q-32 0 -51 20t-19 52v200h-65v66h65v194q0 32 18.5 52.5t50.5 20.5h118q128 0 194.5 -73t66.5 -226q0 -154 -66.5 -230t-194.5 -76h-117zM306 272h-139v-195q0 -10 10 -10h97q181 0 181 239q0 121 -45.5 176t-135.5 55h-97q-10 0 -10 -10v-189h139v-66z" />
<glyph unicode="&#xd1;" horiz-adv-x="593" d="M164 503q-3 6 -9 6q-8 0 -8 -7v-502h-80v538q0 33 20.5 53t54.5 20q35 0 53.5 -15.5t30.5 -41.5l209 -451q3 -7 9 -7q8 0 8 8v501h81v-538q0 -34 -20.5 -53.5t-55.5 -19.5t-53.5 15.5t-30.5 41.5zM160 702q12 9 27 17q12 7 28.5 12.5t35.5 5.5t32.5 -6t24.5 -12.5 t22 -12.5t26 -6q11 0 23 4.5t22.5 9.5t17 10l6.5 5l20 -45q-12 -10 -27 -17q-13 -7 -29.5 -12t-34.5 -5q-19 0 -31.5 5.5t-23.5 12.5t-22.5 12.5t-27.5 5.5q-11 0 -23 -4.5t-22 -9.5t-16.5 -10l-6.5 -5z" />
<glyph unicode="&#xd2;" horiz-adv-x="581" d="M290 -6q-125 0 -184 80.5t-59 231.5q0 149 59 226.5t184 77.5t183 -77.5t58 -226.5q0 -151 -58 -231.5t-183 -80.5zM290 543q-87 0 -124.5 -59.5t-37.5 -177.5t37.5 -181t124.5 -63t124.5 63t37.5 181t-37.5 177.5t-124.5 59.5zM188 771h73l79 -123h-64z" />
<glyph unicode="&#xd3;" horiz-adv-x="581" d="M290 -6q-125 0 -184 80.5t-59 231.5q0 149 59 226.5t184 77.5t183 -77.5t58 -226.5q0 -151 -58 -231.5t-183 -80.5zM290 543q-87 0 -124.5 -59.5t-37.5 -177.5t37.5 -181t124.5 -63t124.5 63t37.5 181t-37.5 177.5t-124.5 59.5zM318 770h74l-90 -123h-64z" />
<glyph unicode="&#xd4;" horiz-adv-x="581" d="M290 -6q-125 0 -184 80.5t-59 231.5q0 149 59 226.5t184 77.5t183 -77.5t58 -226.5q0 -151 -58 -231.5t-183 -80.5zM290 543q-87 0 -124.5 -59.5t-37.5 -177.5t37.5 -181t124.5 -63t124.5 63t37.5 181t-37.5 177.5t-124.5 59.5zM340 642l-51 75l-50 -75h-61l85 123h53 l84 -123h-60z" />
<glyph unicode="&#xd5;" horiz-adv-x="581" d="M290 -6q-125 0 -184 80.5t-59 231.5q0 149 59 226.5t184 77.5t183 -77.5t58 -226.5q0 -151 -58 -231.5t-183 -80.5zM290 543q-87 0 -124.5 -59.5t-37.5 -177.5t37.5 -181t124.5 -63t124.5 63t37.5 181t-37.5 177.5t-124.5 59.5zM153 702q12 9 27 17q12 7 28.5 12.5 t35.5 5.5t32.5 -6t24.5 -12.5t22 -12.5t26 -6q11 0 23 4.5t22.5 9.5t17 10l6.5 5l20 -45q-12 -10 -27 -17q-13 -7 -29.5 -12t-34.5 -5q-19 0 -31.5 5.5t-23.5 12.5t-22.5 12.5t-27.5 5.5q-11 0 -23 -4.5t-22 -9.5t-16.5 -10l-6.5 -5z" />
<glyph unicode="&#xd6;" horiz-adv-x="581" d="M290 -6q-125 0 -184 80.5t-59 231.5q0 149 59 226.5t184 77.5t183 -77.5t58 -226.5q0 -151 -58 -231.5t-183 -80.5zM290 543q-87 0 -124.5 -59.5t-37.5 -177.5t37.5 -181t124.5 -63t124.5 63t37.5 181t-37.5 177.5t-124.5 59.5zM369 649q-19 0 -33 13t-14 33q0 19 14 33 t32 14q20 0 33.5 -14t13.5 -32q0 -20 -13.5 -33.5t-32.5 -13.5zM210 649q-19 0 -33 13t-14 33q0 19 14 33t33 14q20 0 33 -14t13 -32q0 -20 -13 -33.5t-33 -13.5z" />
<glyph unicode="&#xd7;" horiz-adv-x="400" d="M336 338l-100 -100l100 -100l-36 -36l-100 100l-100 -100l-36 36l100 100l-100 100l36 36l100 -100l100 100z" />
<glyph unicode="&#xd8;" horiz-adv-x="582" d="M447 559q85 -75 85 -253q0 -150 -59 -231t-183 -81q-29 0 -52 4t-44 12l-20 -45l-65 30l23 53q-43 39 -64 104t-21 154q0 149 59 226.5t184 77.5q53 0 94 -15l20 45l67 -31zM128 306q0 -60 9.5 -105.5t30.5 -74.5l187 405q-27 12 -65 12q-88 0 -125 -59.5t-37 -177.5z M290 62q87 0 124.5 63t37.5 181q0 119 -40 175l-188 -407q28 -12 66 -12z" />
<glyph unicode="&#xd9;" horiz-adv-x="550" d="M275 -6q-99 0 -157 53.5t-58 151.5v406h81v-399q0 -75 35.5 -109.5t98.5 -34.5t100 34.5t37 109.5v399h80v-406q0 -98 -56 -151.5t-161 -53.5zM165 771h73l79 -123h-64z" />
<glyph unicode="&#xda;" horiz-adv-x="550" d="M275 -6q-99 0 -157 53.5t-58 151.5v406h81v-399q0 -75 35.5 -109.5t98.5 -34.5t100 34.5t37 109.5v399h80v-406q0 -98 -56 -151.5t-161 -53.5zM310 770h74l-90 -123h-64z" />
<glyph unicode="&#xdb;" horiz-adv-x="550" d="M275 -6q-99 0 -157 53.5t-58 151.5v406h81v-399q0 -75 35.5 -109.5t98.5 -34.5t100 34.5t37 109.5v399h80v-406q0 -98 -56 -151.5t-161 -53.5zM324 642l-51 75l-50 -75h-61l85 123h53l84 -123h-60z" />
<glyph unicode="&#xdc;" horiz-adv-x="550" d="M275 -6q-99 0 -157 53.5t-58 151.5v406h81v-399q0 -75 35.5 -109.5t98.5 -34.5t100 34.5t37 109.5v399h80v-406q0 -98 -56 -151.5t-161 -53.5zM352 649q-19 0 -33 13t-14 33q0 19 14 33t32 14q20 0 33.5 -14t13.5 -32q0 -20 -13.5 -33.5t-32.5 -13.5zM193 649 q-19 0 -33 13t-14 33q0 19 14 33t33 14q20 0 33 -14t13 -32q0 -20 -13 -33.5t-33 -13.5z" />
<glyph unicode="&#xdd;" horiz-adv-x="550" d="M491 159q0 -80 -54.5 -122.5t-164.5 -42.5q-44 0 -79 7.5t-61 16.5q-30 11 -54 24l29 65q23 -13 49 -23q23 -8 52.5 -15t63.5 -7q72 0 105 25.5t33 75.5v46q-26 -20 -60 -29t-82 -9q-96 0 -152.5 52.5t-56.5 152.5v229h80q0 -56 0.5 -111t0.5 -111q0 -75 35 -110t98 -35 q31 0 56 5t43 18t28 36t10 58v250h81v-446zM310 770h74l-90 -123h-64z" />
<glyph unicode="&#xde;" horiz-adv-x="494" d="M148 668v-179h108q104 0 148 -39t44 -121q0 -83 -44 -122t-148 -39h-108v-168h-81v668h81zM367 329q0 49 -23.5 71t-87.5 22h-108v-187h108q64 0 87.5 22t23.5 72z" />
<glyph unicode="&#xdf;" horiz-adv-x="558" d="M270 608q-66 0 -95 -31t-29 -97v-471h-80v471q0 193 204 193q81 0 128 -39.5t47 -105.5q0 -38 -13.5 -65t-36.5 -46q-48 0 -74.5 -19.5t-26.5 -56.5q0 -59 69 -66q37 -4 66.5 -13t50 -24.5t31.5 -39t11 -56.5q0 -69 -42 -108.5t-128 -39.5q-50 0 -87.5 14.5t-80.5 46.5 l32 65q64 -60 134 -60q45 0 69.5 20.5t24.5 61.5q0 26 -19 44.5t-67 23.5q-69 8 -106 40.5t-37 90.5q0 55 37 92.5t101 45.5q13 18 13 49q0 38 -25 59t-71 21z" />
<glyph unicode="&#xe0;" d="M215 -5q-51 0 -86 10.5t-56.5 30t-31.5 46.5t-10 59t10 58.5t31.5 45.5t56.5 29.5t86 10.5q21 0 43 -2t40 -4q21 -3 41 -6v38q0 109 -125 109q-34 0 -61.5 -9t-60.5 -34l-28 62q27 20 66.5 34t84.5 14q99 0 151 -43.5t52 -126.5v-140q0 -55 -15.5 -90t-42.5 -55.5 t-64.5 -28.5t-80.5 -8zM339 213q-9 2 -42.5 5.5t-81.5 3.5q-57 0 -80.5 -20.5t-23.5 -59.5q0 -82 104 -82q66 0 95 27t29 84v42zM144 681h73l79 -123h-64z" />
<glyph unicode="&#xe1;" d="M215 -5q-51 0 -86 10.5t-56.5 30t-31.5 46.5t-10 59t10 58.5t31.5 45.5t56.5 29.5t86 10.5q21 0 43 -2t40 -4q21 -3 41 -6v38q0 109 -125 109q-34 0 -61.5 -9t-60.5 -34l-28 62q27 20 66.5 34t84.5 14q99 0 151 -43.5t52 -126.5v-140q0 -55 -15.5 -90t-42.5 -55.5 t-64.5 -28.5t-80.5 -8zM339 213q-9 2 -42.5 5.5t-81.5 3.5q-57 0 -80.5 -20.5t-23.5 -59.5q0 -82 104 -82q66 0 95 27t29 84v42zM273 680h74l-90 -123h-64z" />
<glyph unicode="&#xe2;" d="M215 -5q-51 0 -86 10.5t-56.5 30t-31.5 46.5t-10 59t10 58.5t31.5 45.5t56.5 29.5t86 10.5q21 0 43 -2t40 -4q21 -3 41 -6v38q0 109 -125 109q-34 0 -61.5 -9t-60.5 -34l-28 62q27 20 66.5 34t84.5 14q99 0 151 -43.5t52 -126.5v-140q0 -55 -15.5 -90t-42.5 -55.5 t-64.5 -28.5t-80.5 -8zM339 213q-9 2 -42.5 5.5t-81.5 3.5q-57 0 -80.5 -20.5t-23.5 -59.5q0 -82 104 -82q66 0 95 27t29 84v42zM284 552l-51 75l-50 -75h-61l85 123h53l84 -123h-60z" />
<glyph unicode="&#xe3;" d="M215 -5q-51 0 -86 10.5t-56.5 30t-31.5 46.5t-10 59t10 58.5t31.5 45.5t56.5 29.5t86 10.5q21 0 43 -2t40 -4q21 -3 41 -6v38q0 109 -125 109q-34 0 -61.5 -9t-60.5 -34l-28 62q27 20 66.5 34t84.5 14q99 0 151 -43.5t52 -126.5v-140q0 -55 -15.5 -90t-42.5 -55.5 t-64.5 -28.5t-80.5 -8zM339 213q-9 2 -42.5 5.5t-81.5 3.5q-57 0 -80.5 -20.5t-23.5 -59.5q0 -82 104 -82q66 0 95 27t29 84v42zM97 612q12 9 27 17q12 7 28.5 12.5t35.5 5.5t32.5 -6t24.5 -12.5t22 -12.5t26 -6q11 0 23 4.5t22.5 9.5t17 10l6.5 5l20 -45q-12 -10 -27 -17 q-13 -7 -29.5 -12t-34.5 -5q-19 0 -31.5 5.5t-23.5 12.5t-22.5 12.5t-27.5 5.5q-11 0 -23 -4.5t-22 -9.5t-16.5 -10l-6.5 -5z" />
<glyph unicode="&#xe4;" d="M215 -5q-51 0 -86 10.5t-56.5 30t-31.5 46.5t-10 59t10 58.5t31.5 45.5t56.5 29.5t86 10.5q21 0 43 -2t40 -4q21 -3 41 -6v38q0 109 -125 109q-34 0 -61.5 -9t-60.5 -34l-28 62q27 20 66.5 34t84.5 14q99 0 151 -43.5t52 -126.5v-140q0 -55 -15.5 -90t-42.5 -55.5 t-64.5 -28.5t-80.5 -8zM339 213q-9 2 -42.5 5.5t-81.5 3.5q-57 0 -80.5 -20.5t-23.5 -59.5q0 -82 104 -82q66 0 95 27t29 84v42zM318 559q-19 0 -33 13t-14 33q0 19 14 33t32 14q20 0 33.5 -14t13.5 -32q0 -20 -13.5 -33.5t-32.5 -13.5zM159 559q-19 0 -33 13t-14 33 q0 19 14 33t33 14q20 0 33 -14t13 -32q0 -20 -13 -33.5t-33 -13.5z" />
<glyph unicode="&#xe5;" d="M215 -5q-51 0 -86 10.5t-56.5 30t-31.5 46.5t-10 59t10 58.5t31.5 45.5t56.5 29.5t86 10.5q21 0 43 -2t40 -4q21 -3 41 -6v38q0 109 -125 109q-34 0 -61.5 -9t-60.5 -34l-28 62q27 20 66.5 34t84.5 14q99 0 151 -43.5t52 -126.5v-140q0 -55 -15.5 -90t-42.5 -55.5 t-64.5 -28.5t-80.5 -8zM339 213q-9 2 -42.5 5.5t-81.5 3.5q-57 0 -80.5 -20.5t-23.5 -59.5q0 -82 104 -82q66 0 95 27t29 84v42zM152 621q0 19 7 35t19.5 28t28.5 19t34 7q37 0 62.5 -25.5t25.5 -63.5q0 -36 -25.5 -62t-62.5 -26q-18 0 -34 7t-28.5 19t-19.5 28t-7 34z M197 621q0 -17 13 -30t31 -13t30.5 13t12.5 30q0 19 -12.5 31.5t-30.5 12.5t-31 -12.5t-13 -31.5z" />
<glyph unicode="&#xe6;" horiz-adv-x="794" d="M552 61q35 0 64.5 13.5t64.5 46.5q8 -17 15.5 -33t15.5 -33q-35 -30 -72.5 -45t-90.5 -15q-107 0 -161 71q-15 -24 -35.5 -38t-43.5 -21.5t-48 -9.5t-47 -2q-51 0 -85.5 10.5t-56.5 30t-31.5 46.5t-9.5 59t9.5 58.5t31.5 45.5t56.5 29.5t85.5 10.5q27 0 50 -1t40 -2 q19 -1 35 -2v31q0 109 -125 109q-35 0 -61.5 -9.5t-58.5 -34.5l-32 63q29 20 68 34t84 14q128 0 175 -74q26 35 65 54.5t88 19.5q51 0 86 -13.5t56.5 -35t31.5 -47.5t10 -51q0 -28 -6.5 -53.5t-25.5 -44.5t-52.5 -30.5t-87.5 -11.5q-18 0 -38.5 1.5t-39.5 3t-34.5 3.5 t-23.5 3q3 -32 12.5 -59.5t26 -47.5t40.5 -31.5t55 -11.5zM542 421q-30 0 -52.5 -12.5t-37.5 -33t-23 -47t-10 -54.5q5 -1 18 -2.5t31.5 -3t40 -2.5t43.5 -1q31 0 50 5.5t29.5 15t14 23.5t3.5 31q0 15 -5 29.5t-17.5 26t-33 18.5t-51.5 7zM339 217q-9 1 -42 3t-83 2 q-57 0 -80 -20.5t-23 -59.5q0 -82 103 -82q66 0 95.5 27t29.5 84v46z" />
<glyph unicode="&#xe7;" horiz-adv-x="447" d="M245 -31q-3 -7 4 -7h9q35 0 55.5 -14.5t20.5 -49.5q0 -61 -85 -61q-22 0 -46 9t-41 20l17 38q20 -15 36 -21.5t34 -6.5q38 0 38 24t-29 24h-14q-17 0 -29 10t-12 23q0 8 5 18l11 23q-88 13 -130 75t-42 168q0 119 53 182.5t163 63.5q44 0 77.5 -13.5t62.5 -34.5l-32 -64 q-22 20 -49.5 33t-58.5 13q-72 0 -104.5 -46t-32.5 -134t32.5 -134.5t104.5 -46.5q31 0 58.5 13.5t49.5 33.5l32 -64q-28 -21 -62 -34.5t-78 -13.5h-8z" />
<glyph unicode="&#xe8;" horiz-adv-x="487" d="M420 56q-35 -31 -72.5 -46t-90.5 -15q-103 0 -156.5 62.5t-53.5 183.5q0 116 55 181t149 65q50 0 85 -13.5t57 -35t32 -47.5t10 -51q0 -28 -7 -53.5t-25.5 -44.5t-52.5 -30.5t-88 -11.5q-30 0 -55 2t-43 5q-21 4 -38 8q3 -75 37 -114.5t96 -39.5q36 0 66 12.5t64 44.5z M251 421q-31 0 -53.5 -11.5t-37.5 -31.5t-23 -46t-10 -54q19 -4 40 -7q18 -2 42 -4t51 -2q31 0 50 5.5t29.5 15t14 23.5t3.5 31q0 15 -5 29.5t-17 26t-32.5 18.5t-51.5 7zM155 681h73l79 -123h-64z" />
<glyph unicode="&#xe9;" horiz-adv-x="487" d="M420 56q-35 -31 -72.5 -46t-90.5 -15q-103 0 -156.5 62.5t-53.5 183.5q0 116 55 181t149 65q50 0 85 -13.5t57 -35t32 -47.5t10 -51q0 -28 -7 -53.5t-25.5 -44.5t-52.5 -30.5t-88 -11.5q-30 0 -55 2t-43 5q-21 4 -38 8q3 -75 37 -114.5t96 -39.5q36 0 66 12.5t64 44.5z M251 421q-31 0 -53.5 -11.5t-37.5 -31.5t-23 -46t-10 -54q19 -4 40 -7q18 -2 42 -4t51 -2q31 0 50 5.5t29.5 15t14 23.5t3.5 31q0 15 -5 29.5t-17 26t-32.5 18.5t-51.5 7zM279 680h74l-90 -123h-64z" />
<glyph unicode="&#xea;" horiz-adv-x="487" d="M420 56q-35 -31 -72.5 -46t-90.5 -15q-103 0 -156.5 62.5t-53.5 183.5q0 116 55 181t149 65q50 0 85 -13.5t57 -35t32 -47.5t10 -51q0 -28 -7 -53.5t-25.5 -44.5t-52.5 -30.5t-88 -11.5q-30 0 -55 2t-43 5q-21 4 -38 8q3 -75 37 -114.5t96 -39.5q36 0 66 12.5t64 44.5z M251 421q-31 0 -53.5 -11.5t-37.5 -31.5t-23 -46t-10 -54q19 -4 40 -7q18 -2 42 -4t51 -2q31 0 50 5.5t29.5 15t14 23.5t3.5 31q0 15 -5 29.5t-17 26t-32.5 18.5t-51.5 7zM300 552l-51 75l-50 -75h-61l85 123h53l84 -123h-60z" />
<glyph unicode="&#xeb;" horiz-adv-x="487" d="M420 56q-35 -31 -72.5 -46t-90.5 -15q-103 0 -156.5 62.5t-53.5 183.5q0 116 55 181t149 65q50 0 85 -13.5t57 -35t32 -47.5t10 -51q0 -28 -7 -53.5t-25.5 -44.5t-52.5 -30.5t-88 -11.5q-30 0 -55 2t-43 5q-21 4 -38 8q3 -75 37 -114.5t96 -39.5q36 0 66 12.5t64 44.5z M251 421q-31 0 -53.5 -11.5t-37.5 -31.5t-23 -46t-10 -54q19 -4 40 -7q18 -2 42 -4t51 -2q31 0 50 5.5t29.5 15t14 23.5t3.5 31q0 15 -5 29.5t-17 26t-32.5 18.5t-51.5 7zM330 559q-19 0 -33 13t-14 33q0 19 14 33t32 14q20 0 33.5 -14t13.5 -32q0 -20 -13.5 -33.5 t-32.5 -13.5zM171 559q-19 0 -33 13t-14 33q0 19 14 33t33 14q20 0 33 -14t13 -32q0 -20 -13 -33.5t-33 -13.5z" />
<glyph unicode="&#xec;" horiz-adv-x="220" d="M13 681h73l79 -123h-64zM145 -9q-26 7 -43 20.5t-26.5 33t-13 45t-3.5 56.5v336h80v-367q0 -23 7 -39t27 -25l-28 -60v0z" />
<glyph unicode="&#xed;" horiz-adv-x="220" d="M119 680h74l-90 -123h-64zM145 -9q-26 7 -43 20.5t-26.5 33t-13 45t-3.5 56.5v336h80v-367q0 -23 7 -39t27 -25l-28 -60v0z" />
<glyph unicode="&#xee;" horiz-adv-x="220" d="M145 -9q-26 7 -43 20.5t-26.5 33t-13 45t-3.5 56.5v336h80v-367q0 -23 7 -39t27 -25l-28 -60v0zM152 552l-51 75l-50 -75h-61l85 123h53l84 -123h-60z" />
<glyph unicode="&#xef;" horiz-adv-x="220" d="M182 559q-19 0 -33 13t-14 33q0 19 14 33t32 14q20 0 33.5 -14t13.5 -32q0 -20 -13.5 -33.5t-32.5 -13.5zM23 559q-19 0 -33 13t-14 33q0 19 14 33t33 14q20 0 33 -14t13 -32q0 -20 -13 -33.5t-33 -13.5zM145 -9q-26 7 -43 20.5t-26.5 33t-13 45t-3.5 56.5v336h80v-367 q0 -23 7 -39t27 -25l-28 -60v0z" />
<glyph unicode="&#xf0;" horiz-adv-x="498" d="M373 671l33 -51l-62 -30q46 -63 68 -147.5t22 -201.5q0 -119 -46 -183t-146 -64q-97 0 -146 64t-49 183t48 182.5t139 63.5q26 0 49 -5t41 -19q-8 23 -20.5 47.5t-31.5 47.5l-90 -41l-33 50l82 37q-16 16 -33.5 30.5t-39.5 28.5l46 58q31 -22 56 -42t44 -40zM242 60 q40 0 62.5 15.5t33.5 41t13.5 58t2.5 66.5q0 33 -4 65.5t-16 58t-34.5 41t-59.5 15.5t-59.5 -15.5t-34.5 -41t-16 -58t-4 -65.5q0 -34 4 -66.5t16.5 -58t35.5 -41t60 -15.5z" />
<glyph unicode="&#xf1;" horiz-adv-x="498" d="M247 487q42 0 76 -13.5t59 -37.5t38.5 -58t13.5 -75v-303h-79v296q0 61 -29.5 93t-78.5 32q-50 0 -79.5 -32t-29.5 -93v-296h-79v303q0 83 48.5 133.5t139.5 50.5zM107 612q12 9 27 17q12 7 28.5 12.5t35.5 5.5t32.5 -6t24.5 -12.5t22 -12.5t26 -6q11 0 23 4.5t22.5 9.5 t17 10l6.5 5l20 -45q-12 -10 -27 -17q-13 -7 -29.5 -12t-34.5 -5q-19 0 -31.5 5.5t-23.5 12.5t-22.5 12.5t-27.5 5.5q-11 0 -23 -4.5t-22 -9.5t-16.5 -10l-6.5 -5z" />
<glyph unicode="&#xf2;" horiz-adv-x="499" d="M247 -6q-100 0 -150 64t-50 183t50 182.5t150 63.5t149.5 -63.5t49.5 -182.5t-49.5 -183t-149.5 -64zM247 421q-63 0 -92 -46t-29 -134t29 -134.5t92 -46.5t91.5 46.5t28.5 134.5t-28.5 134t-91.5 46zM150 681h73l79 -123h-64z" />
<glyph unicode="&#xf3;" horiz-adv-x="499" d="M247 -6q-100 0 -150 64t-50 183t50 182.5t150 63.5t149.5 -63.5t49.5 -182.5t-49.5 -183t-149.5 -64zM247 421q-63 0 -92 -46t-29 -134t29 -134.5t92 -46.5t91.5 46.5t28.5 134.5t-28.5 134t-91.5 46zM272 680h74l-90 -123h-64z" />
<glyph unicode="&#xf4;" horiz-adv-x="499" d="M247 -6q-100 0 -150 64t-50 183t50 182.5t150 63.5t149.5 -63.5t49.5 -182.5t-49.5 -183t-149.5 -64zM247 421q-63 0 -92 -46t-29 -134t29 -134.5t92 -46.5t91.5 46.5t28.5 134.5t-28.5 134t-91.5 46zM297 552l-51 75l-50 -75h-61l85 123h53l84 -123h-60z" />
<glyph unicode="&#xf5;" horiz-adv-x="499" d="M247 -6q-100 0 -150 64t-50 183t50 182.5t150 63.5t149.5 -63.5t49.5 -182.5t-49.5 -183t-149.5 -64zM247 421q-63 0 -92 -46t-29 -134t29 -134.5t92 -46.5t91.5 46.5t28.5 134.5t-28.5 134t-91.5 46zM111 612q12 9 27 17q12 7 28.5 12.5t35.5 5.5t32.5 -6t24.5 -12.5 t22 -12.5t26 -6q11 0 23 4.5t22.5 9.5t17 10l6.5 5l20 -45q-12 -10 -27 -17q-13 -7 -29.5 -12t-34.5 -5q-19 0 -31.5 5.5t-23.5 12.5t-22.5 12.5t-27.5 5.5q-11 0 -23 -4.5t-22 -9.5t-16.5 -10l-6.5 -5z" />
<glyph unicode="&#xf6;" horiz-adv-x="499" d="M247 -6q-100 0 -150 64t-50 183t50 182.5t150 63.5t149.5 -63.5t49.5 -182.5t-49.5 -183t-149.5 -64zM247 421q-63 0 -92 -46t-29 -134t29 -134.5t92 -46.5t91.5 46.5t28.5 134.5t-28.5 134t-91.5 46zM326 559q-19 0 -33 13t-14 33q0 19 14 33t32 14q20 0 33.5 -14 t13.5 -32q0 -20 -13.5 -33.5t-32.5 -13.5zM167 559q-19 0 -33 13t-14 33q0 19 14 33t33 14q20 0 33 -14t13 -32q0 -20 -13 -33.5t-33 -13.5z" />
<glyph unicode="&#xf7;" horiz-adv-x="384" d="M197 76q-18 0 -31.5 13.5t-13.5 31.5q0 20 13.5 32.5t30.5 12.5q19 0 32.5 -12.5t13.5 -31.5t-13.5 -32.5t-31.5 -13.5zM56 206v65h280v-65h-280zM197 311q-18 0 -31.5 13.5t-13.5 31.5q0 19 13.5 32t30.5 13q19 0 32.5 -13t13.5 -31q0 -19 -13.5 -32.5t-31.5 -13.5z" />
<glyph unicode="&#xf8;" horiz-adv-x="499" d="M377 441q35 -31 52 -81.5t17 -118.5q0 -119 -50 -182.5t-150 -63.5q-19 0 -36.5 2.5t-32.5 7.5q-6 -11 -11.5 -23t-11.5 -24l-64 30q7 13 13 26t13 27q-69 60 -69 200q0 119 50 182.5t149 63.5q39 0 70 -11l23 48l64 -30zM126 241q0 -81 26 -121l136 294q-8 2 -19 4 t-22 2q-63 0 -92 -46t-29 -133zM246 60q63 0 92 46.5t29 134.5q0 80 -26 120l-135 -293q19 -8 40 -8z" />
<glyph unicode="&#xf9;" horiz-adv-x="497" d="M250 -6q-88 0 -138 50.5t-50 134.5v303h79v-296q0 -61 29.5 -93.5t79.5 -32.5q48 0 77.5 32.5t29.5 93.5v296h79v-303q0 -84 -47.5 -134.5t-138.5 -50.5zM144 681h73l79 -123h-64z" />
<glyph unicode="&#xfa;" horiz-adv-x="497" d="M250 -6q-88 0 -138 50.5t-50 134.5v303h79v-296q0 -61 29.5 -93.5t79.5 -32.5q48 0 77.5 32.5t29.5 93.5v296h79v-303q0 -84 -47.5 -134.5t-138.5 -50.5zM281 680h74l-90 -123h-64z" />
<glyph unicode="&#xfb;" horiz-adv-x="497" d="M250 -6q-88 0 -138 50.5t-50 134.5v303h79v-296q0 -61 29.5 -93.5t79.5 -32.5q48 0 77.5 32.5t29.5 93.5v296h79v-303q0 -84 -47.5 -134.5t-138.5 -50.5zM299 552l-51 75l-50 -75h-61l85 123h53l84 -123h-60z" />
<glyph unicode="&#xfc;" horiz-adv-x="497" d="M250 -6q-88 0 -138 50.5t-50 134.5v303h79v-296q0 -61 29.5 -93.5t79.5 -32.5q48 0 77.5 32.5t29.5 93.5v296h79v-303q0 -84 -47.5 -134.5t-138.5 -50.5zM328 559q-19 0 -33 13t-14 33q0 19 14 33t32 14q20 0 33.5 -14t13.5 -32q0 -20 -13.5 -33.5t-32.5 -13.5zM169 559 q-19 0 -33 13t-14 33q0 19 14 33t33 14q20 0 33 -14t13 -32q0 -20 -13 -33.5t-33 -13.5z" />
<glyph unicode="&#xfd;" horiz-adv-x="505" d="M442 482v-481q0 -78 -47 -120t-147 -42q-39 0 -69 7.5t-50 16.5q-24 11 -41 25l27 62q17 -12 38 -22q18 -8 42 -15t53 -7q60 0 87.5 27t27.5 82v19q-19 -17 -48 -28t-66 -11q-84 0 -133 50t-49 134v303h79v-296q0 -61 29 -93.5t79 -32.5q33 0 54 8.5t33 24.5t16.5 39.5 t4.5 54.5v295h80zM291 680h74l-90 -123h-64z" />
<glyph unicode="&#xfe;" horiz-adv-x="497" d="M258 -6q-37 0 -67 11t-53 42v-202h-79v792h79v-196q21 22 48.5 34t63.5 12q97 0 146 -63.5t49 -182.5t-48 -183t-139 -64zM250 421q-39 0 -61.5 -15.5t-34 -41t-14 -58t-2.5 -65.5q0 -34 4 -66.5t16 -58t34.5 -41t59.5 -15.5t59.5 15.5t34.5 41t16 58t4 66.5 q0 33 -4 65.5t-16.5 58t-35.5 41t-60 15.5z" />
<glyph unicode="&#xff;" horiz-adv-x="505" d="M442 482v-481q0 -78 -47 -120t-147 -42q-39 0 -69 7.5t-50 16.5q-24 11 -41 25l27 62q17 -12 38 -22q18 -8 42 -15t53 -7q60 0 87.5 27t27.5 82v19q-19 -17 -48 -28t-66 -11q-84 0 -133 50t-49 134v303h79v-296q0 -61 29 -93.5t79 -32.5q33 0 54 8.5t33 24.5t16.5 39.5 t4.5 54.5v295h80zM336 559q-19 0 -33 13t-14 33q0 19 14 33t32 14q20 0 33.5 -14t13.5 -32q0 -20 -13.5 -33.5t-32.5 -13.5zM177 559q-19 0 -33 13t-14 33q0 19 14 33t33 14q20 0 33 -14t13 -32q0 -20 -13 -33.5t-33 -13.5z" />
<glyph unicode="&#x100;" horiz-adv-x="531" d="M386 173h-238l-34 -173h-79l101 503q10 50 43.5 78.5t88.5 28.5q53 0 86.5 -28.5t43.5 -78.5l101 -503h-78zM373 240l-48 243q-7 26 -20 42.5t-37 16.5q-26 0 -39.5 -16.5t-18.5 -42.5l-49 -243h212zM396 662h-257v49h257v-49z" />
<glyph unicode="&#x101;" d="M215 -5q-51 0 -86 10.5t-56.5 30t-31.5 46.5t-10 59t10 58.5t31.5 45.5t56.5 29.5t86 10.5q21 0 43 -2t40 -4q21 -3 41 -6v38q0 109 -125 109q-34 0 -61.5 -9t-60.5 -34l-28 62q27 20 66.5 34t84.5 14q99 0 151 -43.5t52 -126.5v-140q0 -55 -15.5 -90t-42.5 -55.5 t-64.5 -28.5t-80.5 -8zM339 213q-9 2 -42.5 5.5t-81.5 3.5q-57 0 -80.5 -20.5t-23.5 -59.5q0 -82 104 -82q66 0 95 27t29 84v42zM362 569h-257v49h257v-49z" />
<glyph unicode="&#x102;" horiz-adv-x="531" d="M386 173h-238l-34 -173h-79l101 503q10 50 43.5 78.5t88.5 28.5q53 0 86.5 -28.5t43.5 -78.5l101 -503h-78zM373 240l-48 243q-7 26 -20 42.5t-37 16.5q-26 0 -39.5 -16.5t-18.5 -42.5l-49 -243h212zM216 753q0 -22 11.5 -39.5t40.5 -17.5q28 0 39.5 17.5t11.5 39.5h58 q0 -21 -6 -40t-19.5 -33.5t-34 -23.5t-49.5 -9t-49.5 9t-34 23.5t-20 33.5t-6.5 40h58z" />
<glyph unicode="&#x103;" d="M215 -5q-51 0 -86 10.5t-56.5 30t-31.5 46.5t-10 59t10 58.5t31.5 45.5t56.5 29.5t86 10.5q21 0 43 -2t40 -4q21 -3 41 -6v38q0 109 -125 109q-34 0 -61.5 -9t-60.5 -34l-28 62q27 20 66.5 34t84.5 14q99 0 151 -43.5t52 -126.5v-140q0 -55 -15.5 -90t-42.5 -55.5 t-64.5 -28.5t-80.5 -8zM339 213q-9 2 -42.5 5.5t-81.5 3.5q-57 0 -80.5 -20.5t-23.5 -59.5q0 -82 104 -82q66 0 95 27t29 84v42zM189 663q0 -22 11.5 -39.5t40.5 -17.5q28 0 39.5 17.5t11.5 39.5h58q0 -21 -6 -40t-19.5 -33.5t-34 -23.5t-49.5 -9t-49.5 9t-34 23.5t-20 33.5 t-6.5 40h58z" />
<glyph unicode="&#x104;" horiz-adv-x="531" d="M458 0q-14 -13 -28 -30.5t-14 -36.5q0 -25 23 -25q12 0 30 8l5 -24q-7 -6 -19 -10.5t-25 -4.5q-21 0 -37 13.5t-16 35.5q0 23 13.5 41.5t30.5 32.5l-35 173h-238l-34 -173h-79l101 503q10 50 43.5 78.5t88.5 28.5q57 0 88.5 -31t42.5 -84q7 -31 15.5 -74.5t18 -91.5 t19.5 -97.5t19 -94t16.5 -80.5t11.5 -57h-41zM373 240l-48 243q-5 26 -19 42.5t-38 16.5q-26 0 -39.5 -16.5t-18.5 -42.5l-49 -243h212z" />
<glyph unicode="&#x105;" d="M215 -5q-51 0 -86 10.5t-56.5 30t-31.5 46.5t-10 59t10 58.5t31.5 45.5t56.5 29.5t86 10.5q21 0 43 -2t40 -4q21 -3 41 -6v38q0 109 -125 109q-34 0 -61.5 -9t-60.5 -34l-28 62q27 20 66.5 34t84.5 14q99 0 151 -43.5t52 -126.5v-140q0 -63 -19.5 -98t-48.5 -55 q-32 -22 -48 -47.5t-16 -43.5q0 -25 23 -25q12 0 30 8l5 -24q-7 -6 -19 -10.5t-25 -4.5q-21 0 -37 13.5t-16 35.5q0 23 14 42t31 33q-20 -4 -39.5 -5t-37.5 -1zM339 213q-9 2 -42.5 5.5t-81.5 3.5q-57 0 -80.5 -20.5t-23.5 -59.5q0 -82 104 -82q66 0 95 27t29 84v42z" />
<glyph unicode="&#x106;" horiz-adv-x="526" d="M47 306q0 160 66 232t195 72q56 0 103.5 -20t76.5 -43l-30 -65q-12 12 -29 23t-36.5 19.5t-41.5 13.5t-43 5q-89 0 -134.5 -55t-45.5 -182q0 -129 45.5 -186.5t134.5 -57.5q44 0 85 18.5t65 40.5l30 -64q-29 -23 -76.5 -43t-103.5 -20q-129 0 -195 74t-66 238zM319 770 h74l-90 -123h-64z" />
<glyph unicode="&#x107;" horiz-adv-x="447" d="M47 241q0 119 53 182.5t163 63.5q44 0 77.5 -13.5t62.5 -34.5l-32 -64q-22 20 -49.5 33t-58.5 13q-72 0 -104.5 -46t-32.5 -134t32.5 -134.5t104.5 -46.5q31 0 58.5 13.5t49.5 33.5l32 -64q-28 -21 -62 -35t-78 -14q-110 0 -163 64t-53 183zM278 680h74l-90 -123h-64z " />
<glyph unicode="&#x108;" horiz-adv-x="526" d="M47 306q0 160 66 232t195 72q56 0 103.5 -20t76.5 -43l-30 -65q-12 12 -29 23t-36.5 19.5t-41.5 13.5t-43 5q-89 0 -134.5 -55t-45.5 -182q0 -129 45.5 -186.5t134.5 -57.5q44 0 85 18.5t65 40.5l30 -64q-29 -23 -76.5 -43t-103.5 -20q-129 0 -195 74t-66 238zM344 642 l-51 75l-50 -75h-61l85 123h53l84 -123h-60z" />
<glyph unicode="&#x109;" horiz-adv-x="447" d="M47 241q0 119 53 182.5t163 63.5q44 0 77.5 -13.5t62.5 -34.5l-32 -64q-22 20 -49.5 33t-58.5 13q-72 0 -104.5 -46t-32.5 -134t32.5 -134.5t104.5 -46.5q31 0 58.5 13.5t49.5 33.5l32 -64q-28 -21 -62 -35t-78 -14q-110 0 -163 64t-53 183zM297 552l-51 75l-50 -75h-61 l85 123h53l84 -123h-60z" />
<glyph unicode="&#x10a;" horiz-adv-x="526" d="M47 306q0 160 66 232t195 72q56 0 103.5 -20t76.5 -43l-30 -65q-12 12 -29 23t-36.5 19.5t-41.5 13.5t-43 5q-89 0 -134.5 -55t-45.5 -182q0 -129 45.5 -186.5t134.5 -57.5q44 0 85 18.5t65 40.5l30 -64q-29 -23 -76.5 -43t-103.5 -20q-129 0 -195 74t-66 238zM303 646 q-19 0 -33 13.5t-14 32.5q0 20 14 34t33 14q20 0 33 -14t13 -33q0 -20 -13 -33.5t-33 -13.5z" />
<glyph unicode="&#x10b;" horiz-adv-x="447" d="M47 241q0 119 53 182.5t163 63.5q44 0 77.5 -13.5t62.5 -34.5l-32 -64q-22 20 -49.5 33t-58.5 13q-72 0 -104.5 -46t-32.5 -134t32.5 -134.5t104.5 -46.5q31 0 58.5 13.5t49.5 33.5l32 -64q-28 -21 -62 -35t-78 -14q-110 0 -163 64t-53 183zM256 556q-19 0 -33 13.5 t-14 32.5q0 20 14 34t33 14q20 0 33 -14t13 -33q0 -20 -13 -33.5t-33 -13.5z" />
<glyph unicode="&#x10c;" horiz-adv-x="526" d="M47 306q0 160 66 232t195 72q56 0 103.5 -20t76.5 -43l-30 -65q-12 12 -29 23t-36.5 19.5t-41.5 13.5t-43 5q-89 0 -134.5 -55t-45.5 -182q0 -129 45.5 -186.5t134.5 -57.5q44 0 85 18.5t65 40.5l30 -64q-29 -23 -76.5 -43t-103.5 -20q-129 0 -195 74t-66 238zM251 765 l51 -74l50 74h61l-85 -123h-53l-84 123h60z" />
<glyph unicode="&#x10d;" horiz-adv-x="447" d="M47 241q0 119 53 182.5t163 63.5q44 0 77.5 -13.5t62.5 -34.5l-32 -64q-22 20 -49.5 33t-58.5 13q-72 0 -104.5 -46t-32.5 -134t32.5 -134.5t104.5 -46.5q31 0 58.5 13.5t49.5 33.5l32 -64q-28 -21 -62 -35t-78 -14q-110 0 -163 64t-53 183zM201 675l51 -74l50 74h61 l-85 -123h-53l-84 123h60z" />
<glyph unicode="&#x10e;" horiz-adv-x="563" d="M136 0q-32 0 -50.5 20t-18.5 52v460q0 32 18.5 52.5t50.5 20.5h118q128 0 194.5 -73t66.5 -226q0 -154 -66.5 -230t-194.5 -76h-118zM157 537q-10 0 -10 -10v-450q0 -10 10 -10h97q181 0 181 239q0 121 -45.5 176t-135.5 55h-97zM206 765l51 -74l50 74h61l-85 -123h-53 l-84 123h60z" />
<glyph unicode="&#x10f;" horiz-adv-x="498" d="M234 487q37 0 67 -11.5t53 -41.5v224h80v-417q0 -119 -46 -183t-146 -64q-97 0 -146 64t-49 183t48 182.5t139 63.5zM242 60q40 0 62.5 15.5t33.5 41t13.5 58t2.5 66.5q0 33 -4 65.5t-16 58t-34.5 41t-59.5 15.5t-59.5 -15.5t-34.5 -41t-16 -58t-4 -65.5q0 -34 4 -66.5 t16.5 -58t35.5 -41t60 -15.5zM477 532q10 11 18 25t8 22q-17 5 -28 17.5t-11 31.5q0 22 14.5 37t35.5 15q23 0 37.5 -16t14.5 -44q0 -29 -19 -58.5t-48 -49.5z" />
<glyph unicode="&#x110;" horiz-adv-x="583" d="M157 0q-32 0 -51 20t-19 52v200h-65v66h65v194q0 32 18.5 52.5t50.5 20.5h118q128 0 194.5 -73t66.5 -226q0 -154 -66.5 -230t-194.5 -76h-117zM306 272h-139v-195q0 -10 10 -10h97q181 0 181 239q0 121 -45.5 176t-135.5 55h-97q-10 0 -10 -10v-189h139v-66z" />
<glyph unicode="&#x111;" horiz-adv-x="498" d="M234 487q37 0 67 -11.5t53 -41.5v89h-168v64h168v71h80v-71h47v-64h-47v-282q0 -119 -46 -183t-146 -64q-97 0 -146 64t-49 183t48 182.5t139 63.5zM242 60q40 0 62.5 15.5t33.5 41t13.5 58t2.5 66.5q0 33 -4 65.5t-16 58t-34.5 41t-59.5 15.5t-59.5 -15.5t-34.5 -41 t-16 -58t-4 -65.5q0 -34 4 -66.5t16.5 -58t35.5 -41t60 -15.5z" />
<glyph unicode="&#x112;" horiz-adv-x="493" d="M447 0h-311q-32 0 -50.5 20t-18.5 52v462q0 32 18.5 51.5t50.5 19.5h311v-68h-290q-10 0 -10 -10v-174h247v-67h-247v-209q0 -10 10 -10h290v-67zM391 662h-257v49h257v-49z" />
<glyph unicode="&#x113;" horiz-adv-x="487" d="M420 56q-35 -31 -72.5 -46t-90.5 -15q-103 0 -156.5 62.5t-53.5 183.5q0 116 55 181t149 65q50 0 85 -13.5t57 -35t32 -47.5t10 -51q0 -28 -7 -53.5t-25.5 -44.5t-52.5 -30.5t-88 -11.5q-30 0 -55 2t-43 5q-21 4 -38 8q3 -75 37 -114.5t96 -39.5q36 0 66 12.5t64 44.5z M251 421q-31 0 -53.5 -11.5t-37.5 -31.5t-23 -46t-10 -54q19 -4 40 -7q18 -2 42 -4t51 -2q31 0 50 5.5t29.5 15t14 23.5t3.5 31q0 15 -5 29.5t-17 26t-32.5 18.5t-51.5 7zM381 569h-257v49h257v-49z" />
<glyph unicode="&#x114;" horiz-adv-x="493" d="M447 0h-311q-32 0 -50.5 20t-18.5 52v462q0 32 18.5 51.5t50.5 19.5h311v-68h-290q-10 0 -10 -10v-174h247v-67h-247v-209q0 -10 10 -10h290v-67zM218 753q0 -22 11.5 -39.5t40.5 -17.5q28 0 39.5 17.5t11.5 39.5h58q0 -21 -6 -40t-19.5 -33.5t-34 -23.5t-49.5 -9 t-49.5 9t-34 23.5t-20 33.5t-6.5 40h58z" />
<glyph unicode="&#x115;" horiz-adv-x="487" d="M420 56q-35 -31 -72.5 -46t-90.5 -15q-103 0 -156.5 62.5t-53.5 183.5q0 116 55 181t149 65q50 0 85 -13.5t57 -35t32 -47.5t10 -51q0 -28 -7 -53.5t-25.5 -44.5t-52.5 -30.5t-88 -11.5q-30 0 -55 2t-43 5q-21 4 -38 8q3 -75 37 -114.5t96 -39.5q36 0 66 12.5t64 44.5z M251 421q-31 0 -53.5 -11.5t-37.5 -31.5t-23 -46t-10 -54q19 -4 40 -7q18 -2 42 -4t51 -2q31 0 50 5.5t29.5 15t14 23.5t3.5 31q0 15 -5 29.5t-17 26t-32.5 18.5t-51.5 7zM203 663q0 -22 11.5 -39.5t40.5 -17.5q28 0 39.5 17.5t11.5 39.5h58q0 -21 -6 -40t-19.5 -33.5 t-34 -23.5t-49.5 -9t-49.5 9t-34 23.5t-20 33.5t-6.5 40h58z" />
<glyph unicode="&#x116;" horiz-adv-x="493" d="M447 0h-311q-32 0 -50.5 20t-18.5 52v462q0 32 18.5 51.5t50.5 19.5h311v-68h-290q-10 0 -10 -10v-174h247v-67h-247v-209q0 -10 10 -10h290v-67zM268 646q-19 0 -33 13.5t-14 32.5q0 20 14 34t33 14q20 0 33 -14t13 -33q0 -20 -13 -33.5t-33 -13.5z" />
<glyph unicode="&#x117;" horiz-adv-x="487" d="M420 56q-35 -31 -72.5 -46t-90.5 -15q-103 0 -156.5 62.5t-53.5 183.5q0 116 55 181t149 65q50 0 85 -13.5t57 -35t32 -47.5t10 -51q0 -28 -7 -53.5t-25.5 -44.5t-52.5 -30.5t-88 -11.5q-30 0 -55 2t-43 5q-21 4 -38 8q3 -75 37 -114.5t96 -39.5q36 0 66 12.5t64 44.5z M251 421q-31 0 -53.5 -11.5t-37.5 -31.5t-23 -46t-10 -54q19 -4 40 -7q18 -2 42 -4t51 -2q31 0 50 5.5t29.5 15t14 23.5t3.5 31q0 15 -5 29.5t-17 26t-32.5 18.5t-51.5 7zM252 556q-19 0 -33 13.5t-14 32.5q0 20 14 34t33 14q20 0 33 -14t13 -33q0 -20 -13 -33.5t-33 -13.5z " />
<glyph unicode="&#x118;" horiz-adv-x="493" d="M447 0h-148q-10 -11 -24 -30t-14 -38q0 -24 24 -24q13 0 29 8l6 -24q-7 -6 -19.5 -10.5t-24.5 -4.5q-22 0 -37.5 13.5t-15.5 35.5q0 23 13.5 41.5t29.5 32.5h-130q-32 0 -50.5 20t-18.5 52v460q0 32 18.5 52.5t50.5 20.5h311v-68h-289q-10 0 -10 -10v-174h246v-67h-246 v-209q0 -10 10 -10h289v-67z" />
<glyph unicode="&#x119;" horiz-adv-x="487" d="M420 56q-11 -9 -21 -17t-20 -14q-35 -23 -53.5 -48.5t-18.5 -44.5q0 -24 23 -24q12 0 30 8l5 -24q-7 -6 -19 -10.5t-25 -4.5q-21 0 -37 13.5t-16 35.5q0 23 13 41.5t30 32.5q-12 -2 -26 -3.5t-28 -1.5q-103 0 -156.5 62.5t-53.5 183.5q0 116 55 181t149 65q50 0 85 -13.5 t57 -35t32 -47.5t10 -51q0 -28 -7 -53.5t-25.5 -44.5t-52.5 -30.5t-88 -11.5q-30 0 -55 2t-43 5q-21 4 -38 8q3 -75 37 -114.5t96 -39.5q36 0 66 12.5t64 44.5zM251 421q-31 0 -53.5 -11.5t-37.5 -31.5t-23 -46t-10 -54q18 -4 39 -7q18 -2 42 -4t52 -2q31 0 50 5.5t29.5 15 t14 23.5t3.5 31q0 15 -5 29.5t-17 26t-32.5 18.5t-51.5 7z" />
<glyph unicode="&#x11a;" horiz-adv-x="493" d="M447 0h-311q-32 0 -50.5 20t-18.5 52v462q0 32 18.5 51.5t50.5 19.5h311v-68h-290q-10 0 -10 -10v-174h247v-67h-247v-209q0 -10 10 -10h290v-67zM214 765l51 -74l50 74h61l-85 -123h-53l-84 123h60z" />
<glyph unicode="&#x11b;" horiz-adv-x="487" d="M420 56q-35 -31 -72.5 -46t-90.5 -15q-103 0 -156.5 62.5t-53.5 183.5q0 116 55 181t149 65q50 0 85 -13.5t57 -35t32 -47.5t10 -51q0 -28 -7 -53.5t-25.5 -44.5t-52.5 -30.5t-88 -11.5q-30 0 -55 2t-43 5q-21 4 -38 8q3 -75 37 -114.5t96 -39.5q36 0 66 12.5t64 44.5z M251 421q-31 0 -53.5 -11.5t-37.5 -31.5t-23 -46t-10 -54q19 -4 40 -7q18 -2 42 -4t51 -2q31 0 50 5.5t29.5 15t14 23.5t3.5 31q0 15 -5 29.5t-17 26t-32.5 18.5t-51.5 7zM201 675l51 -74l50 74h61l-85 -123h-53l-84 123h60z" />
<glyph unicode="&#x11c;" horiz-adv-x="540" d="M422 300q29 0 49.5 -18t20.5 -53v-123q0 -32 -12 -53.5t-42 -34.5q-26 -11 -60 -17.5t-70 -6.5q-129 0 -195 74t-66 238q0 160 66 232t195 72q56 0 103 -20t78 -43l-33 -64q-23 23 -64 41.5t-84 18.5q-89 0 -134.5 -55t-45.5 -182q0 -129 45.5 -186.5t134.5 -57.5 q26 0 54.5 4.5t48.5 12.5v143q0 10 -10 10h-126v68h147v0zM343 642l-51 75l-50 -75h-61l85 123h53l84 -123h-60z" />
<glyph unicode="&#x11d;" horiz-adv-x="497" d="M355 45q-29 -50 -121 -50q-91 0 -139 63.5t-48 182.5t49 182.5t146 63.5q100 0 145.5 -63.5t45.5 -182.5v-240q0 -78 -47 -120t-146 -42q-39 0 -69 7.5t-50 16.5q-24 11 -42 25l27 62q17 -12 38 -22q18 -8 42.5 -15t53.5 -7q61 0 87.5 26.5t27.5 76.5v36zM240 60 q37 0 59.5 15.5t34.5 41t16 58t4 66.5q0 33 -2.5 65.5t-14 58t-34 41t-61.5 15.5q-37 0 -60 -15.5t-35.5 -41t-16.5 -58t-4 -65.5q0 -34 4 -66.5t16 -58t34.5 -41t59.5 -15.5zM295 552l-51 75l-50 -75h-61l85 123h53l84 -123h-60z" />
<glyph unicode="&#x11e;" horiz-adv-x="540" d="M422 300q29 0 49.5 -18t20.5 -53v-123q0 -32 -12 -53.5t-42 -34.5q-26 -11 -60 -17.5t-70 -6.5q-129 0 -195 74t-66 238q0 160 66 232t195 72q56 0 103 -20t78 -43l-33 -64q-23 23 -64 41.5t-84 18.5q-89 0 -134.5 -55t-45.5 -182q0 -129 45.5 -186.5t134.5 -57.5 q26 0 54.5 4.5t48.5 12.5v143q0 10 -10 10h-126v68h147v0zM251 753q0 -22 11.5 -39.5t40.5 -17.5q28 0 39.5 17.5t11.5 39.5h58q0 -21 -6 -40t-19.5 -33.5t-34 -23.5t-49.5 -9t-49.5 9t-34 23.5t-20 33.5t-6.5 40h58z" />
<glyph unicode="&#x11f;" horiz-adv-x="497" d="M355 45q-29 -50 -121 -50q-91 0 -139 63.5t-48 182.5t49 182.5t146 63.5q100 0 145.5 -63.5t45.5 -182.5v-240q0 -78 -47 -120t-146 -42q-39 0 -69 7.5t-50 16.5q-24 11 -42 25l27 62q17 -12 38 -22q18 -8 42.5 -15t53.5 -7q61 0 87.5 26.5t27.5 76.5v36zM240 60 q37 0 59.5 15.5t34.5 41t16 58t4 66.5q0 33 -2.5 65.5t-14 58t-34 41t-61.5 15.5q-37 0 -60 -15.5t-35.5 -41t-16.5 -58t-4 -65.5q0 -34 4 -66.5t16 -58t34.5 -41t59.5 -15.5zM192 663q0 -22 11.5 -39.5t40.5 -17.5q28 0 39.5 17.5t11.5 39.5h58q0 -21 -6 -40t-19.5 -33.5 t-34 -23.5t-49.5 -9t-49.5 9t-34 23.5t-20 33.5t-6.5 40h58z" />
<glyph unicode="&#x120;" horiz-adv-x="540" d="M422 300q29 0 49.5 -18t20.5 -53v-123q0 -32 -12 -53.5t-42 -34.5q-26 -11 -60 -17.5t-70 -6.5q-129 0 -195 74t-66 238q0 160 66 232t195 72q56 0 103 -20t78 -43l-33 -64q-23 23 -64 41.5t-84 18.5q-89 0 -134.5 -55t-45.5 -182q0 -129 45.5 -186.5t134.5 -57.5 q26 0 54.5 4.5t48.5 12.5v143q0 10 -10 10h-126v68h147v0zM303 646q-19 0 -33 13.5t-14 32.5q0 20 14 34t33 14q20 0 33 -14t13 -33q0 -20 -13 -33.5t-33 -13.5z" />
<glyph unicode="&#x121;" horiz-adv-x="497" d="M355 45q-29 -50 -121 -50q-91 0 -139 63.5t-48 182.5t49 182.5t146 63.5q100 0 145.5 -63.5t45.5 -182.5v-240q0 -78 -47 -120t-146 -42q-39 0 -69 7.5t-50 16.5q-24 11 -42 25l27 62q17 -12 38 -22q18 -8 42.5 -15t53.5 -7q61 0 87.5 26.5t27.5 76.5v36zM240 60 q37 0 59.5 15.5t34.5 41t16 58t4 66.5q0 33 -2.5 65.5t-14 58t-34 41t-61.5 15.5q-37 0 -60 -15.5t-35.5 -41t-16.5 -58t-4 -65.5q0 -34 4 -66.5t16 -58t34.5 -41t59.5 -15.5zM242 556q-19 0 -33 13.5t-14 32.5q0 20 14 34t33 14q20 0 33 -14t13 -33q0 -20 -13 -33.5 t-33 -13.5z" />
<glyph unicode="&#x122;" horiz-adv-x="540" d="M422 300q29 0 49.5 -18t20.5 -53v-123q0 -32 -12 -53.5t-42 -34.5q-26 -11 -60 -17.5t-70 -6.5q-129 0 -195 74t-66 238q0 160 66 232t195 72q56 0 103 -20t78 -43l-33 -64q-23 23 -64 41.5t-84 18.5q-89 0 -134.5 -55t-45.5 -182q0 -129 45.5 -186.5t134.5 -57.5 q26 0 54.5 4.5t48.5 12.5v143q0 10 -10 10h-126v68h147v0zM247.802 -157.801q9 9.89941 16.2002 22.5t7.2002 19.8008q-15.2998 4.5 -25.2002 15.75q-9.90039 11.251 -9.90039 28.3516q0 19.7998 13.0498 33.3008q13.0508 13.5 31.9512 13.5q20.7002 0 33.751 -14.4004 t13.0508 -39.6016q0 -26.1006 -17.1006 -52.6514q-17.1006 -26.5498 -43.2012 -44.5508z" />
<glyph unicode="&#x123;" horiz-adv-x="497" d="M269 648q-17 -17 -23.5 -32t4.5 -17q13 -2 22 -12.5t9 -24.5q0 -17 -11 -28.5t-27 -11.5q-17 0 -28.5 13t-11.5 36q0 28 14.5 52.5t37.5 40.5zM355 45q-29 -50 -121 -50q-91 0 -139 63.5t-48 182.5t49 182.5t146 63.5q100 0 145.5 -63.5t45.5 -182.5v-240q0 -78 -47 -120 t-146 -42q-39 0 -69 7.5t-50 16.5q-24 11 -42 25l27 62q17 -12 38 -22q18 -8 42.5 -15t53.5 -7q61 0 87.5 26.5t27.5 76.5v36zM240 60q37 0 59.5 15.5t34.5 41t16 58t4 66.5q0 33 -2.5 65.5t-14 58t-34 41t-61.5 15.5q-37 0 -60 -15.5t-35.5 -41t-16.5 -58t-4 -65.5 q0 -34 4 -66.5t16 -58t34.5 -41t59.5 -15.5z" />
<glyph unicode="&#x124;" horiz-adv-x="559" d="M419 252h-271v-252h-81v605h81v-286h271v286h80v-605h-80v252zM338 642l-51 75l-50 -75h-61l85 123h53l84 -123h-60z" />
<glyph unicode="&#x125;" horiz-adv-x="505" d="M260 487q39 0 72.5 -13.5t57.5 -37.5t38 -58t14 -75v-303h-80v296q0 61 -29 93t-78 32q-50 0 -79 -32t-29 -93v-296h-80v658h80v-221q19 23 47.5 36.5t65.5 13.5zM159 682l-51 75l-50 -75h-61l85 123h53l84 -123h-60z" />
<glyph unicode="&#x126;" horiz-adv-x="559" d="M548 400h-49v-400h-80v252h-271v-252h-81v400h-48v60h48v145h81v-145h271v145h80v-145h49v-60zM419 319v81h-271v-81h271z" />
<glyph unicode="&#x127;" horiz-adv-x="505" d="M315 523h-168v-85q19 22 51.5 35.5t71.5 13.5q38 0 70 -13.5t54.5 -37.5t35 -58t12.5 -75v-303h-79v271q0 72 -26.5 111t-81.5 39q-56 0 -82 -39t-26 -111v-271h-79v523h-48v59h48v76h79v-76h168v-59z" />
<glyph unicode="&#x128;" horiz-adv-x="242" d="M167 0h-80v605h80v-605zM-12 702q12 9 27 17q12 7 28.5 12.5t35.5 5.5t32.5 -6t24.5 -12.5t22 -12.5t26 -6q11 0 23 4.5t22.5 9.5t17 10l6.5 5l20 -45q-12 -10 -27 -17q-13 -7 -29.5 -12t-34.5 -5q-19 0 -31.5 5.5t-23.5 12.5t-22.5 12.5t-27.5 5.5q-11 0 -23 -4.5 t-22 -9.5t-16.5 -10l-6.5 -5z" />
<glyph unicode="&#x129;" horiz-adv-x="220" d="M-39 612q12 9 27 17q12 7 28.5 12.5t35.5 5.5t32.5 -6t24.5 -12.5t22 -12.5t26 -6q11 0 23 4.5t22.5 9.5t17 10l6.5 5l20 -45q-12 -10 -27 -17q-13 -7 -29.5 -12t-34.5 -5q-19 0 -31.5 5.5t-23.5 12.5t-22.5 12.5t-27.5 5.5q-11 0 -23 -4.5t-22 -9.5t-16.5 -10l-6.5 -5z M145 -9q-26 7 -43 20.5t-26.5 33t-13 45t-3.5 56.5v336h80v-367q0 -23 7 -39t27 -25l-28 -60v0z" />
<glyph unicode="&#x12a;" horiz-adv-x="242" d="M167 0h-80v605h80v-605zM259 662h-257v49h257v-49z" />
<glyph unicode="&#x12b;" horiz-adv-x="220" d="M231 569h-257v49h257v-49zM145 -9q-26 7 -43 20.5t-26.5 33t-13 45t-3.5 56.5v336h80v-367q0 -23 7 -39t27 -25l-28 -60v0z" />
<glyph unicode="&#x12c;" horiz-adv-x="242" d="M167 0h-80v605h80v-605zM78 753q0 -22 11.5 -39.5t40.5 -17.5q28 0 39.5 17.5t11.5 39.5h58q0 -21 -6 -40t-19.5 -33.5t-34 -23.5t-49.5 -9t-49.5 9t-34 23.5t-20 33.5t-6.5 40h58z" />
<glyph unicode="&#x12d;" horiz-adv-x="220" d="M50 663q0 -22 11.5 -39.5t40.5 -17.5q28 0 39.5 17.5t11.5 39.5h58q0 -21 -6 -40t-19.5 -33.5t-34 -23.5t-49.5 -9t-49.5 9t-34 23.5t-20 33.5t-6.5 40h58zM145 -9q-26 7 -43 20.5t-26.5 33t-13 45t-3.5 56.5v336h80v-367q0 -23 7 -39t27 -25l-28 -60v0z" />
<glyph unicode="&#x12e;" horiz-adv-x="242" d="M167 0h-13q-10 -11 -24 -30t-14 -38q0 -24 24 -24q13 0 29 8l6 -24q-7 -6 -19.5 -10.5t-24.5 -4.5q-22 0 -37.5 13.5t-15.5 35.5q0 23 13.5 41.5t29.5 32.5h-34v605h80v-605z" />
<glyph unicode="&#x12f;" horiz-adv-x="237" d="M116 542q-20 0 -34.5 14.5t-14.5 33.5q0 20 14.5 34.5t33.5 14.5q20 0 34.5 -14t14.5 -34t-14 -34.5t-34 -14.5zM164 -4q-9 -11 -21.5 -29t-12.5 -35q0 -24 23 -24q15 0 30 7l5 -24q-7 -5 -19 -9.5t-25 -4.5q-21 0 -37 13t-16 36q0 22 13 40.5t31 33.5q-32 17 -45.5 47 t-13.5 72v363h79v-367q0 -23 7.5 -39t27.5 -25z" />
<glyph unicode="&#x130;" horiz-adv-x="242" d="M167 0h-80v605h80v-605zM129 646q-19 0 -33 13.5t-14 32.5q0 20 14 34t33 14q20 0 33 -14t13 -33q0 -20 -13 -33.5t-33 -13.5z" />
<glyph unicode="&#x131;" horiz-adv-x="220" d="M145 -9q-26 7 -43 20.5t-26.5 33t-13 45t-3.5 56.5v336h80v-367q0 -23 7 -39t27 -25l-28 -60v0z" />
<glyph unicode="&#x132;" horiz-adv-x="456" d="M167 0h-80v605h80v-605zM193 -112q19 6 38 19.5t34.5 33.5t25 47t9.5 60v557h81v-547q0 -57 -16.5 -97.5t-40.5 -68.5t-51.5 -45t-49.5 -27z" />
<glyph unicode="&#x133;" horiz-adv-x="424" d="M161 -10q-45 13 -65 45.5t-20 83.5v363h79v-367q0 -23 7.5 -39t27.5 -25zM116 542q-20 0 -34.5 14.5t-14.5 33.5q0 20 14.5 34.5t33.5 14.5q20 0 34.5 -14t14.5 -34t-14 -34.5t-34 -14.5zM185 -112q18 6 36.5 17t34 27.5t25 40t9.5 56.5v453h79v-444q0 -56 -16.5 -93 t-40.5 -61t-50.5 -38t-47.5 -22zM329 542q-20 0 -34.5 14.5t-14.5 33.5q0 20 14.5 34.5t33.5 14.5q21 0 35 -14t14 -34t-14 -34.5t-34 -14.5z" />
<glyph unicode="&#x134;" horiz-adv-x="255" d="M-8 -112q19 6 38 19.5t34.5 33.5t25 47t9.5 60v557h81v-547q0 -57 -16.5 -97.5t-40.5 -68.5t-51.5 -45t-49.5 -27zM194 642l-51 75l-50 -75h-61l85 123h53l84 -123h-60z" />
<glyph unicode="&#x135;" horiz-adv-x="219" d="M-24 -111q18 6 36.5 16.5t33.5 27t24.5 40t9.5 56.5v453h79v-444q0 -52 -14.5 -88.5t-37 -62t-50 -40.5t-53.5 -23zM173 552l-51 75l-50 -75h-61l85 123h53l84 -123h-60z" />
<glyph unicode="&#x136;" horiz-adv-x="538" d="M329 286q79 -30 114.5 -102.5t35.5 -183.5h-81q0 129 -53.5 190.5t-169.5 61.5h-27v-252h-80v605h80v-286h27q118 0 170.5 70t52.5 216h81q0 -124 -35.5 -204.5t-114.5 -114.5zM220.802 -157.801q9 9.89941 16.2002 22.5t7.2002 19.8008q-15.2998 4.5 -25.2002 15.75 q-9.90039 11.251 -9.90039 28.3516q0 19.7998 13.0498 33.3008q13.0508 13.5 31.9512 13.5q20.7002 0 33.751 -14.4004t13.0508 -39.6016q0 -26.1006 -17.1006 -52.6514q-17.1006 -26.5498 -43.2012 -44.5508z" />
<glyph unicode="&#x137;" horiz-adv-x="484" d="M421 441q0 -69 -25 -118.5t-76 -70.5q52 -23 76.5 -70t24.5 -117v-65h-79v58q0 46 -10.5 77t-30 50t-47 27t-62.5 8h-46v-220h-79v658h79v-371h46q40 0 68.5 8t46.5 27t26.5 50t8.5 76v34h79v-41v0zM197.802 -157.801q9 9.89941 16.2002 22.5t7.2002 19.8008 q-15.2998 4.5 -25.2002 15.75q-9.90039 11.251 -9.90039 28.3516q0 19.7998 13.0498 33.3008q13.0508 13.5 31.9512 13.5q20.7002 0 33.751 -14.4004t13.0508 -39.6016q0 -26.1006 -17.1006 -52.6514q-17.1006 -26.5498 -43.2012 -44.5508z" />
<glyph unicode="&#x138;" horiz-adv-x="484" d="M421 441q0 -69 -25 -118.5t-76 -70.5q52 -23 76.5 -70t24.5 -117v-65h-79v58q0 46 -10.5 77t-30 50t-47 27t-62.5 8h-46v-220h-79v482h79v-195h46q40 0 68.5 8t46.5 27t26.5 50t8.5 76v34h79v-41v0z" />
<glyph unicode="&#x139;" horiz-adv-x="459" d="M447 0h-310q-32 0 -51 20t-19 52v533h81v-528q0 -10 10 -10h289v-67zM155 770h74l-90 -123h-64z" />
<glyph unicode="&#x13a;" horiz-adv-x="227" d="M153 -9q-45 12 -65.5 44.5t-20.5 83.5v539h79v-543q0 -23 7.5 -39t26.5 -25l-27 -60v0zM133 827h74l-90 -123h-64z" />
<glyph unicode="&#x13b;" horiz-adv-x="459" d="M447 0h-310q-32 0 -51 20t-19 52v533h81v-528q0 -10 10 -10h289v-67zM211.802 -157.801q9 9.89941 16.2002 22.5t7.2002 19.8008q-15.2998 4.5 -25.2002 15.75q-9.90039 11.251 -9.90039 28.3516q0 19.7998 13.0498 33.3008q13.0508 13.5 31.9512 13.5 q20.7002 0 33.751 -14.4004t13.0508 -39.6016q0 -26.1006 -17.1006 -52.6514q-17.1006 -26.5498 -43.2012 -44.5508z" />
<glyph unicode="&#x13c;" horiz-adv-x="227" d="M153 -9q-45 12 -65.5 44.5t-20.5 83.5v539h79v-543q0 -23 7.5 -39t26.5 -25l-27 -60v0zM87.8018 -157.801q9 9.89941 16.2002 22.5t7.2002 19.8008q-15.2998 4.5 -25.2002 15.75q-9.90039 11.251 -9.90039 28.3516q0 19.7998 13.0498 33.3008q13.0508 13.5 31.9512 13.5 q20.7002 0 33.751 -14.4004t13.0508 -39.6016q0 -26.1006 -17.1006 -52.6514q-17.1006 -26.5498 -43.2012 -44.5508z" />
<glyph unicode="&#x13d;" horiz-adv-x="459" d="M447 0h-310q-32 0 -51 20t-19 52v533h81v-528q0 -10 10 -10h289v-67zM186.201 478.811q9 9.90039 16.2002 22.501t7.2002 19.8008q-15.2998 4.5 -25.2002 15.75t-9.90039 28.3506q0 19.8008 13.0498 33.3008q13.0508 13.501 31.9512 13.501q20.7012 0 33.751 -14.4004 q13.0508 -14.4004 13.0508 -39.6016q0 -26.1006 -17.1006 -52.6514t-43.2012 -44.5508z" />
<glyph unicode="&#x13e;" horiz-adv-x="227" d="M153 -9q-45 12 -65.5 44.5t-20.5 83.5v539h79v-543q0 -23 7.5 -39t26.5 -25l-27 -60v0zM178.201 528.811q9 9.90039 16.2002 22.501t7.2002 19.8008q-15.2998 4.5 -25.2002 15.75t-9.90039 28.3506q0 19.8008 13.0498 33.3008q13.0508 13.501 31.9512 13.501 q20.7012 0 33.751 -14.4004q13.0508 -14.4004 13.0508 -39.6016q0 -26.1006 -17.1006 -52.6514t-43.2012 -44.5508z" />
<glyph unicode="&#x13f;" horiz-adv-x="459" d="M447 0h-310q-32 0 -51 20t-19 52v533h81v-528q0 -10 10 -10h289v-67zM287 219q-21 0 -36 15t-15 36t15 36t35 15q21 0 36 -15t15 -35q0 -22 -15 -37t-35 -15z" />
<glyph unicode="&#x140;" horiz-adv-x="289" d="M153 -9q-45 12 -65.5 44.5t-20.5 83.5v539h79v-543q0 -23 7.5 -39t26.5 -25l-27 -60v0zM239 219q-21 0 -36 15t-15 36t15 36t35 15q21 0 36 -15t15 -35q0 -22 -15 -37t-35 -15z" />
<glyph unicode="&#x141;" horiz-adv-x="459" d="M272 340l-124 -90v-173q0 -10 10 -10h289v-67h-310q-32 0 -51 20t-19 52v119l-73 -53v84l73 53v330h81v-271l124 90v-84z" />
<glyph unicode="&#x142;" horiz-adv-x="227" d="M217 335l-74 -55v-169q0 -24 7 -39.5t26 -24.5l-27 -62q-51 20 -68 58.5t-17 91.5v89l-68 -50v81l68 50v353h79v-296l74 54v-81z" />
<glyph unicode="&#x143;" horiz-adv-x="593" d="M164 503q-3 6 -9 6q-8 0 -8 -7v-502h-80v538q0 33 20.5 53t54.5 20q35 0 53.5 -15.5t30.5 -41.5l209 -451q3 -7 9 -7q8 0 8 8v501h81v-538q0 -34 -20.5 -53.5t-55.5 -19.5t-53.5 15.5t-30.5 41.5zM344 770h74l-90 -123h-64z" />
<glyph unicode="&#x144;" horiz-adv-x="498" d="M247 487q42 0 76 -13.5t59 -37.5t38.5 -58t13.5 -75v-303h-79v296q0 61 -29.5 93t-78.5 32q-50 0 -79.5 -32t-29.5 -93v-296h-79v303q0 83 48.5 133.5t139.5 50.5zM278 680h74l-90 -123h-64z" />
<glyph unicode="&#x145;" horiz-adv-x="593" d="M164 503q-3 6 -9 6q-8 0 -8 -7v-502h-80v538q0 33 20.5 53t54.5 20q35 0 53.5 -15.5t30.5 -41.5l209 -451q3 -7 9 -7q8 0 8 8v501h81v-538q0 -34 -20.5 -53.5t-55.5 -19.5t-53.5 15.5t-30.5 41.5zM247.802 -157.801q9 9.89941 16.2002 22.5t7.2002 19.8008 q-15.2998 4.5 -25.2002 15.75q-9.90039 11.251 -9.90039 28.3516q0 19.7998 13.0498 33.3008q13.0508 13.5 31.9512 13.5q20.7002 0 33.751 -14.4004t13.0508 -39.6016q0 -26.1006 -17.1006 -52.6514q-17.1006 -26.5498 -43.2012 -44.5508z" />
<glyph unicode="&#x146;" horiz-adv-x="498" d="M247 487q42 0 76 -13.5t59 -37.5t38.5 -58t13.5 -75v-303h-79v296q0 61 -29.5 93t-78.5 32q-50 0 -79.5 -32t-29.5 -93v-296h-79v303q0 83 48.5 133.5t139.5 50.5zM197.802 -157.801q9 9.89941 16.2002 22.5t7.2002 19.8008q-15.2998 4.5 -25.2002 15.75 q-9.90039 11.251 -9.90039 28.3516q0 19.7998 13.0498 33.3008q13.0508 13.5 31.9512 13.5q20.7002 0 33.751 -14.4004t13.0508 -39.6016q0 -26.1006 -17.1006 -52.6514q-17.1006 -26.5498 -43.2012 -44.5508z" />
<glyph unicode="&#x147;" horiz-adv-x="593" d="M164 503q-3 6 -9 6q-8 0 -8 -7v-502h-80v538q0 33 20.5 53t54.5 20q35 0 53.5 -15.5t30.5 -41.5l209 -451q3 -7 9 -7q8 0 8 8v501h81v-538q0 -34 -20.5 -53.5t-55.5 -19.5t-53.5 15.5t-30.5 41.5zM256 765l51 -74l50 74h61l-85 -123h-53l-84 123h60z" />
<glyph unicode="&#x148;" horiz-adv-x="498" d="M247 487q42 0 76 -13.5t59 -37.5t38.5 -58t13.5 -75v-303h-79v296q0 61 -29.5 93t-78.5 32q-50 0 -79.5 -32t-29.5 -93v-296h-79v303q0 83 48.5 133.5t139.5 50.5zM196 675l51 -74l50 74h61l-85 -123h-53l-84 123h60z" />
<glyph unicode="&#x149;" horiz-adv-x="498" d="M247 487q42 0 76 -13.5t59 -37.5t38.5 -58t13.5 -75v-303h-79v296q0 61 -29.5 93t-78.5 32q-50 0 -79.5 -32t-29.5 -93v-296h-79v303q0 83 48.5 133.5t139.5 50.5zM14.2012 451.811q9 9.90039 16.2002 22.501t7.2002 19.8008q-15.2998 4.5 -25.2002 15.75 t-9.90039 28.3506q0 19.8008 13.0498 33.3008q13.0508 13.501 31.9512 13.501q20.7012 0 33.751 -14.4004q13.0508 -14.4004 13.0508 -39.6016q0 -26.1006 -17.1006 -52.6514t-43.2012 -44.5508z" />
<glyph unicode="&#x14a;" horiz-adv-x="593" d="M435 103q3 -7 9 -7q8 0 8 8v501h81v-566q0 -57 -18 -93.5t-46 -59.5t-61.5 -35t-63.5 -18l-22 69q22 4 42.5 10.5t37 17.5t28.5 27t17 39q-27 5 -45 18t-29 37l-209 452q-3 6 -9 6q-8 0 -8 -7v-502h-80v538q0 33 20.5 53t54.5 20q35 0 53.5 -15.5t30.5 -41.5z" />
<glyph unicode="&#x14b;" horiz-adv-x="498" d="M227 -97q26 4 49 12.5t40.5 23t28 36.5t10.5 54v267q0 61 -29.5 93t-78.5 32q-50 0 -79.5 -32t-29.5 -93v-296h-79v303q0 83 48.5 133.5t139.5 50.5q42 0 76 -13.5t59 -37.5t38.5 -58t13.5 -75v-265q0 -56 -18 -92.5t-45 -59t-59.5 -34t-62.5 -17.5z" />
<glyph unicode="&#x14c;" horiz-adv-x="581" d="M290 -6q-125 0 -184 80.5t-59 231.5q0 149 59 226.5t184 77.5t183 -77.5t58 -226.5q0 -151 -58 -231.5t-183 -80.5zM290 543q-87 0 -124.5 -59.5t-37.5 -177.5t37.5 -181t124.5 -63t124.5 63t37.5 181t-37.5 177.5t-124.5 59.5zM418 662h-257v49h257v-49z" />
<glyph unicode="&#x14d;" horiz-adv-x="499" d="M247 -6q-100 0 -150 64t-50 183t50 182.5t150 63.5t149.5 -63.5t49.5 -182.5t-49.5 -183t-149.5 -64zM247 421q-63 0 -92 -46t-29 -134t29 -134.5t92 -46.5t91.5 46.5t28.5 134.5t-28.5 134t-91.5 46zM377 569h-257v49h257v-49z" />
<glyph unicode="&#x14e;" horiz-adv-x="581" d="M290 -6q-125 0 -184 80.5t-59 231.5q0 149 59 226.5t184 77.5t183 -77.5t58 -226.5q0 -151 -58 -231.5t-183 -80.5zM290 543q-87 0 -124.5 -59.5t-37.5 -177.5t37.5 -181t124.5 -63t124.5 63t37.5 181t-37.5 177.5t-124.5 59.5zM237 753q0 -22 11.5 -39.5t40.5 -17.5 q28 0 39.5 17.5t11.5 39.5h58q0 -21 -6 -40t-19.5 -33.5t-34 -23.5t-49.5 -9t-49.5 9t-34 23.5t-20 33.5t-6.5 40h58z" />
<glyph unicode="&#x14f;" horiz-adv-x="499" d="M247 -6q-100 0 -150 64t-50 183t50 182.5t150 63.5t149.5 -63.5t49.5 -182.5t-49.5 -183t-149.5 -64zM247 421q-63 0 -92 -46t-29 -134t29 -134.5t92 -46.5t91.5 46.5t28.5 134.5t-28.5 134t-91.5 46zM197 663q0 -22 11.5 -39.5t40.5 -17.5q28 0 39.5 17.5t11.5 39.5h58 q0 -21 -6 -40t-19.5 -33.5t-34 -23.5t-49.5 -9t-49.5 9t-34 23.5t-20 33.5t-6.5 40h58z" />
<glyph unicode="&#x150;" horiz-adv-x="581" d="M290 -6q-125 0 -184 80.5t-59 231.5q0 149 59 226.5t184 77.5t183 -77.5t58 -226.5q0 -151 -58 -231.5t-183 -80.5zM290 543q-87 0 -124.5 -59.5t-37.5 -177.5t37.5 -181t124.5 -63t124.5 63t37.5 181t-37.5 177.5t-124.5 59.5zM271 759h63l-84 -116h-54zM383 759h63 l-84 -116h-54z" />
<glyph unicode="&#x151;" horiz-adv-x="499" d="M247 -6q-100 0 -150 64t-50 183t50 182.5t150 63.5t149.5 -63.5t49.5 -182.5t-49.5 -183t-149.5 -64zM247 421q-63 0 -92 -46t-29 -134t29 -134.5t92 -46.5t91.5 46.5t28.5 134.5t-28.5 134t-91.5 46zM231 669h63l-84 -116h-54zM343 669h63l-84 -116h-54z" />
<glyph unicode="&#x152;" horiz-adv-x="903" d="M549 537q-10 0 -10 -10v-174h248v-67h-248v-209q0 -10 10 -10h290v-67h-310q-33 0 -48 19t-17 39q-57 -64 -167 -64q-125 0 -184 80.5t-59 231.5q0 149 59 226.5t184 77.5q109 0 167 -63q3 24 18 41t47 17h310v-68h-290zM297 62q87 0 124.5 63t37.5 181t-37.5 177.5 t-124.5 59.5t-124.5 -59.5t-37.5 -177.5t37.5 -181t124.5 -63z" />
<glyph unicode="&#x153;" horiz-adv-x="821" d="M578 61q35 0 64 15t64 48q8 -17 16 -34.5t16 -34.5q-35 -30 -72.5 -45t-90.5 -15q-117 0 -168 89q-50 -89 -160 -89q-100 0 -150 63.5t-50 182.5t50 182.5t150 63.5q112 0 161 -93q26 45 67 69t94 24q51 0 85.5 -13.5t56.5 -35t31.5 -47.5t9.5 -51q0 -28 -6.5 -53.5 t-25.5 -44.5t-52.5 -30.5t-87.5 -11.5q-30 0 -55 2t-43 5q-21 4 -38 8q3 -74 37.5 -114t96.5 -40zM569 421q-31 0 -53.5 -11.5t-37.5 -31.5t-23 -46t-10 -54q18 -4 39 -7q18 -2 42 -4t52 -2q31 0 50 5.5t29.5 15t14 23.5t3.5 31q0 15 -5 29.5t-17 26t-32.5 18.5t-51.5 7z M247 60q63 0 92 46.5t29 134.5t-29 134t-92 46t-92 -46t-29 -134t29 -134.5t92 -46.5z" />
<glyph unicode="&#x154;" horiz-adv-x="541" d="M392 274q45 -23 67.5 -66.5t22.5 -100.5v-107h-81v101q0 73 -34.5 108.5t-97.5 35.5h-122v-245h-80v533q0 32 18.5 52t50.5 20h138q110 0 159 -49t49 -131q0 -51 -20.5 -91.5t-69.5 -59.5zM147 313h127q72 0 99.5 30.5t27.5 81.5t-27.5 81.5t-99.5 30.5h-117 q-10 0 -10 -10v-214zM294 770h74l-90 -123h-64z" />
<glyph unicode="&#x155;" horiz-adv-x="328" d="M310 402q-16 9 -32.5 14t-30.5 5q-49 0 -78.5 -32.5t-29.5 -92.5v-296h-80v303q0 83 48.5 133.5t139.5 50.5q21 0 46.5 -7.5t45.5 -18.5zM234 680h74l-90 -123h-64z" />
<glyph unicode="&#x156;" horiz-adv-x="541" d="M392 274q45 -23 67.5 -66.5t22.5 -100.5v-107h-81v101q0 73 -34.5 108.5t-97.5 35.5h-122v-245h-80v533q0 32 18.5 52t50.5 20h138q110 0 159 -49t49 -131q0 -51 -20.5 -91.5t-69.5 -59.5zM147 313h127q72 0 99.5 30.5t27.5 81.5t-27.5 81.5t-99.5 30.5h-117 q-10 0 -10 -10v-214zM220.802 -157.801q9 9.89941 16.2002 22.5t7.2002 19.8008q-15.2998 4.5 -25.2002 15.75q-9.90039 11.251 -9.90039 28.3516q0 19.7998 13.0498 33.3008q13.0508 13.5 31.9512 13.5q20.7002 0 33.751 -14.4004t13.0508 -39.6016 q0 -26.1006 -17.1006 -52.6514q-17.1006 -26.5498 -43.2012 -44.5508z" />
<glyph unicode="&#x157;" horiz-adv-x="328" d="M310 402q-16 9 -32.5 14t-30.5 5q-49 0 -78.5 -32.5t-29.5 -92.5v-296h-80v303q0 83 48.5 133.5t139.5 50.5q21 0 46.5 -7.5t45.5 -18.5zM64.8018 -157.801q9 9.89941 16.2002 22.5t7.2002 19.8008q-15.2998 4.5 -25.2002 15.75q-9.90039 11.251 -9.90039 28.3516 q0 19.7998 13.0498 33.3008q13.0508 13.5 31.9512 13.5q20.7002 0 33.751 -14.4004t13.0508 -39.6016q0 -26.1006 -17.1006 -52.6514q-17.1006 -26.5498 -43.2012 -44.5508z" />
<glyph unicode="&#x158;" horiz-adv-x="541" d="M392 274q45 -23 67.5 -66.5t22.5 -100.5v-107h-81v101q0 73 -34.5 108.5t-97.5 35.5h-122v-245h-80v533q0 32 18.5 52t50.5 20h138q110 0 159 -49t49 -131q0 -51 -20.5 -91.5t-69.5 -59.5zM147 313h127q72 0 99.5 30.5t27.5 81.5t-27.5 81.5t-99.5 30.5h-117 q-10 0 -10 -10v-214zM209 765l51 -74l50 74h61l-85 -123h-53l-84 123h60z" />
<glyph unicode="&#x159;" horiz-adv-x="328" d="M310 402q-16 9 -32.5 14t-30.5 5q-49 0 -78.5 -32.5t-29.5 -92.5v-296h-80v303q0 83 48.5 133.5t139.5 50.5q21 0 46.5 -7.5t45.5 -18.5zM167 675l51 -74l50 74h61l-85 -123h-53l-84 123h60z" />
<glyph unicode="&#x15a;" horiz-adv-x="531" d="M312 337q39 -4 71 -14t55 -29.5t35.5 -49t12.5 -72.5q0 -82 -60.5 -130t-165.5 -48q-72 0 -123.5 16.5t-89.5 46.5l34 72q31 -30 76.5 -48t100.5 -18q147 0 147 109q0 43 -23 67t-75 28l-76 6q-88 7 -133.5 48t-45.5 116q0 38 14.5 69.5t41.5 54.5t65.5 36t85.5 13 q54 0 105 -14t83 -34l-31 -66q-32 23 -72 35t-85 12q-61 0 -93.5 -29t-32.5 -77q0 -44 27.5 -67t76.5 -27l75 -6v0zM289 770h74l-90 -123h-64z" />
<glyph unicode="&#x15b;" d="M284 273q31 -3 58.5 -10t47 -21.5t31 -38.5t11.5 -61q0 -69 -53.5 -108.5t-145.5 -39.5q-56 0 -101.5 15t-84.5 45l31 66q66 -60 153 -60q60 0 91.5 20.5t31.5 61.5q0 59 -74 65l-75 7q-152 13 -152 131q0 66 49 104t131 38q42 0 83.5 -12t76.5 -32l-27 -61 q-32 22 -65.5 31t-67.5 9q-49 0 -75 -20t-26 -57q0 -30 18.5 -45.5t60.5 -19.5l73 -7v0zM269 680h74l-90 -123h-64z" />
<glyph unicode="&#x15c;" horiz-adv-x="531" d="M312 337q39 -4 71 -14t55 -29.5t35.5 -49t12.5 -72.5q0 -82 -60.5 -130t-165.5 -48q-72 0 -123.5 16.5t-89.5 46.5l34 72q31 -30 76.5 -48t100.5 -18q147 0 147 109q0 43 -23 67t-75 28l-76 6q-88 7 -133.5 48t-45.5 116q0 38 14.5 69.5t41.5 54.5t65.5 36t85.5 13 q54 0 105 -14t83 -34l-31 -66q-32 23 -72 35t-85 12q-61 0 -93.5 -29t-32.5 -77q0 -44 27.5 -67t76.5 -27l75 -6v0zM315 642l-51 75l-50 -75h-61l85 123h53l84 -123h-60z" />
<glyph unicode="&#x15d;" d="M284 273q31 -3 58.5 -10t47 -21.5t31 -38.5t11.5 -61q0 -69 -53.5 -108.5t-145.5 -39.5q-56 0 -101.5 15t-84.5 45l31 66q66 -60 153 -60q60 0 91.5 20.5t31.5 61.5q0 59 -74 65l-75 7q-152 13 -152 131q0 66 49 104t131 38q42 0 83.5 -12t76.5 -32l-27 -61 q-32 22 -65.5 31t-67.5 9q-49 0 -75 -20t-26 -57q0 -30 18.5 -45.5t60.5 -19.5l73 -7v0zM288 552l-51 75l-50 -75h-61l85 123h53l84 -123h-60z" />
<glyph unicode="&#x15e;" horiz-adv-x="531" d="M312 337q39 -3 71 -13.5t55 -30t35.5 -49t12.5 -72.5q0 -79 -55.5 -126t-153.5 -51l-10 -26q-3 -7 4 -7h9q35 0 55.5 -14.5t20.5 -49.5q0 -61 -85 -61q-22 0 -46 9t-41 20l17 38q20 -15 36 -21.5t34 -6.5q38 0 38 24t-29 24h-14q-17 0 -29 10t-12 23q0 8 4 16l10 22 q-63 2 -110 18t-82 44l34 72q31 -30 76.5 -48t100.5 -18q147 0 147 109q0 42 -23 65.5t-74 28.5l-77 7q-88 8 -133.5 48t-45.5 116q0 38 14.5 69.5t41.5 54.5t65.5 36t85.5 13q54 0 105 -14t83 -34q-8 -17 -15.5 -33t-15.5 -33q-32 23 -72 35t-85 12q-61 0 -93.5 -29 t-32.5 -77q0 -43 28 -66.5t76 -27.5l75 -6v0z" />
<glyph unicode="&#x15f;" d="M284 273q31 -3 58.5 -10t47 -21.5t31 -38.5t11.5 -61q0 -66 -49.5 -104.5t-134.5 -42.5l-10 -26q-3 -7 4 -7h9q35 0 55.5 -14.5t20.5 -49.5q0 -61 -85 -61q-22 0 -46 9t-41 20l17 38q20 -15 36 -21.5t34 -6.5q38 0 38 24t-29 24h-14q-17 0 -29 10t-12 23q0 6 4 16l11 23 q-96 4 -164 58q8 17 15.5 33t15.5 33q66 -60 153 -60q60 0 91.5 20.5t31.5 61.5q0 30 -18.5 45.5t-55.5 19.5l-75 7q-152 13 -152 131q0 66 49 104t131 38q42 0 83.5 -12t76.5 -32l-27 -61q-32 22 -65.5 31t-67.5 9q-49 0 -75 -20t-26 -57q0 -58 79 -65l73 -7v0z" />
<glyph unicode="&#x160;" horiz-adv-x="531" d="M312 337q39 -4 71 -14t55 -29.5t35.5 -49t12.5 -72.5q0 -82 -60.5 -130t-165.5 -48q-72 0 -123.5 16.5t-89.5 46.5l34 72q31 -30 76.5 -48t100.5 -18q147 0 147 109q0 43 -23 67t-75 28l-76 6q-88 7 -133.5 48t-45.5 116q0 38 14.5 69.5t41.5 54.5t65.5 36t85.5 13 q54 0 105 -14t83 -34l-31 -66q-32 23 -72 35t-85 12q-61 0 -93.5 -29t-32.5 -77q0 -44 27.5 -67t76.5 -27l75 -6v0zM206 765l51 -74l50 74h61l-85 -123h-53l-84 123h60z" />
<glyph unicode="&#x161;" d="M284 273q31 -3 58.5 -10t47 -21.5t31 -38.5t11.5 -61q0 -69 -53.5 -108.5t-145.5 -39.5q-56 0 -101.5 15t-84.5 45l31 66q66 -60 153 -60q60 0 91.5 20.5t31.5 61.5q0 59 -74 65l-75 7q-152 13 -152 131q0 66 49 104t131 38q42 0 83.5 -12t76.5 -32l-27 -61 q-32 22 -65.5 31t-67.5 9q-49 0 -75 -20t-26 -57q0 -30 18.5 -45.5t60.5 -19.5l73 -7v0zM182 675l51 -74l50 74h61l-85 -123h-53l-84 123h60z" />
<glyph unicode="&#x162;" horiz-adv-x="490" d="M470 537h-185v-537h-80v537h-186v68h451v-68zM196.802 -157.801q9 9.89941 16.2002 22.5t7.2002 19.8008q-15.2998 4.5 -25.2002 15.75q-9.90039 11.251 -9.90039 28.3516q0 19.7998 13.0498 33.3008q13.0508 13.5 31.9512 13.5q20.7002 0 33.751 -14.4004 t13.0508 -39.6016q0 -26.1006 -17.1006 -52.6514q-17.1006 -26.5498 -43.2012 -44.5508z" />
<glyph unicode="&#x163;" horiz-adv-x="334" d="M203 -5q-65 0 -102.5 37t-37.5 95v469h80v-114h140v-66h-140v-290q0 -31 17 -48t43 -17q17 0 32 3t27 8q14 5 26 12l24 -60q-14 -9 -31 -15q-14 -5 -34 -9.5t-44 -4.5zM144.802 -157.801q9 9.89941 16.2002 22.5t7.2002 19.8008q-15.2998 4.5 -25.2002 15.75 q-9.90039 11.251 -9.90039 28.3516q0 19.7998 13.0498 33.3008q13.0508 13.5 31.9512 13.5q20.7002 0 33.751 -14.4004t13.0508 -39.6016q0 -26.1006 -17.1006 -52.6514q-17.1006 -26.5498 -43.2012 -44.5508z" />
<glyph unicode="&#x164;" horiz-adv-x="490" d="M470 537h-185v-537h-80v537h-186v68h451v-68zM195 765l51 -74l50 74h61l-85 -123h-53l-84 123h60z" />
<glyph unicode="&#x165;" horiz-adv-x="334" d="M203 -5q-65 0 -102.5 37t-37.5 95v469h80v-114h140v-66h-140v-290q0 -31 17 -48t43 -17q17 0 32 3t27 8q14 5 26 12l24 -60q-14 -9 -31 -15q-14 -5 -34 -9.5t-44 -4.5zM174.201 523.811q9 9.90039 16.2002 22.501t7.2002 19.8008q-15.2998 4.5 -25.2002 15.75 t-9.90039 28.3506q0 19.8008 13.0498 33.3008q13.0508 13.501 31.9512 13.501q20.7012 0 33.751 -14.4004q13.0508 -14.4004 13.0508 -39.6016q0 -26.1006 -17.1006 -52.6514t-43.2012 -44.5508z" />
<glyph unicode="&#x166;" horiz-adv-x="490" d="M401 337h-116v-337h-80v337h-116v65h116v135h-186v68h451v-68h-185v-135h116v-65z" />
<glyph unicode="&#x167;" horiz-adv-x="334" d="M203 -5q-65 0 -102.5 37t-37.5 95v138h-56v65h56v266h80v-114h140v-66h-140v-86h140v-65h-140v-139q0 -31 17 -48t43 -17q17 0 32 3t27 8q14 5 26 12l24 -60q-14 -9 -31 -15q-14 -5 -34 -9.5t-44 -4.5z" />
<glyph unicode="&#x168;" horiz-adv-x="558" d="M282 -6q-99 0 -157 53.5t-58 151.5v406h81v-399q0 -75 35.5 -109.5t98.5 -34.5t100 34.5t37 109.5v399h80v-406q0 -98 -56 -151.5t-161 -53.5zM141 702q12 9 27 17q12 7 28.5 12.5t35.5 5.5t32.5 -6t24.5 -12.5t22 -12.5t26 -6q11 0 23 4.5t22.5 9.5t17 10l6.5 5l20 -45 q-12 -10 -27 -17q-13 -7 -29.5 -12t-34.5 -5q-19 0 -31.5 5.5t-23.5 12.5t-22.5 12.5t-27.5 5.5q-11 0 -23 -4.5t-22 -9.5t-16.5 -10l-6.5 -5z" />
<glyph unicode="&#x169;" horiz-adv-x="501" d="M251 -6q-88 0 -138 50.5t-50 134.5v303h79v-296q0 -61 29.5 -93.5t79.5 -32.5q48 0 77.5 32.5t29.5 93.5v296h79v-303q0 -84 -47.5 -134.5t-138.5 -50.5zM109 612q12 9 27 17q12 7 28.5 12.5t35.5 5.5t32.5 -6t24.5 -12.5t22 -12.5t26 -6q11 0 23 4.5t22.5 9.5t17 10 l6.5 5l20 -45q-12 -10 -27 -17q-13 -7 -29.5 -12t-34.5 -5q-19 0 -31.5 5.5t-23.5 12.5t-22.5 12.5t-27.5 5.5q-11 0 -23 -4.5t-22 -9.5t-16.5 -10l-6.5 -5z" />
<glyph unicode="&#x16a;" horiz-adv-x="558" d="M282 -6q-99 0 -157 53.5t-58 151.5v406h81v-399q0 -75 35.5 -109.5t98.5 -34.5t100 34.5t37 109.5v399h80v-406q0 -98 -56 -151.5t-161 -53.5zM410 662h-257v49h257v-49z" />
<glyph unicode="&#x16b;" horiz-adv-x="501" d="M251 -6q-88 0 -138 50.5t-50 134.5v303h79v-296q0 -61 29.5 -93.5t79.5 -32.5q48 0 77.5 32.5t29.5 93.5v296h79v-303q0 -84 -47.5 -134.5t-138.5 -50.5zM381 569h-257v49h257v-49z" />
<glyph unicode="&#x16c;" horiz-adv-x="558" d="M282 -6q-99 0 -157 53.5t-58 151.5v406h81v-399q0 -75 35.5 -109.5t98.5 -34.5t100 34.5t37 109.5v399h80v-406q0 -98 -56 -151.5t-161 -53.5zM229 753q0 -22 11.5 -39.5t40.5 -17.5q28 0 39.5 17.5t11.5 39.5h58q0 -21 -6 -40t-19.5 -33.5t-34 -23.5t-49.5 -9t-49.5 9 t-34 23.5t-20 33.5t-6.5 40h58z" />
<glyph unicode="&#x16d;" horiz-adv-x="501" d="M251 -6q-88 0 -138 50.5t-50 134.5v303h79v-296q0 -61 29.5 -93.5t79.5 -32.5q48 0 77.5 32.5t29.5 93.5v296h79v-303q0 -84 -47.5 -134.5t-138.5 -50.5zM199 663q0 -22 11.5 -39.5t40.5 -17.5q28 0 39.5 17.5t11.5 39.5h58q0 -21 -6 -40t-19.5 -33.5t-34 -23.5t-49.5 -9 t-49.5 9t-34 23.5t-20 33.5t-6.5 40h58z" />
<glyph unicode="&#x16e;" horiz-adv-x="558" d="M282 -6q-99 0 -157 53.5t-58 151.5v406h81v-399q0 -75 35.5 -109.5t98.5 -34.5t100 34.5t37 109.5v399h80v-406q0 -98 -56 -151.5t-161 -53.5zM193 729q0 19 7 35t19.5 28t28.5 19t34 7q37 0 62.5 -25.5t25.5 -63.5q0 -36 -25.5 -62t-62.5 -26q-18 0 -34 7t-28.5 19 t-19.5 28t-7 34zM238 729q0 -17 13 -30t31 -13t30.5 13t12.5 30q0 19 -12.5 31.5t-30.5 12.5t-31 -12.5t-13 -31.5z" />
<glyph unicode="&#x16f;" horiz-adv-x="501" d="M251 -6q-88 0 -138 50.5t-50 134.5v303h79v-296q0 -61 29.5 -93.5t79.5 -32.5q48 0 77.5 32.5t29.5 93.5v296h79v-303q0 -84 -47.5 -134.5t-138.5 -50.5zM162 621q0 19 7 35t19.5 28t28.5 19t34 7q37 0 62.5 -25.5t25.5 -63.5q0 -36 -25.5 -62t-62.5 -26q-18 0 -34 7 t-28.5 19t-19.5 28t-7 34zM207 621q0 -17 13 -30t31 -13t30.5 13t12.5 30q0 19 -12.5 31.5t-30.5 12.5t-31 -12.5t-13 -31.5z" />
<glyph unicode="&#x170;" horiz-adv-x="558" d="M282 -6q-99 0 -157 53.5t-58 151.5v406h81v-399q0 -75 35.5 -109.5t98.5 -34.5t100 34.5t37 109.5v399h80v-406q0 -98 -56 -151.5t-161 -53.5zM261 759h63l-84 -116h-54zM373 759h63l-84 -116h-54z" />
<glyph unicode="&#x171;" horiz-adv-x="501" d="M251 -6q-88 0 -138 50.5t-50 134.5v303h79v-296q0 -61 29.5 -93.5t79.5 -32.5q48 0 77.5 32.5t29.5 93.5v296h79v-303q0 -84 -47.5 -134.5t-138.5 -50.5zM226 669h63l-84 -116h-54zM338 669h63l-84 -116h-54z" />
<glyph unicode="&#x172;" horiz-adv-x="558" d="M499 199q0 -91 -48.5 -143.5t-139.5 -60.5q-11 -11 -22 -28.5t-11 -34.5q0 -24 23 -24q15 0 30 7l5 -24q-7 -5 -19 -9.5t-25 -4.5q-21 0 -37 13t-16 36q0 20 11.5 37t25.5 31q-48 1 -86.5 15t-65.5 40t-42 64t-15 86v406h81v-399q0 -75 35.5 -109.5t98.5 -34.5t100 34.5 t37 109.5v399h80v-406v0z" />
<glyph unicode="&#x173;" horiz-adv-x="501" d="M251 -5q-88 0 -138 50t-50 134v303h79v-296q0 -61 29.5 -93.5t79.5 -32.5q48 0 77.5 32.5t29.5 93.5v296h79v-303q0 -50 -20 -93t-64 -69q-33 -20 -48 -43t-15 -42q0 -24 23 -24q12 0 30 8l5 -24q-7 -6 -19 -10.5t-25 -4.5q-21 0 -37 13.5t-16 35.5t12.5 40.5t29.5 32.5 q-10 -2 -20.5 -3t-21.5 -1z" />
<glyph unicode="&#x174;" horiz-adv-x="922" d="M850 199q0 -97 -56 -151t-162 -54q-57 0 -103 21t-69 65q-23 -45 -69 -65.5t-109 -20.5q-49 0 -88.5 14t-67.5 40t-43.5 64.5t-15.5 86.5v406h81v-399q0 -74 35.5 -109t98.5 -35t100 35t37 109v399h81v-399q0 -74 35 -109t97 -35q63 0 100 35t37 109v399h81v-406z M510 642l-51 75l-50 -75h-61l85 123h53l84 -123h-60z" />
<glyph unicode="&#x175;" horiz-adv-x="816" d="M737 482v-303q0 -84 -47.5 -134t-138.5 -50q-48 0 -87.5 21t-59.5 64q-20 -43 -59 -64t-90 -21q-42 0 -76.5 13t-59 37t-38.5 58t-14 76v303h79v-296q0 -61 29.5 -93.5t79.5 -32.5q49 0 78.5 32.5t29.5 93.5v296h79v-296q0 -61 29.5 -93.5t79.5 -32.5q48 0 77.5 32.5 t29.5 93.5v296h79zM454 552l-51 75l-50 -75h-61l85 123h53l84 -123h-60z" />
<glyph unicode="&#x176;" horiz-adv-x="550" d="M491 159q0 -80 -54.5 -122.5t-164.5 -42.5q-44 0 -79 7.5t-61 16.5q-30 11 -54 24l29 65q23 -13 49 -23q23 -8 52.5 -15t63.5 -7q72 0 105 25.5t33 75.5v46q-26 -20 -60 -29t-82 -9q-96 0 -152.5 52.5t-56.5 152.5v229h80q0 -56 0.5 -111t0.5 -111q0 -75 35 -110t98 -35 q31 0 56 5t43 18t28 36t10 58v250h81v-446zM326 642l-51 75l-50 -75h-61l85 123h53l84 -123h-60z" />
<glyph unicode="&#x177;" horiz-adv-x="505" d="M442 482v-481q0 -78 -47 -120t-147 -42q-39 0 -69 7.5t-50 16.5q-24 11 -41 25l27 62q17 -12 38 -22q18 -8 42 -15t53 -7q60 0 87.5 27t27.5 82v19q-19 -17 -48 -28t-66 -11q-84 0 -133 50t-49 134v303h79v-296q0 -61 29 -93.5t79 -32.5q33 0 54 8.5t33 24.5t16.5 39.5 t4.5 54.5v295h80zM300 552l-51 75l-50 -75h-61l85 123h53l84 -123h-60z" />
<glyph unicode="&#x178;" horiz-adv-x="550" d="M491 159q0 -80 -54.5 -122.5t-164.5 -42.5q-44 0 -79 7.5t-61 16.5q-30 11 -54 24l29 65q23 -13 49 -23q23 -8 52.5 -15t63.5 -7q72 0 105 25.5t33 75.5v46q-26 -20 -60 -29t-82 -9q-96 0 -152.5 52.5t-56.5 152.5v229h80q0 -56 0.5 -111t0.5 -111q0 -75 35 -110t98 -35 q31 0 56 5t43 18t28 36t10 58v250h81v-446zM354 649q-19 0 -33 13t-14 33q0 19 14 33t32 14q20 0 33.5 -14t13.5 -32q0 -20 -13.5 -33.5t-32.5 -13.5zM195 649q-19 0 -33 13t-14 33q0 19 14 33t33 14q20 0 33 -14t13 -32q0 -20 -13 -33.5t-33 -13.5z" />
<glyph unicode="&#x179;" horiz-adv-x="542" d="M124 67h356v-67h-377q-28 0 -44.5 16.5t-16.5 37.5q0 26 15 44l346 439h-351v68h371q28 0 45.5 -16t17.5 -38q0 -24 -15 -43zM309 770h74l-90 -123h-64z" />
<glyph unicode="&#x17a;" horiz-adv-x="431" d="M378 66v-66h-284q-28 0 -44 16t-16 37q0 11 3 22t11 21l252 319h-260v67h278q28 0 45.5 -16t17.5 -38q0 -12 -4.5 -23t-11.5 -19l-251 -320h264zM254 680h74l-90 -123h-64z" />
<glyph unicode="&#x17b;" horiz-adv-x="542" d="M124 67h356v-67h-377q-28 0 -44.5 16.5t-16.5 37.5q0 26 15 44l346 439h-351v68h371q28 0 45.5 -16t17.5 -38q0 -24 -15 -43zM268 646q-19 0 -33 13.5t-14 32.5q0 20 14 34t33 14q20 0 33 -14t13 -33q0 -20 -13 -33.5t-33 -13.5z" />
<glyph unicode="&#x17c;" horiz-adv-x="431" d="M378 66v-66h-284q-28 0 -44 16t-16 37q0 11 3 22t11 21l252 319h-260v67h278q28 0 45.5 -16t17.5 -38q0 -12 -4.5 -23t-11.5 -19l-251 -320h264zM210 556q-19 0 -33 13.5t-14 32.5q0 20 14 34t33 14q20 0 33 -14t13 -33q0 -20 -13 -33.5t-33 -13.5z" />
<glyph unicode="&#x17d;" horiz-adv-x="542" d="M124 67h356v-67h-377q-28 0 -44.5 16.5t-16.5 37.5q0 26 15 44l346 439h-351v68h371q28 0 45.5 -16t17.5 -38q0 -24 -15 -43zM217 765l51 -74l50 74h61l-85 -123h-53l-84 123h60z" />
<glyph unicode="&#x17e;" horiz-adv-x="431" d="M378 66v-66h-284q-28 0 -44 16t-16 37q0 11 3 22t11 21l252 319h-260v67h278q28 0 45.5 -16t17.5 -38q0 -12 -4.5 -23t-11.5 -19l-251 -320h264zM163 675l51 -74l50 74h61l-85 -123h-53l-84 123h60z" />
<glyph unicode="&#x17f;" horiz-adv-x="258" d="M243 598q-51 0 -69.5 -31t-18.5 -97v-470h-80v416h-42v66h42q2 91 42 136t126 45q45 0 96 -21l-28 -62q-19 9 -36.5 13.5t-31.5 4.5z" />
<glyph unicode="&#x192;" horiz-adv-x="346" d="M303 309h-128l-38 -273q-8 -54 -28.5 -91t-47 -61t-55 -38t-52.5 -22l-27 65q21 6 42 16.5t39 27.5t31 41t18 56l39 279h-80v65h89l5 37q14 97 59.5 145t133.5 48q42 0 91 -22l-31 -61q-37 17 -66 17q-51 0 -75 -31.5t-33 -98.5l-5 -34h121z" />
<glyph unicode="&#x218;" horiz-adv-x="531" d="M312 337q39 -4 71 -14t55 -29.5t35.5 -49t12.5 -72.5q0 -82 -60.5 -130t-165.5 -48q-72 0 -123.5 16.5t-89.5 46.5l34 72q31 -30 76.5 -48t100.5 -18q147 0 147 109q0 43 -23 67t-75 28l-76 6q-88 7 -133.5 48t-45.5 116q0 38 14.5 69.5t41.5 54.5t65.5 36t85.5 13 q54 0 105 -14t83 -34l-31 -66q-32 23 -72 35t-85 12q-61 0 -93.5 -29t-32.5 -77q0 -44 27.5 -67t76.5 -27l75 -6v0zM211.802 -157.801q9 9.89941 16.2002 22.5t7.2002 19.8008q-15.2998 4.5 -25.2002 15.75q-9.90039 11.251 -9.90039 28.3516q0 19.7998 13.0498 33.3008 q13.0508 13.5 31.9512 13.5q20.7002 0 33.751 -14.4004t13.0508 -39.6016q0 -26.1006 -17.1006 -52.6514q-17.1006 -26.5498 -43.2012 -44.5508z" />
<glyph unicode="&#x219;" d="M284 273q31 -3 58.5 -10t47 -21.5t31 -38.5t11.5 -61q0 -69 -53.5 -108.5t-145.5 -39.5q-56 0 -101.5 15t-84.5 45l31 66q66 -60 153 -60q60 0 91.5 20.5t31.5 61.5q0 59 -74 65l-75 7q-152 13 -152 131q0 66 49 104t131 38q42 0 83.5 -12t76.5 -32l-27 -61 q-32 22 -65.5 31t-67.5 9q-49 0 -75 -20t-26 -57q0 -30 18.5 -45.5t60.5 -19.5l73 -7v0zM192.802 -157.801q9 9.89941 16.2002 22.5t7.2002 19.8008q-15.2998 4.5 -25.2002 15.75q-9.90039 11.251 -9.90039 28.3516q0 19.7998 13.0498 33.3008q13.0508 13.5 31.9512 13.5 q20.7002 0 33.751 -14.4004t13.0508 -39.6016q0 -26.1006 -17.1006 -52.6514q-17.1006 -26.5498 -43.2012 -44.5508z" />
<glyph unicode="&#x2c6;" horiz-adv-x="502" d="M295 552l-51 75l-50 -75h-61l85 123h53l84 -123h-60z" />
<glyph unicode="&#x2c7;" horiz-adv-x="500" d="M196 675l51 -74l50 74h61l-85 -123h-53l-84 123h60z" />
<glyph unicode="&#x2d8;" horiz-adv-x="500" d="M203 663q0 -22 11.5 -39.5t40.5 -17.5q28 0 39.5 17.5t11.5 39.5h58q0 -21 -6 -40t-19.5 -33.5t-34 -23.5t-49.5 -9t-49.5 9t-34 23.5t-20 33.5t-6.5 40h58z" />
<glyph unicode="&#x2d9;" horiz-adv-x="339" d="M173 556q-19 0 -33 13.5t-14 32.5q0 20 14 34t33 14q20 0 33 -14t13 -33q0 -20 -13 -33.5t-33 -13.5z" />
<glyph unicode="&#x2da;" horiz-adv-x="476" d="M152 621q0 19 7 35t19.5 28t28.5 19t34 7q37 0 62.5 -25.5t25.5 -63.5q0 -36 -25.5 -62t-62.5 -26q-18 0 -34 7t-28.5 19t-19.5 28t-7 34zM197 621q0 -17 13 -30t31 -13t30.5 13t12.5 30q0 19 -12.5 31.5t-30.5 12.5t-31 -12.5t-13 -31.5z" />
<glyph unicode="&#x2db;" horiz-adv-x="500" d="M270 0q-9 -11 -23 -30t-14 -38q0 -24 23 -24q12 0 30 8l5 -24q-7 -6 -19 -10.5t-25 -4.5q-21 0 -37 13.5t-16 35.5q0 23 13.5 41.5t30.5 32.5h32v0z" />
<glyph unicode="&#x2dc;" horiz-adv-x="500" d="M107 612q12 9 27 17q12 7 28.5 12.5t35.5 5.5t32.5 -6t24.5 -12.5t22 -12.5t26 -6q11 0 23 4.5t22.5 9.5t17 10l6.5 5l20 -45q-12 -10 -27 -17q-13 -7 -29.5 -12t-34.5 -5q-19 0 -31.5 5.5t-23.5 12.5t-22.5 12.5t-27.5 5.5q-11 0 -23 -4.5t-22 -9.5t-16.5 -10l-6.5 -5z " />
<glyph unicode="&#x2dd;" horiz-adv-x="500" d="M206 669h63l-84 -116h-54zM318 669h63l-84 -116h-54z" />
<glyph unicode="&#x2013;" horiz-adv-x="407" d="M0 206v65h407v-65h-407z" />
<glyph unicode="&#x2014;" horiz-adv-x="707" d="M0 206v65h707v-65h-707z" />
<glyph unicode="&#x2018;" horiz-adv-x="186" d="M116 422q-29 20 -48 49.5t-19 58.5q0 28 14.5 44t37.5 16q21 0 35.5 -15t14.5 -37q0 -19 -11 -31.5t-28 -17.5q0 -8 8 -22t18 -25z" />
<glyph unicode="&#x2019;" horiz-adv-x="186" d="M48 442q10 11 18 25t8 22q-17 5 -28 17.5t-11 31.5q0 22 14.5 37t35.5 15q23 0 37.5 -16t14.5 -44q0 -29 -19 -58.5t-48 -49.5z" />
<glyph unicode="&#x201a;" horiz-adv-x="214" d="M72 -52q10 11 18 25t8 22q-17 5 -28 17.5t-11 31.5q0 22 14.5 37t35.5 15q23 0 37.5 -16t14.5 -44q0 -29 -19 -58.5t-48 -49.5z" />
<glyph unicode="&#x201c;" horiz-adv-x="307" d="M238 422q-29 20 -48 49.5t-19 58.5q0 28 14.5 44t37.5 16q21 0 35.5 -15t14.5 -37q0 -19 -11 -31.5t-28 -17.5q0 -8 8 -22t18 -25zM116 422q-29 20 -48 49.5t-19 58.5q0 28 14.5 44t37.5 16q21 0 35.5 -15t14.5 -37q0 -19 -11 -31.5t-28 -17.5q0 -8 8 -22t18 -25z" />
<glyph unicode="&#x201d;" horiz-adv-x="307" d="M48 442q10 11 18 25t8 22q-17 5 -28 17.5t-11 31.5q0 22 14.5 37t35.5 15q23 0 37.5 -16t14.5 -44q0 -29 -19 -58.5t-48 -49.5zM170 442q10 11 18 25t8 22q-17 5 -28 17.5t-11 31.5q0 22 14.5 37t35.5 15q23 0 37.5 -16t14.5 -44q0 -29 -19 -58.5t-48 -49.5z" />
<glyph unicode="&#x201e;" horiz-adv-x="314" d="M58 -52q10 11 18 25t8 22q-17 5 -28 17.5t-11 31.5q0 22 14.5 37t35.5 15q23 0 37.5 -16t14.5 -44q0 -29 -19 -58.5t-48 -49.5zM180 -52q10 11 18 25t8 22q-17 5 -28 17.5t-11 31.5q0 22 14.5 37t35.5 15q23 0 37.5 -16t14.5 -44q0 -29 -19 -58.5t-48 -49.5z" />
<glyph unicode="&#x2020;" horiz-adv-x="398" d="M366 373l-137 5l5 -414h-71l4 414l-138 -5v65l138 -4l-4 162h72l-6 -162l137 4v-65z" />
<glyph unicode="&#x2021;" horiz-adv-x="398" d="M366 373l-136 5l4 -89l-4 -93l136 5v-66l-137 5l5 -176h-71l4 176l-138 -5v66l138 -5l-4 93l4 89l-138 -5v65l138 -4l-4 162h72l-6 -162l137 4v-65z" />
<glyph unicode="&#x2022;" horiz-adv-x="222" d="M111 126q-29 0 -50 21t-21 50q0 30 21 50.5t49 20.5q29 0 50.5 -20.5t21.5 -49.5q0 -15 -6 -28t-15.5 -22.5t-22.5 -15.5t-27 -6z" />
<glyph unicode="&#x2026;" horiz-adv-x="542" d="M110 -6q-21 0 -36 15.5t-15 35.5q0 22 15 36.5t35 14.5q21 0 36 -14.5t15 -35.5q0 -22 -15 -37t-35 -15zM271 -6q-21 0 -36 15.5t-15 35.5q0 22 15 36.5t35 14.5q21 0 36.5 -14.5t15.5 -35.5q0 -22 -15.5 -37t-35.5 -15zM432 -6q-20 0 -35.5 15.5t-15.5 35.5 q0 22 15 36.5t35 14.5q22 0 37 -14.5t15 -35.5q0 -22 -15.5 -37t-35.5 -15z" />
<glyph unicode="&#x2030;" horiz-adv-x="997" d="M399 118q0 26 9.5 49t26.5 40t40 27t49 10q25 0 48 -10t39.5 -27t26.5 -40t10 -49t-10 -48.5t-26.5 -39t-39.5 -26.5t-48 -10q-26 0 -49 10t-40 26.5t-26.5 39t-9.5 48.5zM446 118q0 -15 6 -29t16.5 -24.5t25 -16.5t30.5 -6q32 0 54 22.5t22 53.5q0 32 -22 55t-54 23 t-55 -23t-23 -55zM179 -44l-42 28l390 604l43 -27zM308 425q0 -26 -10 -48.5t-27 -39t-39.5 -26.5t-48.5 -10t-48.5 10t-39 26.5t-26.5 39t-10 48.5t10 49t26.5 39.5t39 26t48.5 9.5t48.5 -9.5t39.5 -26t27 -39.5t10 -49zM260 425q0 32 -22.5 55t-54.5 23t-54 -23t-22 -55 t22 -54.5t54 -22.5t54.5 22.5t22.5 54.5zM684 118q0 26 9.5 49t26 40t39.5 27t49 10q25 0 48 -10t39.5 -27t26.5 -40t10 -49t-10 -48.5t-26.5 -39t-39.5 -26.5t-48 -10q-26 0 -49 10t-39.5 26.5t-26 39t-9.5 48.5zM730 118q0 -15 6 -29t16.5 -24.5t25 -16.5t30.5 -6 q32 0 54.5 22.5t22.5 53.5q0 16 -6 30.5t-16.5 25t-24.5 16.5t-30 6q-32 0 -55 -23t-23 -55z" />
<glyph unicode="&#x2039;" horiz-adv-x="229" d="M180 329l-79 -91l79 -91l-22 -35l-90 89q-19 17 -19 37q0 17 19 36l90 90z" />
<glyph unicode="&#x203a;" horiz-adv-x="228" d="M69 364l90 -90q19 -19 19 -36q0 -20 -19 -37l-90 -89l-22 35l79 91l-79 91z" />
<glyph unicode="&#x2044;" horiz-adv-x="718" d="M587 553l-389 -601l-58 37l388 601z" />
<glyph unicode="&#x20ac;" horiz-adv-x="526" d="M364 201h-213q10 -75 44 -108t100 -33q43 0 74.5 9.5t58.5 30.5l15 -66q-15 -11 -30 -18t-32 -12t-38 -7t-48 -2q-104 0 -157 48.5t-67 157.5h-62l12 59h46v43h-57l12 60h49q13 106 67 153t157 47q48 0 83 -11.5t65 -34.5l-17 -66q-26 23 -59.5 34.5t-71.5 11.5 q-64 0 -98.5 -32t-44.5 -102h245l-12 -60h-238v-43h229z" />
<glyph unicode="&#x2122;" horiz-adv-x="363" d="M145 548h-53v-150h-29v150h-53v26h135v-26zM271 445q-6 -19 -27 -19q-22 0 -28 19l-28 80v-127h-31v154q0 10 6 17t20 7q10 0 17 -6.5t9 -14.5l35 -101l38 107q7 15 23 15q12 0 18.5 -7t6.5 -17v-154h-30v127z" />
<glyph unicode="&#x2126;" horiz-adv-x="776" d="M0 -123l1 849h775v-849h-776zM360 522h-4q-2 0 -4 0.5t-4 0.5q-8 1 -11 3t-7 4q-5 2 -6 -1t0 -5t5.5 -4.5t7.5 -4.5q2 -1 6.5 -1t9.5 -1q6 -1 13 -1zM131 595q-2 -26 2 -48t9 -39q6 -19 15 -35q1 3 7 9.5t12.5 13.5t13.5 13.5t11 9.5q2 2 5.5 2h6.5h7v-40q-3 1 -13 3 h-6.5t-7.5 -1t-9 -2l-4 -7q7 1 14 -1q3 -1 5 -3q0 -2 2 -7t4 -6q1 -1 8 -1q3 0 7 -1v-5q-6 -1 -13.5 -5t-9.5 -6q-4 -4 -8 -10q-2 -3 -3 -6l-2 -9l3 -3q1 2 3 4t2.5 3t2.5 2q5 4 8 0.5t5 -4.5t4.5 1.5l4.5 4.5q1 1 2 1h1v-136q-9 2 -17 0t-10 -4q-2 -1 -4 -5q-1 -2 -2 -3 q2 1 8.5 1.5t8.5 -1.5q2 -1 4.5 -7t3.5 -7t5 -1h3v-8q0 -3 0.5 -5.5t0.5 -3.5t-2 -2.5t-4 -3.5q-4 -4 -6 -13q-2 -4 -2 -9l3 -7q1 1 2 3q1 1 1 2t1 2q1 2 2 3l2 2t2 1v-43h15v44q2 -1 3 -1h3q1 0 3 4t4.5 8.5t4 8.5t2.5 4h2q1 0 1.5 -0.5t2.5 -0.5q3 -1 5 -1l5 -20h4l99 139 l7 -7l-41 -57q5 -6 8.5 -10t5.5 -9q4 -10 6.5 -20.5t3.5 -11.5q0 -2 -2 -3q-4 -2 -11.5 -7t-15 -11t-13 -10.5t-6.5 -4.5q-3 -2 -9.5 -7.5t-8.5 -9.5q-3 -8 -4.5 -21t-2 -26t-0.5 -23t1 -13q0 -5 4 -9q2 -3 4 -4q-1 -1 -2 -1q-1 -1 -2 -1t-2 -1q-3 -2 -9 -8.5t-8 -8.5 q-3 -4 -9 -10.5t-12 -12.5t-11 -10.5t-6 -4.5h-6.5t-5.5 1q-3 0 -5 1v15q-1 2 -1 5t-2 5q-2 3 -4 7.5t-3 5.5t-3 2.5t-4 3.5q-3 2 -7 4l-9 -1q1 0 4 -3t5 -6q1 -2 1 -5v-2q-3 -2 -4.5 -5.5t-1.5 -5.5q0 -1 7 -8q3 -4 7 -8l-2 -2q-1 -1 -2 -1q-1 -1 -5.5 2t-8.5 5l-5 2h-2 q-1 0 -7 -1.5t-8 -1.5q-1 -1 -3.5 -2t-4.5 -3q-3 -2 -6 -5v-7l6 3q2 2 10 2q2 0 2 -1t1 -2q4 -8 8 -10q1 -1 4.5 -0.5t7.5 1.5t9 2l3 -4q-7 -2 -10.5 -6.5t-4.5 -6.5t2 -7q1 -3 3 -5v-1q0 -2 -2.5 -4t-4.5 -4q-3 -3 -6 -4q0 -1 1 -1h3h3h2q5 2 8.5 3t6.5 3q2 2 3.5 4t3.5 4 l4 4q0 2 1 5l2 6q1 5 13 2q5 -1 6 -4q0 -1 0.5 -2t0.5 -3q0 -3 2 -7q1 -2 1 -4h3l8 10q3 4 5.5 7t4.5 4q1 1 11.5 8.5t21.5 15.5l30 22q6 -2 13 2q6 3 11 8q3 3 5 6q-1 2 -1 5q0 2 -0.5 4.5t-0.5 4.5q0 8 1.5 11l3.5 7q2 5 7 10.5t7 7.5l2 1q1 0 2 1l-8 10q-3 4 -6 7.5 t-5 5.5q-5 6 -4.5 12t1.5 10q10 34 15 54.5t6 23.5q0 1 -0.5 4.5t-0.5 6.5v8l10 -7v-15q0 -2 -1.5 -8t-3.5 -13t-3.5 -13t-2.5 -9q-4 -16 -7.5 -28.5t-1.5 -17.5q2 -4 7 -10.5t11 -12.5t11 -10.5t8 -5.5q4 -2 14 -2.5t20.5 -0.5h19.5h11q26 -3 31 -5t7 -4q1 -1 5 -5.5 t8.5 -10t9 -10l6.5 -6.5q4 -4 9 -10t9 -12q4 -7 9 -15l-12 -3q-8 8 -14 12l-9 6q-8 5 -16 3t-10 -2q-5 0 -9 -4l-3 -3q5 1 9.5 0t6.5 -3t2.5 -6t2.5 -5q1 -1 8 -1h7v-5v-1q-2 0 -10 -0.5t-11 -2.5q-4 -1 -5 -2.5t-4 -3.5q-2 -2 -4 -5l-4 -6q-3 -4 -4 -8l3 -6q1 2 7.5 7 t6.5 4q2 -3 6 -4.5t6 -1.5q3 1 6 3.5t6 5.5l7 7l5 -2q-2 -1 -3 -3t-2 -3t-1 -2q-6 -7 -4 -17q0 -5 2 -11q1 -1 1.5 -1t1.5 -1t2 -1q-2 2 -1 5.5t3 5.5l4 6q5 -2 8.5 -1t4.5 2q2 2 4 13q1 4 1 11l23 7l30 -6l1 5l-4 5q-6 9 -8 12.5t-4 7.5q-3 7 -9.5 18.5l-13 23t-11 20.5 l-4.5 9q-1 1 0 4t0 6t-6.5 10.5t-10.5 11.5t-10 4.5t-6 1.5q-13 7 -22 14t-11 9q-2 3 -7 9t-10.5 11.5t-10.5 10t-6 6.5q-2 2 -6 5.5t-9 7.5l-12 10l11 4q6 -5 11 -9t8 -7.5t5 -4.5q8 -5 17 -11t13 -9q34 -21 50.5 -25t18.5 -4q25 -2 35.5 6.5t12.5 10.5q6 8 10.5 24 t-9.5 38q-2 2 -5.5 8.5t-8.5 12.5q-5 7 -11 16l43 25v6l-17 -5q-4 0 -8 1q-3 1 -6.5 1t-5.5 1h-4h-1l-12 -3l-1 6l57 31l2 7q-5 -2 -9 -3t-7.5 -2t-4.5 -1q-2 0 -9.5 1t-12.5 2q-3 1 -6 1q-1 0 -2 -1l-14 -3l1 5l67 36l1 7l-21 -5l-10 2q-2 0 -3.5 0.5t-3.5 0.5h-3 q-1 0 -3 -0.5t-4 -0.5q-3 -1 -6 -1h-1h-1q0 1 3.5 6.5t8 11.5t8.5 11t5 6q8 9 15 20t9 13q10 16 12.5 29t2 22.5t-3.5 15t-4 7.5q-8 13 -18 19.5t-20 8t-17 0.5t-9 -2q-13 -4 -20 -12t-10.5 -15.5t-4.5 -14t-1 -7.5q0 -4 -4 -8q-7 -9 -15 -23q-4 -8 -8 -17h3t4 1q1 2 7.5 8 t8.5 8t2 -0.5t-1 -4.5q-2 -12 -7.5 -21t-8.5 -13q-5 -7 -9 -15.5t-8 -16.5q-4 -10 -9 -20l6 1q5 7 14.5 15.5t19 16t17 12.5t8.5 5q3 3 3.5 9.5t-0.5 12.5l-2 16l7 -3q1 -2 2 -7l2 -10v-13q0 -4 -1 -7l6 5q1 1 3 7.5t3.5 15t1.5 18t-3 17.5q-1 2 -4.5 5t-7.5 5q-4 3 -10 5 q-2 8 2.5 14.5t6.5 8.5q10 8 19.5 8.5t17 -2.5t13 -9t7.5 -11q6 -12 4 -24t-7.5 -22.5t-11.5 -18t-8 -9.5q-8 -7 -18.5 -17l-21 -20t-18.5 -18l-10 -10q-12 -14 -16.5 -25.5t-4 -19.5t3.5 -14l5 -10q3 -5 10.5 -13.5t16.5 -17.5t17.5 -16.5t12.5 -10.5q10 -9 17 -18.5 t8 -14.5q4 -14 0 -22t-11.5 -12.5t-16 -5.5t-13.5 0q-12 3 -25.5 11t-26 16.5t-22 15.5t-12.5 9q-12 7 -19 10.5t-11 4.5t-6 1t-2 2q-2 8 -2.5 24.5t-1.5 33.5q-1 19 -1 42q-1 2 1 1l4 -2q5 -2 5 -1q0 2 -0.5 10.5t1.5 10.5q2 5 5.5 12.5t5.5 12.5q10 21 17 37t9 26 q1 6 1 13v13q0 7 -1 14q3 2 7.5 9t4.5 8q1 2 1 9t-1 8q-2 2 -5 2.5t-4 0.5l-1 1h-2l22 32q-2 1 -6 1q-3 0 -7 -2q-2 -1 -3 -2q-3 5 -6 5.5t-4 0.5q-8 -2 -8 -6v-5q2 -6 7 -5t6 0v-1l-7 -7l-29 6q-1 2 -1 4v4v1q1 0 3 -1t4 -1q4 -1 6 2t2 5q0 7 -6 9q-3 1 -5 0q0 5 -3 6.5 t-4 1.5q-5 1 -8 -2q-2 -2 -2 -4q-1 0 -2 1q-1 0 -1 1q-6 2 -8.5 -2t-1.5 -6q0 -9 6 -9q3 -1 6 1l1 -1l-5 -7l-29 5l-3 10l1 1q0 -3 4 -3q6 -1 7.5 2l2.5 5q0 5 -3 7.5t-6 2.5q-4 0 -8 -1q-5 5 -8 5h-3l8 -38q-7 -6 -11 -11t-7.5 -8.5t-3.5 -4.5q-1 -1 1 -8q1 -4 2 -7l9 -13 l-7 -11l40 -5l-5 -13q-14 -3 -25 -6q-10 -2 -19 -5t-12 -5q-11 -8 -18.5 -16.5t-13.5 -16.5q-2 -3 -5 -12t-6.5 -20.5t-8.5 -23.5t-10 -21h24l-45 -90l-7 2q1 1 1.5 11.5t0.5 11.5q0 2 -1.5 8.5t-1.5 7.5q-1 2 -7 10q-3 4 -6 7l-7 1q2 -3 3.5 -8t2.5 -8q1 -4 -1 -5.5 t-4 -3.5q-1 -2 -1 -4v-2l7 -18l-5 -1q-2 3 -5 6q-1 1 -2 1v156l10 -5l-5 -9l16 -3l35 -32l15 37l-37 20l-5 9l-11 -2l-4 4q5 5 9.5 11t5.5 8q1 5 1 7v7q1 5 -0.5 9.5t-2.5 6.5q-2 2 -4.5 5t-1.5 1q0 -5 -2 -13q-1 -4 -2 -7q-1 -1 -2 -1t-1.5 -0.5t-2.5 -0.5q-2 -1 -3 -2 l-1 -1l-3 -19l-5 5v48h9v32h-9v13h-14v-13h-18q-11 2 -22 8t-21 12.5t-17.5 13t-10.5 8.5zM419 516l2 -10l-36 4l-2 11zM383 538l-1 9l14 13l75 -13h1q1 0 1 -1l-6 -4l-6 -4l-15 5q-15 5 -32 5q1 -2 1 -5q0 -5 -9 -8q-2 -1 -8 -1t-6 8zM470 533l1 1q2 0 4 2t4 2q1 0 2 -0.5 t2 -0.5q1 -1 2 -1v-4v-2q-2 -5 -4 -7l-3 -3q-2 8 -4.5 10t-3.5 2v1zM323 397q5 10 9 19q4 8 8 13.5t7 7.5q6 2 11.5 4t19.5 5l-3 -10q-6 -1 -11 -2t-8.5 -2.5t-5.5 -2.5q-2 -2 -4.5 -7t-5.5 -10.5t-5 -10l-2 -4.5h-10zM234 250v9h3h4h2v-3q0 -1 1 -2z" />
<glyph unicode="&#x2206;" horiz-adv-x="572" d="M318 628l216 -628h-496l215 628h65zM133 64h304l-151 445z" />
<glyph unicode="&#x2211;" horiz-adv-x="459" d="M156 64h252v-64h-371l167 313l-167 315h371v-64h-252l134 -251z" />
<glyph unicode="&#x2212;" horiz-adv-x="398" d="M59 206v65h280v-65h-280z" />
<glyph unicode="&#x221a;" horiz-adv-x="440" d="M152 271l76 -226l200 583h73l-239 -701h-67l-95 279h-81v65h133z" />
<glyph unicode="&#x221e;" horiz-adv-x="776" d="M366 512q-7 0 -13 1q-5 1 -9.5 1t-6.5 1q-3 2 -7.5 4.5t-5.5 4.5t0 5t6 1q4 -2 7 -4t11 -3q2 0 4 -0.5t4 -0.5h4zM131 595q3 -2 10.5 -8.5t17.5 -13t21 -12.5t22 -8h18v13h14v-13h9v-32h-9v-48l5 -5l3 19l1 1q1 1 3 2q2 0 2.5 0.5t1.5 0.5t2 1q1 3 2 7q2 8 2 13 q-1 2 1.5 -1t4.5 -5q1 -2 2.5 -6.5t0.5 -9.5v-7t-1 -7q-1 -2 -5.5 -8t-9.5 -11l4 -4l11 2l5 -9l37 -20l-15 -37l-35 32l-16 3l5 9l-10 5v-156q1 0 2 -1q3 -3 5 -6l5 1l-7 18v2q0 2 1 4q2 2 4 3.5t1 5.5q-1 3 -2.5 8t-3.5 8l7 -1q3 -3 6 -7q6 -8 7 -10q0 -1 1.5 -7.5 t1.5 -8.5q0 -1 -0.5 -11.5t-1.5 -11.5l7 -2l45 90h-24q5 9 10 21t8.5 23.5t6.5 20.5t5 12q6 8 13.5 16.5t18.5 16.5q3 2 12 5t19 5q11 3 25 6l5 13l-40 5l7 11l-9 13q-1 3 -2 7q-2 7 -1 8q0 1 3.5 4.5t7.5 8.5t11 11l-8 38h3q3 0 8 -5q4 1 8 1q3 0 6 -2.5t3 -7.5l-2.5 -5 t-7.5 -2q-4 0 -4 3l-1 -1l3 -10l29 -5l5 7l-1 1q-3 -2 -6 -1q-6 0 -6 9q-1 2 1.5 6t8.5 2q0 -1 1 -1l2 -1q0 2 2 4q3 3 8 2q1 0 4 -1.5t3 -6.5q2 1 5 0q6 -2 6 -9q0 -2 -2 -5t-6 -2q-2 0 -4 1t-3 1v-1v-4q0 -2 1 -4l29 -6l7 7v1q-1 1 -6 0t-7 5v5t8 6q1 0 4 -0.5t6 -5.5 q1 1 3 2q4 2 7 2q4 0 6 -1l-22 -32h2l1 -1q1 0 4 -0.5t5 -2.5q1 -1 1 -8t-1 -9q0 -1 -4.5 -8t-7.5 -9q1 -7 1 -14v-13t-1 -13q-2 -10 -9 -26t-17 -37q-2 -5 -5.5 -12.5t-5.5 -12.5q-2 -2 -1.5 -10.5t0.5 -10.5q0 -1 -5 1l-4 2t-1 -1q0 -23 1 -42q1 -17 1.5 -33.5t2.5 -24.5 q0 -2 2 -2t6 -1t11 -4.5t19 -10.5q3 -2 12.5 -9t22 -15.5t26 -16.5t25.5 -11q5 -1 13.5 0t16 5.5t11.5 12.5t0 22q-1 5 -8 14.5t-17 18.5q-4 3 -12.5 10.5t-17.5 16.5t-16.5 17.5t-10.5 13.5l-5 10t-3.5 14t4 19.5t16.5 25.5l10 10t18.5 18l21 20t18.5 17q2 2 8 9.5t11.5 18 t7.5 22.5t-4 24q-2 5 -7.5 11t-13 9t-17 2.5t-19.5 -8.5q-2 -2 -6.5 -8.5t-2.5 -14.5q6 -2 10 -5q4 -2 7.5 -5t4.5 -5q3 -8 3 -17.5t-1.5 -18t-3.5 -15t-3 -7.5l-6 -5q1 3 1 7v13l-2 10t-2 7l-7 3l2 -16q1 -6 0.5 -12.5t-3.5 -9.5q-1 0 -8.5 -5t-17 -12.5t-19 -16 t-14.5 -15.5l-6 -1q5 10 9 20q4 8 8 16.5t9 15.5q3 4 8.5 13t7.5 21q1 2 1 4.5t-2 0.5t-8.5 -8t-7.5 -8q-2 -1 -4 -1h-3q4 9 8 17q8 14 15 23q4 4 4 8q0 1 1 7.5t4.5 14t10.5 15.5t20 12q2 1 9 2t17 -0.5t20 -8t18 -19.5q1 -2 4 -7.5t3.5 -15t-2 -22.5t-12.5 -29 q-2 -2 -9 -13t-15 -20q-1 -1 -5 -6t-8.5 -11t-8 -11.5t-3.5 -6.5h1h1q3 0 6 1q2 0 4 0.5t3 0.5h3q2 0 3.5 -0.5t3.5 -0.5l10 -2l21 5l-1 -7l-67 -36l-1 -5l14 3q1 1 2 1q3 0 6 -1q5 -1 12.5 -2t9.5 -1q1 0 4.5 1t7.5 2t9 3l-2 -7l-57 -31l1 -6l12 3h1h4q2 -1 5.5 -1t6.5 -1 q4 -1 8 -1l17 5v-6l-43 -25q6 -9 11 -16q5 -6 8.5 -12.5t5.5 -8.5q14 -22 9.5 -38t-10.5 -24q-2 -2 -12.5 -10.5t-35.5 -6.5q-2 0 -18.5 4t-50.5 25q-4 3 -13 9t-17 11q-2 1 -5 4.5t-8 7.5t-11 9l-11 -4l12 -10q5 -4 9 -7.5t6 -5.5q1 -2 6 -6.5t10.5 -10t10.5 -11.5t7 -9 q2 -2 11 -9t22 -14q1 -1 6 -1.5t10 -4.5t10.5 -11.5t6.5 -10.5t0 -6t0 -4l4.5 -9t11 -20.5l13 -23t9.5 -18.5q2 -4 4 -7.5t8 -12.5l4 -5l-1 -5l-30 6l-23 -7q0 -7 -1 -11q-2 -11 -4 -13q-1 -1 -4.5 -2t-8.5 1l-4 -6q-2 -2 -3 -5.5t1 -5.5q-1 0 -2 1t-1.5 1t-1.5 1 q-2 6 -2 11q-2 10 4 17q0 1 1 2t2 3t3 3l-5 2l-7 -7q-3 -3 -6 -5.5t-6 -3.5q-2 0 -6 1.5t-6 4.5q0 1 -6.5 -4t-7.5 -7l-3 6q1 4 4 8l4 6t4 5q3 2 4 3.5t5 2.5q3 2 11 2.5t10 0.5q1 1 0 1v5h-7q-7 0 -8 1q-2 1 -2.5 5t-2.5 6t-6.5 3t-9.5 0l3 3q4 4 9 4q2 0 10 2t16 -3l9 -6 t14 -12l12 3q-5 8 -9 15q-4 6 -9 12t-9 10l-6.5 6.5t-9 10t-8.5 10t-5 5.5q-2 2 -7 4t-31 5h-11h-19.5t-20.5 0.5t-14 2.5q-3 1 -8 5.5t-11 10.5t-11 12.5t-7 10.5q-2 5 1.5 17.5t7.5 28.5q1 3 2.5 9t3.5 13t3.5 13t1.5 8v15l-10 7v-8q0 -3 0.5 -6.5t0.5 -4.5 q-1 -3 -6 -23.5t-15 -54.5q-1 -4 -1.5 -10t4.5 -12q2 -2 5 -5.5t6 -7.5l8 -10q-1 -1 -2 -1q-1 -1 -2 -1q-2 -2 -7 -7.5t-7 -10.5l-3.5 -7t-1.5 -11q0 -2 0.5 -4.5t0.5 -4.5q0 -3 1 -5q-2 -3 -5 -6q-5 -5 -11 -8q-7 -4 -13 -2l-30 -22q-11 -8 -21.5 -15.5t-11.5 -8.5 q-2 -1 -4.5 -4t-5.5 -7l-8 -10h-3q0 2 -1 4q-2 4 -2 7q0 2 -0.5 3t-0.5 2q-1 3 -6 4q-12 3 -13 -2l-2 -6q-1 -3 -1 -5l-4 -4q-2 -2 -3.5 -4t-3.5 -4q-3 -2 -6.5 -3t-8.5 -3h-2h-3h-3q-1 0 -1 1q3 1 6 4q2 2 4.5 4t2.5 4v1q-2 2 -3 5q-3 5 -2 7t4.5 6.5t10.5 6.5l-3 4 q-5 -1 -9 -2t-7.5 -1.5t-4.5 0.5q-4 2 -8 10q-1 1 -1 2t-2 1q-8 0 -10 -2l-6 -3v7q3 3 6 5q2 2 4.5 3t3.5 2q2 0 8 1.5t7 1.5h2l5 -2q4 -2 8.5 -5t5.5 -2l2 1l2 2q-4 4 -7 8q-7 7 -7 8q0 2 1.5 5.5t4.5 5.5v2q0 3 -1 5q-2 3 -5 6t-4 3l9 1q4 -2 7 -4q2 -2 4 -3.5t3 -2.5 t3 -5.5t4 -7.5q2 -2 2 -5t1 -5v-15q2 -1 5 -1q2 -1 5.5 -1h6.5q1 0 6 4.5t11 10.5t12 12.5t9 10.5q2 2 8 8.5t9 8.5q1 1 2 1t2 1q1 0 2 1q-2 1 -4 4q-4 4 -4 9q-1 3 -1 13t0.5 23t2 26t4.5 21q2 4 8.5 9.5t9.5 7.5q1 0 6.5 4.5t13 10.5t15 11t11.5 7q2 1 2 3q-1 1 -3.5 11.5 t-6.5 20.5q-2 5 -5.5 9t-8.5 10l41 57l-7 7l-99 -139h-4l-5 20q-2 0 -5 1q-2 0 -2.5 0.5t-1.5 0.5h-2q-1 0 -2.5 -4t-4 -8.5t-4.5 -8.5t-3 -4h-3q-1 0 -3 1v-44h-15v43q-1 0 -2 -1l-2 -2t-2 -3q-1 -1 -1 -2t-1 -2q-1 -2 -2 -3l-3 7q0 5 2 9q2 9 6 13q2 2 4 3.5t2 2.5 t-0.5 3.5t-0.5 5.5v8h-3q-4 0 -5 1t-3.5 7t-4.5 7q-2 2 -8.5 1.5t-8.5 -1.5q1 1 2 3q2 4 4 5q2 2 10 4t17 0v136h-1q-1 0 -2 -1l-4.5 -4.5t-4.5 -1.5t-5 4.5t-8 -0.5q-2 -1 -2.5 -2t-2.5 -3t-3 -4l-3 3l2 9q1 3 3 6q4 6 8 10q2 2 9.5 6t13.5 5v5q-4 1 -7 1q-7 0 -8 1 q-2 1 -4 6t-2 7q-2 2 -5 3q-7 2 -14 1l4 7q5 1 9 2t7.5 1h6.5q10 -2 13 -3v40h-7h-6.5t-5.5 -2q-4 -3 -11 -9.5t-13.5 -13.5t-12.5 -13.5t-7 -9.5q-9 16 -15 35q-5 17 -9 39t-2 48zM385 510l36 -4l-2 10l-36 5zM392 542q0 -8 6 -8t8 1q9 3 9 8q0 3 -1 5q17 0 32 -5l15 -5 l6 4l6 4l-1 1h-1l-75 13l-14 -13l1 -9zM470 532q1 0 3.5 -2t4.5 -10l3 3q2 2 4 7v2v4q-1 0 -2 1q-1 0 -2 0.5t-2 0.5q-2 0 -4 -2t-4 -2q-1 0 -1 -1v-1zM333 397l2 4.5t5 10t5.5 10.5t4.5 7q2 1 5.5 2.5t8.5 2.5t11 2l3 10q-14 -3 -19.5 -5t-11.5 -4q-3 -2 -7 -7.5t-8 -13.5 q-4 -9 -9 -19h10zM244 254q-1 1 -1 2v3h-2h-4h-3v-9z" />
<glyph unicode="&#x2248;" horiz-adv-x="500" d="M67 299q15 11 33 21q16 8 37.5 14.5t47.5 6.5q24 0 40.5 -6.5t30 -15t27 -15t33.5 -6.5q17 0 33 5t28 11q14 7 27 16l29 -59q-16 -12 -34 -21q-16 -8 -37.5 -14t-47.5 -6q-24 0 -39.5 6.5t-29 14.5t-27 14.5t-34.5 6.5q-18 0 -34 -5t-28 -11q-14 -7 -27 -16zM67 166 q15 11 33 21q16 8 37.5 14.5t47.5 6.5q24 0 40.5 -6.5t30 -15t27 -15t33.5 -6.5q17 0 33 5t28 11q14 7 27 16l29 -59q-16 -12 -34 -21q-16 -8 -37.5 -14t-47.5 -6q-24 0 -39.5 6.5t-29 14.5t-27 14.5t-34.5 6.5q-18 0 -34 -5t-28 -11q-14 -7 -27 -16z" />
<glyph unicode="&#x2260;" horiz-adv-x="417" d="M353 260h-96l-29 -44h125v-58h-162l-56 -87l-48 31l36 56h-59v58h97l29 44h-126v59h162l53 81l49 -31l-33 -50h58v-59z" />
<glyph unicode="&#x2264;" horiz-adv-x="398" d="M333 78h-269v59h269v-59zM333 388l-189 -78l189 -78v-64l-269 113v58l269 114v-65z" />
<glyph unicode="&#x2265;" horiz-adv-x="398" d="M333 78h-269v59h269v-59zM64 453l269 -114v-58l-269 -113v64l189 78l-189 78v65z" />
<glyph unicode="&#x25ca;" horiz-adv-x="488" d="M39 313l169 315h71l169 -315l-169 -313h-71zM363 314l-119 223l-119 -224l119 -223z" />
<glyph unicode="&#xe000;" horiz-adv-x="480" d="M0 480h480v-480h-480v480z" />
<glyph unicode="&#xfb01;" horiz-adv-x="474" d="M399 -9q-45 12 -65 44.5t-20 83.5v363h79v-367q0 -23 7.5 -39t27.5 -25q-8 -15 -14.5 -30.5t-14.5 -29.5zM261 598q-51 0 -78 -27.5t-29 -88.5h98v-66h-98v-416h-80v416h-41v66h42q2 92 51 136.5t135 44.5q43 0 78 -16.5t62 -42.5l-30 -59q-29 28 -55.5 40.5t-54.5 12.5z " />
<glyph unicode="&#xfb02;" horiz-adv-x="474" d="M393 115q0 -23 7.5 -39t27.5 -25q-8 -15 -14.5 -30.5t-14.5 -29.5q-45 12 -65 44.5t-20 83.5v465q-13 6 -26 10t-27 4q-51 0 -77.5 -27.5t-28.5 -88.5h98v-66h-99v-416h-79v416h-42v66h42q3 92 51.5 136.5t134.5 44.5q41 0 75 -15.5t57 -35.5v-497v0z" />
<glyph horiz-adv-x="940" d="M846 396v-178q0 -48 -28 -78t-80 -30q-57 0 -85 39q-30 -39 -88 -39q-29 0 -52 12t-37 33q-28 -45 -90 -45q-32 0 -55 12.5t-37 35.5q-14 -23 -35.5 -35.5t-50.5 -12.5q-22 0 -39 5t-31 21v-112h-45v230q0 70 26 107t84 37q64 0 91 -48q28 48 92 48q58 0 87 -37.5 t29 -106.5v-32q0 -35 17 -53.5t46 -18.5t46.5 18.5t17.5 53.5v174h46v-174q0 -35 17 -53.5t46 -18.5t46 18.5t17 53.5v174h45zM204 150q22 0 35 9t20 24t9.5 33.5t2.5 37.5t-2.5 38t-10 33.5t-20.5 23.5t-35 9q-23 0 -36 -9t-19.5 -23.5t-8 -33.5t-1.5 -38t2.5 -37.5 t9.5 -33.5t20 -24t34 -9zM386 150q37 0 54 26.5t17 77.5t-17 77.5t-54 26.5t-53.5 -26.5t-16.5 -77.5t16.5 -77.5t53.5 -26.5z" />
</font>
</defs>
</svg>
