<?xml version="1.0" standalone="no"?>
<!DOCTYPE svg PUBLIC "-//W3C//DTD SVG 1.1//EN" "http://www.w3.org/Graphics/SVG/1.1/DTD/svg11.dtd" >
<svg xmlns="http://www.w3.org/2000/svg">
<metadata></metadata>
<defs>
<font id="aeroportalbold" horiz-adv-x="482" >
<font-face units-per-em="1000" ascent="800" descent="-200" />
<missing-glyph horiz-adv-x="231" />
<glyph unicode="&#xd;" horiz-adv-x="500" />
<glyph unicode=" "  horiz-adv-x="231" />
<glyph unicode="&#x09;" horiz-adv-x="231" />
<glyph unicode="&#xa0;" horiz-adv-x="231" />
<glyph unicode="!" horiz-adv-x="214" d="M60 590h107v-426h-107v426zM114 -5q-26 0 -44.5 18.5t-18.5 43.5q0 27 18.5 45t43.5 18q26 0 44.5 -18t18.5 -44t-18.5 -44.5t-43.5 -18.5z" />
<glyph unicode="&#x22;" horiz-adv-x="270" d="M66 682h73l-43 -131h-61zM164 682h73l-43 -131h-61z" />
<glyph unicode="#" horiz-adv-x="499" d="M442 337h-71l-20 -110h63v-63h-74l-28 -164h-69l29 164h-109l-28 -164h-69l29 164h-61v63h71l21 110h-63v62h74l28 159h69l-29 -159h109l28 159h69l-29 -159h60v-62zM175 227h107l20 110h-107z" />
<glyph unicode="$" horiz-adv-x="527" d="M306 621v-66q38 -6 73 -19t62 -30l-39 -87q-28 19 -52.5 31.5t-43.5 17.5v-152q38 -4 69.5 -12.5t53.5 -25t34 -44t12 -70.5q0 -71 -44 -113.5t-125 -53.5v-66h-100v66q-44 7 -85.5 25t-71.5 41l43 91q31 -26 59.5 -43.5t54.5 -22.5v147q-78 10 -114 44t-36 106 q0 66 37.5 111t112.5 58v67h100zM368 161q0 29 -14.5 44t-47.5 20v-138q35 6 48.5 23t13.5 51zM164 389q0 -50 42 -62v136q-23 -10 -32.5 -28t-9.5 -46z" />
<glyph unicode="%" horiz-adv-x="727" d="M389 121q0 27 10 50t27 40.5t40 27.5t50 10q26 0 49 -10t40.5 -27.5t27.5 -40.5t10 -50q0 -26 -10 -49t-27.5 -40.5t-40.5 -27.5t-49 -10q-27 0 -50 10t-40 27.5t-27 40.5t-10 49zM445 121q0 -29 20.5 -49.5t50.5 -20.5q29 0 49.5 20.5t20.5 49.5t-20.5 50t-49.5 21 q-30 0 -50.5 -21t-20.5 -50zM180 -44l-49 32l387 600l51 -31zM309 422q0 -26 -10 -49.5t-27 -40.5t-40 -27t-49 -10t-49 10t-40.5 27t-27.5 40.5t-10 49.5q0 27 10 50t27.5 40t40.5 26.5t49 9.5t49 -9.5t40 -26.5t27 -40t10 -50zM253 422q0 29 -20.5 50t-49.5 21t-49.5 -21 t-20.5 -50t20.5 -50t49.5 -21t49.5 21t20.5 50z" />
<glyph unicode="&#x26;" horiz-adv-x="653" d="M591 189q-17 -26 -33 -46.5t-36 -40.5l61 -36l-41 -84q-34 18 -57.5 31.5t-43.5 27.5q-35 -20 -76.5 -33t-89.5 -13q-112 0 -174 49t-62 147q0 55 27 95t67 72q-20 42 -28.5 79.5t-8.5 75.5q0 27 8.5 53.5t27.5 47.5t49 34t73 13q42 0 72 -13t48.5 -34t27.5 -47.5 t9 -53.5q0 -30 -12 -54.5t-32.5 -45.5t-46.5 -39.5t-53 -36.5q62 -95 172 -179q24 23 50 55t55 73zM275 83q41 0 81 17q-109 85 -172 174q-16 -16 -27 -37t-11 -46q0 -51 34 -79.5t95 -28.5zM204 513q0 -23 4 -46.5t14 -46.5q34 23 58 45t24 48q0 23 -10.5 42t-39.5 19 t-39.5 -19t-10.5 -42z" />
<glyph unicode="'" horiz-adv-x="194" d="M70 682h73l-43 -131h-61z" />
<glyph unicode="(" horiz-adv-x="242" d="M26 276q0 105 13 173t37.5 107.5t60.5 54.5t82 15v-88q-20 0 -36 -10.5t-27 -39t-16.5 -80t-5.5 -132.5t5.5 -132t16.5 -80t27 -39.5t36 -10.5v-87q-46 0 -82 15t-60.5 54t-37.5 107t-13 173z" />
<glyph unicode=")" horiz-adv-x="242" d="M216 276q0 -105 -13 -173t-38 -107t-60.5 -54t-81.5 -15v87q20 0 36 10.5t27 39.5t17 80t6 132t-6 132.5t-17 80t-27 39t-36 10.5v88q46 0 81.5 -15t60.5 -54.5t38 -107.5t13 -173z" />
<glyph unicode="*" horiz-adv-x="433" d="M284 366l87 -101l-87 -63l-69 114l-69 -114l-88 62l87 102l-130 30l33 103l125 -52l-12 133h107l-11 -133l124 52l33 -103z" />
<glyph unicode="+" horiz-adv-x="397" d="M348 196h-105v-99h-86v99h-106v86h106v98h86v-98h105v-86z" />
<glyph unicode="," horiz-adv-x="214" d="M57 -50q7 8 14.5 23t9.5 26q-15 8 -26 24t-11 33q0 27 18 45.5t44 18.5q27 0 45 -19t18 -52q0 -32 -23 -66t-58 -57z" />
<glyph unicode="-" horiz-adv-x="398" d="M51 196v86h298v-86h-298z" />
<glyph unicode="." horiz-adv-x="214" d="M114 -5q-26 0 -44.5 18.5t-18.5 43.5q0 27 18.5 45t43.5 18q26 0 44.5 -18t18.5 -44t-18.5 -44.5t-43.5 -18.5z" />
<glyph unicode="/" horiz-adv-x="328" d="M107 -69h-104l237 690h103z" />
<glyph unicode="0" horiz-adv-x="538" d="M262 -5q-61 0 -102.5 21t-67.5 60.5t-37.5 95.5t-11.5 127q0 70 11.5 125t37.5 93.5t67.5 58.5t102.5 20q60 0 102 -20t68 -58.5t37.5 -93.5t11.5 -125q0 -71 -11.5 -127t-37.5 -95.5t-68 -60.5t-102 -21zM262 508q-33 0 -55 -14t-34.5 -41t-17.5 -66t-5 -88 q0 -50 5 -90.5t17.5 -68.5t34.5 -43t55 -15t54.5 15t34.5 43t18 68.5t5 90.5q0 49 -5 88t-18 66t-34.5 41t-54.5 14z" />
<glyph unicode="1" horiz-adv-x="303" d="M33 561q16 11 44.5 23t64.5 12q46 0 70.5 -23.5t24.5 -61.5v-511h-107v501q0 3 -3 3q-6 0 -16 -3.5t-19 -8.5q-11 -5 -23 -12z" />
<glyph unicode="2" horiz-adv-x="494" d="M282 238q-24 -11 -47 -24t-42 -30t-31.5 -40.5t-13.5 -55.5h287v-88h-319q-32 0 -53.5 20t-21.5 49q0 59 17.5 99.5t45 68.5t62 47.5t67.5 36.5q21 10 39 20.5t31.5 22t21 25.5t7.5 33q0 42 -27 63.5t-78 21.5q-31 0 -65 -10t-73 -39l-37 83q15 11 36 21t44 17.5t47.5 12 t47.5 4.5q100 0 156.5 -45t56.5 -129q0 -40 -13.5 -68.5t-36 -49.5t-50.5 -36.5t-58 -29.5z" />
<glyph unicode="3" horiz-adv-x="460" d="M405 426q0 -38 -20 -71.5t-57 -46.5q19 -8 34.5 -21.5t26.5 -31t17 -38t6 -40.5q0 -86 -55.5 -134t-156.5 -48q-21 0 -45 4t-47.5 11.5t-45 17t-37.5 21.5l38 88q14 -11 32 -21t37 -17.5t36.5 -12t31.5 -4.5q51 0 78 25t27 70q0 35 -20 61.5t-55 26.5h-68v88h68 q35 0 51.5 21t16.5 52q0 39 -24 60.5t-75 21.5q-27 0 -62.5 -15.5t-62.5 -36.5l-39 85q32 23 76.5 39t87.5 16q101 0 153.5 -45t52.5 -125z" />
<glyph unicode="4" horiz-adv-x="483" d="M428 121h-54v-121h-107v121h-191q-35 0 -55 20t-20 46q0 20 16 44l222 330q10 14 27 21.5t35 7.5q28 0 50.5 -16t22.5 -48v-317h54v-88zM267 209v219l-148 -219h148z" />
<glyph unicode="5" horiz-adv-x="500" d="M138 265q-33 0 -54.5 19.5t-21.5 49.5v188q0 29 21.5 48.5t54.5 19.5h296v-87h-264v-150h74q96 0 151 -41t55 -130q0 -93 -56.5 -140t-163.5 -47q-23 0 -48 4.5t-49 12t-45.5 17.5t-36.5 21l37 82q39 -29 75 -39.5t67 -10.5q113 0 113 100q0 40 -25 61.5t-74 21.5h-106z " />
<glyph unicode="6" horiz-adv-x="527" d="M261 366q56 0 95.5 -14t65 -38.5t37 -58.5t11.5 -74q0 -41 -11.5 -75t-37 -59t-65 -38.5t-95.5 -13.5t-95.5 13.5t-65 38.5t-37.5 59t-12 75v195q0 61 15 103t42.5 68t67.5 37.5t90 11.5q23 0 48 -4.5t49.5 -12t46 -17.5t36.5 -21l-40 -82q-38 28 -73.5 38t-66.5 10 q-26 0 -46 -6t-33.5 -21t-21 -40t-7.5 -64v-38q41 28 103 28zM261 82q58 0 80.5 28.5t22.5 70.5q0 41 -22.5 69t-80.5 28q-29 0 -49 -7.5t-32 -20.5t-17 -30.5t-5 -38.5t5 -39t17 -31.5t32 -21t49 -7.5z" />
<glyph unicode="7" horiz-adv-x="449" d="M49 0l268 503h-312v87h353q35 0 54 -19t19 -46q0 -9 -2.5 -19.5t-10.5 -22.5l-257 -483h-112z" />
<glyph unicode="8" horiz-adv-x="513" d="M443 423q0 -34 -15.5 -64.5t-46.5 -44.5q39 -16 59.5 -53.5t20.5 -79.5q0 -41 -12 -75t-37.5 -59t-65 -38.5t-95.5 -13.5t-95.5 13.5t-65 38.5t-37.5 59t-12 75q0 43 19.5 80t60.5 53q-14 6 -25.5 18t-19.5 27t-12.5 31.5t-4.5 32.5q0 38 10.5 70t34 55t60 35.5 t87.5 12.5q52 0 88.5 -12.5t59.5 -35.5t33.5 -55t10.5 -70zM167 423q0 -33 18.5 -50.5t65.5 -17.5q48 0 66.5 17.5t18.5 50.5q0 38 -18 61.5t-67 23.5t-66.5 -23.5t-17.5 -61.5zM251 82q58 0 80 28.5t22 70.5t-22 64t-80 22t-80 -22t-22 -64t22 -70.5t80 -28.5z" />
<glyph unicode="9" horiz-adv-x="527" d="M254 596q56 0 96 -14.5t65.5 -40.5t37.5 -63t12 -82v-196q0 -61 -15 -100.5t-43 -63t-68 -32.5t-90 -9q-23 0 -48 4.5t-49 12t-45.5 17t-37.5 20.5l42 89q38 -30 72.5 -43t65.5 -13q26 0 46 4t34 17t21 36t7 61v16q-42 -18 -103 -18q-56 0 -95.5 14.5t-65 41t-37 62.5 t-11.5 80q0 45 11.5 82t37 63t65 40.5t95.5 14.5zM254 285q58 0 80.5 31.5t22.5 79.5q0 50 -22.5 81t-80.5 31q-57 0 -79.5 -30.5t-22.5 -81.5q0 -48 22.5 -79.5t79.5 -31.5z" />
<glyph unicode=":" horiz-adv-x="214" d="M114 -5q-26 0 -44.5 18.5t-18.5 43.5q0 27 18.5 45t43.5 18q26 0 44.5 -18t18.5 -44t-18.5 -44.5t-43.5 -18.5zM114 252q-26 0 -44.5 19t-18.5 43q0 27 18.5 45.5t43.5 18.5q26 0 44.5 -18.5t18.5 -44.5q0 -25 -18.5 -44t-43.5 -19z" />
<glyph unicode=";" horiz-adv-x="214" d="M115 252q-27 0 -45.5 19t-18.5 43q0 27 18.5 45.5t43.5 18.5q26 0 44.5 -18.5t18.5 -44.5q0 -25 -18.5 -44t-42.5 -19zM64 -50q7 8 14.5 23t9.5 26q-15 8 -26 24t-11 33q0 27 18 45.5t44 18.5q27 0 45 -19t18 -52q0 -32 -23 -66t-58 -57z" />
<glyph unicode="&#x3c;" horiz-adv-x="321" d="M267 329l-144 -91l144 -91v-82l-228 142v63l228 142v-83z" />
<glyph unicode="=" horiz-adv-x="398" d="M51 264v85h298v-85h-298zM349 128h-298v86h298v-86z" />
<glyph unicode="&#x3e;" horiz-adv-x="321" d="M267 270v-63l-228 -142v83l144 90l-144 91v84z" />
<glyph unicode="?" horiz-adv-x="450" d="M200 596q101 0 155 -46.5t54 -127.5q0 -36 -10 -62t-25.5 -44.5t-34.5 -32.5t-37 -26q-19 -12 -31.5 -23t-12.5 -27v-43h-108v38q0 26 8 45t20.5 34t28.5 26.5t33 22.5q12 8 23 16t19.5 18.5t14 23t5.5 29.5q0 90 -102 90q-29 0 -57.5 -10t-66.5 -39l-37 83 q31 22 72.5 38.5t88.5 16.5zM205 -6q-26 0 -44.5 18.5t-18.5 43.5q0 27 18.5 45t43.5 18q26 0 44.5 -18t18.5 -44t-18.5 -44.5t-43.5 -18.5z" />
<glyph unicode="@" horiz-adv-x="697" d="M321 540q123 0 191.5 -71.5t68.5 -217.5q0 -91 -23.5 -129.5t-74.5 -38.5q-45 0 -67 39q-33 -43 -95 -43q-66 0 -100.5 40t-34.5 128q0 87 34.5 127.5t100.5 40.5t100.5 -39.5t36.5 -126.5v-4q0 -58 5.5 -79.5t19.5 -21.5q15 0 20 23t5 84q0 117 -48.5 172t-138.5 55 q-88 0 -137 -55t-49 -172q0 -118 49 -175.5t137 -57.5q66 0 124 40l27 -61q-34 -20 -71.5 -30.5t-79.5 -10.5q-121 0 -189.5 74.5t-68.5 220.5t68.5 217.5t189.5 71.5zM321 140q34 0 48.5 24.5t15.5 81.5v4q-1 55 -16 79.5t-48 24.5t-48 -25t-15 -82t15 -82t48 -25z" />
<glyph unicode="A" horiz-adv-x="531" d="M403 0l-33 167h-202l-32 -167h-109l100 500q11 53 47 83t96 30q59 0 94.5 -30t46.5 -83l101 -500h-109zM353 257l-44 219q-5 21 -14 34t-25 13q-17 0 -26 -13t-14 -34l-44 -219h167z" />
<glyph unicode="B" horiz-adv-x="529" d="M473 437q0 -35 -17 -67t-46 -46q40 -17 60.5 -55t20.5 -83q0 -42 -12 -76.5t-38 -58.5t-67 -37.5t-99 -13.5h-133q-42 0 -62.5 23t-20.5 59v444q0 36 20.5 59.5t62.5 23.5h133q53 0 90.5 -12t61.5 -34.5t35 -54t11 -71.5zM275 90q60 0 83 26.5t23 69.5q0 42 -23 66 t-83 24h-106v-186h106zM275 366q49 0 68.5 18t19.5 53q0 37 -19 59t-69 22h-106v-152h106z" />
<glyph unicode="C" horiz-adv-x="526" d="M39 308q0 161 67.5 233t200.5 72q57 0 108 -21.5t84 -47.5l-40 -86q-14 13 -33 25t-39 21t-41 14.5t-39 5.5q-78 0 -117.5 -50t-39.5 -166q0 -118 39.5 -170.5t117.5 -52.5q38 0 81 19t71 45l40 -85q-33 -26 -84 -48t-108 -22q-133 0 -200.5 75t-67.5 239z" />
<glyph unicode="D" horiz-adv-x="563" d="M142 0q-42 0 -62.5 23t-20.5 59v444q0 36 20.5 59.5t62.5 23.5h114q131 0 199.5 -73.5t68.5 -227.5q0 -155 -68.5 -231.5t-199.5 -76.5h-114zM169 518v-428h87q158 0 158 218q0 110 -40 160t-118 50h-87z" />
<glyph unicode="E" horiz-adv-x="493" d="M458 0h-316q-41 0 -62 23t-21 59v444q0 36 21 59.5t62 23.5h316v-91h-288v-152h237v-90h-237v-186h288v-90z" />
<glyph unicode="F" horiz-adv-x="450" d="M59 0v526q0 36 20.5 59.5t62.5 23.5h315v-91h-288v-152h238v-90h-238v-276h-110z" />
<glyph unicode="G" horiz-adv-x="540" d="M417 315q42 0 63 -23.5t21 -58.5v-118q0 -40 -12.5 -60.5t-49.5 -36.5q-26 -11 -60.5 -17.5t-71.5 -6.5q-133 0 -200.5 75t-67.5 239q0 161 67.5 233t200.5 72q57 0 108 -21t85 -48l-44 -84q-14 13 -32 24.5t-38 20.5t-40.5 14t-38.5 5q-78 0 -117.5 -50t-39.5 -166 q0 -118 39.5 -170.5t117.5 -52.5q46 0 83 14v125h-132v91h159v0z" />
<glyph unicode="H" horiz-adv-x="559" d="M398 243h-228v-243h-111v609h111v-276h228v276h110v-609h-110v243z" />
<glyph unicode="I" horiz-adv-x="242" d="M189 0h-110v609h110v-609z" />
<glyph unicode="J" horiz-adv-x="255" d="M-17 -88q19 6 38.5 18.5t35 31t25 43t9.5 54.5v550h111v-540q0 -57 -18.5 -99t-45.5 -71.5t-58 -48t-56 -29.5z" />
<glyph unicode="K" horiz-adv-x="538" d="M489 609q0 -59 -8 -110t-25 -92t-44 -71t-66 -47q77 -31 110 -106.5t33 -182.5h-111q0 125 -48 184t-151 59h-10v-243h-110v609h110v-276h10q105 0 152 68t47 208h111v0z" />
<glyph unicode="L" horiz-adv-x="459" d="M458 0h-315q-42 0 -63 23t-21 59v527h111v-519h288v-90z" />
<glyph unicode="M" horiz-adv-x="721" d="M358 198l119 348q11 32 34 50t62 18q42 0 64 -22t22 -60v-532h-111v427l-90 -259q-12 -34 -34.5 -53t-65.5 -19q-42 0 -64 19t-34 53l-91 262v-430h-110v532q0 38 22 60t64 22q38 0 61.5 -18t34.5 -50z" />
<glyph unicode="N" horiz-adv-x="593" d="M169 460v-460h-110v532q0 38 24 60t65 22q40 0 61 -16.5t35 -45.5l186 -402v459h111v-532q0 -38 -24 -60.5t-66 -22.5q-40 0 -61 17t-35 46z" />
<glyph unicode="O" horiz-adv-x="581" d="M289 -6q-128 0 -189 81.5t-61 232.5q0 150 60.5 227.5t189.5 77.5t189 -77.5t60 -227.5q0 -151 -60.5 -232.5t-188.5 -81.5zM289 524q-75 0 -107.5 -54t-32.5 -162t32.5 -165.5t107.5 -57.5t107.5 57.5t32.5 165.5t-32.5 162t-107.5 54z" />
<glyph unicode="P" horiz-adv-x="521" d="M491 423q0 -85 -50.5 -136t-165.5 -51h-106v-236h-110v526q0 36 20.5 59.5t62.5 23.5h133q58 0 99 -13.5t67 -37.5t38 -58.5t12 -76.5zM381 423q0 42 -23 68.5t-83 26.5h-106v-191h106q60 0 83 26.5t23 69.5z" />
<glyph unicode="Q" horiz-adv-x="605" d="M551 308q0 -95 -25 -163t-77 -107q22 -15 37 -35l-55 -83q-11 15 -26 28.5t-32 23.5t-35.5 16t-36.5 6q-129 0 -189.5 81.5t-60.5 232.5q0 150 60 227.5t190 77.5q129 0 189.5 -77.5t60.5 -227.5zM161 308q0 -108 32.5 -165.5t107.5 -57.5t107 57.5t32 165.5t-32 162 t-107 54t-107.5 -54t-32.5 -162z" />
<glyph unicode="R" horiz-adv-x="541" d="M491 423q0 -24 -4.5 -46.5t-14.5 -42t-27 -34.5t-42 -24q48 -21 68 -65t20 -95v-116h-110v110q0 64 -29 95t-82 31h-102v-236h-109v526q0 36 20 59.5t62 23.5h134q57 0 98 -13.5t67.5 -37.5t38.5 -58.5t12 -76.5zM168 518v-191h107q60 0 83 26.5t23 69.5q0 42 -23 68.5 t-83 26.5h-107z" />
<glyph unicode="S" horiz-adv-x="531" d="M314 350q41 -4 75 -14.5t58 -30.5t37 -51t13 -75q0 -85 -62.5 -135t-171.5 -50q-72 0 -127 18.5t-97 52.5l46 98q35 -35 81 -56t95 -21q125 0 125 93q0 35 -18 55t-60 23l-75 6q-91 8 -139 50.5t-48 120.5q0 39 15 72t43.5 57t68 37t89.5 13q55 0 109.5 -16t90.5 -38 l-41 -90q-37 26 -78 40.5t-81 14.5q-51 0 -78 -24.5t-27 -65.5q0 -36 22.5 -55.5t62.5 -22.5l72 -6v0z" />
<glyph unicode="T" horiz-adv-x="490" d="M478 518h-178v-518h-110v518h-179v91h467v-91z" />
<glyph unicode="U" horiz-adv-x="558" d="M282 -6q-102 0 -162.5 55t-60.5 156v404h111v-398q0 -65 29.5 -95.5t82.5 -30.5t84.5 30.5t31.5 95.5v398h110v-404q0 -101 -58.5 -156t-167.5 -55z" />
<glyph unicode="V" horiz-adv-x="538" d="M273 -6q-60 0 -95.5 30.5t-46.5 83.5l-100 501h109l94 -477q4 -21 13 -33.5t26 -12.5q16 0 25.5 12.5t14.5 33.5l94 477h108l-101 -501q-11 -53 -46 -83.5t-95 -30.5z" />
<glyph unicode="W" horiz-adv-x="922" d="M847 205q0 -100 -58.5 -155.5t-168.5 -55.5q-26 0 -51 4.5t-47 14t-40 25t-28 37.5q-21 -45 -67.5 -63t-103.5 -18q-51 0 -92.5 14.5t-70.5 41.5t-45 66t-16 89v404h111v-398q0 -64 29.5 -95t83.5 -31q52 0 83.5 31t31.5 95v398h111v-398q0 -64 29.5 -95t81.5 -31 q54 0 85 31t31 95v398h111v-404z" />
<glyph unicode="X" horiz-adv-x="558" d="M508 0h-111v116q0 66 -29.5 96.5t-82.5 30.5q-54 0 -84.5 -30.5t-30.5 -96.5v-116h-111v123q0 54 22 100t72 66q-50 21 -72 66t-22 98v156h111v-149q0 -65 29.5 -96t81.5 -31q54 0 85 31t31 96v149h111v-156q0 -53 -22 -99t-72 -66q51 -20 72.5 -65.5t21.5 -99.5v-123z " />
<glyph unicode="Y" horiz-adv-x="550" d="M500 166q0 -83 -56.5 -127.5t-170.5 -44.5q-45 0 -82 8t-65 19q-33 12 -59 28l38 87q25 -15 53 -26q24 -10 54 -17.5t61 -7.5q61 0 88.5 21.5t27.5 63.5v31q-24 -19 -53.5 -27.5t-71.5 -8.5q-99 0 -156 53t-57 157v234h111v-227q0 -66 29.5 -96.5t82.5 -30.5q26 0 47 4.5 t36 15.5t23.5 30.5t8.5 49.5v254h111v-443z" />
<glyph unicode="Z" horiz-adv-x="542" d="M150 90h331v-90h-380q-35 0 -56 20.5t-21 47.5q0 23 19 46l318 404h-325v91h374q36 0 56.5 -20.5t20.5 -47.5q0 -22 -19 -47z" />
<glyph unicode="[" horiz-adv-x="254" d="M158 76q0 -32 22.5 -47t63.5 -15v-87q-92 0 -142.5 37t-50.5 112v401q0 74 50.5 111.5t142.5 37.5v-88q-41 0 -63.5 -15t-22.5 -46v-401z" />
<glyph unicode="\" horiz-adv-x="328" d="M106 621l237 -690h-104l-236 690h103z" />
<glyph unicode="]" horiz-adv-x="254" d="M109 477q0 31 -22.5 46t-63.5 15v88q93 0 143 -37.5t50 -111.5v-401q0 -75 -50 -112t-143 -37v87q41 0 63.5 15t22.5 47v401z" />
<glyph unicode="^" horiz-adv-x="502" d="M331 328l-77 156l-77 -156h-84l129 254h66l127 -254h-84z" />
<glyph unicode="_" horiz-adv-x="270" d="M270 -108h-270v86h270v-86z" />
<glyph unicode="`" horiz-adv-x="502" d="M137 693h87l83 -131h-77z" />
<glyph unicode="a" d="M214 -5q-53 0 -89 11t-59 31.5t-33 48t-10 60.5q0 34 10 61.5t33 47t59 30t89 10.5q14 0 31.5 -1.5t33.5 -3.5l36 -4v22q0 91 -102 91q-29 0 -58 -9t-67 -37l-36 79q32 23 74 39t88 16q101 0 154.5 -44.5t53.5 -129.5v-132q0 -63 -20 -100t-51 -56t-67.5 -24.5 t-69.5 -5.5zM214 82q54 0 77.5 22.5t23.5 70.5v29q-17 3 -43 5t-58 2q-46 0 -64.5 -16t-18.5 -48q0 -65 83 -65z" />
<glyph unicode="b" horiz-adv-x="501" d="M453 241q0 -119 -51 -182.5t-150 -63.5q-104 0 -150.5 63.5t-46.5 182.5v408h106v-200q21 20 45.5 29t53.5 9q93 0 143 -63.5t50 -182.5zM346 241q0 30 -3.5 58.5t-13 51t-28 36t-48.5 13.5t-48 -13.5t-27.5 -36t-13 -51t-3.5 -58.5t2.5 -58.5t11.5 -51t27 -36t50 -13.5 q30 0 48.5 13.5t28.5 36t13.5 51t3.5 58.5z" />
<glyph unicode="c" horiz-adv-x="447" d="M39 241q0 119 54 182.5t167 63.5q45 0 82 -15.5t69 -39.5l-42 -84q-26 24 -55 38t-54 14q-60 0 -87 -41t-27 -118t27 -118t87 -41q25 0 54 14t55 38l42 -84q-32 -24 -69 -39.5t-82 -15.5q-113 0 -167 63.5t-54 182.5z" />
<glyph unicode="d" horiz-adv-x="498" d="M232 487q27 0 52.5 -10.5t45.5 -28.5v201h108v-408q0 -119 -47.5 -182.5t-150.5 -63.5q-100 0 -150.5 63.5t-50.5 182.5t49.5 182.5t143.5 63.5zM240 82q32 0 50 13.5t27 36t11 51t2 58.5t-3 58.5t-13 51t-28 36t-48 13.5t-48 -13.5t-28 -36t-13 -51t-3 -58.5t3.5 -58.5 t13.5 -51t28.5 -36t48.5 -13.5z" />
<glyph unicode="e" horiz-adv-x="487" d="M427 63q-39 -34 -79 -51t-94 -17q-105 0 -160 62.5t-55 183.5q0 58 14.5 103.5t42 77t66 48.5t86.5 17q52 0 88.5 -14t59 -36t33 -49t10.5 -53q0 -29 -7 -55.5t-26.5 -46.5t-55 -31.5t-91.5 -11.5q-19 0 -38 1t-36 3q-19 2 -38 5q5 -57 33 -86.5t76 -29.5q29 0 60.5 12.5 t69.5 47.5zM248 400q-24 0 -42 -9t-30 -25t-19 -36.5t-10 -44.5q17 -3 44.5 -6t65.5 -3q48 0 62 16.5t14 42.5q0 12 -4 23.5t-14 20.5t-26 15t-41 6z" />
<glyph unicode="f" horiz-adv-x="258" d="M240 568q-35 0 -50 -20.5t-17 -65.5h108v-87h-108v-395h-108v395h-40v87h40q5 87 46.5 129.5t128.5 42.5q23 0 52.5 -7t58.5 -19l-35 -81q-23 11 -41 16t-35 5z" />
<glyph unicode="g" horiz-adv-x="497" d="M238 -65q48 0 70 24t24 66q-30 -30 -100 -30q-94 0 -143.5 63.5t-49.5 182.5t50.5 182.5t150.5 63.5q103 0 150 -63.5t47 -182.5v-227q0 -81 -48.5 -124t-150.5 -43q-40 0 -71 8.5t-54 19.5q-26 12 -46 28l36 82q20 -14 42 -25q19 -10 43 -17.5t50 -7.5zM238 82 q30 0 48 13.5t28 36t13 51t3 58.5t-2.5 58.5t-11.5 51t-27 36t-49 13.5q-30 0 -48.5 -13.5t-28.5 -36t-13.5 -51t-3.5 -58.5t3 -58.5t13 -51t28 -36t48 -13.5z" />
<glyph unicode="h" horiz-adv-x="505" d="M253 487q43 0 79 -13.5t61.5 -38t39.5 -59t14 -76.5v-300h-108v293q0 52 -23.5 79.5t-62.5 27.5t-62.5 -27.5t-23.5 -79.5v-293h-108v649h108v-200q17 16 38.5 27t47.5 11z" />
<glyph unicode="i" horiz-adv-x="237" d="M174 -8q-58 12 -82.5 47.5t-24.5 95.5v347h108v-356q0 -19 8 -32t28 -23zM122 522q-26 0 -44.5 19t-18.5 43q0 27 18.5 45.5t43.5 18.5q26 0 44.5 -18.5t18.5 -44.5q0 -25 -18.5 -44t-43.5 -19z" />
<glyph unicode="j" horiz-adv-x="219" d="M-33 -87q18 6 36 16t33 25t24.5 36t9.5 50v442h107v-433q0 -56 -18.5 -93.5t-45 -63t-56 -40.5t-52.5 -24zM122 522q-26 0 -44.5 19t-18.5 43q0 27 18.5 45.5t43.5 18.5q26 0 44.5 -18.5t18.5 -44.5q0 -25 -18.5 -44t-43.5 -19z" />
<glyph unicode="k" horiz-adv-x="484" d="M427 431q0 -30 -6 -58t-18 -51.5t-30 -42t-43 -28.5q53 -20 75 -67t22 -110v-74h-107v68q0 40 -8.5 67t-25 43.5t-40 23.5t-53.5 7h-27v-209h-107v649h107v-352h27q34 0 58 7t39.5 23.5t22.5 43.5t7 67v44h107v-51v0z" />
<glyph unicode="l" horiz-adv-x="227" d="M166 -8q-58 12 -82.5 47.5t-24.5 95.5v514h107v-523q0 -19 8 -32t28 -23z" />
<glyph unicode="m" horiz-adv-x="807" d="M525 487q43 0 78.5 -13.5t61 -38t39.5 -59t14 -76.5v-300h-107v293q0 52 -23.5 79.5t-62.5 27.5t-62.5 -27.5t-23.5 -79.5v-293h-108v293q0 52 -23.5 79.5t-63.5 27.5q-39 0 -62.5 -27.5t-23.5 -79.5v-293h-107v300q0 84 50 135.5t143 51.5q43 0 82 -22t57 -68 q17 47 56 68.5t86 21.5z" />
<glyph unicode="n" horiz-adv-x="498" d="M245 487q43 0 79 -13.5t61.5 -38t39.5 -59t14 -76.5v-300h-107v293q0 52 -24 79.5t-63 27.5t-63 -27.5t-24 -79.5v-293h-107v300q0 84 50 135.5t144 51.5z" />
<glyph unicode="o" horiz-adv-x="499" d="M245 -5q-103 0 -154.5 63.5t-51.5 182.5t51.5 182.5t154.5 63.5t154 -63.5t51 -182.5t-51 -182.5t-154 -63.5zM245 400q-51 0 -75 -41t-24 -118t24 -118t75 -41t74 41t23 118t-23 118t-74 41z" />
<glyph unicode="p" horiz-adv-x="497" d="M256 -5q-29 0 -53 8.5t-45 28.5v-179h-107v388q0 119 47 182.5t150 63.5q100 0 150.5 -63.5t50.5 -182.5t-49.5 -182.5t-143.5 -63.5zM248 400q-32 0 -50 -13.5t-27 -36t-11 -51t-2 -58.5t3 -58.5t13 -51t28 -36t48 -13.5t48 13.5t27.5 36t13 51t3.5 58.5t-3.5 58.5 t-13.5 51t-28.5 36t-48.5 13.5z" />
<glyph unicode="q" horiz-adv-x="497" d="M232 -5q-94 0 -143.5 63.5t-49.5 182.5t50.5 182.5t150.5 63.5q103 0 150 -63.5t47 -182.5v-388h-108v179q-21 -20 -44.5 -28.5t-52.5 -8.5zM240 400q-30 0 -48.5 -13.5t-28.5 -36t-13.5 -51t-3.5 -58.5t3 -58.5t13 -51t28 -36t48 -13.5t48 13.5t27.5 36t12.5 51t3 58.5 t-2 58.5t-11 51t-27 36t-49 13.5z" />
<glyph unicode="r" horiz-adv-x="328" d="M312 374q-20 13 -37.5 19.5t-28.5 6.5q-40 0 -63.5 -27.5t-23.5 -79.5v-293h-108v300q0 84 50.5 135.5t144.5 51.5q23 0 51 -9.5t54 -27.5z" />
<glyph unicode="s" d="M284 284q33 -3 61.5 -10.5t49 -23t32.5 -40.5t12 -63q0 -71 -55.5 -111.5t-149.5 -40.5q-110 0 -195 66l41 85q39 -33 76.5 -48.5t75.5 -15.5q100 0 100 65q0 46 -55 50l-71 6q-159 13 -159 137q0 68 50.5 107.5t136.5 39.5q42 0 86.5 -13.5t83.5 -36.5l-35 -78 q-37 24 -71.5 33t-63.5 9q-80 0 -80 -61q0 -43 60 -49l70 -7v0z" />
<glyph unicode="t" horiz-adv-x="334" d="M204 -5q-69 0 -109 39t-40 99v457h108v-108h133v-87h-133v-263q0 -23 12 -36t29 -13t32.5 4t28.5 9q15 6 29 14l32 -79q-17 -10 -36 -18q-17 -7 -39 -12.5t-47 -5.5z" />
<glyph unicode="u" horiz-adv-x="501" d="M249 -5q-93 0 -143.5 51.5t-50.5 135.5v300h107v-293q0 -52 23.5 -79.5t63.5 -27.5q38 0 61.5 27.5t23.5 79.5v293h108v-300q0 -84 -50 -135.5t-143 -51.5z" />
<glyph unicode="v" horiz-adv-x="469" d="M238 -5q-58 0 -92 30t-45 81l-76 376h105l71 -356q8 -43 37 -43q30 0 38 43l70 356h95l-66 -376q-9 -51 -44.5 -81t-92.5 -30z" />
<glyph unicode="w" horiz-adv-x="816" d="M727 482v-300q0 -84 -50 -135.5t-143 -51.5q-21 0 -42.5 5.5t-40 16.5t-33 28t-23.5 40q-17 -47 -56.5 -68.5t-85.5 -21.5q-43 0 -79 13.5t-61.5 38t-39.5 59t-14 76.5v300h107v-293q0 -52 24 -79.5t63 -27.5t63 27.5t24 79.5v293h107v-293q0 -52 23.5 -79.5t63.5 -27.5 q38 0 61.5 27.5t23.5 79.5v293h108z" />
<glyph unicode="x" horiz-adv-x="506" d="M448 397q0 -23 -5 -45.5t-15.5 -42t-27.5 -34.5t-42 -24q51 -18 70.5 -58.5t19.5 -87.5v-105h-108v98q0 51 -23.5 78.5t-63.5 27.5q-39 0 -62.5 -27.5t-23.5 -78.5v-98h-108v105q0 46 21 87t72 59q-26 9 -43.5 24t-28.5 34t-16 41.5t-5 46.5v85h108v-79q0 -51 23.5 -78.5 t62.5 -27.5q40 0 63.5 27.5t23.5 78.5v79h108v-85v0z" />
<glyph unicode="y" horiz-adv-x="505" d="M447 482v-468q0 -81 -48.5 -124t-151.5 -43q-40 0 -71 8.5t-53 19.5q-26 12 -46 28l36 81q19 -14 41 -25q19 -9 43 -16.5t50 -7.5q46 0 69.5 24.5t23.5 77.5q-15 -21 -38.5 -31.5t-58.5 -10.5q-43 0 -77 13.5t-58 38t-36.5 59t-12.5 76.5v300h107v-293q0 -52 23.5 -79.5 t63.5 -27.5q46 0 66 21t20 62v317h108z" />
<glyph unicode="z" horiz-adv-x="431" d="M139 88h238v-88h-286q-35 0 -55 20t-20 46q0 21 18 45l224 283h-234v88h280q34 0 55 -20t21 -46q0 -21 -18 -45z" />
<glyph unicode="{" horiz-adv-x="242" d="M9 317q24 2 39 12t15 27v75q0 57 11.5 94.5t33.5 60t54 31.5t73 9v-88q-32 0 -48.5 -20.5t-16.5 -73.5v-72q0 -81 -60 -96q30 -8 45 -30.5t15 -64.5v-73q0 -53 16.5 -73.5t48.5 -20.5v-87q-41 0 -73 9t-54 31.5t-33.5 59.5t-11.5 94v76q0 16 -15 26.5t-39 12.5v81z" />
<glyph unicode="|" horiz-adv-x="179" d="M140 -69h-100v690h100v-690z" />
<glyph unicode="}" horiz-adv-x="242" d="M235 236q-24 -2 -39 -12.5t-15 -26.5v-76q0 -57 -11.5 -94t-33.5 -59.5t-54 -31.5t-73 -9v87q32 0 48.5 20.5t16.5 73.5v73q0 42 20 64.5t50 30.5q-29 8 -49.5 31t-20.5 65v72q0 53 -16.5 73.5t-48.5 20.5v88q41 0 73 -9t54 -31.5t33.5 -60t11.5 -94.5v-75q0 -17 15 -27 t39 -12v-81z" />
<glyph unicode="~" horiz-adv-x="500" d="M69 304q15 11 33 20q16 8 38 14.5t50 6.5q22 0 36.5 -5t27.5 -11.5t25.5 -11.5t29.5 -5t33.5 4t28.5 9q14 6 26 14l34 -70q-16 -12 -34 -21q-16 -8 -38 -14t-49 -6q-23 0 -37.5 5t-26.5 11.5t-24.5 11.5t-30.5 5t-34 -4.5t-28 -9.5q-14 -6 -26 -13z" />
<glyph unicode="&#xa1;" horiz-adv-x="214" d="M167 -108h-107v426h107v-426zM113 487q26 0 44.5 -18.5t18.5 -43.5q0 -27 -18.5 -45t-43.5 -18q-26 0 -44.5 18t-18.5 44t18.5 44.5t43.5 18.5z" />
<glyph unicode="&#xa2;" horiz-adv-x="430" d="M388 104q-24 -19 -51 -33.5t-57 -19.5v-56h-100v60q-70 15 -107.5 66.5t-37.5 137.5t37.5 137t107.5 66v61h100v-58q32 -6 58.5 -19t49.5 -32l-42 -83q-20 19 -37 28.5t-29 14.5v-227q17 8 33.5 18t31.5 25zM142 259q0 -81 38 -108v215q-18 -14 -28 -41t-10 -66z" />
<glyph unicode="&#xa3;" horiz-adv-x="459" d="M316 238h-139v-71q0 -26 -9 -41.5t-19 -28.5q-2 -3 -1 -6t5 -3h268v-88h-306q-40 0 -60.5 22t-20.5 57q0 21 7 35t17 26q5 6 8.5 12t3.5 15v71h-36v86h36v11q0 54 9.5 95.5t32 70t59.5 43.5t93 15q29 0 53 -6.5t44.5 -16.5t37.5 -22.5t32 -24.5l-46 -79q-25 24 -57 43 t-64 19q-26 0 -43 -9t-27 -26.5t-13.5 -43t-3.5 -58.5v-11h139v-86z" />
<glyph unicode="&#xa4;" horiz-adv-x="693" d="M581 481l-56 -55q43 -57 43 -130q0 -76 -43 -129l56 -55l-49 -50l-56 56q-28 -20 -61 -30.5t-68 -10.5q-36 0 -69 10.5t-60 30.5l-56 -56l-50 49l57 57q-41 53 -41 128q0 35 10.5 68t30.5 61l-56 56l49 50l56 -57q55 43 129 43q72 0 129 -43l55 56zM200 296 q0 -30 11.5 -56.5t32 -47t47 -32t56.5 -11.5t57 11.5t47 32t31.5 47t11.5 56.5t-11.5 57.5t-31.5 47.5t-47 32t-57 12t-56.5 -12t-47 -32t-32 -47.5t-11.5 -57.5z" />
<glyph unicode="&#xa5;" horiz-adv-x="553" d="M503 590l-89 -282h64v-87h-145v-24h145v-88h-145v-109h-108v109h-145v88h145v24h-145v87h61l-88 282h107q13 -42 25.5 -83t23.5 -73q12 -38 23 -73q6 -20 17 -36.5t30 -16.5t29 16.5t16 36.5l71 229h108z" />
<glyph unicode="&#xa6;" horiz-adv-x="179" d="M140 239v-308h-100v308h100zM140 621v-308h-100v308h100z" />
<glyph unicode="&#xa7;" d="M270 418q33 -3 61.5 -8.5t50.5 -19t34.5 -37.5t12.5 -63q0 -32 -13 -58.5t-40 -43.5q19 -12 29.5 -36.5t10.5 -54.5q0 -62 -46 -102.5t-141 -40.5q-57 0 -100 17t-86 50l42 87q39 -36 72.5 -51t69.5 -15q46 0 64 14.5t18 40.5q0 17 -10 27.5t-36 13.5l-62 6 q-78 8 -120.5 42.5t-42.5 95.5q0 32 13.5 57.5t33.5 42.5q-34 31 -34 83q0 60 45.5 98.5t132.5 38.5q42 0 86.5 -13t83.5 -37l-35 -83q-37 25 -71.5 36t-63.5 11q-38 0 -54.5 -14t-16.5 -37q0 -22 10.5 -30t40.5 -11zM268 226q5 -1 12 -1q3 0 4 -1q18 9 28.5 23t10.5 43 q0 21 -15.5 29.5t-44.5 10.5l-62 5q-10 1 -18.5 2t-16.5 3q-22 -15 -22 -58q0 -44 65 -50z" />
<glyph unicode="&#xa8;" horiz-adv-x="502" d="M304 556q-24 0 -41.5 17t-17.5 41t17.5 42t40.5 18q24 0 41.5 -18t17.5 -41q0 -25 -17.5 -42t-40.5 -17zM155 556q-24 0 -41.5 17t-17.5 41t17.5 42t41.5 18q25 0 41.5 -18t16.5 -41q0 -25 -16.5 -42t-41.5 -17z" />
<glyph unicode="&#xa9;" horiz-adv-x="693" d="M43 297q0 63 23.5 118t65 96t96.5 65t118 24t118 -24t96 -65t65 -96t24 -118t-24 -118t-65 -96.5t-96 -65t-118 -23.5t-118 23.5t-96.5 65t-65 96.5t-23.5 118zM98 297q0 -51 19.5 -96.5t53 -79t79 -53t96.5 -19.5t96 19.5t79 53t53.5 79t19.5 96.5t-19.5 96t-53.5 79 t-79 53.5t-96 19.5t-96.5 -19.5t-79 -53.5t-53 -79t-19.5 -96zM168 295q0 92 48.5 141.5t133.5 49.5q32 0 58.5 -11t49.5 -28l-27 -55q-17 16 -37.5 25t-43.5 9q-56 0 -87 -33.5t-31 -97.5q0 -65 31 -98.5t87 -33.5q23 0 43.5 9.5t37.5 25.5l27 -56q-23 -17 -49.5 -28 t-58.5 -11q-85 0 -133.5 50t-48.5 142z" />
<glyph unicode="&#xaa;" horiz-adv-x="332" d="M161 287q-53 0 -73.5 22.5t-20.5 57.5t20.5 56.5t73.5 21.5q6 0 15.5 -0.5t17.5 -1.5l20 -2v8q0 43 -54 43q-17 0 -29 -5t-29 -18l-23 44q17 11 38.5 20t43.5 9q49 0 75.5 -23t26.5 -68v-67q0 -33 -10 -52t-25 -29t-33 -13t-34 -3zM161 338q53 0 53 43v12q-10 1 -24 2.5 t-29 1.5q-24 0 -34.5 -7.5t-10.5 -21.5q0 -30 45 -30z" />
<glyph unicode="&#xab;" horiz-adv-x="349" d="M187 325l-78 -87l78 -87l-31 -45l-94 93q-8 8 -14 19.5t-6 19.5q0 20 20 39l93 93zM307 325l-78 -87l78 -87l-31 -45l-94 93q-8 8 -14 19.5t-6 19.5q0 20 20 39l93 93z" />
<glyph unicode="&#xac;" horiz-adv-x="398" d="M349 282v-167h-90v81h-208v86h298z" />
<glyph unicode="&#xad;" horiz-adv-x="398" d="M51 196v86h298v-86h-298z" />
<glyph unicode="&#xae;" horiz-adv-x="325" d="M37 479q0 26 10 49t26.5 40t39 26.5t48.5 9.5t49 -9.5t40 -26.5t27 -40t10 -49t-10 -48.5t-27 -39.5t-40 -26.5t-49 -9.5t-48.5 9.5t-39 26.5t-26.5 39.5t-10 48.5zM64 479q0 -20 7.5 -37.5t21 -31t31 -21t37.5 -7.5q19 0 37 7.5t31.5 21t21.5 31t8 37.5q0 19 -8 37 t-21.5 31.5t-31.5 21.5t-37 8q-20 0 -37.5 -8t-31 -21.5t-21 -31.5t-7.5 -37zM212 504q0 -8 -4.5 -17t-11.5 -14q16 -10 16 -33v-26h-27v26q0 22 -23 22h-18v-48h-29v112q0 21 21 21h27q26 0 37.5 -11.5t11.5 -31.5zM144 521v-33h19q22 0 22 16q0 17 -22 17h-19z" />
<glyph unicode="&#xaf;" horiz-adv-x="502" d="M389 569h-276v55h276v-55z" />
<glyph unicode="&#xb0;" horiz-adv-x="253" d="M18 566q0 23 8.5 43t23.5 34.5t34.5 23t41.5 8.5t41.5 -8.5t34.5 -23t23.5 -34.5t8.5 -43t-8.5 -42.5t-23.5 -33.5t-34.5 -22.5t-41.5 -8.5t-41.5 8.5t-34.5 22.5t-23.5 33.5t-8.5 42.5zM75 566q0 -20 15 -35t36 -15t36 15t15 35q0 22 -15 37t-36 15t-36 -15t-15 -37z " />
<glyph unicode="&#xb1;" horiz-adv-x="397" d="M344 268h-103v-99h-86v99h-104v86h104v98h86v-98h103v-86zM344 57h-293v86h293v-86z" />
<glyph unicode="&#xb2;" horiz-adv-x="301" d="M168 433q-20 -10 -38 -24t-21 -38h130v-47h-145q-17 0 -26.5 10t-9.5 25q0 28 8 47t20.5 32t28 21.5t30.5 16.5q18 9 31 18t13 25q0 35 -46 35q-14 0 -29 -6t-32 -20l-21 45q16 11 39 19.5t43 8.5q46 0 72 -21.5t26 -60.5q0 -19 -6.5 -32.5t-16.5 -23.5t-23.5 -17 t-26.5 -13z" />
<glyph unicode="&#xb3;" horiz-adv-x="292" d="M232 521q0 -34 -21 -54q11 -11 18 -26t7 -33q0 -41 -25.5 -63.5t-71.5 -22.5q-20 0 -43.5 7.5t-38.5 18.5l20 46q13 -11 30.5 -18t31.5 -7q45 0 45 39q0 15 -8 26t-25 11h-31v47h31q16 0 23 8t7 21q0 34 -43 34q-13 0 -28.5 -6.5t-27.5 -18.5l-22 45q16 11 37 18.5 t41 7.5q46 0 70 -21t24 -59z" />
<glyph unicode="&#xb4;" horiz-adv-x="502" d="M265 692h89l-95 -131h-78z" />
<glyph unicode="&#xb5;" horiz-adv-x="501" d="M249 -5q-48 0 -87 36v-178h-107v629h107v-293q0 -52 23.5 -79.5t63.5 -27.5q38 0 61.5 27.5t23.5 79.5v293h108v-300q0 -84 -50 -135.5t-143 -51.5z" />
<glyph unicode="&#xb6;" horiz-adv-x="459" d="M232 0v261q-29 0 -61.5 5.5t-59.5 22.5t-45 48.5t-18 83.5q0 43 11.5 76.5t38.5 57t70.5 35.5t107.5 12h72q15 0 24 -9t9 -24v-569h-54v544h-41v-544h-54z" />
<glyph unicode="&#xb7;" horiz-adv-x="214" d="M107 124q-26 0 -44.5 18.5t-18.5 44.5t18.5 44.5t43.5 18.5q26 0 44.5 -18t18.5 -44t-18.5 -45t-43.5 -19z" />
<glyph unicode="&#xb8;" horiz-adv-x="502" d="M205 0h46l-13 -29q-2 -3 2 -3h8q36 0 57.5 -15t21.5 -52q0 -30 -21.5 -46.5t-66.5 -16.5q-22 0 -47 9.5t-43 21.5l20 44q22 -17 37.5 -23.5t32.5 -6.5q34 0 34 22q0 19 -25 19h-14q-20 0 -32 10.5t-12 25.5q0 9 4 17z" />
<glyph unicode="&#xb9;" horiz-adv-x="217" d="M48 583q8 5 18 9q8 3 17.5 6t18.5 3q22 0 34 -12.5t12 -33.5v-231h-49v223q0 3 -3 3q-4 0 -8 -2.5t-9 -4.5q-5 -4 -10 -7z" />
<glyph unicode="&#xba;" horiz-adv-x="326" d="M167 287q-50 0 -75.5 33.5t-25.5 94.5q0 62 25.5 94.5t75.5 32.5q51 0 76 -32.5t25 -94.5q0 -61 -25 -94.5t-76 -33.5zM167 493q-26 0 -39 -20t-13 -58q0 -77 52 -77t52 77q0 38 -13 58t-39 20z" />
<glyph unicode="&#xbb;" horiz-adv-x="349" d="M194 370l93 -93q20 -19 20 -39q0 -8 -6 -19.5t-14 -19.5l-94 -93l-31 45l78 87l-78 87zM74 370l93 -93q20 -19 20 -39q0 -8 -6 -19.5t-14 -19.5l-94 -93l-31 45l78 87l-78 87z" />
<glyph unicode="&#xbc;" horiz-adv-x="718" d="M624 65h-27v-65h-73v65h-88q-22 0 -34.5 12t-12.5 31q0 6 2.5 14t7.5 14l113 167q5 8 16 13.5t22 5.5q17 0 32 -11.5t15 -31.5v-151h26zM524 128v69l-47 -69h47zM576 550l-386 -597l-61 39l385 597zM105 544q13 7 25 12q11 5 23 9t23 4q27 0 42.5 -15.5t15.5 -42.5v-262 h-71v242q0 3 -4 3q-6 0 -14.5 -5t-11.5 -8z" />
<glyph unicode="&#xbd;" horiz-adv-x="718" d="M576 550l-386 -597l-61 39l386 597zM560 121q-18 -9 -35.5 -22t-23.5 -34h143v-65h-171q-20 0 -34 13t-14 32q0 32 9.5 54t24 37t32.5 25t36 19t31 18.5t13 24.5q0 32 -43 32q-14 0 -31 -7.5t-41 -27.5l-28 66q19 15 47 25t53 10q55 0 86 -25.5t31 -72.5q0 -23 -7 -38.5 t-19 -27t-27.5 -20t-31.5 -16.5zM105 544q13 7 25 12q11 5 23 9t23 4q27 0 42.5 -15.5t15.5 -42.5v-262h-71v242q0 3 -4 3q-6 0 -14.5 -5t-11.5 -8z" />
<glyph unicode="&#xbe;" horiz-adv-x="718" d="M622 65h-28v-65h-73v65h-88q-21 0 -34 12t-13 31q0 6 3 14t7 14l113 167q6 8 16.5 13.5t21.5 5.5q18 0 32.5 -11.5t14.5 -31.5v-151h27zM521 128v69l-47 -69h47zM574 550l-387 -597l-61 39l386 597zM287 474q0 -40 -28 -60q32 -24 32 -65q0 -49 -31 -75.5t-85 -26.5 q-23 0 -53 9.5t-49 23.5l28 60q17 -14 39 -22t35 -8q42 0 42 39q0 14 -7 24.5t-21 10.5h-44v63h44q14 0 20 8t6 19q0 31 -41 31q-12 0 -31.5 -7.5t-36.5 -22.5l-28 60q20 16 46.5 25t49.5 9q55 0 84 -25t29 -70z" />
<glyph unicode="&#xbf;" horiz-adv-x="450" d="M248 -115q47 0 88.5 16.5t72.5 38.5l-39 90q-38 -31 -65.5 -43.5t-56.5 -12.5q-102 0 -102 90q0 17 5.5 29.5t14 23t19.5 18.5t23 16q16 11 32.5 22.5t29 26.5t20.5 34t8 45v38h-108v-43q0 -16 -12.5 -27t-31.5 -23q-18 -12 -37 -26t-34.5 -32.5t-25.5 -44.5t-10 -62 q0 -81 54 -127.5t155 -46.5zM243 487q26 0 44.5 -18.5t18.5 -43.5q0 -27 -18.5 -45t-43.5 -18q-26 0 -44.5 18t-18.5 44t18.5 44.5t43.5 18.5z" />
<glyph unicode="&#xc0;" horiz-adv-x="531" d="M403 0l-33 167h-202l-32 -167h-109l100 500q11 53 47 83t96 30q59 0 94.5 -30t46.5 -83l101 -500h-109zM353 257l-44 219q-5 21 -14 34t-25 13q-17 0 -26 -13t-14 -34l-44 -219h167zM160 783h87l83 -131h-77z" />
<glyph unicode="&#xc1;" horiz-adv-x="531" d="M403 0l-33 167h-202l-32 -167h-109l100 500q11 53 47 83t96 30q59 0 94.5 -30t46.5 -83l101 -500h-109zM353 257l-44 219q-5 21 -14 34t-25 13q-17 0 -26 -13t-14 -34l-44 -219h167zM291 782h89l-95 -131h-78z" />
<glyph unicode="&#xc2;" horiz-adv-x="531" d="M403 0l-33 167h-202l-32 -167h-109l100 500q11 53 47 83t96 30q59 0 94.5 -30t46.5 -83l101 -500h-109zM353 257l-44 219q-5 21 -14 34t-25 13q-17 0 -26 -13t-14 -34l-44 -219h167zM317 641l-47 70l-47 -70h-71l90 131h57l89 -131h-71z" />
<glyph unicode="&#xc3;" horiz-adv-x="531" d="M403 0l-33 167h-202l-32 -167h-109l100 500q11 53 47 83t96 30q59 0 94.5 -30t46.5 -83l101 -500h-109zM353 257l-44 219q-5 21 -14 34t-25 13q-17 0 -26 -13t-14 -34l-44 -219h167zM125 703q13 10 28 19q13 7 30 13t37 6q18 0 31 -5.5t24 -12t22 -12t26 -5.5 q11 0 23 4.5t23 10.5t23 15l24 -53q-13 -11 -29 -19q-14 -7 -31 -12.5t-35 -5.5t-30.5 5.5t-24 11.5t-22.5 11.5t-26 5.5q-11 0 -23 -5t-22 -10q-11 -7 -23 -15z" />
<glyph unicode="&#xc4;" horiz-adv-x="531" d="M403 0l-33 167h-202l-32 -167h-109l100 500q11 53 47 83t96 30q59 0 94.5 -30t46.5 -83l101 -500h-109zM353 257l-44 219q-5 21 -14 34t-25 13q-17 0 -26 -13t-14 -34l-44 -219h167zM344 646q-24 0 -41.5 17t-17.5 41t17.5 42t40.5 18q24 0 41.5 -18t17.5 -41 q0 -25 -17.5 -42t-40.5 -17zM195 646q-24 0 -41.5 17t-17.5 41t17.5 42t41.5 18q25 0 41.5 -18t16.5 -41q0 -25 -16.5 -42t-41.5 -17z" />
<glyph unicode="&#xc5;" horiz-adv-x="531" d="M403 0l-33 167h-202l-32 -167h-109l100 500q11 53 47 83t96 30q59 0 94.5 -30t46.5 -83l101 -500h-109zM353 257l-44 219q-5 21 -14 34t-25 13q-17 0 -26 -13t-14 -34l-44 -219h167zM179 731q0 19 7.5 36t20 29.5t29 19.5t35.5 7t35.5 -7t29 -19.5t19.5 -29.5t7 -36 q0 -38 -26.5 -64.5t-64.5 -26.5t-65 26.5t-27 64.5zM230 731q0 -17 12 -28.5t29 -11.5t28.5 11.5t11.5 28.5t-11.5 29t-28.5 12t-29 -12t-12 -29z" />
<glyph unicode="&#xc6;" horiz-adv-x="739" d="M690 518h-257v-152h206v-90h-206v-186h257v-90h-284q-42 0 -63 23t-21 59v85h-150q-6 -32 -11.5 -62t-10.5 -53q-5 -27 -10 -52h-109q27 137 49 245q9 46 18 90.5t16.5 80.5t12 58.5t4.5 25.5q23 109 142 109h417v-91zM322 257v261h-49q-16 0 -26 -11t-14 -31l-43 -219 h132z" />
<glyph unicode="&#xc7;" horiz-adv-x="526" d="M264 -4q-112 11 -168.5 86t-56.5 226q0 161 67.5 233t200.5 72q57 0 108 -21.5t84 -47.5l-40 -86q-14 13 -33 25t-39 21t-41 14.5t-39 5.5q-78 0 -117.5 -50t-39.5 -166q0 -118 39.5 -170.5t117.5 -52.5q38 0 81 19t71 45l40 -85q-33 -26 -83.5 -47.5t-106.5 -22.5 l-10 -23q-2 -3 2 -3h8q36 0 57.5 -15t21.5 -52q0 -30 -21.5 -46.5t-66.5 -16.5q-22 0 -47 9.5t-43 21.5l20 44q22 -17 37.5 -23.5t32.5 -6.5q34 0 34 22q0 19 -25 19h-14q-20 0 -32 10.5t-12 25.5q0 9 4 17z" />
<glyph unicode="&#xc8;" horiz-adv-x="493" d="M458 0h-316q-41 0 -62 23t-21 59v444q0 36 21 59.5t62 23.5h316v-91h-288v-152h237v-90h-237v-186h288v-90zM156 783h87l83 -131h-77z" />
<glyph unicode="&#xc9;" horiz-adv-x="493" d="M458 0h-316q-41 0 -62 23t-21 59v444q0 36 21 59.5t62 23.5h316v-91h-288v-152h237v-90h-237v-186h288v-90zM277 782h89l-95 -131h-78z" />
<glyph unicode="&#xca;" horiz-adv-x="493" d="M458 0h-316q-41 0 -62 23t-21 59v444q0 36 21 59.5t62 23.5h316v-91h-288v-152h237v-90h-237v-186h288v-90zM314 641l-47 70l-47 -70h-71l90 131h57l89 -131h-71z" />
<glyph unicode="&#xcb;" horiz-adv-x="493" d="M458 0h-316q-41 0 -62 23t-21 59v444q0 36 21 59.5t62 23.5h316v-91h-288v-152h237v-90h-237v-186h288v-90zM336 646q-24 0 -41.5 17t-17.5 41t17.5 42t40.5 18q24 0 41.5 -18t17.5 -41q0 -25 -17.5 -42t-40.5 -17zM187 646q-24 0 -41.5 17t-17.5 41t17.5 42t41.5 18 q25 0 41.5 -18t16.5 -41q0 -25 -16.5 -42t-41.5 -17z" />
<glyph unicode="&#xcc;" horiz-adv-x="242" d="M189 0h-110v609h110v-609zM18 783h87l83 -131h-77z" />
<glyph unicode="&#xcd;" horiz-adv-x="242" d="M189 0h-110v609h110v-609zM150 782h89l-95 -131h-78z" />
<glyph unicode="&#xce;" horiz-adv-x="242" d="M189 0h-110v609h110v-609zM182 641l-47 70l-47 -70h-71l90 131h57l89 -131h-71z" />
<glyph unicode="&#xcf;" horiz-adv-x="242" d="M189 0h-110v609h110v-609zM212 646q-24 0 -41.5 17t-17.5 41t17.5 42t40.5 18q24 0 41.5 -18t17.5 -41q0 -25 -17.5 -42t-40.5 -17zM63 646q-24 0 -41.5 17t-17.5 41t17.5 42t41.5 18q25 0 41.5 -18t16.5 -41q0 -25 -16.5 -42t-41.5 -17z" />
<glyph unicode="&#xd0;" horiz-adv-x="583" d="M162 0q-42 0 -62.5 23t-20.5 59v180h-63v89h63v175q0 36 20.5 59.5t62.5 23.5h114q131 0 199.5 -73.5t68.5 -227.5q0 -155 -68.5 -231.5t-199.5 -76.5h-114zM323 262h-134v-172h87q158 0 158 218q0 110 -40 160t-118 50h-87v-167h134v-89z" />
<glyph unicode="&#xd1;" horiz-adv-x="593" d="M169 460v-460h-110v532q0 38 24 60t65 22q40 0 61 -16.5t35 -45.5l186 -402v459h111v-532q0 -38 -24 -60.5t-66 -22.5q-40 0 -61 17t-35 46zM157 703q13 10 28 19q13 7 30 13t37 6q18 0 31 -5.5t24 -12t22 -12t26 -5.5q11 0 23 4.5t23 10.5t23 15l24 -53q-13 -11 -29 -19 q-14 -7 -31 -12.5t-35 -5.5t-30.5 5.5t-24 11.5t-22.5 11.5t-26 5.5q-11 0 -23 -5t-22 -10q-11 -7 -23 -15z" />
<glyph unicode="&#xd2;" horiz-adv-x="581" d="M289 -6q-128 0 -189 81.5t-61 232.5q0 150 60.5 227.5t189.5 77.5t189 -77.5t60 -227.5q0 -151 -60.5 -232.5t-188.5 -81.5zM289 524q-75 0 -107.5 -54t-32.5 -162t32.5 -165.5t107.5 -57.5t107.5 57.5t32.5 165.5t-32.5 162t-107.5 54zM182 783h87l83 -131h-77z" />
<glyph unicode="&#xd3;" horiz-adv-x="581" d="M289 -6q-128 0 -189 81.5t-61 232.5q0 150 60.5 227.5t189.5 77.5t189 -77.5t60 -227.5q0 -151 -60.5 -232.5t-188.5 -81.5zM289 524q-75 0 -107.5 -54t-32.5 -162t32.5 -165.5t107.5 -57.5t107.5 57.5t32.5 165.5t-32.5 162t-107.5 54zM311 782h89l-95 -131h-78z" />
<glyph unicode="&#xd4;" horiz-adv-x="581" d="M289 -6q-128 0 -189 81.5t-61 232.5q0 150 60.5 227.5t189.5 77.5t189 -77.5t60 -227.5q0 -151 -60.5 -232.5t-188.5 -81.5zM289 524q-75 0 -107.5 -54t-32.5 -162t32.5 -165.5t107.5 -57.5t107.5 57.5t32.5 165.5t-32.5 162t-107.5 54zM335 641l-47 70l-47 -70h-71 l90 131h57l89 -131h-71z" />
<glyph unicode="&#xd5;" horiz-adv-x="581" d="M289 -6q-128 0 -189 81.5t-61 232.5q0 150 60.5 227.5t189.5 77.5t189 -77.5t60 -227.5q0 -151 -60.5 -232.5t-188.5 -81.5zM289 524q-75 0 -107.5 -54t-32.5 -162t32.5 -165.5t107.5 -57.5t107.5 57.5t32.5 165.5t-32.5 162t-107.5 54zM144 703q13 10 28 19q13 7 30 13 t37 6q18 0 31 -5.5t24 -12t22 -12t26 -5.5q11 0 23 4.5t23 10.5t23 15l24 -53q-13 -11 -29 -19q-14 -7 -31 -12.5t-35 -5.5t-30.5 5.5t-24 11.5t-22.5 11.5t-26 5.5q-11 0 -23 -5t-22 -10q-11 -7 -23 -15z" />
<glyph unicode="&#xd6;" horiz-adv-x="581" d="M289 -6q-128 0 -189 81.5t-61 232.5q0 150 60.5 227.5t189.5 77.5t189 -77.5t60 -227.5q0 -151 -60.5 -232.5t-188.5 -81.5zM289 524q-75 0 -107.5 -54t-32.5 -162t32.5 -165.5t107.5 -57.5t107.5 57.5t32.5 165.5t-32.5 162t-107.5 54zM364 646q-24 0 -41.5 17t-17.5 41 t17.5 42t40.5 18q24 0 41.5 -18t17.5 -41q0 -25 -17.5 -42t-40.5 -17zM215 646q-24 0 -41.5 17t-17.5 41t17.5 42t41.5 18q25 0 41.5 -18t16.5 -41q0 -25 -16.5 -42t-41.5 -17z" />
<glyph unicode="&#xd7;" horiz-adv-x="400" d="M340 336l-98 -98l98 -98l-42 -42l-98 98l-98 -98l-42 42l98 98l-98 98l42 42l98 -98l98 98z" />
<glyph unicode="&#xd8;" horiz-adv-x="582" d="M459 554q80 -79 80 -246q0 -152 -61 -233t-189 -81q-26 0 -45 2.5t-38 8.5l-20 -45l-91 42l24 54q-80 82 -80 252q0 150 60.5 227.5t189.5 77.5q22 0 42.5 -2t38.5 -7l19 45l94 -43zM149 308q0 -87 20 -141l163 351q-20 6 -43 6q-76 0 -108 -54t-32 -162zM289 85 q75 0 107.5 57.5t32.5 165.5q0 88 -19 136q-42 -91 -81.5 -175.5t-82.5 -178.5q10 -2 20.5 -3.5t22.5 -1.5z" />
<glyph unicode="&#xd9;" horiz-adv-x="558" d="M282 -6q-102 0 -162.5 55t-60.5 156v404h111v-398q0 -65 29.5 -95.5t82.5 -30.5t84.5 30.5t31.5 95.5v398h110v-404q0 -101 -58.5 -156t-167.5 -55zM164 783h87l83 -131h-77z" />
<glyph unicode="&#xda;" horiz-adv-x="558" d="M282 -6q-102 0 -162.5 55t-60.5 156v404h111v-398q0 -65 29.5 -95.5t82.5 -30.5t84.5 30.5t31.5 95.5v398h110v-404q0 -101 -58.5 -156t-167.5 -55zM314 782h89l-95 -131h-78z" />
<glyph unicode="&#xdb;" horiz-adv-x="558" d="M282 -6q-102 0 -162.5 55t-60.5 156v404h111v-398q0 -65 29.5 -95.5t82.5 -30.5t84.5 30.5t31.5 95.5v398h110v-404q0 -101 -58.5 -156t-167.5 -55zM330 641l-47 70l-47 -70h-71l90 131h57l89 -131h-71z" />
<glyph unicode="&#xdc;" horiz-adv-x="558" d="M282 -6q-102 0 -162.5 55t-60.5 156v404h111v-398q0 -65 29.5 -95.5t82.5 -30.5t84.5 30.5t31.5 95.5v398h110v-404q0 -101 -58.5 -156t-167.5 -55zM358 646q-24 0 -41.5 17t-17.5 41t17.5 42t40.5 18q24 0 41.5 -18t17.5 -41q0 -25 -17.5 -42t-40.5 -17zM209 646 q-24 0 -41.5 17t-17.5 41t17.5 42t41.5 18q25 0 41.5 -18t16.5 -41q0 -25 -16.5 -42t-41.5 -17z" />
<glyph unicode="&#xdd;" horiz-adv-x="550" d="M500 166q0 -83 -56.5 -127.5t-170.5 -44.5q-45 0 -82 8t-65 19q-33 12 -59 28l38 87q25 -15 53 -26q24 -10 54 -17.5t61 -7.5q61 0 88.5 21.5t27.5 63.5v31q-24 -19 -53.5 -27.5t-71.5 -8.5q-99 0 -156 53t-57 157v234h111v-227q0 -66 29.5 -96.5t82.5 -30.5q26 0 47 4.5 t36 15.5t23.5 30.5t8.5 49.5v254h111v-443zM305 782h89l-95 -131h-78z" />
<glyph unicode="&#xde;" horiz-adv-x="494" d="M170 669v-172h87q109 0 155.5 -40.5t46.5 -126.5q0 -87 -46.5 -127.5t-155.5 -40.5h-87v-162h-111v669h111zM348 330q0 41 -19 59t-72 18h-87v-155h87q53 0 72 18t19 60z" />
<glyph unicode="&#xdf;" horiz-adv-x="558" d="M275 577q-53 0 -81 -26.5t-28 -82.5v-468h-108v468q0 98 55.5 146.5t161.5 48.5q42 0 77 -10.5t60 -30t39 -47t14 -61.5q0 -38 -15 -67.5t-41 -50.5q-42 0 -64.5 -15.5t-22.5 -44.5q0 -44 51 -50q76 -8 121 -40t45 -99q0 -71 -44 -111.5t-134 -40.5q-24 0 -45.5 3.5 t-42.5 11.5t-43 21t-48 32l44 83q37 -34 70.5 -49t62.5 -15q73 0 73 65q0 20 -15 34t-52 19q-69 8 -109.5 42.5t-40.5 93.5q0 56 36.5 94t100.5 48q2 6 4 15t2 21q0 29 -24 46t-59 17z" />
<glyph unicode="&#xe0;" d="M214 -5q-53 0 -89 11t-59 31.5t-33 48t-10 60.5q0 34 10 61.5t33 47t59 30t89 10.5q14 0 31.5 -1.5t33.5 -3.5l36 -4v22q0 91 -102 91q-29 0 -58 -9t-67 -37l-36 79q32 23 74 39t88 16q101 0 154.5 -44.5t53.5 -129.5v-132q0 -63 -20 -100t-51 -56t-67.5 -24.5 t-69.5 -5.5zM214 82q54 0 77.5 22.5t23.5 70.5v29q-17 3 -43 5t-58 2q-46 0 -64.5 -16t-18.5 -48q0 -65 83 -65zM135 693h87l83 -131h-77z" />
<glyph unicode="&#xe1;" d="M214 -5q-53 0 -89 11t-59 31.5t-33 48t-10 60.5q0 34 10 61.5t33 47t59 30t89 10.5q14 0 31.5 -1.5t33.5 -3.5l36 -4v22q0 91 -102 91q-29 0 -58 -9t-67 -37l-36 79q32 23 74 39t88 16q101 0 154.5 -44.5t53.5 -129.5v-132q0 -63 -20 -100t-51 -56t-67.5 -24.5 t-69.5 -5.5zM214 82q54 0 77.5 22.5t23.5 70.5v29q-17 3 -43 5t-58 2q-46 0 -64.5 -16t-18.5 -48q0 -65 83 -65zM263 692h89l-95 -131h-78z" />
<glyph unicode="&#xe2;" d="M214 -5q-53 0 -89 11t-59 31.5t-33 48t-10 60.5q0 34 10 61.5t33 47t59 30t89 10.5q14 0 31.5 -1.5t33.5 -3.5l36 -4v22q0 91 -102 91q-29 0 -58 -9t-67 -37l-36 79q32 23 74 39t88 16q101 0 154.5 -44.5t53.5 -129.5v-132q0 -63 -20 -100t-51 -56t-67.5 -24.5 t-69.5 -5.5zM214 82q54 0 77.5 22.5t23.5 70.5v29q-17 3 -43 5t-58 2q-46 0 -64.5 -16t-18.5 -48q0 -65 83 -65zM272 551l-47 70l-47 -70h-71l90 131h57l89 -131h-71z" />
<glyph unicode="&#xe3;" d="M214 -5q-53 0 -89 11t-59 31.5t-33 48t-10 60.5q0 34 10 61.5t33 47t59 30t89 10.5q14 0 31.5 -1.5t33.5 -3.5l36 -4v22q0 91 -102 91q-29 0 -58 -9t-67 -37l-36 79q32 23 74 39t88 16q101 0 154.5 -44.5t53.5 -129.5v-132q0 -63 -20 -100t-51 -56t-67.5 -24.5 t-69.5 -5.5zM214 82q54 0 77.5 22.5t23.5 70.5v29q-17 3 -43 5t-58 2q-46 0 -64.5 -16t-18.5 -48q0 -65 83 -65zM91 613q13 10 28 19q13 7 30 13t37 6q18 0 31 -5.5t24 -12t22 -12t26 -5.5q11 0 23 4.5t23 10.5t23 15l24 -53q-13 -11 -29 -19q-14 -7 -31 -12.5t-35 -5.5 t-30.5 5.5t-24 11.5t-22.5 11.5t-26 5.5q-11 0 -23 -5t-22 -10q-11 -7 -23 -15z" />
<glyph unicode="&#xe4;" d="M214 -5q-53 0 -89 11t-59 31.5t-33 48t-10 60.5q0 34 10 61.5t33 47t59 30t89 10.5q14 0 31.5 -1.5t33.5 -3.5l36 -4v22q0 91 -102 91q-29 0 -58 -9t-67 -37l-36 79q32 23 74 39t88 16q101 0 154.5 -44.5t53.5 -129.5v-132q0 -63 -20 -100t-51 -56t-67.5 -24.5 t-69.5 -5.5zM214 82q54 0 77.5 22.5t23.5 70.5v29q-17 3 -43 5t-58 2q-46 0 -64.5 -16t-18.5 -48q0 -65 83 -65zM306 556q-24 0 -41.5 17t-17.5 41t17.5 42t40.5 18q24 0 41.5 -18t17.5 -41q0 -25 -17.5 -42t-40.5 -17zM157 556q-24 0 -41.5 17t-17.5 41t17.5 42t41.5 18 q25 0 41.5 -18t16.5 -41q0 -25 -16.5 -42t-41.5 -17z" />
<glyph unicode="&#xe5;" d="M144 623q0 19 7.5 36t20 29.5t29 19.5t35.5 7t35.5 -7t29 -19.5t19.5 -29.5t7 -36q0 -38 -26.5 -64.5t-64.5 -26.5t-65 26.5t-27 64.5zM195 623q0 -17 12 -28.5t29 -11.5t28.5 11.5t11.5 28.5t-11.5 29t-28.5 12t-29 -12t-12 -29zM214 -5q-53 0 -89 11t-59 31.5t-33 48 t-10 60.5q0 34 10 61.5t33 47t59 30t89 10.5q14 0 31.5 -1.5t33.5 -3.5l36 -4v22q0 91 -102 91q-29 0 -58 -9t-67 -37l-36 79q32 23 74 39t88 16q101 0 154.5 -44.5t53.5 -129.5v-132q0 -63 -20 -100t-51 -56t-67.5 -24.5t-69.5 -5.5zM214 82q54 0 77.5 22.5t23.5 70.5v29 q-17 3 -43 5t-58 2q-46 0 -64.5 -16t-18.5 -48q0 -65 83 -65z" />
<glyph unicode="&#xe6;" horiz-adv-x="794" d="M533 83q15 0 29.5 3t30 10.5t33 20t37.5 31.5l41 -86q-39 -33 -79 -50t-94 -17q-48 0 -86.5 14t-65.5 40q-16 -17 -36.5 -27.5t-42 -16.5t-44 -8t-43.5 -2q-53 0 -89 11t-58.5 31.5t-32.5 48t-10 60.5q0 34 10 61.5t32.5 47t58.5 30t89 10.5q26 0 45 -0.5t32 -1.5 q15 -1 25 -1v16q0 91 -102 91q-29 0 -56.5 -10.5t-64.5 -38.5l-42 82q32 23 74.5 39t88.5 16q113 0 166 -57q26 26 63.5 41.5t81.5 15.5q52 0 88.5 -14t59.5 -36t33 -49t10 -53q0 -29 -7 -55.5t-26.5 -46.5t-55 -31.5t-91.5 -11.5q-26 0 -57 2.5t-55 5.5q8 -50 35.5 -82.5 t74.5 -32.5zM524 400q-23 0 -40.5 -10t-29.5 -26t-19.5 -37.5t-10.5 -43.5q20 -2 50 -4.5t59 -2.5q48 0 62 16.5t14 42.5q0 12 -4 23.5t-14 20.5t-26 15t-41 6zM315 208q-17 1 -41.5 2t-60.5 1q-45 0 -63.5 -16t-18.5 -48q0 -65 82 -65q54 0 78 22.5t24 70.5v33z" />
<glyph unicode="&#xe7;" horiz-adv-x="447" d="M214 -2q-90 13 -132.5 75t-42.5 168q0 119 54 182.5t167 63.5q45 0 82 -15.5t69 -39.5l-42 -84q-26 24 -55 38t-54 14q-60 0 -87 -41t-27 -118t27 -118t87 -41q25 0 54 14t55 38l42 -84q-32 -24 -69 -39.5t-83 -15.5l-11 -24q-2 -3 2 -3h8q36 0 57.5 -15t21.5 -52 q0 -30 -21.5 -46.5t-66.5 -16.5q-22 0 -47 9.5t-43 21.5l20 44q22 -17 37.5 -23.5t32.5 -6.5q34 0 34 22q0 19 -25 19h-14q-20 0 -32 10.5t-12 25.5q0 9 4 17z" />
<glyph unicode="&#xe8;" horiz-adv-x="487" d="M427 63q-39 -34 -79 -51t-94 -17q-105 0 -160 62.5t-55 183.5q0 58 14.5 103.5t42 77t66 48.5t86.5 17q52 0 88.5 -14t59 -36t33 -49t10.5 -53q0 -29 -7 -55.5t-26.5 -46.5t-55 -31.5t-91.5 -11.5q-19 0 -38 1t-36 3q-19 2 -38 5q5 -57 33 -86.5t76 -29.5q29 0 60.5 12.5 t69.5 47.5zM248 400q-24 0 -42 -9t-30 -25t-19 -36.5t-10 -44.5q17 -3 44.5 -6t65.5 -3q48 0 62 16.5t14 42.5q0 12 -4 23.5t-14 20.5t-26 15t-41 6zM146 693h87l83 -131h-77z" />
<glyph unicode="&#xe9;" horiz-adv-x="487" d="M427 63q-39 -34 -79 -51t-94 -17q-105 0 -160 62.5t-55 183.5q0 58 14.5 103.5t42 77t66 48.5t86.5 17q52 0 88.5 -14t59 -36t33 -49t10.5 -53q0 -29 -7 -55.5t-26.5 -46.5t-55 -31.5t-91.5 -11.5q-19 0 -38 1t-36 3q-19 2 -38 5q5 -57 33 -86.5t76 -29.5q29 0 60.5 12.5 t69.5 47.5zM248 400q-24 0 -42 -9t-30 -25t-19 -36.5t-10 -44.5q17 -3 44.5 -6t65.5 -3q48 0 62 16.5t14 42.5q0 12 -4 23.5t-14 20.5t-26 15t-41 6zM274 692h89l-95 -131h-78z" />
<glyph unicode="&#xea;" horiz-adv-x="487" d="M427 63q-39 -34 -79 -51t-94 -17q-105 0 -160 62.5t-55 183.5q0 58 14.5 103.5t42 77t66 48.5t86.5 17q52 0 88.5 -14t59 -36t33 -49t10.5 -53q0 -29 -7 -55.5t-26.5 -46.5t-55 -31.5t-91.5 -11.5q-19 0 -38 1t-36 3q-19 2 -38 5q5 -57 33 -86.5t76 -29.5q29 0 60.5 12.5 t69.5 47.5zM248 400q-24 0 -42 -9t-30 -25t-19 -36.5t-10 -44.5q17 -3 44.5 -6t65.5 -3q48 0 62 16.5t14 42.5q0 12 -4 23.5t-14 20.5t-26 15t-41 6zM294 551l-47 70l-47 -70h-71l90 131h57l89 -131h-71z" />
<glyph unicode="&#xeb;" horiz-adv-x="487" d="M427 63q-39 -34 -79 -51t-94 -17q-105 0 -160 62.5t-55 183.5q0 58 14.5 103.5t42 77t66 48.5t86.5 17q52 0 88.5 -14t59 -36t33 -49t10.5 -53q0 -29 -7 -55.5t-26.5 -46.5t-55 -31.5t-91.5 -11.5q-19 0 -38 1t-36 3q-19 2 -38 5q5 -57 33 -86.5t76 -29.5q29 0 60.5 12.5 t69.5 47.5zM248 400q-24 0 -42 -9t-30 -25t-19 -36.5t-10 -44.5q17 -3 44.5 -6t65.5 -3q48 0 62 16.5t14 42.5q0 12 -4 23.5t-14 20.5t-26 15t-41 6zM324 556q-24 0 -41.5 17t-17.5 41t17.5 42t40.5 18q24 0 41.5 -18t17.5 -41q0 -25 -17.5 -42t-40.5 -17zM175 556 q-24 0 -41.5 17t-17.5 41t17.5 42t41.5 18q25 0 41.5 -18t16.5 -41q0 -25 -16.5 -42t-41.5 -17z" />
<glyph unicode="&#xec;" horiz-adv-x="220" d="M158 -8q-58 12 -82.5 47.5t-24.5 95.5v347h108v-356q0 -19 8 -32t28 -23zM6 693h87l83 -131h-77z" />
<glyph unicode="&#xed;" horiz-adv-x="220" d="M158 -8q-58 12 -82.5 47.5t-24.5 95.5v347h108v-356q0 -19 8 -32t28 -23zM124 692h89l-95 -131h-78z" />
<glyph unicode="&#xee;" horiz-adv-x="220" d="M158 -8q-58 12 -82.5 47.5t-24.5 95.5v347h108v-356q0 -19 8 -32t28 -23zM154 551l-47 70l-47 -70h-71l90 131h57l89 -131h-71z" />
<glyph unicode="&#xef;" horiz-adv-x="220" d="M158 -8q-58 12 -82.5 47.5t-24.5 95.5v347h108v-356q0 -19 8 -32t28 -23zM183 556q-24 0 -41.5 17t-17.5 41t17.5 42t40.5 18q24 0 41.5 -18t17.5 -41q0 -25 -17.5 -42t-40.5 -17zM34 556q-24 0 -41.5 17t-17.5 41t17.5 42t41.5 18q25 0 41.5 -18t16.5 -41 q0 -25 -16.5 -42t-41.5 -17z" />
<glyph unicode="&#xf0;" horiz-adv-x="498" d="M371 667l44 -69l-59 -28q44 -62 63 -141.5t19 -187.5q0 -119 -47.5 -182.5t-150.5 -63.5q-100 0 -150.5 63.5t-50.5 182.5t49.5 182.5t143.5 63.5q29 0 57 -5q-5 11 -12 23t-16 23l-87 -38l-44 66l75 33q-26 24 -65 50l59 77q35 -25 61 -45t42 -36zM240 82q32 0 50 13.5 t27 36t11 51t2 58.5t-3 58.5t-13 51t-28 36t-48 13.5t-48 -13.5t-28 -36t-13 -51t-3 -58.5t3.5 -58.5t13.5 -51t28.5 -36t48.5 -13.5z" />
<glyph unicode="&#xf1;" horiz-adv-x="498" d="M245 487q43 0 79 -13.5t61.5 -38t39.5 -59t14 -76.5v-300h-107v293q0 52 -24 79.5t-63 27.5t-63 -27.5t-24 -79.5v-293h-107v300q0 84 50 135.5t144 51.5zM104 613q13 10 28 19q13 7 30 13t37 6q18 0 31 -5.5t24 -12t22 -12t26 -5.5q11 0 23 4.5t23 10.5t23 15l24 -53 q-13 -11 -29 -19q-14 -7 -31 -12.5t-35 -5.5t-30.5 5.5t-24 11.5t-22.5 11.5t-26 5.5q-11 0 -23 -5t-22 -10q-11 -7 -23 -15z" />
<glyph unicode="&#xf2;" horiz-adv-x="499" d="M245 -5q-103 0 -154.5 63.5t-51.5 182.5t51.5 182.5t154.5 63.5t154 -63.5t51 -182.5t-51 -182.5t-154 -63.5zM245 400q-51 0 -75 -41t-24 -118t24 -118t75 -41t74 41t23 118t-23 118t-74 41zM137 693h87l83 -131h-77z" />
<glyph unicode="&#xf3;" horiz-adv-x="499" d="M245 -5q-103 0 -154.5 63.5t-51.5 182.5t51.5 182.5t154.5 63.5t154 -63.5t51 -182.5t-51 -182.5t-154 -63.5zM245 400q-51 0 -75 -41t-24 -118t24 -118t75 -41t74 41t23 118t-23 118t-74 41zM262 692h89l-95 -131h-78z" />
<glyph unicode="&#xf4;" horiz-adv-x="499" d="M245 -5q-103 0 -154.5 63.5t-51.5 182.5t51.5 182.5t154.5 63.5t154 -63.5t51 -182.5t-51 -182.5t-154 -63.5zM245 400q-51 0 -75 -41t-24 -118t24 -118t75 -41t74 41t23 118t-23 118t-74 41zM291 551l-47 70l-47 -70h-71l90 131h57l89 -131h-71z" />
<glyph unicode="&#xf5;" horiz-adv-x="499" d="M245 -5q-103 0 -154.5 63.5t-51.5 182.5t51.5 182.5t154.5 63.5t154 -63.5t51 -182.5t-51 -182.5t-154 -63.5zM245 400q-51 0 -75 -41t-24 -118t24 -118t75 -41t74 41t23 118t-23 118t-74 41zM108 613q13 10 28 19q13 7 30 13t37 6q18 0 31 -5.5t24 -12t22 -12t26 -5.5 q11 0 23 4.5t23 10.5t23 15l24 -53q-13 -11 -29 -19q-14 -7 -31 -12.5t-35 -5.5t-30.5 5.5t-24 11.5t-22.5 11.5t-26 5.5q-11 0 -23 -5t-22 -10q-11 -7 -23 -15z" />
<glyph unicode="&#xf6;" horiz-adv-x="499" d="M245 -5q-103 0 -154.5 63.5t-51.5 182.5t51.5 182.5t154.5 63.5t154 -63.5t51 -182.5t-51 -182.5t-154 -63.5zM245 400q-51 0 -75 -41t-24 -118t24 -118t75 -41t74 41t23 118t-23 118t-74 41zM319 556q-24 0 -41.5 17t-17.5 41t17.5 42t40.5 18q24 0 41.5 -18t17.5 -41 q0 -25 -17.5 -42t-40.5 -17zM170 556q-24 0 -41.5 17t-17.5 41t17.5 42t41.5 18q25 0 41.5 -18t16.5 -41q0 -25 -16.5 -42t-41.5 -17z" />
<glyph unicode="&#xf7;" horiz-adv-x="384" d="M200 64q-20 0 -35.5 15.5t-15.5 35.5q0 22 15 36.5t35 14.5q21 0 36.5 -14.5t15.5 -35.5t-15.5 -36.5t-35.5 -15.5zM51 196v86h298v-86h-298zM200 312q-20 0 -35.5 15.5t-15.5 35.5q0 22 15 36.5t35 14.5q21 0 36.5 -14.5t15.5 -35.5t-15.5 -36.5t-35.5 -15.5z" />
<glyph unicode="&#xf8;" horiz-adv-x="499" d="M386 433q64 -64 64 -192q0 -119 -52 -182.5t-154 -63.5q-15 0 -30 1.5t-27 4.5l-22 -47l-89 41l26 54q-33 32 -48 79t-15 113q0 119 51.5 182.5t153.5 63.5q31 0 57 -6l22 47l89 -41zM146 241q0 -24 1.5 -43t6.5 -36l109 236q-5 1 -9.5 1.5t-9.5 0.5q-51 0 -74.5 -41 t-23.5 -118zM244 82q51 0 74.5 41t23.5 118q0 48 -7 79l-109 -236q5 -1 9 -1.5t9 -0.5z" />
<glyph unicode="&#xf9;" horiz-adv-x="501" d="M249 -5q-93 0 -143.5 51.5t-50.5 135.5v300h107v-293q0 -52 23.5 -79.5t63.5 -27.5q38 0 61.5 27.5t23.5 79.5v293h108v-300q0 -84 -50 -135.5t-143 -51.5zM128 693h87l83 -131h-77z" />
<glyph unicode="&#xfa;" horiz-adv-x="501" d="M249 -5q-93 0 -143.5 51.5t-50.5 135.5v300h107v-293q0 -52 23.5 -79.5t63.5 -27.5q38 0 61.5 27.5t23.5 79.5v293h108v-300q0 -84 -50 -135.5t-143 -51.5zM279 692h89l-95 -131h-78z" />
<glyph unicode="&#xfb;" horiz-adv-x="501" d="M249 -5q-93 0 -143.5 51.5t-50.5 135.5v300h107v-293q0 -52 23.5 -79.5t63.5 -27.5q38 0 61.5 27.5t23.5 79.5v293h108v-300q0 -84 -50 -135.5t-143 -51.5zM296 551l-47 70l-47 -70h-71l90 131h57l89 -131h-71z" />
<glyph unicode="&#xfc;" horiz-adv-x="501" d="M249 -5q-93 0 -143.5 51.5t-50.5 135.5v300h107v-293q0 -52 23.5 -79.5t63.5 -27.5q38 0 61.5 27.5t23.5 79.5v293h108v-300q0 -84 -50 -135.5t-143 -51.5zM324 556q-24 0 -41.5 17t-17.5 41t17.5 42t40.5 18q24 0 41.5 -18t17.5 -41q0 -25 -17.5 -42t-40.5 -17zM175 556 q-24 0 -41.5 17t-17.5 41t17.5 42t41.5 18q25 0 41.5 -18t16.5 -41q0 -25 -16.5 -42t-41.5 -17z" />
<glyph unicode="&#xfd;" horiz-adv-x="505" d="M447 482v-468q0 -81 -48.5 -124t-151.5 -43q-40 0 -71 8.5t-53 19.5q-26 12 -46 28l36 81q19 -14 41 -25q19 -9 43 -16.5t50 -7.5q46 0 69.5 24.5t23.5 77.5q-15 -21 -38.5 -31.5t-58.5 -10.5q-43 0 -77 13.5t-58 38t-36.5 59t-12.5 76.5v300h107v-293q0 -52 23.5 -79.5 t63.5 -27.5q46 0 66 21t20 62v317h108zM281 692h89l-95 -131h-78z" />
<glyph unicode="&#xfe;" horiz-adv-x="497" d="M256 -5q-57 0 -98 37v-179h-107v776h107v-179q20 17 41.5 27t48.5 10q100 0 150.5 -63.5t50.5 -182.5t-49.5 -182.5t-143.5 -63.5zM248 400q-32 0 -50 -13.5t-27 -36t-11 -51t-2 -58.5t3 -58.5t13 -51t28 -36t48 -13.5t48 13.5t27.5 36t13 51t3.5 58.5t-3.5 58.5 t-13.5 51t-28.5 36t-48.5 13.5z" />
<glyph unicode="&#xff;" horiz-adv-x="505" d="M447 482v-468q0 -81 -48.5 -124t-151.5 -43q-40 0 -71 8.5t-53 19.5q-26 12 -46 28l36 81q19 -14 41 -25q19 -9 43 -16.5t50 -7.5q46 0 69.5 24.5t23.5 77.5q-15 -21 -38.5 -31.5t-58.5 -10.5q-43 0 -77 13.5t-58 38t-36.5 59t-12.5 76.5v300h107v-293q0 -52 23.5 -79.5 t63.5 -27.5q46 0 66 21t20 62v317h108zM329 556q-24 0 -41.5 17t-17.5 41t17.5 42t40.5 18q24 0 41.5 -18t17.5 -41q0 -25 -17.5 -42t-40.5 -17zM180 556q-24 0 -41.5 17t-17.5 41t17.5 42t41.5 18q25 0 41.5 -18t16.5 -41q0 -25 -16.5 -42t-41.5 -17z" />
<glyph unicode="&#x100;" horiz-adv-x="531" d="M403 0l-33 167h-202l-32 -167h-109l100 500q11 53 47 83t96 30q59 0 94.5 -30t46.5 -83l101 -500h-109zM353 257l-44 219q-5 21 -14 34t-25 13q-17 0 -26 -13t-14 -34l-44 -219h167zM408 662h-276v55h276v-55z" />
<glyph unicode="&#x101;" d="M214 -5q-53 0 -89 11t-59 31.5t-33 48t-10 60.5q0 34 10 61.5t33 47t59 30t89 10.5q14 0 31.5 -1.5t33.5 -3.5l36 -4v22q0 91 -102 91q-29 0 -58 -9t-67 -37l-36 79q32 23 74 39t88 16q101 0 154.5 -44.5t53.5 -129.5v-132q0 -63 -20 -100t-51 -56t-67.5 -24.5 t-69.5 -5.5zM214 82q54 0 77.5 22.5t23.5 70.5v29q-17 3 -43 5t-58 2q-46 0 -64.5 -16t-18.5 -48q0 -65 83 -65zM370 569h-276v55h276v-55z" />
<glyph unicode="&#x102;" horiz-adv-x="531" d="M403 0l-33 167h-202l-32 -167h-109l100 500q11 53 47 83t96 30q59 0 94.5 -30t46.5 -83l101 -500h-109zM353 257l-44 219q-5 21 -14 34t-25 13q-17 0 -26 -13t-14 -34l-44 -219h167zM221 753q0 -22 11.5 -36t37.5 -14t37.5 14t11.5 36h66q0 -45 -27.5 -76.5t-87.5 -31.5 t-87.5 31.5t-27.5 76.5h66z" />
<glyph unicode="&#x103;" d="M214 -5q-53 0 -89 11t-59 31.5t-33 48t-10 60.5q0 34 10 61.5t33 47t59 30t89 10.5q14 0 31.5 -1.5t33.5 -3.5l36 -4v22q0 91 -102 91q-29 0 -58 -9t-67 -37l-36 79q32 23 74 39t88 16q101 0 154.5 -44.5t53.5 -129.5v-132q0 -63 -20 -100t-51 -56t-67.5 -24.5 t-69.5 -5.5zM214 82q54 0 77.5 22.5t23.5 70.5v29q-17 3 -43 5t-58 2q-46 0 -64.5 -16t-18.5 -48q0 -65 83 -65zM192 663q0 -22 11.5 -36t37.5 -14t37.5 14t11.5 36h66q0 -45 -27.5 -76.5t-87.5 -31.5t-87.5 31.5t-27.5 76.5h66z" />
<glyph unicode="&#x104;" horiz-adv-x="531" d="M370 167h-202l-32 -167h-109l100 500q11 53 47 83t96 30q59 0 94.5 -30t46.5 -83l101 -500h-59q-21 -17 -34 -33.5t-13 -34.5q0 -22 21 -22q12 0 32 9l6 -29q-8 -8 -22 -13.5t-28 -5.5q-23 0 -41 15t-18 39t15 42.5t32 32.5zM353 257l-44 219q-5 21 -14 34t-25 13 q-17 0 -26 -13t-14 -34l-44 -219h167z" />
<glyph unicode="&#x105;" d="M214 -5q-53 0 -89 11t-59 31.5t-33 48t-10 60.5q0 34 10 61.5t33 47t59 30t89 10.5q14 0 31.5 -1.5t33.5 -3.5l36 -4v22q0 91 -102 91q-29 0 -58 -9t-67 -37l-36 79q32 23 74 39t88 16q101 0 154.5 -44.5t53.5 -129.5v-132q0 -64 -20 -100.5t-51 -56.5 q-35 -22 -49.5 -47.5t-14.5 -43.5q0 -23 21 -23q12 0 32 9l6 -29q-8 -8 -22 -13.5t-28 -5.5q-23 0 -41 15t-18 39t15 42.5t32 32.5q-18 -3 -35.5 -4t-34.5 -1zM214 82q54 0 77.5 22.5t23.5 70.5v29q-17 3 -43 5t-58 2q-46 0 -64.5 -16t-18.5 -48q0 -65 83 -65z" />
<glyph unicode="&#x106;" horiz-adv-x="526" d="M39 308q0 161 67.5 233t200.5 72q57 0 108 -21.5t84 -47.5l-40 -86q-14 13 -33 25t-39 21t-41 14.5t-39 5.5q-78 0 -117.5 -50t-39.5 -166q0 -118 39.5 -170.5t117.5 -52.5q38 0 81 19t71 45l40 -85q-33 -26 -84 -48t-108 -22q-133 0 -200.5 75t-67.5 239zM314 782h89 l-95 -131h-78z" />
<glyph unicode="&#x107;" horiz-adv-x="447" d="M39 241q0 119 54 182.5t167 63.5q45 0 82 -15.5t69 -39.5l-42 -84q-26 24 -55 38t-54 14q-60 0 -87 -41t-27 -118t27 -118t87 -41q25 0 54 14t55 38l42 -84q-32 -24 -69 -39.5t-82 -15.5q-113 0 -167 63.5t-54 182.5zM273 692h89l-95 -131h-78z" />
<glyph unicode="&#x108;" horiz-adv-x="526" d="M39 308q0 161 67.5 233t200.5 72q57 0 108 -21.5t84 -47.5l-40 -86q-14 13 -33 25t-39 21t-41 14.5t-39 5.5q-78 0 -117.5 -50t-39.5 -166q0 -118 39.5 -170.5t117.5 -52.5q38 0 81 19t71 45l40 -85q-33 -26 -84 -48t-108 -22q-133 0 -200.5 75t-67.5 239zM344 641 l-47 70l-47 -70h-71l90 131h57l89 -131h-71z" />
<glyph unicode="&#x109;" horiz-adv-x="447" d="M39 241q0 119 54 182.5t167 63.5q45 0 82 -15.5t69 -39.5l-42 -84q-26 24 -55 38t-54 14q-60 0 -87 -41t-27 -118t27 -118t87 -41q25 0 54 14t55 38l42 -84q-32 -24 -69 -39.5t-82 -15.5q-113 0 -167 63.5t-54 182.5zM292 551l-47 70l-47 -70h-71l90 131h57l89 -131h-71z " />
<glyph unicode="&#x10a;" horiz-adv-x="526" d="M39 308q0 161 67.5 233t200.5 72q57 0 108 -21.5t84 -47.5l-40 -86q-14 13 -33 25t-39 21t-41 14.5t-39 5.5q-78 0 -117.5 -50t-39.5 -166q0 -118 39.5 -170.5t117.5 -52.5q38 0 81 19t71 45l40 -85q-33 -26 -84 -48t-108 -22q-133 0 -200.5 75t-67.5 239zM287 641 q-24 0 -41.5 17t-17.5 41t17.5 42t41.5 18q25 0 41.5 -18t16.5 -41q0 -25 -16.5 -42t-41.5 -17z" />
<glyph unicode="&#x10b;" horiz-adv-x="447" d="M39 241q0 119 54 182.5t167 63.5q45 0 82 -15.5t69 -39.5l-42 -84q-26 24 -55 38t-54 14q-60 0 -87 -41t-27 -118t27 -118t87 -41q25 0 54 14t55 38l42 -84q-32 -24 -69 -39.5t-82 -15.5q-113 0 -167 63.5t-54 182.5zM258 551q-24 0 -41.5 17t-17.5 41t17.5 42t41.5 18 q25 0 41.5 -18t16.5 -41q0 -25 -16.5 -42t-41.5 -17z" />
<glyph unicode="&#x10c;" horiz-adv-x="526" d="M39 308q0 161 67.5 233t200.5 72q57 0 108 -21.5t84 -47.5l-40 -86q-14 13 -33 25t-39 21t-41 14.5t-39 5.5q-78 0 -117.5 -50t-39.5 -166q0 -118 39.5 -170.5t117.5 -52.5q38 0 81 19t71 45l40 -85q-33 -26 -84 -48t-108 -22q-133 0 -200.5 75t-67.5 239zM250 772 l47 -70l47 70h71l-90 -131h-57l-89 131h71z" />
<glyph unicode="&#x10d;" horiz-adv-x="447" d="M39 241q0 119 54 182.5t167 63.5q45 0 82 -15.5t69 -39.5l-42 -84q-26 24 -55 38t-54 14q-60 0 -87 -41t-27 -118t27 -118t87 -41q25 0 54 14t55 38l42 -84q-32 -24 -69 -39.5t-82 -15.5q-113 0 -167 63.5t-54 182.5zM202 682l47 -70l47 70h71l-90 -131h-57l-89 131h71z " />
<glyph unicode="&#x10e;" horiz-adv-x="563" d="M142 0q-42 0 -62.5 23t-20.5 59v444q0 36 20.5 59.5t62.5 23.5h114q131 0 199.5 -73.5t68.5 -227.5q0 -155 -68.5 -231.5t-199.5 -76.5h-114zM169 518v-428h87q158 0 158 218q0 110 -40 160t-118 50h-87zM205 772l47 -70l47 70h71l-90 -131h-57l-89 131h71z" />
<glyph unicode="&#x10f;" horiz-adv-x="498" d="M232 487q27 0 52.5 -10.5t45.5 -28.5v201h108v-408q0 -119 -47.5 -182.5t-150.5 -63.5q-100 0 -150.5 63.5t-50.5 182.5t49.5 182.5t143.5 63.5zM240 82q32 0 50 13.5t27 36t11 51t2 58.5t-3 58.5t-13 51t-28 36t-48 13.5t-48 -13.5t-28 -36t-13 -51t-3 -58.5t3.5 -58.5 t13.5 -51t28.5 -36t48.5 -13.5zM473 517q7 8 14.5 23t9.5 26q-15 8 -26 24t-11 33q0 27 18 45.5t44 18.5q27 0 45 -19t18 -52q0 -32 -23 -66t-58 -57z" />
<glyph unicode="&#x110;" horiz-adv-x="583" d="M162 0q-42 0 -62.5 23t-20.5 59v180h-63v89h63v175q0 36 20.5 59.5t62.5 23.5h114q131 0 199.5 -73.5t68.5 -227.5q0 -155 -68.5 -231.5t-199.5 -76.5h-114zM323 262h-134v-172h87q158 0 158 218q0 110 -40 160t-118 50h-87v-167h134v-89z" />
<glyph unicode="&#x111;" horiz-adv-x="498" d="M232 487q27 0 52.5 -10.5t45.5 -28.5v59h-159v85h159v57h108v-57h45v-85h-45v-266q0 -119 -47.5 -182.5t-150.5 -63.5q-100 0 -150.5 63.5t-50.5 182.5t49.5 182.5t143.5 63.5zM240 82q32 0 50 13.5t27 36t11 51t2 58.5t-3 58.5t-13 51t-28 36t-48 13.5t-48 -13.5 t-28 -36t-13 -51t-3 -58.5t3.5 -58.5t13.5 -51t28.5 -36t48.5 -13.5z" />
<glyph unicode="&#x112;" horiz-adv-x="493" d="M458 0h-316q-41 0 -62 23t-21 59v444q0 36 21 59.5t62 23.5h316v-91h-288v-152h237v-90h-237v-186h288v-90zM409 662h-276v55h276v-55z" />
<glyph unicode="&#x113;" horiz-adv-x="487" d="M427 63q-39 -34 -79 -51t-94 -17q-105 0 -160 62.5t-55 183.5q0 58 14.5 103.5t42 77t66 48.5t86.5 17q52 0 88.5 -14t59 -36t33 -49t10.5 -53q0 -29 -7 -55.5t-26.5 -46.5t-55 -31.5t-91.5 -11.5q-19 0 -38 1t-36 3q-19 2 -38 5q5 -57 33 -86.5t76 -29.5q29 0 60.5 12.5 t69.5 47.5zM248 400q-24 0 -42 -9t-30 -25t-19 -36.5t-10 -44.5q17 -3 44.5 -6t65.5 -3q48 0 62 16.5t14 42.5q0 12 -4 23.5t-14 20.5t-26 15t-41 6zM387 569h-276v55h276v-55z" />
<glyph unicode="&#x114;" horiz-adv-x="493" d="M458 0h-316q-41 0 -62 23t-21 59v444q0 36 21 59.5t62 23.5h316v-91h-288v-152h237v-90h-237v-186h288v-90zM221 753q0 -22 11.5 -36t37.5 -14t37.5 14t11.5 36h66q0 -45 -27.5 -76.5t-87.5 -31.5t-87.5 31.5t-27.5 76.5h66z" />
<glyph unicode="&#x115;" horiz-adv-x="487" d="M427 63q-39 -34 -79 -51t-94 -17q-105 0 -160 62.5t-55 183.5q0 58 14.5 103.5t42 77t66 48.5t86.5 17q52 0 88.5 -14t59 -36t33 -49t10.5 -53q0 -29 -7 -55.5t-26.5 -46.5t-55 -31.5t-91.5 -11.5q-19 0 -38 1t-36 3q-19 2 -38 5q5 -57 33 -86.5t76 -29.5q29 0 60.5 12.5 t69.5 47.5zM248 400q-24 0 -42 -9t-30 -25t-19 -36.5t-10 -44.5q17 -3 44.5 -6t65.5 -3q48 0 62 16.5t14 42.5q0 12 -4 23.5t-14 20.5t-26 15t-41 6zM200 663q0 -22 11.5 -36t37.5 -14t37.5 14t11.5 36h66q0 -45 -27.5 -76.5t-87.5 -31.5t-87.5 31.5t-27.5 76.5h66z" />
<glyph unicode="&#x116;" horiz-adv-x="493" d="M458 0h-316q-41 0 -62 23t-21 59v444q0 36 21 59.5t62 23.5h316v-91h-288v-152h237v-90h-237v-186h288v-90zM267 641q-24 0 -41.5 17t-17.5 41t17.5 42t41.5 18q25 0 41.5 -18t16.5 -41q0 -25 -16.5 -42t-41.5 -17z" />
<glyph unicode="&#x117;" horiz-adv-x="487" d="M427 63q-39 -34 -79 -51t-94 -17q-105 0 -160 62.5t-55 183.5q0 58 14.5 103.5t42 77t66 48.5t86.5 17q52 0 88.5 -14t59 -36t33 -49t10.5 -53q0 -29 -7 -55.5t-26.5 -46.5t-55 -31.5t-91.5 -11.5q-19 0 -38 1t-36 3q-19 2 -38 5q5 -57 33 -86.5t76 -29.5q29 0 60.5 12.5 t69.5 47.5zM248 400q-24 0 -42 -9t-30 -25t-19 -36.5t-10 -44.5q17 -3 44.5 -6t65.5 -3q48 0 62 16.5t14 42.5q0 12 -4 23.5t-14 20.5t-26 15t-41 6zM249 551q-24 0 -41.5 17t-17.5 41t17.5 42t41.5 18q25 0 41.5 -18t16.5 -41q0 -25 -16.5 -42t-41.5 -17z" />
<glyph unicode="&#x118;" horiz-adv-x="493" d="M142 0q-41 0 -62 23t-21 59v444q0 36 21 59.5t62 23.5h316v-91h-288v-152h237v-90h-237v-186h288v-90h-153q-11 -13 -24 -32t-13 -37q0 -21 21 -21q12 0 32 9l6 -29q-8 -8 -22 -13.5t-28 -5.5q-23 0 -41 15t-18 39t15 42.5t32 32.5h-123z" />
<glyph unicode="&#x119;" horiz-adv-x="487" d="M427 63q-11 -10 -21.5 -17.5t-20.5 -14.5q-47 -32 -65.5 -57t-18.5 -43q0 -21 21 -21q12 0 32 9l6 -29q-8 -8 -22 -13.5t-28 -5.5q-23 0 -41 15t-18 39q0 23 13.5 41t30.5 32q-20 -3 -41 -3q-105 0 -160 62.5t-55 183.5q0 58 14.5 103.5t42 77t66 48.5t86.5 17 q52 0 88.5 -14t59 -36t33 -49t10.5 -53q0 -29 -7 -55.5t-26.5 -46.5t-55 -31.5t-91.5 -11.5q-19 0 -38 1t-36 3q-19 2 -38 5q5 -57 33 -86.5t76 -29.5q29 0 60.5 12.5t69.5 47.5zM248 400q-24 0 -42 -9t-30 -25t-19 -36.5t-10 -44.5q17 -3 44.5 -6t65.5 -3q48 0 62 16.5 t14 42.5q0 12 -4 23.5t-14 20.5t-26 15t-41 6z" />
<glyph unicode="&#x11a;" horiz-adv-x="493" d="M458 0h-316q-41 0 -62 23t-21 59v444q0 36 21 59.5t62 23.5h316v-91h-288v-152h237v-90h-237v-186h288v-90zM220 772l47 -70l47 70h71l-90 -131h-57l-89 131h71z" />
<glyph unicode="&#x11b;" horiz-adv-x="487" d="M427 63q-39 -34 -79 -51t-94 -17q-105 0 -160 62.5t-55 183.5q0 58 14.5 103.5t42 77t66 48.5t86.5 17q52 0 88.5 -14t59 -36t33 -49t10.5 -53q0 -29 -7 -55.5t-26.5 -46.5t-55 -31.5t-91.5 -11.5q-19 0 -38 1t-36 3q-19 2 -38 5q5 -57 33 -86.5t76 -29.5q29 0 60.5 12.5 t69.5 47.5zM248 400q-24 0 -42 -9t-30 -25t-19 -36.5t-10 -44.5q17 -3 44.5 -6t65.5 -3q48 0 62 16.5t14 42.5q0 12 -4 23.5t-14 20.5t-26 15t-41 6zM202 682l47 -70l47 70h71l-90 -131h-57l-89 131h71z" />
<glyph unicode="&#x11c;" horiz-adv-x="540" d="M417 315q42 0 63 -23.5t21 -58.5v-118q0 -40 -12.5 -60.5t-49.5 -36.5q-26 -11 -60.5 -17.5t-71.5 -6.5q-133 0 -200.5 75t-67.5 239q0 161 67.5 233t200.5 72q57 0 108 -21t85 -48l-44 -84q-14 13 -32 24.5t-38 20.5t-40.5 14t-38.5 5q-78 0 -117.5 -50t-39.5 -166 q0 -118 39.5 -170.5t117.5 -52.5q46 0 83 14v125h-132v91h159v0zM341 641l-47 70l-47 -70h-71l90 131h57l89 -131h-71z" />
<glyph unicode="&#x11d;" horiz-adv-x="497" d="M238 -65q48 0 70 24t24 66q-30 -30 -100 -30q-94 0 -143.5 63.5t-49.5 182.5t50.5 182.5t150.5 63.5q103 0 150 -63.5t47 -182.5v-227q0 -81 -48.5 -124t-150.5 -43q-40 0 -71 8.5t-54 19.5q-26 12 -46 28l36 82q20 -14 42 -25q19 -10 43 -17.5t50 -7.5zM238 82 q30 0 48 13.5t28 36t13 51t3 58.5t-2.5 58.5t-11.5 51t-27 36t-49 13.5q-30 0 -48.5 -13.5t-28.5 -36t-13.5 -51t-3.5 -58.5t3 -58.5t13 -51t28 -36t48 -13.5zM287 551l-47 70l-47 -70h-71l90 131h57l89 -131h-71z" />
<glyph unicode="&#x11e;" horiz-adv-x="540" d="M417 315q42 0 63 -23.5t21 -58.5v-118q0 -40 -12.5 -60.5t-49.5 -36.5q-26 -11 -60.5 -17.5t-71.5 -6.5q-133 0 -200.5 75t-67.5 239q0 161 67.5 233t200.5 72q57 0 108 -21t85 -48l-44 -84q-14 13 -32 24.5t-38 20.5t-40.5 14t-38.5 5q-78 0 -117.5 -50t-39.5 -166 q0 -118 39.5 -170.5t117.5 -52.5q46 0 83 14v125h-132v91h159v0zM249 753q0 -22 11.5 -36t37.5 -14t37.5 14t11.5 36h66q0 -45 -27.5 -76.5t-87.5 -31.5t-87.5 31.5t-27.5 76.5h66z" />
<glyph unicode="&#x11f;" horiz-adv-x="497" d="M238 -65q48 0 70 24t24 66q-30 -30 -100 -30q-94 0 -143.5 63.5t-49.5 182.5t50.5 182.5t150.5 63.5q103 0 150 -63.5t47 -182.5v-227q0 -81 -48.5 -124t-150.5 -43q-40 0 -71 8.5t-54 19.5q-26 12 -46 28l36 82q20 -14 42 -25q19 -10 43 -17.5t50 -7.5zM238 82 q30 0 48 13.5t28 36t13 51t3 58.5t-2.5 58.5t-11.5 51t-27 36t-49 13.5q-30 0 -48.5 -13.5t-28.5 -36t-13.5 -51t-3.5 -58.5t3 -58.5t13 -51t28 -36t48 -13.5zM192 663q0 -22 11.5 -36t37.5 -14t37.5 14t11.5 36h66q0 -45 -27.5 -76.5t-87.5 -31.5t-87.5 31.5t-27.5 76.5h66 z" />
<glyph unicode="&#x120;" horiz-adv-x="540" d="M417 315q42 0 63 -23.5t21 -58.5v-118q0 -40 -12.5 -60.5t-49.5 -36.5q-26 -11 -60.5 -17.5t-71.5 -6.5q-133 0 -200.5 75t-67.5 239q0 161 67.5 233t200.5 72q57 0 108 -21t85 -48l-44 -84q-14 13 -32 24.5t-38 20.5t-40.5 14t-38.5 5q-78 0 -117.5 -50t-39.5 -166 q0 -118 39.5 -170.5t117.5 -52.5q46 0 83 14v125h-132v91h159v0zM285 641q-24 0 -41.5 17t-17.5 41t17.5 42t41.5 18q25 0 41.5 -18t16.5 -41q0 -25 -16.5 -42t-41.5 -17z" />
<glyph unicode="&#x121;" horiz-adv-x="497" d="M238 -65q48 0 70 24t24 66q-30 -30 -100 -30q-94 0 -143.5 63.5t-49.5 182.5t50.5 182.5t150.5 63.5q103 0 150 -63.5t47 -182.5v-227q0 -81 -48.5 -124t-150.5 -43q-40 0 -71 8.5t-54 19.5q-26 12 -46 28l36 82q20 -14 42 -25q19 -10 43 -17.5t50 -7.5zM238 82 q30 0 48 13.5t28 36t13 51t3 58.5t-2.5 58.5t-11.5 51t-27 36t-49 13.5q-30 0 -48.5 -13.5t-28.5 -36t-13.5 -51t-3.5 -58.5t3 -58.5t13 -51t28 -36t48 -13.5zM241 551q-24 0 -41.5 17t-17.5 41t17.5 42t41.5 18q25 0 41.5 -18t16.5 -41q0 -25 -16.5 -42t-41.5 -17z" />
<glyph unicode="&#x122;" horiz-adv-x="540" d="M417 315q42 0 63 -23.5t21 -58.5v-118q0 -40 -12.5 -60.5t-49.5 -36.5q-26 -11 -60.5 -17.5t-71.5 -6.5q-133 0 -200.5 75t-67.5 239q0 161 67.5 233t200.5 72q57 0 108 -21t85 -48l-44 -84q-14 13 -32 24.5t-38 20.5t-40.5 14t-38.5 5q-78 0 -117.5 -50t-39.5 -166 q0 -118 39.5 -170.5t117.5 -52.5q46 0 83 14v125h-132v91h159v0zM213.199 -141.999q5.59961 6.39941 11.5996 18.3994t7.59961 20.7998q-11.999 6.39941 -20.7988 19.1992t-8.7998 26.3994q0 21.6006 14.3994 36.4004q14.3994 14.7988 35.1992 14.7988 q21.5996 0 36 -15.1992q14.3994 -15.2002 14.3994 -41.5996q0 -25.5996 -18.3994 -52.7988q-18.4004 -27.2002 -46.3994 -45.5996z" />
<glyph unicode="&#x123;" horiz-adv-x="497" d="M252 664l14 -16q-17 -17 -23.5 -31.5t4.5 -17.5q13 -2 22 -12.5t9 -24.5q0 -17 -11 -28.5t-27 -11.5q-17 0 -28.5 13t-11.5 36q0 28 14.5 52.5t37.5 40.5zM238 -65q-26 0 -50 7.5t-43 17.5q-22 11 -42 25l-36 -82q20 -16 46 -28q23 -11 54 -19.5t71 -8.5q102 0 150.5 43 t48.5 124v227q0 119 -47 182.5t-150 63.5q-100 0 -150.5 -63.5t-50.5 -182.5t49.5 -182.5t143.5 -63.5q70 0 100 30q-2 -42 -24 -66t-70 -24zM238 82q-30 0 -48 13.5t-28 36t-13 51t-3 58.5t3.5 58.5t13.5 51t28.5 36t48.5 13.5q31 0 49 -13.5t27 -36t11.5 -51t2.5 -58.5 t-3 -58.5t-13 -51t-28 -36t-48 -13.5z" />
<glyph unicode="&#x124;" horiz-adv-x="559" d="M398 243h-228v-243h-111v609h111v-276h228v276h110v-609h-110v243zM331 641l-47 70l-47 -70h-71l90 131h57l89 -131h-71z" />
<glyph unicode="&#x125;" horiz-adv-x="505" d="M253 487q43 0 79 -13.5t61.5 -38t39.5 -59t14 -76.5v-300h-108v293q0 52 -23.5 79.5t-62.5 27.5t-62.5 -27.5t-23.5 -79.5v-293h-108v649h108v-200q17 16 38.5 27t47.5 11zM161 681l-47 70l-47 -70h-71l90 131h57l89 -131h-71z" />
<glyph unicode="&#x126;" horiz-adv-x="559" d="M555 391h-47v-391h-110v243h-228v-243h-111v391h-47v78h47v140h111v-140h228v140h110v-140h47v-78zM398 333v58h-228v-58h228z" />
<glyph unicode="&#x127;" horiz-adv-x="505" d="M447 0h-107v293q0 52 -23.5 79.5t-62.5 27.5t-62.5 -27.5t-23.5 -79.5v-293h-108v507h-45v75h45v67h108v-67h159v-75h-159v-57q17 15 40 26t55 11q41 0 75 -13.5t58 -38t37.5 -59t13.5 -76.5v-300z" />
<glyph unicode="&#x128;" horiz-adv-x="242" d="M189 0h-110v609h110v-609zM-8 703q13 10 28 19q13 7 30 13t37 6q18 0 31 -5.5t24 -12t22 -12t26 -5.5q11 0 23 4.5t23 10.5t23 15l24 -53q-13 -11 -29 -19q-14 -7 -31 -12.5t-35 -5.5t-30.5 5.5t-24 11.5t-22.5 11.5t-26 5.5q-11 0 -23 -5t-22 -10q-11 -7 -23 -15z" />
<glyph unicode="&#x129;" horiz-adv-x="220" d="M158 -8q-58 12 -82.5 47.5t-24.5 95.5v347h108v-356q0 -19 8 -32t28 -23zM-35 613q13 10 28 19q13 7 30 13t37 6q18 0 31 -5.5t24 -12t22 -12t26 -5.5q11 0 23 4.5t23 10.5t23 15l24 -53q-13 -11 -29 -19q-14 -7 -31 -12.5t-35 -5.5t-30.5 5.5t-24 11.5t-22.5 11.5 t-26 5.5q-11 0 -23 -5t-22 -10q-11 -7 -23 -15z" />
<glyph unicode="&#x12a;" horiz-adv-x="242" d="M189 0h-110v609h110v-609zM275 662h-276v55h276v-55z" />
<glyph unicode="&#x12b;" horiz-adv-x="220" d="M158 -8q-58 12 -82.5 47.5t-24.5 95.5v347h108v-356q0 -19 8 -32t28 -23zM248 569h-276v55h276v-55z" />
<glyph unicode="&#x12c;" horiz-adv-x="242" d="M189 0h-110v609h110v-609zM87 753q0 -22 11.5 -36t37.5 -14t37.5 14t11.5 36h66q0 -45 -27.5 -76.5t-87.5 -31.5t-87.5 31.5t-27.5 76.5h66z" />
<glyph unicode="&#x12d;" horiz-adv-x="220" d="M158 -8q-58 12 -82.5 47.5t-24.5 95.5v347h108v-356q0 -19 8 -32t28 -23zM60 663q0 -22 11.5 -36t37.5 -14t37.5 14t11.5 36h66q0 -45 -27.5 -76.5t-87.5 -31.5t-87.5 31.5t-27.5 76.5h66z" />
<glyph unicode="&#x12e;" horiz-adv-x="242" d="M79 0v609h110v-609h-21q-11 -13 -24 -32t-13 -37q0 -21 21 -21q12 0 32 9l6 -29q-8 -8 -22 -13.5t-28 -5.5q-23 0 -41 15t-18 39t15 42.5t32 32.5h-49z" />
<glyph unicode="&#x12f;" horiz-adv-x="237" d="M122 522q-26 0 -44.5 19t-18.5 43q0 27 18.5 45.5t43.5 18.5q26 0 44.5 -18.5t18.5 -44.5q0 -25 -18.5 -44t-43.5 -19zM174 -8q-11 -13 -20.5 -29t-9.5 -32q0 -21 21 -21q12 0 32 9l6 -29q-8 -8 -22 -13.5t-28 -5.5q-23 0 -41 15t-18 39q0 23 13.5 41t34.5 35 q-41 17 -58 50t-17 84v347h108v-356q0 -19 8 -32t28 -23z" />
<glyph unicode="&#x130;" horiz-adv-x="242" d="M189 0h-110v609h110v-609zM135 641q-24 0 -41.5 17t-17.5 41t17.5 42t41.5 18q25 0 41.5 -18t16.5 -41q0 -25 -16.5 -42t-41.5 -17z" />
<glyph unicode="&#x131;" horiz-adv-x="220" d="M158 -8q-58 12 -82.5 47.5t-24.5 95.5v347h108v-356q0 -19 8 -32t28 -23z" />
<glyph unicode="&#x132;" horiz-adv-x="456" d="M189 0h-110v609h110v-609zM184 -88q19 6 38.5 18.5t35 31t25 43t9.5 54.5v550h111v-540q0 -57 -18.5 -99t-45.5 -71.5t-58 -48t-56 -29.5z" />
<glyph unicode="&#x133;" horiz-adv-x="429" d="M174 -8q-58 12 -82.5 47.5t-24.5 95.5v347h108v-356q0 -19 8 -32t28 -23zM122 522q-26 0 -44.5 19t-18.5 43q0 27 18.5 45.5t43.5 18.5q26 0 44.5 -18.5t18.5 -44.5q0 -25 -18.5 -44t-43.5 -19zM177 -87q18 6 36 16t33 25t24.5 36t9.5 50v442h107v-433q0 -56 -18.5 -93.5 t-45 -63t-56 -40.5t-52.5 -24zM332 522q-26 0 -44.5 19t-18.5 43q0 27 18.5 45.5t43.5 18.5q26 0 44.5 -18.5t18.5 -44.5q0 -25 -18.5 -44t-43.5 -19z" />
<glyph unicode="&#x134;" horiz-adv-x="255" d="M-17 -88q19 6 38.5 18.5t35 31t25 43t9.5 54.5v550h111v-540q0 -57 -18.5 -99t-45.5 -71.5t-58 -48t-56 -29.5zM198 641l-47 70l-47 -70h-71l90 131h57l89 -131h-71z" />
<glyph unicode="&#x135;" horiz-adv-x="219" d="M-33 -87q18 6 36 16t33 25t24.5 36t9.5 50v442h107v-433q0 -56 -18.5 -93.5t-45 -63t-56 -40.5t-52.5 -24zM173 551l-47 70l-47 -70h-71l90 131h57l89 -131h-71z" />
<glyph unicode="&#x136;" horiz-adv-x="538" d="M489 609q0 -59 -8 -110t-25 -92t-44 -71t-66 -47q77 -31 110 -106.5t33 -182.5h-111q0 125 -48 184t-151 59h-10v-243h-110v609h110v-276h10q105 0 152 68t47 208h111v0zM197.199 -141.999q5.59961 6.39941 11.5996 18.3994t7.59961 20.7998 q-11.999 6.39941 -20.7988 19.1992t-8.7998 26.3994q0 21.6006 14.3994 36.4004q14.3994 14.7988 35.1992 14.7988q21.5996 0 36 -15.1992q14.3994 -15.2002 14.3994 -41.5996q0 -25.5996 -18.3994 -52.7988q-18.4004 -27.2002 -46.3994 -45.5996z" />
<glyph unicode="&#x137;" horiz-adv-x="484" d="M427 431q0 -30 -6 -58t-18 -51.5t-30 -42t-43 -28.5q53 -20 75 -67t22 -110v-74h-107v68q0 40 -8.5 67t-25 43.5t-40 23.5t-53.5 7h-27v-209h-107v649h107v-352h27q34 0 58 7t39.5 23.5t22.5 43.5t7 67v44h107v-51v0zM173.199 -141.999q5.59961 6.39941 11.5996 18.3994 t7.59961 20.7998q-11.999 6.39941 -20.7988 19.1992t-8.7998 26.3994q0 21.6006 14.3994 36.4004q14.3994 14.7988 35.1992 14.7988q21.5996 0 36 -15.1992q14.3994 -15.2002 14.3994 -41.5996q0 -25.5996 -18.3994 -52.7988q-18.4004 -27.2002 -46.3994 -45.5996z" />
<glyph unicode="&#x138;" horiz-adv-x="484" d="M427 431q0 -30 -6 -58t-18 -51.5t-30 -42t-43 -28.5q53 -20 75 -67t22 -110v-74h-107v68q0 40 -8.5 67t-25 43.5t-40 23.5t-53.5 7h-27v-209h-107v482h107v-185h27q34 0 58 7t39.5 23.5t22.5 43.5t7 67v44h107v-51v0z" />
<glyph unicode="&#x139;" horiz-adv-x="459" d="M458 0h-315q-42 0 -63 23t-21 59v527h111v-519h288v-90zM155 782h89l-95 -131h-78z" />
<glyph unicode="&#x13a;" horiz-adv-x="227" d="M166 -8q-58 12 -82.5 47.5t-24.5 95.5v514h107v-523q0 -19 8 -32t28 -23zM131 839h89l-95 -131h-78z" />
<glyph unicode="&#x13b;" horiz-adv-x="459" d="M458 0h-315q-42 0 -63 23t-21 59v527h111v-519h288v-90zM189.199 -141.999q5.59961 6.39941 11.5996 18.3994t7.59961 20.7998q-11.999 6.39941 -20.7988 19.1992t-8.7998 26.3994q0 21.6006 14.3994 36.4004q14.3994 14.7988 35.1992 14.7988q21.5996 0 36 -15.1992 q14.3994 -15.2002 14.3994 -41.5996q0 -25.5996 -18.3994 -52.7988q-18.4004 -27.2002 -46.3994 -45.5996z" />
<glyph unicode="&#x13c;" horiz-adv-x="227" d="M166 -8q-58 12 -82.5 47.5t-24.5 95.5v514h107v-523q0 -19 8 -32t28 -23zM85.1992 -141.999q5.59961 6.39941 11.5996 18.3994t7.59961 20.7998q-11.999 6.39941 -20.7988 19.1992t-8.7998 26.3994q0 21.6006 14.3994 36.4004q14.3994 14.7988 35.1992 14.7988 q21.5996 0 36 -15.1992q14.3994 -15.2002 14.3994 -41.5996q0 -25.5996 -18.3994 -52.7988q-18.4004 -27.2002 -46.3994 -45.5996z" />
<glyph unicode="&#x13d;" horiz-adv-x="459" d="M458 0h-315q-42 0 -63 23t-21 59v527h111v-519h288v-90zM178.199 453.595q5.60059 6.40039 11.5996 18.3994q6 12 7.60059 20.7998q-12 6.40039 -20.7998 19.2002t-8.7998 26.3994q0 21.5996 14.3994 36.3994q14.4004 14.7998 35.1992 14.7998q21.5996 0 36 -15.2002 q14.3994 -15.1992 14.3994 -41.5986q0 -25.5996 -18.3994 -52.7998q-18.3994 -27.1992 -46.3994 -45.5986z" />
<glyph unicode="&#x13e;" horiz-adv-x="227" d="M166 -8q-58 12 -82.5 47.5t-24.5 95.5v514h107v-523q0 -19 8 -32t28 -23zM160.199 501.595q5.60059 6.40039 11.5996 18.3994q6 12 7.60059 20.7998q-12 6.40039 -20.7998 19.2002t-8.7998 26.3994q0 21.5996 14.3994 36.3994q14.4004 14.7998 35.1992 14.7998 q21.5996 0 36 -15.2002q14.3994 -15.1992 14.3994 -41.5986q0 -25.5996 -18.3994 -52.7998q-18.3994 -27.1992 -46.3994 -45.5986z" />
<glyph unicode="&#x13f;" horiz-adv-x="459" d="M458 0h-315q-42 0 -63 23t-21 59v527h111v-519h288v-90zM297 214q-26 0 -44.5 18.5t-18.5 44.5t18.5 44.5t43.5 18.5q26 0 44.5 -18t18.5 -44t-18.5 -45t-43.5 -19z" />
<glyph unicode="&#x140;" horiz-adv-x="289" d="M166 -8q-58 12 -82.5 47.5t-24.5 95.5v514h107v-523q0 -19 8 -32t28 -23zM261 214q-26 0 -44.5 18.5t-18.5 44.5t18.5 44.5t43.5 18.5q26 0 44.5 -18t18.5 -44t-18.5 -45t-43.5 -19z" />
<glyph unicode="&#x141;" horiz-adv-x="459" d="M289 335l-120 -86v-159h289v-90h-316q-42 0 -62.5 23t-20.5 59v86l-71 -51v115l71 51v326h110v-245l120 87v-116z" />
<glyph unicode="&#x142;" horiz-adv-x="227" d="M230 325l-71 -52v-155q0 -20 7.5 -33t27.5 -22l-36 -83q-54 23 -80 58.5t-26 78.5v80l-65 -47v110l65 47v342h107v-264l71 51v-111z" />
<glyph unicode="&#x143;" horiz-adv-x="593" d="M169 460v-460h-110v532q0 38 24 60t65 22q40 0 61 -16.5t35 -45.5l186 -402v459h111v-532q0 -38 -24 -60.5t-66 -22.5q-40 0 -61 17t-35 46zM344 782h89l-95 -131h-78z" />
<glyph unicode="&#x144;" horiz-adv-x="498" d="M245 487q43 0 79 -13.5t61.5 -38t39.5 -59t14 -76.5v-300h-107v293q0 52 -24 79.5t-63 27.5t-63 -27.5t-24 -79.5v-293h-107v300q0 84 50 135.5t144 51.5zM273 692h89l-95 -131h-78z" />
<glyph unicode="&#x145;" horiz-adv-x="593" d="M169 460v-460h-110v532q0 38 24 60t65 22q40 0 61 -16.5t35 -45.5l186 -402v459h111v-532q0 -38 -24 -60.5t-66 -22.5q-40 0 -61 17t-35 46zM221.199 -141.999q5.59961 6.39941 11.5996 18.3994t7.59961 20.7998q-11.999 6.39941 -20.7988 19.1992t-8.7998 26.3994 q0 21.6006 14.3994 36.4004q14.3994 14.7988 35.1992 14.7988q21.5996 0 36 -15.1992q14.3994 -15.2002 14.3994 -41.5996q0 -25.5996 -18.3994 -52.7988q-18.4004 -27.2002 -46.3994 -45.5996z" />
<glyph unicode="&#x146;" horiz-adv-x="498" d="M245 487q43 0 79 -13.5t61.5 -38t39.5 -59t14 -76.5v-300h-107v293q0 52 -24 79.5t-63 27.5t-63 -27.5t-24 -79.5v-293h-107v300q0 84 50 135.5t144 51.5zM174.199 -141.999q5.59961 6.39941 11.5996 18.3994t7.59961 20.7998q-11.999 6.39941 -20.7988 19.1992 t-8.7998 26.3994q0 21.6006 14.3994 36.4004q14.3994 14.7988 35.1992 14.7988q21.5996 0 36 -15.1992q14.3994 -15.2002 14.3994 -41.5996q0 -25.5996 -18.3994 -52.7988q-18.4004 -27.2002 -46.3994 -45.5996z" />
<glyph unicode="&#x147;" horiz-adv-x="593" d="M169 460v-460h-110v532q0 38 24 60t65 22q40 0 61 -16.5t35 -45.5l186 -402v459h111v-532q0 -38 -24 -60.5t-66 -22.5q-40 0 -61 17t-35 46zM264 772l47 -70l47 70h71l-90 -131h-57l-89 131h71z" />
<glyph unicode="&#x148;" horiz-adv-x="498" d="M245 487q43 0 79 -13.5t61.5 -38t39.5 -59t14 -76.5v-300h-107v293q0 52 -24 79.5t-63 27.5t-63 -27.5t-24 -79.5v-293h-107v300q0 84 50 135.5t144 51.5zM199 682l47 -70l47 70h71l-90 -131h-57l-89 131h71z" />
<glyph unicode="&#x149;" horiz-adv-x="498" d="M245 487q43 0 79 -13.5t61.5 -38t39.5 -59t14 -76.5v-300h-107v293q0 52 -24 79.5t-63 27.5t-63 -27.5t-24 -79.5v-293h-107v300q0 84 50 135.5t144 51.5zM11.1992 437.595q5.60059 6.40039 11.5996 18.3994q6 12 7.60059 20.7998q-12 6.40039 -20.7998 19.2002 t-8.7998 26.3994q0 21.5996 14.3994 36.3994q14.4004 14.7998 35.1992 14.7998q21.5996 0 36 -15.2002q14.3994 -15.1992 14.3994 -41.5986q0 -25.5996 -18.3994 -52.7998q-18.3994 -27.1992 -46.3994 -45.5986z" />
<glyph unicode="&#x14a;" horiz-adv-x="593" d="M301 -73q42 8 75 23.5t46 47.5q-25 6 -40.5 21t-26.5 38l-186 403v-460h-110v532q0 38 24 60t65 22q40 0 61 -16.5t35 -45.5l186 -401v458h111v-559q0 -58 -20 -96t-51 -62t-68 -36.5t-71 -19.5z" />
<glyph unicode="&#x14b;" horiz-adv-x="498" d="M207 -70q25 4 47.5 11.5t40 20.5t27.5 32t10 46v253q0 52 -24 79.5t-63 27.5t-63 -27.5t-24 -79.5v-293h-107v300q0 84 50 135.5t144 51.5q43 0 79 -13.5t61.5 -38t39.5 -59t14 -76.5v-251q0 -56 -19.5 -93t-49.5 -60.5t-65.5 -35.5t-68.5 -19z" />
<glyph unicode="&#x14c;" horiz-adv-x="581" d="M289 -6q-128 0 -189 81.5t-61 232.5q0 150 60.5 227.5t189.5 77.5t189 -77.5t60 -227.5q0 -151 -60.5 -232.5t-188.5 -81.5zM289 524q-75 0 -107.5 -54t-32.5 -162t32.5 -165.5t107.5 -57.5t107.5 57.5t32.5 165.5t-32.5 162t-107.5 54zM427 662h-276v55h276v-55z" />
<glyph unicode="&#x14d;" horiz-adv-x="499" d="M245 -5q-103 0 -154.5 63.5t-51.5 182.5t51.5 182.5t154.5 63.5t154 -63.5t51 -182.5t-51 -182.5t-154 -63.5zM245 400q-51 0 -75 -41t-24 -118t24 -118t75 -41t74 41t23 118t-23 118t-74 41zM384 569h-276v55h276v-55z" />
<glyph unicode="&#x14e;" horiz-adv-x="581" d="M289 -6q-128 0 -189 81.5t-61 232.5q0 150 60.5 227.5t189.5 77.5t189 -77.5t60 -227.5q0 -151 -60.5 -232.5t-188.5 -81.5zM289 524q-75 0 -107.5 -54t-32.5 -162t32.5 -165.5t107.5 -57.5t107.5 57.5t32.5 165.5t-32.5 162t-107.5 54zM240 753q0 -22 11.5 -36t37.5 -14 t37.5 14t11.5 36h66q0 -45 -27.5 -76.5t-87.5 -31.5t-87.5 31.5t-27.5 76.5h66z" />
<glyph unicode="&#x14f;" horiz-adv-x="499" d="M245 -5q-103 0 -154.5 63.5t-51.5 182.5t51.5 182.5t154.5 63.5t154 -63.5t51 -182.5t-51 -182.5t-154 -63.5zM245 400q-51 0 -75 -41t-24 -118t24 -118t75 -41t74 41t23 118t-23 118t-74 41zM198 663q0 -22 11.5 -36t37.5 -14t37.5 14t11.5 36h66q0 -45 -27.5 -76.5 t-87.5 -31.5t-87.5 31.5t-27.5 76.5h66z" />
<glyph unicode="&#x150;" horiz-adv-x="581" d="M289 -6q-128 0 -189 81.5t-61 232.5q0 150 60.5 227.5t189.5 77.5t189 -77.5t60 -227.5q0 -151 -60.5 -232.5t-188.5 -81.5zM289 524q-75 0 -107.5 -54t-32.5 -162t32.5 -165.5t107.5 -57.5t107.5 57.5t32.5 165.5t-32.5 162t-107.5 54zM193 643l75 116h67l-84 -116h-58z M305 643l75 116h67l-84 -116h-58z" />
<glyph unicode="&#x151;" horiz-adv-x="499" d="M245 -5q-103 0 -154.5 63.5t-51.5 182.5t51.5 182.5t154.5 63.5t154 -63.5t51 -182.5t-51 -182.5t-154 -63.5zM245 400q-51 0 -75 -41t-24 -118t24 -118t75 -41t74 41t23 118t-23 118t-74 41zM153 553l75 116h67l-84 -116h-58zM265 553l75 116h67l-84 -116h-58z" />
<glyph unicode="&#x152;" horiz-adv-x="903" d="M546 518v-152h239v-90h-239v-186h289v-90h-316q-27 0 -45.5 10.5t-27.5 27.5q-58 -44 -150 -44q-128 0 -189 81.5t-61 232.5q0 150 60.5 227.5t189.5 77.5q93 0 151 -41q10 17 28 27t44 10h316v-91h-289zM296 85q75 0 107.5 57.5t32.5 165.5t-32.5 162t-107.5 54 t-107.5 -54t-32.5 -162t32.5 -165.5t107.5 -57.5z" />
<glyph unicode="&#x153;" horiz-adv-x="821" d="M559 83q29 0 59 12.5t70 50.5l41 -84q-39 -33 -79 -50t-94 -17q-106 0 -160 77q-51 -77 -151 -77q-103 0 -154.5 63.5t-51.5 182.5t51.5 182.5t154.5 63.5q101 0 153 -80q55 80 152 80q52 0 88.5 -14t59 -36t32.5 -49t10 -53q0 -29 -7 -55.5t-26.5 -46.5t-54.5 -31.5 t-91 -11.5q-19 0 -38 1t-36 3q-19 2 -38 5q6 -56 34 -86t76 -30zM550 400q-24 0 -42 -9t-30 -25t-19 -36.5t-10 -44.5q17 -3 44.5 -6t65.5 -3q48 0 62 16.5t14 42.5q0 12 -4 23.5t-14 20.5t-26 15t-41 6zM245 82q51 0 74.5 41t23.5 118t-23.5 118t-74.5 41t-75 -41t-24 -118 t24 -118t75 -41z" />
<glyph unicode="&#x154;" horiz-adv-x="541" d="M491 423q0 -24 -4.5 -46.5t-14.5 -42t-27 -34.5t-42 -24q48 -21 68 -65t20 -95v-116h-110v110q0 64 -29 95t-82 31h-102v-236h-109v526q0 36 20 59.5t62 23.5h134q57 0 98 -13.5t67.5 -37.5t38.5 -58.5t12 -76.5zM168 518v-191h107q60 0 83 26.5t23 69.5q0 42 -23 68.5 t-83 26.5h-107zM284 782h89l-95 -131h-78z" />
<glyph unicode="&#x155;" horiz-adv-x="328" d="M312 374q-20 13 -37.5 19.5t-28.5 6.5q-40 0 -63.5 -27.5t-23.5 -79.5v-293h-108v300q0 84 50.5 135.5t144.5 51.5q23 0 51 -9.5t54 -27.5zM224 692h89l-95 -131h-78z" />
<glyph unicode="&#x156;" horiz-adv-x="541" d="M491 423q0 -24 -4.5 -46.5t-14.5 -42t-27 -34.5t-42 -24q48 -21 68 -65t20 -95v-116h-110v110q0 64 -29 95t-82 31h-102v-236h-109v526q0 36 20 59.5t62 23.5h134q57 0 98 -13.5t67.5 -37.5t38.5 -58.5t12 -76.5zM168 518v-191h107q60 0 83 26.5t23 69.5q0 42 -23 68.5 t-83 26.5h-107zM197.199 -141.999q5.59961 6.39941 11.5996 18.3994t7.59961 20.7998q-11.999 6.39941 -20.7988 19.1992t-8.7998 26.3994q0 21.6006 14.3994 36.4004q14.3994 14.7988 35.1992 14.7988q21.5996 0 36 -15.1992q14.3994 -15.2002 14.3994 -41.5996 q0 -25.5996 -18.3994 -52.7988q-18.4004 -27.2002 -46.3994 -45.5996z" />
<glyph unicode="&#x157;" horiz-adv-x="328" d="M312 374q-20 13 -37.5 19.5t-28.5 6.5q-40 0 -63.5 -27.5t-23.5 -79.5v-293h-108v300q0 84 50.5 135.5t144.5 51.5q23 0 51 -9.5t54 -27.5zM61.1992 -141.999q5.59961 6.39941 11.5996 18.3994t7.59961 20.7998q-11.999 6.39941 -20.7988 19.1992t-8.7998 26.3994 q0 21.6006 14.3994 36.4004q14.3994 14.7988 35.1992 14.7988q21.5996 0 36 -15.1992q14.3994 -15.2002 14.3994 -41.5996q0 -25.5996 -18.3994 -52.7988q-18.4004 -27.2002 -46.3994 -45.5996z" />
<glyph unicode="&#x158;" horiz-adv-x="541" d="M491 423q0 -24 -4.5 -46.5t-14.5 -42t-27 -34.5t-42 -24q48 -21 68 -65t20 -95v-116h-110v110q0 64 -29 95t-82 31h-102v-236h-109v526q0 36 20 59.5t62 23.5h134q57 0 98 -13.5t67.5 -37.5t38.5 -58.5t12 -76.5zM168 518v-191h107q60 0 83 26.5t23 69.5q0 42 -23 68.5 t-83 26.5h-107zM210 772l47 -70l47 70h71l-90 -131h-57l-89 131h71z" />
<glyph unicode="&#x159;" horiz-adv-x="328" d="M312 374q-20 13 -37.5 19.5t-28.5 6.5q-40 0 -63.5 -27.5t-23.5 -79.5v-293h-108v300q0 84 50.5 135.5t144.5 51.5q23 0 51 -9.5t54 -27.5zM163 682l47 -70l47 70h71l-90 -131h-57l-89 131h71z" />
<glyph unicode="&#x15a;" horiz-adv-x="531" d="M314 350q41 -4 75 -14.5t58 -30.5t37 -51t13 -75q0 -85 -62.5 -135t-171.5 -50q-72 0 -127 18.5t-97 52.5l46 98q35 -35 81 -56t95 -21q125 0 125 93q0 35 -18 55t-60 23l-75 6q-91 8 -139 50.5t-48 120.5q0 39 15 72t43.5 57t68 37t89.5 13q55 0 109.5 -16t90.5 -38 l-41 -90q-37 26 -78 40.5t-81 14.5q-51 0 -78 -24.5t-27 -65.5q0 -36 22.5 -55.5t62.5 -22.5l72 -6v0zM284 782h89l-95 -131h-78z" />
<glyph unicode="&#x15b;" d="M284 284q33 -3 61.5 -10.5t49 -23t32.5 -40.5t12 -63q0 -71 -55.5 -111.5t-149.5 -40.5q-110 0 -195 66l41 85q39 -33 76.5 -48.5t75.5 -15.5q100 0 100 65q0 46 -55 50l-71 6q-159 13 -159 137q0 68 50.5 107.5t136.5 39.5q42 0 86.5 -13.5t83.5 -36.5l-35 -78 q-37 24 -71.5 33t-63.5 9q-80 0 -80 -61q0 -43 60 -49l70 -7v0zM264 692h89l-95 -131h-78z" />
<glyph unicode="&#x15c;" horiz-adv-x="531" d="M314 350q41 -4 75 -14.5t58 -30.5t37 -51t13 -75q0 -85 -62.5 -135t-171.5 -50q-72 0 -127 18.5t-97 52.5l46 98q35 -35 81 -56t95 -21q125 0 125 93q0 35 -18 55t-60 23l-75 6q-91 8 -139 50.5t-48 120.5q0 39 15 72t43.5 57t68 37t89.5 13q55 0 109.5 -16t90.5 -38 l-41 -90q-37 26 -78 40.5t-81 14.5q-51 0 -78 -24.5t-27 -65.5q0 -36 22.5 -55.5t62.5 -22.5l72 -6v0zM310 641l-47 70l-47 -70h-71l90 131h57l89 -131h-71z" />
<glyph unicode="&#x15d;" d="M284 284q33 -3 61.5 -10.5t49 -23t32.5 -40.5t12 -63q0 -71 -55.5 -111.5t-149.5 -40.5q-110 0 -195 66l41 85q39 -33 76.5 -48.5t75.5 -15.5q100 0 100 65q0 46 -55 50l-71 6q-159 13 -159 137q0 68 50.5 107.5t136.5 39.5q42 0 86.5 -13.5t83.5 -36.5l-35 -78 q-37 24 -71.5 33t-63.5 9q-80 0 -80 -61q0 -43 60 -49l70 -7v0zM281 551l-47 70l-47 -70h-71l90 131h57l89 -131h-71z" />
<glyph unicode="&#x15e;" horiz-adv-x="531" d="M238 -5q-63 3 -112 21t-87 49l46 98q35 -35 81 -56t95 -21q125 0 125 93q0 35 -18 55t-60 23l-75 6q-91 8 -139 50.5t-48 120.5q0 39 15 72t43.5 57t68 37t89.5 13q55 0 109.5 -16t90.5 -38l-41 -90q-37 26 -78 40.5t-81 14.5q-51 0 -78 -24.5t-27 -65.5 q0 -36 22.5 -55.5t62.5 -22.5l72 -6q41 -3 75 -13.5t58 -31t37 -51.5t13 -75q0 -81 -56.5 -130t-156.5 -54l-10 -24q-2 -3 2 -3h8q36 0 57.5 -15t21.5 -52q0 -30 -21.5 -46.5t-66.5 -16.5q-22 0 -47 9.5t-43 21.5l20 44q22 -17 37.5 -23.5t32.5 -6.5q34 0 34 22q0 19 -25 19 h-14q-20 0 -32 10.5t-12 25.5q0 9 4 17z" />
<glyph unicode="&#x15f;" d="M207 -4q-48 3 -89 19.5t-79 45.5l41 85q39 -33 76.5 -48.5t75.5 -15.5q100 0 100 65q0 44 -55 50l-71 6q-159 13 -159 137q0 68 50.5 107.5t136.5 39.5q42 0 86.5 -13.5t83.5 -36.5l-35 -78q-37 24 -71.5 33t-63.5 9q-80 0 -80 -61q0 -43 60 -49l70 -7q33 -3 61.5 -10.5 t49 -23t32.5 -40.5t12 -63q0 -67 -50 -107t-136 -44l-11 -25q-2 -3 2 -3h8q36 0 57.5 -15t21.5 -52q0 -30 -21.5 -46.5t-66.5 -16.5q-22 0 -47 9.5t-43 21.5l20 44q22 -17 37.5 -23.5t32.5 -6.5q34 0 34 22q0 19 -25 19h-14q-20 0 -32 10.5t-12 25.5q0 9 4 17z" />
<glyph unicode="&#x160;" horiz-adv-x="531" d="M314 350q41 -4 75 -14.5t58 -30.5t37 -51t13 -75q0 -85 -62.5 -135t-171.5 -50q-72 0 -127 18.5t-97 52.5l46 98q35 -35 81 -56t95 -21q125 0 125 93q0 35 -18 55t-60 23l-75 6q-91 8 -139 50.5t-48 120.5q0 39 15 72t43.5 57t68 37t89.5 13q55 0 109.5 -16t90.5 -38 l-41 -90q-37 26 -78 40.5t-81 14.5q-51 0 -78 -24.5t-27 -65.5q0 -36 22.5 -55.5t62.5 -22.5l72 -6v0zM214 772l47 -70l47 70h71l-90 -131h-57l-89 131h71z" />
<glyph unicode="&#x161;" d="M284 284q33 -3 61.5 -10.5t49 -23t32.5 -40.5t12 -63q0 -71 -55.5 -111.5t-149.5 -40.5q-110 0 -195 66l41 85q39 -33 76.5 -48.5t75.5 -15.5q100 0 100 65q0 46 -55 50l-71 6q-159 13 -159 137q0 68 50.5 107.5t136.5 39.5q42 0 86.5 -13.5t83.5 -36.5l-35 -78 q-37 24 -71.5 33t-63.5 9q-80 0 -80 -61q0 -43 60 -49l70 -7v0zM183 682l47 -70l47 70h71l-90 -131h-57l-89 131h71z" />
<glyph unicode="&#x162;" horiz-adv-x="490" d="M478 518h-178v-518h-110v518h-179v91h467v-91zM176.199 -141.999q5.59961 6.39941 11.5996 18.3994t7.59961 20.7998q-11.999 6.39941 -20.7988 19.1992t-8.7998 26.3994q0 21.6006 14.3994 36.4004q14.3994 14.7988 35.1992 14.7988q21.5996 0 36 -15.1992 q14.3994 -15.2002 14.3994 -41.5996q0 -25.5996 -18.3994 -52.7988q-18.4004 -27.2002 -46.3994 -45.5996z" />
<glyph unicode="&#x163;" horiz-adv-x="334" d="M204 -5q-69 0 -109 39t-40 99v457h108v-108h133v-87h-133v-263q0 -23 12 -36t29 -13t32.5 4t28.5 9q15 6 29 14l32 -79q-17 -10 -36 -18q-17 -7 -39 -12.5t-47 -5.5zM132.199 -141.999q5.59961 6.39941 11.5996 18.3994t7.59961 20.7998 q-11.999 6.39941 -20.7988 19.1992t-8.7998 26.3994q0 21.6006 14.3994 36.4004q14.3994 14.7988 35.1992 14.7988q21.5996 0 36 -15.1992q14.3994 -15.2002 14.3994 -41.5996q0 -25.5996 -18.3994 -52.7988q-18.4004 -27.2002 -46.3994 -45.5996z" />
<glyph unicode="&#x164;" horiz-adv-x="490" d="M478 518h-178v-518h-110v518h-179v91h467v-91zM197 772l47 -70l47 70h71l-90 -131h-57l-89 131h71z" />
<glyph unicode="&#x165;" horiz-adv-x="334" d="M204 -5q-69 0 -109 39t-40 99v457h108v-108h133v-87h-133v-263q0 -23 12 -36t29 -13t32.5 4t28.5 9q15 6 29 14l32 -79q-17 -10 -36 -18q-17 -7 -39 -12.5t-47 -5.5zM168.199 493.595q5.60059 6.40039 11.5996 18.3994q6 12 7.60059 20.7998 q-12 6.40039 -20.7998 19.2002t-8.7998 26.3994q0 21.5996 14.3994 36.3994q14.4004 14.7998 35.1992 14.7998q21.5996 0 36 -15.2002q14.3994 -15.1992 14.3994 -41.5986q0 -25.5996 -18.3994 -52.7998q-18.3994 -27.1992 -46.3994 -45.5986z" />
<glyph unicode="&#x166;" horiz-adv-x="490" d="M412 325h-112v-325h-110v325h-112v88h112v105h-179v91h467v-91h-178v-105h112v-88z" />
<glyph unicode="&#x167;" horiz-adv-x="334" d="M204 -5q-69 0 -109 39t-40 99v119h-53v86h53v252h108v-108h133v-87h-133v-57h133v-86h-133v-120q0 -23 12 -36t29 -13t32.5 4t28.5 9q15 6 29 14l32 -79q-17 -10 -36 -18q-17 -7 -39 -12.5t-47 -5.5z" />
<glyph unicode="&#x168;" horiz-adv-x="558" d="M282 -6q-102 0 -162.5 55t-60.5 156v404h111v-398q0 -65 29.5 -95.5t82.5 -30.5t84.5 30.5t31.5 95.5v398h110v-404q0 -101 -58.5 -156t-167.5 -55zM141 703q13 10 28 19q13 7 30 13t37 6q18 0 31 -5.5t24 -12t22 -12t26 -5.5q11 0 23 4.5t23 10.5t23 15l24 -53 q-13 -11 -29 -19q-14 -7 -31 -12.5t-35 -5.5t-30.5 5.5t-24 11.5t-22.5 11.5t-26 5.5q-11 0 -23 -5t-22 -10q-11 -7 -23 -15z" />
<glyph unicode="&#x169;" horiz-adv-x="501" d="M249 -5q-93 0 -143.5 51.5t-50.5 135.5v300h107v-293q0 -52 23.5 -79.5t63.5 -27.5q38 0 61.5 27.5t23.5 79.5v293h108v-300q0 -84 -50 -135.5t-143 -51.5zM104 613q13 10 28 19q13 7 30 13t37 6q18 0 31 -5.5t24 -12t22 -12t26 -5.5q11 0 23 4.5t23 10.5t23 15l24 -53 q-13 -11 -29 -19q-14 -7 -31 -12.5t-35 -5.5t-30.5 5.5t-24 11.5t-22.5 11.5t-26 5.5q-11 0 -23 -5t-22 -10q-11 -7 -23 -15z" />
<glyph unicode="&#x16a;" horiz-adv-x="558" d="M282 -6q-102 0 -162.5 55t-60.5 156v404h111v-398q0 -65 29.5 -95.5t82.5 -30.5t84.5 30.5t31.5 95.5v398h110v-404q0 -101 -58.5 -156t-167.5 -55zM421 662h-276v55h276v-55z" />
<glyph unicode="&#x16b;" horiz-adv-x="501" d="M249 -5q-93 0 -143.5 51.5t-50.5 135.5v300h107v-293q0 -52 23.5 -79.5t63.5 -27.5q38 0 61.5 27.5t23.5 79.5v293h108v-300q0 -84 -50 -135.5t-143 -51.5zM387 569h-276v55h276v-55z" />
<glyph unicode="&#x16c;" horiz-adv-x="558" d="M282 -6q-102 0 -162.5 55t-60.5 156v404h111v-398q0 -65 29.5 -95.5t82.5 -30.5t84.5 30.5t31.5 95.5v398h110v-404q0 -101 -58.5 -156t-167.5 -55zM233 753q0 -22 11.5 -36t37.5 -14t37.5 14t11.5 36h66q0 -45 -27.5 -76.5t-87.5 -31.5t-87.5 31.5t-27.5 76.5h66z" />
<glyph unicode="&#x16d;" horiz-adv-x="501" d="M249 -5q-93 0 -143.5 51.5t-50.5 135.5v300h107v-293q0 -52 23.5 -79.5t63.5 -27.5q38 0 61.5 27.5t23.5 79.5v293h108v-300q0 -84 -50 -135.5t-143 -51.5zM201 663q0 -22 11.5 -36t37.5 -14t37.5 14t11.5 36h66q0 -45 -27.5 -76.5t-87.5 -31.5t-87.5 31.5t-27.5 76.5h66 z" />
<glyph unicode="&#x16e;" horiz-adv-x="558" d="M282 -6q-102 0 -162.5 55t-60.5 156v404h111v-398q0 -65 29.5 -95.5t82.5 -30.5t84.5 30.5t31.5 95.5v398h110v-404q0 -101 -58.5 -156t-167.5 -55zM191 731q0 19 7.5 36t20 29.5t29 19.5t35.5 7t35.5 -7t29 -19.5t19.5 -29.5t7 -36q0 -38 -26.5 -64.5t-64.5 -26.5 t-65 26.5t-27 64.5zM242 731q0 -17 12 -28.5t29 -11.5t28.5 11.5t11.5 28.5t-11.5 29t-28.5 12t-29 -12t-12 -29z" />
<glyph unicode="&#x16f;" horiz-adv-x="501" d="M249 -5q-93 0 -143.5 51.5t-50.5 135.5v300h107v-293q0 -52 23.5 -79.5t63.5 -27.5q38 0 61.5 27.5t23.5 79.5v293h108v-300q0 -84 -50 -135.5t-143 -51.5zM158 623q0 19 7.5 36t20 29.5t29 19.5t35.5 7t35.5 -7t29 -19.5t19.5 -29.5t7 -36q0 -38 -26.5 -64.5 t-64.5 -26.5t-65 26.5t-27 64.5zM209 623q0 -17 12 -28.5t29 -11.5t28.5 11.5t11.5 28.5t-11.5 29t-28.5 12t-29 -12t-12 -29z" />
<glyph unicode="&#x170;" horiz-adv-x="558" d="M282 -6q-102 0 -162.5 55t-60.5 156v404h111v-398q0 -65 29.5 -95.5t82.5 -30.5t84.5 30.5t31.5 95.5v398h110v-404q0 -101 -58.5 -156t-167.5 -55zM183 643l75 116h67l-84 -116h-58zM295 643l75 116h67l-84 -116h-58z" />
<glyph unicode="&#x171;" horiz-adv-x="501" d="M249 -5q-93 0 -143.5 51.5t-50.5 135.5v300h107v-293q0 -52 23.5 -79.5t63.5 -27.5q38 0 61.5 27.5t23.5 79.5v293h108v-300q0 -84 -50 -135.5t-143 -51.5zM143 553l75 116h67l-84 -116h-58zM255 553l75 116h67l-84 -116h-58z" />
<glyph unicode="&#x172;" horiz-adv-x="558" d="M508 205q0 -94 -50 -147.5t-144 -61.5q-11 -13 -22 -30.5t-11 -34.5q0 -21 21 -21q12 0 32 9l6 -29q-8 -8 -22 -13.5t-28 -5.5q-23 0 -41 15t-18 39q0 22 12 38.5t28 30.5q-98 3 -155 57.5t-57 153.5v404h111v-398q0 -65 29.5 -95.5t82.5 -30.5t84.5 30.5t31.5 95.5v398 h110v-404v0z" />
<glyph unicode="&#x173;" horiz-adv-x="501" d="M249 -5q-93 0 -143.5 51.5t-50.5 135.5v300h107v-293q0 -52 23.5 -79.5t63.5 -27.5q38 0 61.5 27.5t23.5 79.5v293h108v-300q0 -60 -25.5 -104t-74.5 -66q-35 -18 -48 -40.5t-13 -40.5q0 -21 21 -21q12 0 32 9l6 -29q-8 -8 -22 -13.5t-28 -5.5q-23 0 -41 15t-18 39 q0 23 13 40.5t30 31.5q-6 -1 -12.5 -1.5t-12.5 -0.5z" />
<glyph unicode="&#x174;" horiz-adv-x="922" d="M847 205q0 -100 -58.5 -155.5t-168.5 -55.5q-26 0 -51 4.5t-47 14t-40 25t-28 37.5q-21 -45 -67.5 -63t-103.5 -18q-51 0 -92.5 14.5t-70.5 41.5t-45 66t-16 89v404h111v-398q0 -64 29.5 -95t83.5 -31q52 0 83.5 31t31.5 95v398h111v-398q0 -64 29.5 -95t81.5 -31 q54 0 85 31t31 95v398h111v-404zM501 641l-47 70l-47 -70h-71l90 131h57l89 -131h-71z" />
<glyph unicode="&#x175;" horiz-adv-x="816" d="M727 482v-300q0 -84 -50 -135.5t-143 -51.5q-21 0 -42.5 5.5t-40 16.5t-33 28t-23.5 40q-17 -47 -56.5 -68.5t-85.5 -21.5q-43 0 -79 13.5t-61.5 38t-39.5 59t-14 76.5v300h107v-293q0 -52 24 -79.5t63 -27.5t63 27.5t24 79.5v293h107v-293q0 -52 23.5 -79.5t63.5 -27.5 q38 0 61.5 27.5t23.5 79.5v293h108zM441 551l-47 70l-47 -70h-71l90 131h57l89 -131h-71z" />
<glyph unicode="&#x176;" horiz-adv-x="550" d="M500 166q0 -83 -56.5 -127.5t-170.5 -44.5q-45 0 -82 8t-65 19q-33 12 -59 28l38 87q25 -15 53 -26q24 -10 54 -17.5t61 -7.5q61 0 88.5 21.5t27.5 63.5v31q-24 -19 -53.5 -27.5t-71.5 -8.5q-99 0 -156 53t-57 157v234h111v-227q0 -66 29.5 -96.5t82.5 -30.5q26 0 47 4.5 t36 15.5t23.5 30.5t8.5 49.5v254h111v-443zM319 641l-47 70l-47 -70h-71l90 131h57l89 -131h-71z" />
<glyph unicode="&#x177;" horiz-adv-x="505" d="M447 482v-468q0 -81 -48.5 -124t-151.5 -43q-40 0 -71 8.5t-53 19.5q-26 12 -46 28l36 81q19 -14 41 -25q19 -9 43 -16.5t50 -7.5q46 0 69.5 24.5t23.5 77.5q-15 -21 -38.5 -31.5t-58.5 -10.5q-43 0 -77 13.5t-58 38t-36.5 59t-12.5 76.5v300h107v-293q0 -52 23.5 -79.5 t63.5 -27.5q46 0 66 21t20 62v317h108zM297 551l-47 70l-47 -70h-71l90 131h57l89 -131h-71z" />
<glyph unicode="&#x178;" horiz-adv-x="550" d="M500 166q0 -83 -56.5 -127.5t-170.5 -44.5q-45 0 -82 8t-65 19q-33 12 -59 28l38 87q25 -15 53 -26q24 -10 54 -17.5t61 -7.5q61 0 88.5 21.5t27.5 63.5v31q-24 -19 -53.5 -27.5t-71.5 -8.5q-99 0 -156 53t-57 157v234h111v-227q0 -66 29.5 -96.5t82.5 -30.5q26 0 47 4.5 t36 15.5t23.5 30.5t8.5 49.5v254h111v-443zM349 646q-24 0 -41.5 17t-17.5 41t17.5 42t40.5 18q24 0 41.5 -18t17.5 -41q0 -25 -17.5 -42t-40.5 -17zM200 646q-24 0 -41.5 17t-17.5 41t17.5 42t41.5 18q25 0 41.5 -18t16.5 -41q0 -25 -16.5 -42t-41.5 -17z" />
<glyph unicode="&#x179;" horiz-adv-x="542" d="M150 90h331v-90h-380q-35 0 -56 20.5t-21 47.5q0 23 19 46l318 404h-325v91h374q36 0 56.5 -20.5t20.5 -47.5q0 -22 -19 -47zM304 782h89l-95 -131h-78z" />
<glyph unicode="&#x17a;" horiz-adv-x="431" d="M139 88h238v-88h-286q-35 0 -55 20t-20 46q0 21 18 45l224 283h-234v88h280q34 0 55 -20t21 -46q0 -21 -18 -45zM244 692h89l-95 -131h-78z" />
<glyph unicode="&#x17b;" horiz-adv-x="542" d="M150 90h331v-90h-380q-35 0 -56 20.5t-21 47.5q0 23 19 46l318 404h-325v91h374q36 0 56.5 -20.5t20.5 -47.5q0 -22 -19 -47zM257 641q-24 0 -41.5 17t-17.5 41t17.5 42t41.5 18q25 0 41.5 -18t16.5 -41q0 -25 -16.5 -42t-41.5 -17z" />
<glyph unicode="&#x17c;" horiz-adv-x="431" d="M139 88h238v-88h-286q-35 0 -55 20t-20 46q0 21 18 45l224 283h-234v88h280q34 0 55 -20t21 -46q0 -21 -18 -45zM202 551q-24 0 -41.5 17t-17.5 41t17.5 42t41.5 18q25 0 41.5 -18t16.5 -41q0 -25 -16.5 -42t-41.5 -17z" />
<glyph unicode="&#x17d;" horiz-adv-x="542" d="M150 90h331v-90h-380q-35 0 -56 20.5t-21 47.5q0 23 19 46l318 404h-325v91h374q36 0 56.5 -20.5t20.5 -47.5q0 -22 -19 -47zM218 772l47 -70l47 70h71l-90 -131h-57l-89 131h71z" />
<glyph unicode="&#x17e;" horiz-adv-x="431" d="M139 88h238v-88h-286q-35 0 -55 20t-20 46q0 21 18 45l224 283h-234v88h280q34 0 55 -20t21 -46q0 -21 -18 -45zM156 682l47 -70l47 70h71l-90 -131h-57l-89 131h71z" />
<glyph unicode="&#x17f;" horiz-adv-x="258" d="M240 568q-38 0 -52.5 -26.5t-14.5 -82.5v-459h-108v395h-40v87h40q5 87 46.5 129.5t128.5 42.5q50 0 111 -26l-37 -82q-43 22 -74 22z" />
<glyph unicode="&#x192;" horiz-adv-x="346" d="M312 293h-123l-35 -248q-8 -53 -29.5 -90t-50 -62t-60.5 -40t-59 -24l-36 85q21 6 42 16.5t38.5 26t30 37t16.5 49.5l35 250h-74v87h85l4 24q14 97 61 145.5t139 48.5q50 0 106 -28l-40 -79q-21 11 -39.5 15.5t-32.5 4.5q-41 0 -60 -27.5t-27 -85.5l-2 -18h113z" />
<glyph unicode="&#x218;" horiz-adv-x="531" d="M314 350q41 -4 75 -14.5t58 -30.5t37 -51t13 -75q0 -85 -62.5 -135t-171.5 -50q-72 0 -127 18.5t-97 52.5l46 98q35 -35 81 -56t95 -21q125 0 125 93q0 35 -18 55t-60 23l-75 6q-91 8 -139 50.5t-48 120.5q0 39 15 72t43.5 57t68 37t89.5 13q55 0 109.5 -16t90.5 -38 l-41 -90q-37 26 -78 40.5t-81 14.5q-51 0 -78 -24.5t-27 -65.5q0 -36 22.5 -55.5t62.5 -22.5l72 -6v0zM194.199 -141.999q5.59961 6.39941 11.5996 18.3994t7.59961 20.7998q-11.999 6.39941 -20.7988 19.1992t-8.7998 26.3994q0 21.6006 14.3994 36.4004 q14.3994 14.7988 35.1992 14.7988q21.5996 0 36 -15.1992q14.3994 -15.2002 14.3994 -41.5996q0 -25.5996 -18.3994 -52.7988q-18.4004 -27.2002 -46.3994 -45.5996z" />
<glyph unicode="&#x219;" d="M284 284q33 -3 61.5 -10.5t49 -23t32.5 -40.5t12 -63q0 -71 -55.5 -111.5t-149.5 -40.5q-110 0 -195 66l41 85q39 -33 76.5 -48.5t75.5 -15.5q100 0 100 65q0 46 -55 50l-71 6q-159 13 -159 137q0 68 50.5 107.5t136.5 39.5q42 0 86.5 -13.5t83.5 -36.5l-35 -78 q-37 24 -71.5 33t-63.5 9q-80 0 -80 -61q0 -43 60 -49l70 -7v0zM173.199 -141.999q5.59961 6.39941 11.5996 18.3994t7.59961 20.7998q-11.999 6.39941 -20.7988 19.1992t-8.7998 26.3994q0 21.6006 14.3994 36.4004q14.3994 14.7988 35.1992 14.7988q21.5996 0 36 -15.1992 q14.3994 -15.2002 14.3994 -41.5996q0 -25.5996 -18.3994 -52.7988q-18.4004 -27.2002 -46.3994 -45.5996z" />
<glyph unicode="&#x2c6;" horiz-adv-x="502" d="M282 551l-47 70l-47 -70h-71l90 131h57l89 -131h-71z" />
<glyph unicode="&#x2c7;" horiz-adv-x="500" d="M187 682l47 -70l47 70h71l-90 -131h-57l-89 131h71z" />
<glyph unicode="&#x2d8;" horiz-adv-x="500" d="M201 663q0 -22 11.5 -36t37.5 -14t37.5 14t11.5 36h66q0 -45 -27.5 -76.5t-87.5 -31.5t-87.5 31.5t-27.5 76.5h66z" />
<glyph unicode="&#x2d9;" horiz-adv-x="339" d="M177 551q-24 0 -41.5 17t-17.5 41t17.5 42t41.5 18q25 0 41.5 -18t16.5 -41q0 -25 -16.5 -42t-41.5 -17z" />
<glyph unicode="&#x2da;" horiz-adv-x="476" d="M144 623q0 19 7.5 36t20 29.5t29 19.5t35.5 7t35.5 -7t29 -19.5t19.5 -29.5t7 -36q0 -38 -26.5 -64.5t-64.5 -26.5t-65 26.5t-27 64.5zM195 623q0 -17 12 -28.5t29 -11.5t28.5 11.5t11.5 28.5t-11.5 29t-28.5 12t-29 -12t-12 -29z" />
<glyph unicode="&#x2db;" horiz-adv-x="500" d="M268 0q-11 -13 -24 -32t-13 -37q0 -21 21 -21q12 0 32 9l6 -29q-8 -8 -22 -13.5t-28 -5.5q-23 0 -41 15t-18 39t15 42.5t32 32.5h40z" />
<glyph unicode="&#x2dc;" horiz-adv-x="500" d="M104 613q13 10 28 19q13 7 30 13t37 6q18 0 31 -5.5t24 -12t22 -12t26 -5.5q11 0 23 4.5t23 10.5t23 15l24 -53q-13 -11 -29 -19q-14 -7 -31 -12.5t-35 -5.5t-30.5 5.5t-24 11.5t-22.5 11.5t-26 5.5q-11 0 -23 -5t-22 -10q-11 -7 -23 -15z" />
<glyph unicode="&#x2dd;" horiz-adv-x="500" d="M123 553l75 116h67l-84 -116h-58zM235 553l75 116h67l-84 -116h-58z" />
<glyph unicode="&#x2013;" horiz-adv-x="407" d="M407 196h-407v86h407v-86v0z" />
<glyph unicode="&#x2014;" horiz-adv-x="707" d="M707 196h-707v86h707v-86v0z" />
<glyph unicode="&#x2018;" horiz-adv-x="186" d="M112 403q-35 23 -58 57t-23 66q0 33 18 52t45 19q26 0 44 -18.5t18 -45.5q0 -17 -11 -33t-26 -24q2 -11 9.5 -26t14.5 -23z" />
<glyph unicode="&#x2019;" horiz-adv-x="186" d="M44 427q7 8 14.5 23t9.5 26q-15 8 -26 24t-11 33q0 27 18 45.5t44 18.5q27 0 45 -19t18 -52q0 -32 -23 -66t-58 -57z" />
<glyph unicode="&#x201a;" horiz-adv-x="214" d="M64 -50q7 8 14.5 23t9.5 26q-15 8 -26 24t-11 33q0 27 18 45.5t44 18.5q27 0 45 -19t18 -52q0 -32 -23 -66t-58 -57z" />
<glyph unicode="&#x201c;" horiz-adv-x="329" d="M255 403q-35 23 -58 57t-23 66q0 33 18 52t45 19q26 0 44 -18.5t18 -45.5q0 -17 -11 -33t-26 -24q2 -11 9.5 -26t14.5 -23zM112 403q-35 23 -58 57t-23 66q0 33 18 52t45 19q26 0 44 -18.5t18 -45.5q0 -17 -11 -33t-26 -24q2 -11 9.5 -26t14.5 -23z" />
<glyph unicode="&#x201d;" horiz-adv-x="329" d="M44 427q7 8 14.5 23t9.5 26q-15 8 -26 24t-11 33q0 27 18 45.5t44 18.5q27 0 45 -19t18 -52q0 -32 -23 -66t-58 -57zM187 427q7 8 14.5 23t9.5 26q-15 8 -26 24t-11 33q0 27 18 45.5t44 18.5q27 0 45 -19t18 -52q0 -32 -23 -66t-58 -57z" />
<glyph unicode="&#x201e;" horiz-adv-x="314" d="M36 -50q7 8 14.5 23t9.5 26q-15 8 -26 24t-11 33q0 27 18 45.5t44 18.5q27 0 45 -19t18 -52q0 -32 -23 -66t-58 -57zM179 -50q7 8 14.5 23t9.5 26q-15 8 -26 24t-11 33q0 27 18 45.5t44 18.5q27 0 45 -19t18 -52q0 -32 -23 -66t-58 -57z" />
<glyph unicode="&#x2020;" horiz-adv-x="398" d="M373 354l-130 4l5 -392h-100l4 392l-131 -4v87l131 -4l-4 153h101l-6 -153l130 4v-87z" />
<glyph unicode="&#x2021;" horiz-adv-x="398" d="M373 354l-129 4l4 -71l-4 -76l129 5v-88l-130 5l5 -167h-100l4 167l-131 -5v88l130 -5l-3 76l3 71l-130 -4v87l131 -4l-4 153h101l-6 -153l130 4v-87z" />
<glyph unicode="&#x2022;" horiz-adv-x="231" d="M116 135q-35 0 -60.5 25.5t-25.5 60.5q0 18 7 33.5t18.5 27.5t27 18.5t32.5 6.5t32.5 -6.5t27.5 -18t19 -27t7 -33.5t-7 -33.5t-18.5 -27.5t-27 -19t-32.5 -7z" />
<glyph unicode="&#x2026;" horiz-adv-x="570" d="M113 -5q-26 0 -44.5 18.5t-18.5 43.5q0 27 18.5 45t43.5 18q26 0 44.5 -18t18.5 -44t-18.5 -44.5t-43.5 -18.5zM285 -5q-26 0 -44.5 18.5t-18.5 43.5q0 27 18.5 45t43.5 18q26 0 45 -18t19 -44t-19 -44.5t-44 -18.5zM457 -5q-25 0 -43.5 18.5t-18.5 43.5q0 27 18.5 45 t42.5 18q27 0 45.5 -18t18.5 -44t-18.5 -44.5t-44.5 -18.5z" />
<glyph unicode="&#x2030;" horiz-adv-x="987" d="M384 121q0 27 10 50t27 40.5t40 27.5t50 10q26 0 49 -10t40 -27.5t27 -40.5t10 -50q0 -26 -10 -49t-27 -40.5t-40 -27.5t-49 -10q-27 0 -50 10t-40 27.5t-27 40.5t-10 49zM440 121q0 -29 20.5 -49.5t50.5 -20.5q29 0 49.5 20.5t20.5 49.5t-20.5 50t-49.5 21 q-30 0 -50.5 -21t-20.5 -50zM175 -44l-49 32l387 600l50 -31zM304 422q0 -26 -10 -49.5t-27.5 -40.5t-40.5 -27t-49 -10t-49 10t-40 27t-27 40.5t-10 49.5q0 27 10 50t27 40t40 26.5t49 9.5t49 -9.5t40.5 -26.5t27.5 -40t10 -50zM248 422q0 29 -21 50t-50 21t-49.5 -21 t-20.5 -50t20.5 -50t49.5 -21t50 21t21 50zM673 121q0 27 9.5 50t26.5 40.5t40 27.5t50 10q26 0 49 -10t40.5 -27.5t27.5 -40.5t10 -50q0 -26 -10 -49t-27.5 -40.5t-40.5 -27.5t-49 -10q-27 0 -50 10t-40 27.5t-26.5 40.5t-9.5 49zM728 121q0 -29 21 -49.5t50 -20.5t50 20.5 t21 49.5t-21 50t-50 21t-50 -21t-21 -50z" />
<glyph unicode="&#x2039;" horiz-adv-x="229" d="M187 325l-78 -87l78 -87l-31 -45l-94 93q-8 8 -14 19.5t-6 19.5q0 20 20 39l93 93z" />
<glyph unicode="&#x203a;" horiz-adv-x="228" d="M73 370l93 -93q20 -19 20 -39q0 -8 -6 -19.5t-14 -19.5l-94 -93l-31 45l78 87l-78 87z" />
<glyph unicode="&#x2044;" horiz-adv-x="718" d="M596 541l-383 -593l-81 51l382 593z" />
<glyph unicode="&#x20ac;" horiz-adv-x="526" d="M410 193h-198q10 -60 38 -85.5t81 -25.5q37 0 70 10.5t67 35.5l20 -87q-18 -12 -34 -21t-34 -14.5t-39.5 -8t-49.5 -2.5q-104 0 -158.5 47t-69.5 151h-62l15 75h42v23h-55l14 77h46q15 102 70 146.5t158 44.5q49 0 86 -13t71 -39l-24 -87q-31 29 -65.5 40.5t-67.5 11.5 q-97 0 -118 -104h232l-15 -77h-223v-23h218z" />
<glyph unicode="&#x2122;" horiz-adv-x="363" d="M152 542h-52v-149h-34v149h-53v31h139v-31zM282 442q-3 -10 -9.5 -15.5t-20.5 -5.5q-13 0 -19.5 5.5t-10.5 15.5l-22 65v-114h-37v155q0 11 7 19t22 8q21 0 28 -23l32 -96l32 95q6 24 29 24q13 0 20 -8t7 -19v-155h-37v108z" />
<glyph unicode="&#x2126;" horiz-adv-x="776" d="M0 -123l1 849h775v-849h-776zM360 522h-4q-2 0 -4 0.5t-4 0.5q-8 1 -11 3t-7 4q-5 2 -6 -1t0 -5t5.5 -4.5t7.5 -4.5q2 -1 6.5 -1t9.5 -1q6 -1 13 -1zM131 595q-2 -26 2 -48t9 -39q6 -19 15 -35q1 3 7 9.5t12.5 13.5t13.5 13.5t11 9.5q2 2 5.5 2h6.5h7v-40q-3 1 -13 3 h-6.5t-7.5 -1t-9 -2l-4 -7q7 1 14 -1q3 -1 5 -3q0 -2 2 -7t4 -6q1 -1 8 -1q3 0 7 -1v-5q-6 -1 -13.5 -5t-9.5 -6q-4 -4 -8 -10q-2 -3 -3 -6l-2 -9l3 -3q1 2 3 4t2.5 3t2.5 2q5 4 8 0.5t5 -4.5t4.5 1.5l4.5 4.5q1 1 2 1h1v-136q-9 2 -17 0t-10 -4q-2 -1 -4 -5q-1 -2 -2 -3 q2 1 8.5 1.5t8.5 -1.5q2 -1 4.5 -7t3.5 -7t5 -1h3v-8q0 -3 0.5 -5.5t0.5 -3.5t-2 -2.5t-4 -3.5q-4 -4 -6 -13q-2 -4 -2 -9l3 -7q1 1 2 3q1 1 1 2t1 2q1 2 2 3l2 2t2 1v-43h15v44q2 -1 3 -1h3q1 0 3 4t4.5 8.5t4 8.5t2.5 4h2q1 0 1.5 -0.5t2.5 -0.5q3 -1 5 -1l5 -20h4l99 139 l7 -7l-41 -57q5 -6 8.5 -10t5.5 -9q4 -10 6.5 -20.5t3.5 -11.5q0 -2 -2 -3q-4 -2 -11.5 -7t-15 -11t-13 -10.5t-6.5 -4.5q-3 -2 -9.5 -7.5t-8.5 -9.5q-3 -8 -4.5 -21t-2 -26t-0.5 -23t1 -13q0 -5 4 -9q2 -3 4 -4q-1 -1 -2 -1q-1 -1 -2 -1t-2 -1q-3 -2 -9 -8.5t-8 -8.5 q-3 -4 -9 -10.5t-12 -12.5t-11 -10.5t-6 -4.5h-6.5t-5.5 1q-3 0 -5 1v15q-1 2 -1 5t-2 5q-2 3 -4 7.5t-3 5.5t-3 2.5t-4 3.5q-3 2 -7 4l-9 -1q1 0 4 -3t5 -6q1 -2 1 -5v-2q-3 -2 -4.5 -5.5t-1.5 -5.5q0 -1 7 -8q3 -4 7 -8l-2 -2q-1 -1 -2 -1q-1 -1 -5.5 2t-8.5 5l-5 2h-2 q-1 0 -7 -1.5t-8 -1.5q-1 -1 -3.5 -2t-4.5 -3q-3 -2 -6 -5v-7l6 3q2 2 10 2q2 0 2 -1t1 -2q4 -8 8 -10q1 -1 4.5 -0.5t7.5 1.5t9 2l3 -4q-7 -2 -10.5 -6.5t-4.5 -6.5t2 -7q1 -3 3 -5v-1q0 -2 -2.5 -4t-4.5 -4q-3 -3 -6 -4q0 -1 1 -1h3h3h2q5 2 8.5 3t6.5 3q2 2 3.5 4t3.5 4 l4 4q0 2 1 5l2 6q1 5 13 2q5 -1 6 -4q0 -1 0.5 -2t0.5 -3q0 -3 2 -7q1 -2 1 -4h3l8 10q3 4 5.5 7t4.5 4q1 1 11.5 8.5t21.5 15.5l30 22q6 -2 13 2q6 3 11 8q3 3 5 6q-1 2 -1 5q0 2 -0.5 4.5t-0.5 4.5q0 8 1.5 11l3.5 7q2 5 7 10.5t7 7.5l2 1q1 0 2 1l-8 10q-3 4 -6 7.5 t-5 5.5q-5 6 -4.5 12t1.5 10q10 34 15 54.5t6 23.5q0 1 -0.5 4.5t-0.5 6.5v8l10 -7v-15q0 -2 -1.5 -8t-3.5 -13t-3.5 -13t-2.5 -9q-4 -16 -7.5 -28.5t-1.5 -17.5q2 -4 7 -10.5t11 -12.5t11 -10.5t8 -5.5q4 -2 14 -2.5t20.5 -0.5h19.5h11q26 -3 31 -5t7 -4q1 -1 5 -5.5 t8.5 -10t9 -10l6.5 -6.5q4 -4 9 -10t9 -12q4 -7 9 -15l-12 -3q-8 8 -14 12l-9 6q-8 5 -16 3t-10 -2q-5 0 -9 -4l-3 -3q5 1 9.5 0t6.5 -3t2.5 -6t2.5 -5q1 -1 8 -1h7v-5v-1q-2 0 -10 -0.5t-11 -2.5q-4 -1 -5 -2.5t-4 -3.5q-2 -2 -4 -5l-4 -6q-3 -4 -4 -8l3 -6q1 2 7.5 7 t6.5 4q2 -3 6 -4.5t6 -1.5q3 1 6 3.5t6 5.5l7 7l5 -2q-2 -1 -3 -3t-2 -3t-1 -2q-6 -7 -4 -17q0 -5 2 -11q1 -1 1.5 -1t1.5 -1t2 -1q-2 2 -1 5.5t3 5.5l4 6q5 -2 8.5 -1t4.5 2q2 2 4 13q1 4 1 11l23 7l30 -6l1 5l-4 5q-6 9 -8 12.5t-4 7.5q-3 7 -9.5 18.5l-13 23t-11 20.5 l-4.5 9q-1 1 0 4t0 6t-6.5 10.5t-10.5 11.5t-10 4.5t-6 1.5q-13 7 -22 14t-11 9q-2 3 -7 9t-10.5 11.5t-10.5 10t-6 6.5q-2 2 -6 5.5t-9 7.5l-12 10l11 4q6 -5 11 -9t8 -7.5t5 -4.5q8 -5 17 -11t13 -9q34 -21 50.5 -25t18.5 -4q25 -2 35.5 6.5t12.5 10.5q6 8 10.5 24 t-9.5 38q-2 2 -5.5 8.5t-8.5 12.5q-5 7 -11 16l43 25v6l-17 -5q-4 0 -8 1q-3 1 -6.5 1t-5.5 1h-4h-1l-12 -3l-1 6l57 31l2 7q-5 -2 -9 -3t-7.5 -2t-4.5 -1q-2 0 -9.5 1t-12.5 2q-3 1 -6 1q-1 0 -2 -1l-14 -3l1 5l67 36l1 7l-21 -5l-10 2q-2 0 -3.5 0.5t-3.5 0.5h-3 q-1 0 -3 -0.5t-4 -0.5q-3 -1 -6 -1h-1h-1q0 1 3.5 6.5t8 11.5t8.5 11t5 6q8 9 15 20t9 13q10 16 12.5 29t2 22.5t-3.5 15t-4 7.5q-8 13 -18 19.5t-20 8t-17 0.5t-9 -2q-13 -4 -20 -12t-10.5 -15.5t-4.5 -14t-1 -7.5q0 -4 -4 -8q-7 -9 -15 -23q-4 -8 -8 -17h3t4 1q1 2 7.5 8 t8.5 8t2 -0.5t-1 -4.5q-2 -12 -7.5 -21t-8.5 -13q-5 -7 -9 -15.5t-8 -16.5q-4 -10 -9 -20l6 1q5 7 14.5 15.5t19 16t17 12.5t8.5 5q3 3 3.5 9.5t-0.5 12.5l-2 16l7 -3q1 -2 2 -7l2 -10v-13q0 -4 -1 -7l6 5q1 1 3 7.5t3.5 15t1.5 18t-3 17.5q-1 2 -4.5 5t-7.5 5q-4 3 -10 5 q-2 8 2.5 14.5t6.5 8.5q10 8 19.5 8.5t17 -2.5t13 -9t7.5 -11q6 -12 4 -24t-7.5 -22.5t-11.5 -18t-8 -9.5q-8 -7 -18.5 -17l-21 -20t-18.5 -18l-10 -10q-12 -14 -16.5 -25.5t-4 -19.5t3.5 -14l5 -10q3 -5 10.5 -13.5t16.5 -17.5t17.5 -16.5t12.5 -10.5q10 -9 17 -18.5 t8 -14.5q4 -14 0 -22t-11.5 -12.5t-16 -5.5t-13.5 0q-12 3 -25.5 11t-26 16.5t-22 15.5t-12.5 9q-12 7 -19 10.5t-11 4.5t-6 1t-2 2q-2 8 -2.5 24.5t-1.5 33.5q-1 19 -1 42q-1 2 1 1l4 -2q5 -2 5 -1q0 2 -0.5 10.5t1.5 10.5q2 5 5.5 12.5t5.5 12.5q10 21 17 37t9 26 q1 6 1 13v13q0 7 -1 14q3 2 7.5 9t4.5 8q1 2 1 9t-1 8q-2 2 -5 2.5t-4 0.5l-1 1h-2l22 32q-2 1 -6 1q-3 0 -7 -2q-2 -1 -3 -2q-3 5 -6 5.5t-4 0.5q-8 -2 -8 -6v-5q2 -6 7 -5t6 0v-1l-7 -7l-29 6q-1 2 -1 4v4v1q1 0 3 -1t4 -1q4 -1 6 2t2 5q0 7 -6 9q-3 1 -5 0q0 5 -3 6.5 t-4 1.5q-5 1 -8 -2q-2 -2 -2 -4q-1 0 -2 1q-1 0 -1 1q-6 2 -8.5 -2t-1.5 -6q0 -9 6 -9q3 -1 6 1l1 -1l-5 -7l-29 5l-3 10l1 1q0 -3 4 -3q6 -1 7.5 2l2.5 5q0 5 -3 7.5t-6 2.5q-4 0 -8 -1q-5 5 -8 5h-3l8 -38q-7 -6 -11 -11t-7.5 -8.5t-3.5 -4.5q-1 -1 1 -8q1 -4 2 -7l9 -13 l-7 -11l40 -5l-5 -13q-14 -3 -25 -6q-10 -2 -19 -5t-12 -5q-11 -8 -18.5 -16.5t-13.5 -16.5q-2 -3 -5 -12t-6.5 -20.5t-8.5 -23.5t-10 -21h24l-45 -90l-7 2q1 1 1.5 11.5t0.5 11.5q0 2 -1.5 8.5t-1.5 7.5q-1 2 -7 10q-3 4 -6 7l-7 1q2 -3 3.5 -8t2.5 -8q1 -4 -1 -5.5 t-4 -3.5q-1 -2 -1 -4v-2l7 -18l-5 -1q-2 3 -5 6q-1 1 -2 1v156l10 -5l-5 -9l16 -3l35 -32l15 37l-37 20l-5 9l-11 -2l-4 4q5 5 9.5 11t5.5 8q1 5 1 7v7q1 5 -0.5 9.5t-2.5 6.5q-2 2 -4.5 5t-1.5 1q0 -5 -2 -13q-1 -4 -2 -7q-1 -1 -2 -1t-1.5 -0.5t-2.5 -0.5q-2 -1 -3 -2 l-1 -1l-3 -19l-5 5v48h9v32h-9v13h-14v-13h-18q-11 2 -22 8t-21 12.5t-17.5 13t-10.5 8.5zM419 516l2 -10l-36 4l-2 11zM383 538l-1 9l14 13l75 -13h1q1 0 1 -1l-6 -4l-6 -4l-15 5q-15 5 -32 5q1 -2 1 -5q0 -5 -9 -8q-2 -1 -8 -1t-6 8zM470 533l1 1q2 0 4 2t4 2q1 0 2 -0.5 t2 -0.5q1 -1 2 -1v-4v-2q-2 -5 -4 -7l-3 -3q-2 8 -4.5 10t-3.5 2v1zM323 397q5 10 9 19q4 8 8 13.5t7 7.5q6 2 11.5 4t19.5 5l-3 -10q-6 -1 -11 -2t-8.5 -2.5t-5.5 -2.5q-2 -2 -4.5 -7t-5.5 -10.5t-5 -10l-2 -4.5h-10zM234 250v9h3h4h2v-3q0 -1 1 -2z" />
<glyph unicode="&#x2206;" horiz-adv-x="572" d="M329 621l213 -621h-512l213 621h86zM162 86h247l-123 362z" />
<glyph unicode="&#x2211;" horiz-adv-x="459" d="M189 86h231v-86h-391l165 310l-165 311h391v-86h-231l120 -225z" />
<glyph unicode="&#x2212;" horiz-adv-x="398" d="M51 196v86h298v-86h-298z" />
<glyph unicode="&#x221a;" horiz-adv-x="440" d="M165 282l60 -179q45 128 90 260t87 258h103l-235 -690h-89l-90 265h-80v86h154z" />
<glyph unicode="&#x221e;" horiz-adv-x="776" d="M366 512q-7 0 -13 1q-5 1 -9.5 1t-6.5 1q-3 2 -7.5 4.5t-5.5 4.5t0 5t6 1q4 -2 7 -4t11 -3q2 0 4 -0.5t4 -0.5h4zM131 595q3 -2 10.5 -8.5t17.5 -13t21 -12.5t22 -8h18v13h14v-13h9v-32h-9v-48l5 -5l3 19l1 1q1 1 3 2q2 0 2.5 0.5t1.5 0.5t2 1q1 3 2 7q2 8 2 13 q-1 2 1.5 -1t4.5 -5q1 -2 2.5 -6.5t0.5 -9.5v-7t-1 -7q-1 -2 -5.5 -8t-9.5 -11l4 -4l11 2l5 -9l37 -20l-15 -37l-35 32l-16 3l5 9l-10 5v-156q1 0 2 -1q3 -3 5 -6l5 1l-7 18v2q0 2 1 4q2 2 4 3.5t1 5.5q-1 3 -2.5 8t-3.5 8l7 -1q3 -3 6 -7q6 -8 7 -10q0 -1 1.5 -7.5 t1.5 -8.5q0 -1 -0.5 -11.5t-1.5 -11.5l7 -2l45 90h-24q5 9 10 21t8.5 23.5t6.5 20.5t5 12q6 8 13.5 16.5t18.5 16.5q3 2 12 5t19 5q11 3 25 6l5 13l-40 5l7 11l-9 13q-1 3 -2 7q-2 7 -1 8q0 1 3.5 4.5t7.5 8.5t11 11l-8 38h3q3 0 8 -5q4 1 8 1q3 0 6 -2.5t3 -7.5l-2.5 -5 t-7.5 -2q-4 0 -4 3l-1 -1l3 -10l29 -5l5 7l-1 1q-3 -2 -6 -1q-6 0 -6 9q-1 2 1.5 6t8.5 2q0 -1 1 -1q1 -1 2 -1q0 2 2 4q3 3 8 2q1 0 4 -1.5t3 -6.5q2 1 5 0q6 -2 6 -9q0 -2 -2 -5t-6 -2q-2 0 -4 1t-3 1v-1v-4q0 -2 1 -4l29 -6l7 7v1q-1 1 -6 0t-7 5v5t8 6q1 0 4 -0.5 t6 -5.5q1 1 3 2q4 2 7 2q4 0 6 -1l-22 -32h2l1 -1q1 0 4 -0.5t5 -2.5q1 -1 1 -8t-1 -9q0 -1 -4.5 -8t-7.5 -9q1 -7 1 -14v-13t-1 -13q-2 -10 -9 -26t-17 -37q-2 -5 -5.5 -12.5t-5.5 -12.5q-2 -2 -1.5 -10.5t0.5 -10.5q0 -1 -5 1l-4 2t-1 -1q0 -23 1 -42q1 -17 1.5 -33.5 t2.5 -24.5q0 -2 2 -2t6 -1t11 -4.5t19 -10.5q3 -2 12.5 -9t22 -15.5t26 -16.5t25.5 -11q5 -1 13.5 0t16 5.5t11.5 12.5t0 22q-1 5 -8 14.5t-17 18.5q-4 3 -12.5 10.5t-17.5 16.5t-16.5 17.5t-10.5 13.5l-5 10t-3.5 14t4 19.5t16.5 25.5l10 10t18.5 18l21 20t18.5 17 q2 2 8 9.5t11.5 18t7.5 22.5t-4 24q-2 5 -7.5 11t-13 9t-17 2.5t-19.5 -8.5q-2 -2 -6.5 -8.5t-2.5 -14.5q6 -2 10 -5q4 -2 7.5 -5t4.5 -5q3 -8 3 -17.5t-1.5 -18t-3.5 -15t-3 -7.5l-6 -5q1 3 1 7v13l-2 10t-2 7l-7 3l2 -16q1 -6 0.5 -12.5t-3.5 -9.5q-1 0 -8.5 -5t-17 -12.5 t-19 -16t-14.5 -15.5l-6 -1q5 10 9 20q4 8 8 16.5t9 15.5q3 4 8.5 13t7.5 21q1 2 1 4.5t-2 0.5t-8.5 -8t-7.5 -8q-2 -1 -4 -1h-3q4 9 8 17q8 14 15 23q4 4 4 8q0 1 1 7.5t4.5 14t10.5 15.5t20 12q2 1 9 2t17 -0.5t20 -8t18 -19.5q1 -2 4 -7.5t3.5 -15t-2 -22.5t-12.5 -29 q-2 -2 -9 -13t-15 -20q-1 -1 -5 -6t-8.5 -11t-8 -11.5t-3.5 -6.5h1h1q3 0 6 1q2 0 4 0.5t3 0.5h3q2 0 3.5 -0.5t3.5 -0.5l10 -2l21 5l-1 -7l-67 -36l-1 -5l14 3q1 1 2 1q3 0 6 -1q5 -1 12.5 -2t9.5 -1q1 0 4.5 1t7.5 2t9 3l-2 -7l-57 -31l1 -6l12 3h1h4q2 -1 5.5 -1t6.5 -1 q4 -1 8 -1l17 5v-6l-43 -25q6 -9 11 -16q5 -6 8.5 -12.5t5.5 -8.5q14 -22 9.5 -38t-10.5 -24q-2 -2 -12.5 -10.5t-35.5 -6.5q-2 0 -18.5 4t-50.5 25q-4 3 -13 9t-17 11q-2 1 -5 4.5t-8 7.5t-11 9l-11 -4l12 -10q5 -4 9 -7.5t6 -5.5q1 -2 6 -6.5t10.5 -10t10.5 -11.5t7 -9 q2 -2 11 -9t22 -14q1 -1 6 -1.5t10 -4.5t10.5 -11.5t6.5 -10.5t0 -6t0 -4l4.5 -9t11 -20.5l13 -23t9.5 -18.5q2 -4 4 -7.5t8 -12.5l4 -5l-1 -5l-30 6l-23 -7q0 -7 -1 -11q-2 -11 -4 -13q-1 -1 -4.5 -2t-8.5 1l-4 -6q-2 -2 -3 -5.5t1 -5.5q-1 0 -2 1t-1.5 1t-1.5 1 q-2 6 -2 11q-2 10 4 17q0 1 1 2t2 3t3 3l-5 2l-7 -7q-3 -3 -6 -5.5t-6 -3.5q-2 0 -6 1.5t-6 4.5q0 1 -6.5 -4t-7.5 -7l-3 6q1 4 4 8l4 6t4 5q3 2 4 3.5t5 2.5q3 2 11 2.5t10 0.5v1v5h-7q-7 0 -8 1q-2 1 -2.5 5t-2.5 6t-6.5 3t-9.5 0l3 3q4 4 9 4q2 0 10 2t16 -3l9 -6t14 -12 l12 3q-5 8 -9 15q-4 6 -9 12t-9 10l-6.5 6.5t-9 10t-8.5 10t-5 5.5q-2 2 -7 4t-31 5h-11h-19.5t-20.5 0.5t-14 2.5q-3 1 -8 5.5t-11 10.5t-11 12.5t-7 10.5q-2 5 1.5 17.5t7.5 28.5q1 3 2.5 9t3.5 13t3.5 13t1.5 8v15l-10 7v-8q0 -3 0.5 -6.5t0.5 -4.5q-1 -3 -6 -23.5 t-15 -54.5q-1 -4 -1.5 -10t4.5 -12q2 -2 5 -5.5t6 -7.5l8 -10q-1 -1 -2 -1l-2 -1q-2 -2 -7 -7.5t-7 -10.5l-3.5 -7t-1.5 -11q0 -2 0.5 -4.5t0.5 -4.5q0 -3 1 -5q-2 -3 -5 -6q-5 -5 -11 -8q-7 -4 -13 -2l-30 -22q-11 -8 -21.5 -15.5t-11.5 -8.5q-2 -1 -4.5 -4t-5.5 -7l-8 -10 h-3q0 2 -1 4q-2 4 -2 7q0 2 -0.5 3t-0.5 2q-1 3 -6 4q-12 3 -13 -2l-2 -6q-1 -3 -1 -5l-4 -4q-2 -2 -3.5 -4t-3.5 -4q-3 -2 -6.5 -3t-8.5 -3h-2h-3h-3q-1 0 -1 1q3 1 6 4q2 2 4.5 4t2.5 4v1q-2 2 -3 5q-3 5 -2 7t4.5 6.5t10.5 6.5l-3 4q-5 -1 -9 -2t-7.5 -1.5t-4.5 0.5 q-4 2 -8 10q-1 1 -1 2t-2 1q-8 0 -10 -2l-6 -3v7q3 3 6 5q2 2 4.5 3t3.5 2q2 0 8 1.5t7 1.5h2l5 -2q4 -2 8.5 -5t5.5 -2q1 0 2 1l2 2q-4 4 -7 8q-7 7 -7 8q0 2 1.5 5.5t4.5 5.5v2q0 3 -1 5q-2 3 -5 6t-4 3l9 1q4 -2 7 -4q2 -2 4 -3.5t3 -2.5t3 -5.5t4 -7.5q2 -2 2 -5t1 -5 v-15q2 -1 5 -1q2 -1 5.5 -1h6.5q1 0 6 4.5t11 10.5t12 12.5t9 10.5q2 2 8 8.5t9 8.5q1 1 2 1t2 1q1 0 2 1q-2 1 -4 4q-4 4 -4 9q-1 3 -1 13t0.5 23t2 26t4.5 21q2 4 8.5 9.5t9.5 7.5q1 0 6.5 4.5t13 10.5t15 11t11.5 7q2 1 2 3q-1 1 -3.5 11.5t-6.5 20.5q-2 5 -5.5 9 t-8.5 10l41 57l-7 7l-99 -139h-4l-5 20q-2 0 -5 1q-2 0 -2.5 0.5t-1.5 0.5h-2q-1 0 -2.5 -4t-4 -8.5t-4.5 -8.5t-3 -4h-3q-1 0 -3 1v-44h-15v43q-1 0 -2 -1l-2 -2t-2 -3q-1 -1 -1 -2t-1 -2q-1 -2 -2 -3l-3 7q0 5 2 9q2 9 6 13q2 2 4 3.5t2 2.5t-0.5 3.5t-0.5 5.5v8h-3 q-4 0 -5 1t-3.5 7t-4.5 7q-2 2 -8.5 1.5t-8.5 -1.5q1 1 2 3q2 4 4 5q2 2 10 4t17 0v136h-1q-1 0 -2 -1l-4.5 -4.5t-4.5 -1.5t-5 4.5t-8 -0.5q-2 -1 -2.5 -2t-2.5 -3t-3 -4l-3 3l2 9q1 3 3 6q4 6 8 10q2 2 9.5 6t13.5 5v5q-4 1 -7 1q-7 0 -8 1q-2 1 -4 6t-2 7q-2 2 -5 3 q-7 2 -14 1l4 7q5 1 9 2t7.5 1h6.5q10 -2 13 -3v40h-7h-6.5t-5.5 -2q-4 -3 -11 -9.5t-13.5 -13.5t-12.5 -13.5t-7 -9.5q-9 16 -15 35q-5 17 -9 39t-2 48zM383 521l2 -11l36 -4l-2 10zM392 542q0 -8 6 -8t8 1q9 3 9 8q0 3 -1 5q17 0 32 -5l15 -5l6 4l6 4q0 1 -1 1h-1l-75 13 l-14 -13l1 -9zM470 532q1 0 3.5 -2t4.5 -10l3 3q2 2 4 7v2v4q-1 0 -2 1q-1 0 -2 0.5t-2 0.5q-2 0 -4 -2t-4 -2l-1 -1v-1zM333 397l2 4.5t5 10t5.5 10.5t4.5 7q2 1 5.5 2.5t8.5 2.5t11 2l3 10q-14 -3 -19.5 -5t-11.5 -4q-3 -2 -7 -7.5t-8 -13.5q-4 -9 -9 -19h10zM244 254 q-1 1 -1 2v3h-2h-4h-3v-9z" />
<glyph unicode="&#x2248;" horiz-adv-x="500" d="M69 177q15 11 33 20q16 8 38 14.5t50 6.5q22 0 36.5 -5t27.5 -11.5t25.5 -11.5t29.5 -5t33.5 4t28.5 9q14 6 26 14l34 -70q-16 -12 -34 -21q-16 -8 -38 -14t-49 -6q-23 0 -37.5 5t-26.5 11.5t-24.5 11.5t-30.5 5t-34 -4.5t-28 -9.5q-14 -6 -26 -13zM69 314q15 11 33 20 q16 8 38 14.5t50 6.5q22 0 36.5 -5t27.5 -11.5t25.5 -11.5t29.5 -5t33.5 4t28.5 9q14 6 26 14l34 -70q-16 -12 -34 -21q-16 -8 -38 -14t-49 -6q-23 0 -37.5 5t-26.5 11.5t-24.5 11.5t-30.5 5t-34 -4.5t-28 -9.5q-14 -6 -26 -13z" />
<glyph unicode="&#x2260;" horiz-adv-x="437" d="M377 251h-107l-17 -25h124v-73h-170l-57 -88l-60 39l31 49h-61v73h108l17 25h-125v74h170l54 82l62 -39l-28 -43h59v-74z" />
<glyph unicode="&#x2264;" horiz-adv-x="398" d="M337 60h-277v74h277v-74zM337 372l-168 -69l168 -70v-80l-277 116v67l277 118v-82z" />
<glyph unicode="&#x2265;" horiz-adv-x="398" d="M337 60h-277v74h277v-74zM60 454l277 -118v-67l-277 -116v80l168 70l-168 69v82z" />
<glyph unicode="&#x25ca;" horiz-adv-x="488" d="M33 310l167 311h88l167 -311l-167 -310h-88zM340 311l-96 178l-96 -180l96 -178z" />
<glyph unicode="&#xe000;" horiz-adv-x="480" d="M0 480h480v-480h-480v480z" />
<glyph unicode="&#xfb01;" horiz-adv-x="460" d="M257 568q-38 0 -58.5 -20.5t-25.5 -65.5h91v-87h-92v-395h-108v395h-39v87h40q5 88 55.5 130t136.5 42q42 0 78 -16t66 -44l-41 -76q-32 30 -56 40t-47 10zM398 -8q-58 12 -82.5 47.5t-24.5 95.5v347h107v-356q0 -19 8.5 -32t28.5 -23z" />
<glyph unicode="&#xfb02;" horiz-adv-x="460" d="M291 560q-8 3 -17 5.5t-17 2.5q-38 0 -59 -20.5t-25 -65.5h91v-87h-92v-395h-108v395h-39v87h40q5 88 55.5 130t136.5 42q42 0 77 -16t64 -40v-472q0 -19 8.5 -32t28.5 -23l-37 -79q-58 12 -82.5 47.5t-24.5 95.5v425z" />
<glyph horiz-adv-x="940" d="M843 399v-180q0 -51 -29.5 -81.5t-84.5 -30.5q-54 0 -82 31q-31 -31 -85 -31q-53 0 -86 36q-30 -36 -87 -36q-29 0 -52 10t-37 27q-14 -17 -36 -27t-48 -10q-17 0 -31.5 2t-27.5 10v-96h-61v231q0 72 27.5 109.5t87.5 37.5q58 0 89 -37q14 17 37 27t52 10q60 0 90.5 -38 t30.5 -109v-31q0 -30 14 -46t38 -16t38.5 16t14.5 46v176h62v-176q0 -30 14 -46t38 -16t38.5 16t14.5 46v176h61zM212 161q18 0 29.5 8t17.5 21t8 30t2 34t-2 34t-8.5 30t-18 21t-29.5 8q-19 0 -30 -8t-16 -21t-6.5 -30t-1.5 -34t2 -34t8 -30t16.5 -21t28.5 -8zM389 161 q31 0 45.5 24t14.5 69t-14.5 69t-45.5 24q-32 0 -45.5 -24t-13.5 -69t13.5 -69t45.5 -24z" />
</font>
</defs>
</svg>
